# FILE HCR 519.obj
mtllib HCR 519.mtl
trace_obj HCR 519.obj
shadow_obj HCR 519.obj

g Конструктив_-_Стены_Несущие Кирпич_-_Красный FLAT_PART

usemtl Кирпич_-_Красный

v 0 0 -100
v 150 9.54098e-15 -100
v 150 8.67362e-15 -103.267
v 0 0 -103.267
v 0 0 -104.765
v 150 8.67362e-15 -104.765
v 150 8.67362e-15 -108
v 0 -8.67362e-16 -108
v 0 -8.67362e-16 -108
v 150 8.67362e-15 -108
v 150 -6.80388 -108
v 0 -6.80388 -108
v 0 -8.99433 -113.739
v 150 -8.99433 -113.739
v 150 -8.99433 -164.525
v 0 -8.99433 -164.525
v 0 -8.51752 -165.002
v 150 -8.51752 -165.002
v 150 5.20417e-15 -165.002
v 0 -4.33681e-15 -165.002
v 0 -4.33681e-15 -165.002
v 150 5.20417e-15 -165.002
v 150 5.20417e-15 -168.254
v 0 -4.33681e-15 -168.254
v 0 -4.33681e-15 -169.799
v 150 5.20417e-15 -169.799
v 150 4.33681e-15 -173.002
v 0 -4.33681e-15 -173.002
v 0 -4.33681e-15 -173.002
v 150 4.33681e-15 -173.002
v 150 -8.51752 -173.002
v 0 -8.51752 -173.002
v 0 -8.99433 -173.609
v 150 -8.99433 -173.609
v 150 -8.99433 -178
v 0 -8.99433 -178
v 0 -8.99433 -178
v 0 -13 -178
v 0 -13 -113.8
v 0 -12.7334 -111.213
v 0 -11.9915 -108.719
v 0 -10.8002 -106.407
v 0 -9.20066 -104.356
v 0 -7.24849 -102.637
v 0 -5.01138 -101.31
v 0 -2.56694 -100.42
v 0 0 -100
v 0 0 -103.267
v 0 -0.279774 -103.33
v 0 -0.515244 -103.494
v 0 -0.671907 -103.735
v 0 -0.726809 -104.016
v 0 -0.671907 -104.298
v 0 -0.515244 -104.538
v 0 -0.279774 -104.702
v 0 0 -104.765
v 0 -8.67362e-16 -108
v 0 -6.80388 -108
v 0 -6.95169 -108.038
v 0 -7.08615 -108.11
v 0 -7.19952 -108.213
v 0 -7.28527 -108.339
v 0 -8.02194 -109.573
v 0 -8.56004 -110.906
v 0 -8.88676 -112.305
v 0 -8.99433 -113.739
v 0 -8.99433 -164.525
v 0 -8.95616 -164.717
v 0 -8.85214 -164.869
v 0 -8.69811 -164.969
v 0 -8.51752 -165.002
v 0 -4.33681e-15 -165.002
v 0 -4.33681e-15 -168.254
v 0 -0.521558 -168.493
v 0 -0.734461 -169.027
v 0 -0.521558 -169.56
v 0 -4.33681e-15 -169.799
v 0 -4.33681e-15 -173.002
v 0 -8.51752 -173.002
v 0 -8.72285 -173.064
v 0 -8.88678 -173.203
v 0 -8.9825 -173.395
v 0 -8.99433 -173.609
v 150 -13 -113.8
v 150 -13 -178
v 150 -8.99433 -178
v 150 -8.99433 -173.609
v 150 -8.9825 -173.395
v 150 -8.88678 -173.203
v 150 -8.72285 -173.064
v 150 -8.51752 -173.002
v 150 4.33681e-15 -173.002
v 150 5.20417e-15 -169.799
v 150 -0.521558 -169.56
v 150 -0.734461 -169.027
v 150 -0.521558 -168.493
v 150 5.20417e-15 -168.254
v 150 5.20417e-15 -165.002
v 150 -8.51752 -165.002
v 150 -8.69811 -164.969
v 150 -8.85214 -164.869
v 150 -8.95616 -164.717
v 150 -8.99433 -164.525
v 150 -8.99433 -113.739
v 150 -8.88676 -112.305
v 150 -8.56004 -110.906
v 150 -8.02194 -109.573
v 150 -7.28527 -108.339
v 150 -7.19952 -108.213
v 150 -7.08615 -108.11
v 150 -6.95169 -108.038
v 150 -6.80388 -108
v 150 8.67362e-15 -108
v 150 8.67362e-15 -104.765
v 150 -0.279774 -104.702
v 150 -0.515244 -104.538
v 150 -0.671907 -104.298
v 150 -0.726809 -104.016
v 150 -0.671907 -103.735
v 150 -0.515244 -103.494
v 150 -0.279774 -103.33
v 150 8.67362e-15 -103.267
v 150 9.54098e-15 -100
v 150 -2.56694 -100.42
v 150 -5.01138 -101.31
v 150 -7.24849 -102.637
v 150 -9.20066 -104.356
v 150 -10.8002 -106.407
v 150 -11.9915 -108.719
v 150 -12.7334 -111.213
v 0 -8.99433 -178
v 150 -8.99433 -178
v 150 -13 -178
v 0 -13 -178
v 0 -13 -178
v 150 -13 -178
v 150 -13 -113.8
v 0 -13 -113.8
# индексы вершин с 1 по 138

s off
vt 5.33248e-34 -0.166667
vt 0.213333 -0.166667
vt 0.213333 -0.172112
vt 5.5067e-34 -0.172112
# индексы вершин текстуры с 1 по 4

f  1/1 2/2 3/3 4/4
vt 5.58659e-34 -0.174609
vt 0.213333 -0.174609
vt 0.213333 -0.18
vt 5.00373e-34 -0.18
# индексы вершин текстуры с 5 по 8

f  5/5 6/6 7/7 8/8
vt 5.00373e-34 -9.57622e-18
vt 0.213333 -1.01698e-17
vt 0.213333 0.0113398
vt -5.92523e-19 0.0113398
# индексы вершин текстуры с 9 по 12

f  8/9 7/10 11/11 12/12
vt -7.8328e-19 -0.189564
vt 0.213333 -0.189564
vt 0.213333 -0.274209
vt -7.8328e-19 -0.274209
# индексы вершин текстуры с 13 по 16

f  13/13 14/14 15/15 16/16
vt -7.41756e-19 0.0141959
vt 0.213333 0.0141959
vt 0.213333 -1.02046e-17
vt 5.02195e-34 -9.6111e-18
# индексы вершин текстуры с 17 по 20

f  17/17 18/18 19/19 20/20
vt 5.02195e-34 -0.275004
vt 0.213333 -0.275004
vt 0.213333 -0.280423
vt 5.19534e-34 -0.280423
# индексы вершин текстуры с 21 по 24

f  20/21 19/22 23/23 24/24
vt 5.27777e-34 -0.282999
vt 0.213333 -0.282999
vt 0.213333 -0.288337
vt 5.44855e-34 -0.288337
# индексы вершин текстуры с 25 по 28

f  25/25 26/26 27/27 28/28
vt 5.44855e-34 -1.04275e-17
vt 0.213333 -9.57548e-18
vt 0.213333 0.0141959
vt -7.41756e-19 0.0141959
# индексы вершин текстуры с 29 по 32

f  28/29 27/30 31/31 32/32
vt -7.8328e-19 -0.289348
vt 0.213333 -0.289348
vt 0.213333 -0.296667
vt -7.8328e-19 -0.296667
# индексы вершин текстуры с 33 по 36

f  33/33 34/34 35/35 36/36
vt 0.00712729 -0.16885
vt 0.00365076 -0.167367
vt -8.7086e-18 -0.166667
vt 0.010309 -0.171061
vt 0.00712729 -0.16885
vt -8.7086e-18 -0.166667
vt 0.010309 -0.171061
vt -8.7086e-18 -0.166667
vt -8.99312e-18 -0.172112
vt 0.010309 -0.171061
vt -8.99312e-18 -0.172112
vt 0.000397901 -0.172217
vt 0.010309 -0.171061
vt 0.000397901 -0.172217
vt 0.000732791 -0.172491
vt 0.010309 -0.171061
vt 0.000732791 -0.172491
vt 0.000955601 -0.172891
vt 0.010309 -0.171061
vt 0.000955601 -0.172891
vt 0.00103368 -0.17336
vt 0.010309 -0.171061
vt 0.00103368 -0.17336
vt 0.000955601 -0.17383
vt 0.0130854 -0.173926
vt 0.010309 -0.171061
vt 0.000955601 -0.17383
vt 0.0130854 -0.173926
vt 0.000955601 -0.17383
vt 0.000732791 -0.17423
vt 0.0130854 -0.173926
vt 0.000732791 -0.17423
vt 0.000397901 -0.174503
vt 0.0130854 -0.173926
vt 0.000397901 -0.174503
vt -9.12359e-18 -0.174609
vt 0.0153602 -0.177345
vt 0.0130854 -0.173926
vt -9.12359e-18 -0.174609
vt 0.0153602 -0.177345
vt -9.12359e-18 -0.174609
vt -8.17171e-18 -0.18
vt 0.0153602 -0.177345
vt -8.17171e-18 -0.18
vt 0.00967663 -0.18
vt 0.0153602 -0.177345
vt 0.00967663 -0.18
vt 0.00988684 -0.180064
vt 0.0153602 -0.177345
vt 0.00988684 -0.180064
vt 0.0100781 -0.180184
vt 0.0153602 -0.177345
vt 0.0100781 -0.180184
vt 0.0102393 -0.180354
vt 0.0153602 -0.177345
vt 0.0102393 -0.180354
vt 0.0103613 -0.180565
vt 0.0170546 -0.181199
vt 0.0153602 -0.177345
vt 0.0103613 -0.180565
vt 0.0170546 -0.181199
vt 0.0103613 -0.180565
vt 0.011409 -0.182622
vt 0.0170546 -0.181199
vt 0.011409 -0.182622
vt 0.0121743 -0.184843
vt 0.0181097 -0.185354
vt 0.0170546 -0.181199
vt 0.0121743 -0.184843
vt 0.0181097 -0.185354
vt 0.0121743 -0.184843
vt 0.0126389 -0.187176
vt 0.0181097 -0.185354
vt 0.0126389 -0.187176
vt 0.0127919 -0.189564
vt 0.0184889 -0.189667
vt 0.0181097 -0.185354
vt 0.0127919 -0.189564
vt 0.0184889 -0.189667
vt 0.0127919 -0.189564
vt 0.0127919 -0.274209
vt 0.0121138 -0.275004
vt -8.20147e-18 -0.275004
vt -8.48464e-18 -0.280423
vt 0.0123707 -0.274948
vt 0.0121138 -0.275004
vt -8.48464e-18 -0.280423
vt 0.0123707 -0.274948
vt -8.48464e-18 -0.280423
vt 0.000741772 -0.280822
vt 0.0123707 -0.274948
vt 0.000741772 -0.280822
vt 0.00104457 -0.281711
vt 0.0123707 -0.274948
vt 0.00104457 -0.281711
vt 0.000741772 -0.282599
vt -8.61925e-18 -0.282999
vt -8.89816e-18 -0.288337
vt 0.0121138 -0.288337
vt 0.000741772 -0.282599
vt -8.61925e-18 -0.282999
vt 0.0121138 -0.288337
vt 0.0123707 -0.274948
vt 0.000741772 -0.282599
vt 0.0121138 -0.288337
vt 0.0125897 -0.274781
vt 0.0123707 -0.274948
vt 0.0121138 -0.288337
vt 0.0127377 -0.274529
vt 0.0125897 -0.274781
vt 0.0121138 -0.288337
vt 0.0127919 -0.274209
vt 0.0127377 -0.274529
vt 0.0121138 -0.288337
vt 0.0184889 -0.189667
vt 0.0127919 -0.274209
vt 0.0121138 -0.288337
vt 0.0184889 -0.189667
vt 0.0121138 -0.288337
vt 0.0124058 -0.28844
vt 0.0184889 -0.189667
vt 0.0124058 -0.28844
vt 0.012639 -0.288671
vt 0.0184889 -0.189667
vt 0.012639 -0.288671
vt 0.0127751 -0.288991
vt 0.0184889 -0.189667
vt 0.0127751 -0.288991
vt 0.0127919 -0.289348
vt 0.0184889 -0.296667
vt 0.0184889 -0.189667
vt 0.0127919 -0.289348
vt 0.0184889 -0.296667
vt 0.0127919 -0.289348
vt 0.0127919 -0.296667
# индексы вершин текстуры с 37 по 171

f  45/37 46/38 1/39
f  44/40 45/41 1/42
f  44/43 1/44 4/45
f  44/46 4/47 49/48
f  44/49 49/50 50/51
f  44/52 50/53 51/54
f  44/55 51/56 52/57
f  44/58 52/59 53/60
f  43/61 44/62 53/63
f  43/64 53/65 54/66
f  43/67 54/68 55/69
f  43/70 55/71 5/72
f  42/73 43/74 5/75
f  42/76 5/77 8/78
f  42/79 8/80 12/81
f  42/82 12/83 59/84
f  42/85 59/86 60/87
f  42/88 60/89 61/90
f  42/91 61/92 62/93
f  41/94 42/95 62/96
f  41/97 62/98 63/99
f  41/100 63/101 64/102
f  40/103 41/104 64/105
f  40/106 64/107 65/108
f  40/109 65/110 13/111
f  39/112 40/113 13/114
f  39/115 13/116 16/117
f  17/118 20/119 24/120
f  70/121 17/122 24/123
f  70/124 24/125 74/126
f  70/127 74/128 75/129
f  70/130 75/131 76/132
f  25/133 28/134 32/135
f  76/136 25/137 32/138
f  70/139 76/140 32/141
f  69/142 70/143 32/144
f  68/145 69/146 32/147
f  16/148 68/149 32/150
f  39/151 16/152 32/153
f  39/154 32/155 80/156
f  39/157 80/158 81/159
f  39/160 81/161 82/162
f  39/163 82/164 33/165
f  38/166 39/167 33/168
f  38/169 33/170 36/171
vt -9.21509e-18 -0.166667
vt 0.00365076 -0.167367
vt 0.00712729 -0.16885
vt -9.21509e-18 -0.166667
vt 0.00712729 -0.16885
vt 0.010309 -0.171061
vt -8.26603e-18 -0.172112
vt -9.21509e-18 -0.166667
vt 0.010309 -0.171061
vt 0.000397901 -0.172217
vt -8.26603e-18 -0.172112
vt 0.010309 -0.171061
vt 0.000732791 -0.172491
vt 0.000397901 -0.172217
vt 0.010309 -0.171061
vt 0.000955601 -0.172891
vt 0.000732791 -0.172491
vt 0.010309 -0.171061
vt 0.00103368 -0.17336
vt 0.000955601 -0.172891
vt 0.010309 -0.171061
vt 0.000955601 -0.17383
vt 0.00103368 -0.17336
vt 0.010309 -0.171061
vt 0.000955601 -0.17383
vt 0.010309 -0.171061
vt 0.0130854 -0.173926
vt 0.000732791 -0.17423
vt 0.000955601 -0.17383
vt 0.0130854 -0.173926
vt 0.000397901 -0.174503
vt 0.000732791 -0.17423
vt 0.0130854 -0.173926
vt -8.3965e-18 -0.174609
vt 0.000397901 -0.174503
vt 0.0130854 -0.173926
vt -8.3965e-18 -0.174609
vt 0.0130854 -0.173926
vt 0.0153602 -0.177345
vt -8.6782e-18 -0.18
vt -8.3965e-18 -0.174609
vt 0.0153602 -0.177345
vt 0.00967663 -0.18
vt -8.6782e-18 -0.18
vt 0.0153602 -0.177345
vt 0.00988684 -0.180064
vt 0.00967663 -0.18
vt 0.0153602 -0.177345
vt 0.0100781 -0.180184
vt 0.00988684 -0.180064
vt 0.0153602 -0.177345
vt 0.0102393 -0.180354
vt 0.0100781 -0.180184
vt 0.0153602 -0.177345
vt 0.0103613 -0.180565
vt 0.0102393 -0.180354
vt 0.0153602 -0.177345
vt 0.0103613 -0.180565
vt 0.0153602 -0.177345
vt 0.0170546 -0.181199
vt 0.011409 -0.182622
vt 0.0103613 -0.180565
vt 0.0170546 -0.181199
vt 0.0121743 -0.184843
vt 0.011409 -0.182622
vt 0.0170546 -0.181199
vt 0.0121743 -0.184843
vt 0.0170546 -0.181199
vt 0.0181097 -0.185354
vt 0.0126389 -0.187176
vt 0.0121743 -0.184843
vt 0.0181097 -0.185354
vt 0.0127919 -0.189564
vt 0.0126389 -0.187176
vt 0.0181097 -0.185354
vt 0.0127919 -0.189564
vt 0.0181097 -0.185354
vt 0.0184889 -0.189667
vt 0.0127919 -0.274209
vt 0.0127919 -0.189564
vt 0.0184889 -0.189667
vt -8.99113e-18 -0.280423
vt -8.70797e-18 -0.275004
vt 0.0121138 -0.275004
vt -8.99113e-18 -0.280423
vt 0.0121138 -0.275004
vt 0.0123707 -0.274948
vt 0.000741772 -0.280822
vt -8.99113e-18 -0.280423
vt 0.0123707 -0.274948
vt 0.00104457 -0.281711
vt 0.000741772 -0.280822
vt 0.0123707 -0.274948
vt 0.000741772 -0.282599
vt 0.00104457 -0.281711
vt 0.0123707 -0.274948
vt 0.0121138 -0.288337
vt -8.17107e-18 -0.288337
vt -9.12574e-18 -0.282999
vt 0.0121138 -0.288337
vt -9.12574e-18 -0.282999
vt 0.000741772 -0.282599
vt 0.0121138 -0.288337
vt 0.000741772 -0.282599
vt 0.0123707 -0.274948
vt 0.0121138 -0.288337
vt 0.0123707 -0.274948
vt 0.0125897 -0.274781
vt 0.0121138 -0.288337
vt 0.0125897 -0.274781
vt 0.0127377 -0.274529
vt 0.0121138 -0.288337
vt 0.0127377 -0.274529
vt 0.0127919 -0.274209
vt 0.0121138 -0.288337
vt 0.0127919 -0.274209
vt 0.0184889 -0.189667
vt 0.0124058 -0.28844
vt 0.0121138 -0.288337
vt 0.0184889 -0.189667
vt 0.012639 -0.288671
vt 0.0124058 -0.28844
vt 0.0184889 -0.189667
vt 0.0127751 -0.288991
vt 0.012639 -0.288671
vt 0.0184889 -0.189667
vt 0.0127919 -0.289348
vt 0.0127751 -0.288991
vt 0.0184889 -0.189667
vt 0.0127919 -0.296667
vt 0.0127919 -0.289348
vt 0.0184889 -0.296667
vt 0.0184889 -0.296667
vt 0.0127919 -0.289348
vt 0.0184889 -0.189667
# индексы вершин текстуры с 172 по 306

f  2/172 124/173 125/174
f  2/175 125/176 126/177
f  3/178 2/179 126/180
f  121/181 3/182 126/183
f  120/184 121/185 126/186
f  119/187 120/188 126/189
f  118/190 119/191 126/192
f  117/193 118/194 126/195
f  117/196 126/197 127/198
f  116/199 117/200 127/201
f  115/202 116/203 127/204
f  6/205 115/206 127/207
f  6/208 127/209 128/210
f  7/211 6/212 128/213
f  11/214 7/215 128/216
f  111/217 11/218 128/219
f  110/220 111/221 128/222
f  109/223 110/224 128/225
f  108/226 109/227 128/228
f  108/229 128/230 129/231
f  107/232 108/233 129/234
f  106/235 107/236 129/237
f  106/238 129/239 130/240
f  105/241 106/242 130/243
f  14/244 105/245 130/246
f  14/247 130/248 84/249
f  15/250 14/251 84/252
f  23/253 19/254 18/255
f  23/256 18/257 100/258
f  96/259 23/260 100/261
f  95/262 96/263 100/264
f  94/265 95/266 100/267
f  31/268 27/269 26/270
f  31/271 26/272 94/273
f  31/274 94/275 100/276
f  31/277 100/278 101/279
f  31/280 101/281 102/282
f  31/283 102/284 15/285
f  31/286 15/287 84/288
f  90/289 31/290 84/291
f  89/292 90/293 84/294
f  88/295 89/296 84/297
f  34/298 88/299 84/300
f  35/301 34/302 85/303
f  85/304 34/305 84/306
vt -7.8328e-19 0.0149905
vt 0.213333 0.0149905
vt 0.213333 0.0216667
vt -1.13212e-18 0.0216667
# индексы вершин текстуры с 307 по 310

f  36/307 35/308 85/309 38/310
vt -1.13212e-18 -0.296667
vt 0.213333 -0.296667
vt 0.213333 -0.189667
vt -1.13212e-18 -0.189667
# индексы вершин текстуры с 311 по 314

f  38/311 85/312 84/313 39/314

g Конструктив_-_Стены_Несущие Кирпич_-_Красный SMOOTH_PART

usemtl Кирпич_-_Красный

v 0 -12.7334 -111.213
v 150 -12.7334 -111.213
v 150 -11.9915 -108.719
v 0 -11.9915 -108.719
v 0 -11.9915 -108.719
v 150 -11.9915 -108.719
v 150 -10.8002 -106.407
v 0 -10.8002 -106.407
v 0 -10.8002 -106.407
v 150 -10.8002 -106.407
v 150 -9.20066 -104.356
v 0 -9.20066 -104.356
v 0 -9.20066 -104.356
v 150 -9.20066 -104.356
v 150 -7.24849 -102.637
v 0 -7.24849 -102.637
v 0 -7.24849 -102.637
v 150 -7.24849 -102.637
v 150 -5.01138 -101.31
v 0 -5.01138 -101.31
v 0 -5.01138 -101.31
v 150 -5.01138 -101.31
v 150 -2.56694 -100.42
v 0 -2.56694 -100.42
v 0 -2.56694 -100.42
v 150 -2.56694 -100.42
v 150 9.54098e-15 -100
v 0 0 -100
v 0 0 -103.267
v 150 8.67362e-15 -103.267
v 150 -0.279774 -103.33
v 0 -0.279774 -103.33
v 0 -0.279774 -103.33
v 150 -0.279774 -103.33
v 150 -0.515244 -103.494
v 0 -0.515244 -103.494
v 0 -0.515244 -103.494
v 150 -0.515244 -103.494
v 150 -0.671907 -103.735
v 0 -0.671907 -103.735
v 0 -0.671907 -103.735
v 150 -0.671907 -103.735
v 150 -0.726809 -104.016
v 0 -0.726809 -104.016
v 0 -0.726809 -104.016
v 150 -0.726809 -104.016
v 150 -0.671907 -104.298
v 0 -0.671907 -104.298
v 0 -0.671907 -104.298
v 150 -0.671907 -104.298
v 150 -0.515244 -104.538
v 0 -0.515244 -104.538
v 0 -0.515244 -104.538
v 150 -0.515244 -104.538
v 150 -0.279774 -104.702
v 0 -0.279774 -104.702
v 0 -0.279774 -104.702
v 150 -0.279774 -104.702
v 150 8.67362e-15 -104.765
v 0 0 -104.765
v 0 -6.80388 -108
v 150 -6.80388 -108
v 150 -6.95169 -108.038
v 0 -6.95169 -108.038
v 0 -6.95169 -108.038
v 150 -6.95169 -108.038
v 150 -7.08615 -108.11
v 0 -7.08615 -108.11
v 0 -7.08615 -108.11
v 150 -7.08615 -108.11
v 150 -7.19952 -108.213
v 0 -7.19952 -108.213
v 0 -7.19952 -108.213
v 150 -7.19952 -108.213
v 150 -7.28527 -108.339
v 0 -7.28527 -108.339
v 0 -7.28527 -108.339
v 150 -7.28527 -108.339
v 150 -8.02194 -109.573
v 0 -8.02194 -109.573
v 0 -8.02194 -109.573
v 150 -8.02194 -109.573
v 150 -8.56004 -110.906
v 0 -8.56004 -110.906
v 0 -8.56004 -110.906
v 150 -8.56004 -110.906
v 150 -8.88676 -112.305
v 0 -8.88676 -112.305
v 0 -8.88676 -112.305
v 150 -8.88676 -112.305
v 150 -8.99433 -113.739
v 0 -8.99433 -113.739
v 0 -8.99433 -164.525
v 150 -8.99433 -164.525
v 150 -8.95616 -164.717
v 0 -8.95616 -164.717
v 0 -8.95616 -164.717
v 150 -8.95616 -164.717
v 150 -8.85214 -164.869
v 0 -8.85214 -164.869
v 0 -8.85214 -164.869
v 150 -8.85214 -164.869
v 150 -8.69811 -164.969
v 0 -8.69811 -164.969
v 0 -8.69811 -164.969
v 150 -8.69811 -164.969
v 150 -8.51752 -165.002
v 0 -8.51752 -165.002
v 0 -4.33681e-15 -168.254
v 150 5.20417e-15 -168.254
v 150 -0.521558 -168.493
v 0 -0.521558 -168.493
v 0 -0.521558 -168.493
v 150 -0.521558 -168.493
v 150 -0.734461 -169.027
v 0 -0.734461 -169.027
v 0 -0.734461 -169.027
v 150 -0.734461 -169.027
v 150 -0.521558 -169.56
v 0 -0.521558 -169.56
v 0 -0.521558 -169.56
v 150 -0.521558 -169.56
v 150 5.20417e-15 -169.799
v 0 -4.33681e-15 -169.799
v 0 -8.51752 -173.002
v 150 -8.51752 -173.002
v 150 -8.72285 -173.064
v 0 -8.72285 -173.064
v 0 -8.72285 -173.064
v 150 -8.72285 -173.064
v 150 -8.88678 -173.203
v 0 -8.88678 -173.203
v 0 -8.88678 -173.203
v 150 -8.88678 -173.203
v 150 -8.9825 -173.395
v 0 -8.9825 -173.395
v 0 -8.9825 -173.395
v 150 -8.9825 -173.395
v 150 -8.99433 -173.609
v 0 -8.99433 -173.609
v 0 -13 -113.8
v 150 -13 -113.8
v 150 -12.7334 -111.213
v 0 -12.7334 -111.213
# индексы вершин с 139 по 282

vn 6.00606e-17 -0.980863 0.194698
vn 6.00606e-17 -0.980863 0.194698
vn 5.68077e-17 -0.92774 0.373227
vn 5.68077e-17 -0.92774 0.373227
vn 5.68077e-17 -0.92774 0.373227
vn 5.68077e-17 -0.92774 0.373227
vn 5.15839e-17 -0.842429 0.538807
vn 5.15839e-17 -0.842429 0.538807
vn 5.15839e-17 -0.842429 0.538807
vn 5.15839e-17 -0.842429 0.538807
vn 4.45704e-17 -0.72789 0.685694
vn 4.45704e-17 -0.72789 0.685694
vn 4.45704e-17 -0.72789 0.685694
vn 4.45704e-17 -0.72789 0.685694
vn 3.60106e-17 -0.588097 0.80879
vn 3.60106e-17 -0.588097 0.80879
vn 3.60106e-17 -0.588097 0.80879
vn 3.60106e-17 -0.588097 0.80879
vn 2.62014e-17 -0.427901 0.903826
vn 2.62014e-17 -0.427901 0.903826
vn 2.62014e-17 -0.427901 0.903826
vn 2.62014e-17 -0.427901 0.903826
vn 1.54831e-17 -0.252858 0.967503
vn 1.54831e-17 -0.252858 0.967503
vn 1.54831e-17 -0.252858 0.967503
vn 1.54831e-17 -0.252858 0.967503
vn 9.89839e-18 -0.161653 0.986848
vn 9.89839e-18 -0.161653 0.986848
vn -1.3527e-17 0.220912 -0.975294
vn -1.3527e-17 0.220912 -0.975294
vn -2.47066e-17 0.40349 -0.914984
vn -2.47066e-17 0.40349 -0.914984
vn -2.47066e-17 0.40349 -0.914984
vn -2.47066e-17 0.40349 -0.914984
vn -4.3946e-17 0.717693 -0.696359
vn -4.3946e-17 0.717693 -0.696359
vn -4.3946e-17 0.717693 -0.696359
vn -4.3946e-17 0.717693 -0.696359
vn -5.67464e-17 0.92674 -0.375704
vn -5.67464e-17 0.92674 -0.375704
vn -5.67464e-17 0.92674 -0.375704
vn -5.67464e-17 0.92674 -0.375704
vn -6.12323e-17 1 -5.65567e-17
vn -6.12323e-17 1 -5.65567e-17
vn -6.12323e-17 1 -5.65567e-17
vn -6.12323e-17 1 -5.65567e-17
vn -5.67464e-17 0.92674 0.375704
vn -5.67464e-17 0.92674 0.375704
vn -5.67464e-17 0.92674 0.375704
vn -5.67464e-17 0.92674 0.375704
vn -4.3946e-17 0.717693 0.696359
vn -4.3946e-17 0.717693 0.696359
vn -4.3946e-17 0.717693 0.696359
vn -4.3946e-17 0.717693 0.696359
vn -2.47066e-17 0.40349 0.914984
vn -2.47066e-17 0.40349 0.914984
vn -2.47066e-17 0.40349 0.914984
vn -2.47066e-17 0.40349 0.914984
vn -1.3527e-17 0.220912 0.975294
vn -1.3527e-17 0.220912 0.975294
vn -1.52867e-17 0.249651 -0.968336
vn -1.52867e-17 0.249651 -0.968336
vn -2.22933e-17 0.364077 -0.931369
vn -2.22933e-17 0.364077 -0.931369
vn -2.22933e-17 0.364077 -0.931369
vn -2.22933e-17 0.364077 -0.931369
vn -3.52427e-17 0.575556 -0.817762
vn -3.52427e-17 0.575556 -0.817762
vn -3.52427e-17 0.575556 -0.817762
vn -3.52427e-17 0.575556 -0.817762
vn -4.6161e-17 0.753866 -0.657028
vn -4.6161e-17 0.753866 -0.657028
vn -4.6161e-17 0.753866 -0.657028
vn -4.6161e-17 0.753866 -0.657028
vn -5.16391e-17 0.843331 -0.537395
vn -5.16391e-17 0.843331 -0.537395
vn -5.16391e-17 0.843331 -0.537395
vn -5.16391e-17 0.843331 -0.537395
vn -5.48419e-17 0.895636 -0.444788
vn -5.48419e-17 0.895636 -0.444788
vn -5.48419e-17 0.895636 -0.444788
vn -5.48419e-17 0.895636 -0.444788
vn -5.83781e-17 0.953387 -0.30175
vn -5.83781e-17 0.953387 -0.30175
vn -5.83781e-17 0.953387 -0.30175
vn -5.83781e-17 0.953387 -0.30175
vn -6.05253e-17 0.988452 -0.151532
vn -6.05253e-17 0.988452 -0.151532
vn -6.05253e-17 0.988452 -0.151532
vn -6.05253e-17 0.988452 -0.151532
vn -6.10606e-17 0.997195 -0.0748427
vn -6.10606e-17 0.997195 -0.0748427
vn -6.00558e-17 0.980785 0.19509
vn -6.00558e-17 0.980785 0.19509
vn -5.64182e-17 0.921379 0.388664
vn -5.64182e-17 0.921379 0.388664
vn -5.64182e-17 0.921379 0.388664
vn -5.64182e-17 0.921379 0.388664
vn -4.27328e-17 0.69788 0.716214
vn -4.27328e-17 0.69788 0.716214
vn -4.27328e-17 0.69788 0.716214
vn -4.27328e-17 0.69788 0.716214
vn -2.26972e-17 0.370674 0.928763
vn -2.26972e-17 0.370674 0.928763
vn -2.26972e-17 0.370674 0.928763
vn -2.26972e-17 0.370674 0.928763
vn -1.11663e-17 0.182359 0.983232
vn -1.11663e-17 0.182359 0.983232
vn -2.55755e-17 0.417679 -0.908594
vn -2.55755e-17 0.417679 -0.908594
vn -4.4386e-17 0.724879 -0.688876
vn -4.4386e-17 0.724879 -0.688876
vn -4.4386e-17 0.724879 -0.688876
vn -4.4386e-17 0.724879 -0.688876
vn -6.12323e-17 1 2.0144e-14
vn -6.12323e-17 1 2.0144e-14
vn -6.12323e-17 1 2.0144e-14
vn -6.12323e-17 1 2.0144e-14
vn -4.4386e-17 0.724879 0.688876
vn -4.4386e-17 0.724879 0.688876
vn -4.4386e-17 0.724879 0.688876
vn -4.4386e-17 0.724879 0.688876
vn -2.55755e-17 0.417679 0.908594
vn -2.55755e-17 0.417679 0.908594
vn -1.77256e-17 0.289481 -0.957184
vn -1.77256e-17 0.289481 -0.957184
vn -2.92133e-17 0.477089 -0.878855
vn -2.92133e-17 0.477089 -0.878855
vn -2.92133e-17 0.477089 -0.878855
vn -2.92133e-17 0.477089 -0.878855
vn -4.81414e-17 0.786209 -0.617961
vn -4.81414e-17 0.786209 -0.617961
vn -4.81414e-17 0.786209 -0.617961
vn -4.81414e-17 0.786209 -0.617961
vn -5.91926e-17 0.966689 -0.255955
vn -5.91926e-17 0.966689 -0.255955
vn -5.91926e-17 0.966689 -0.255955
vn -5.91926e-17 0.966689 -0.255955
vn -6.11391e-17 0.998478 -0.0551528
vn -6.11391e-17 0.998478 -0.0551528
vn 6.09098e-17 -0.994733 0.102501
vn 6.09098e-17 -0.994733 0.102501
vn 6.00606e-17 -0.980863 0.194698
vn 6.00606e-17 -0.980863 0.194698
# индексы нормалей вершин с 1 по 144

s 1
vt -1.1089e-18 -0.185354
vt 0.213333 -0.185354
vt 0.213333 -0.181199
vt -1.04429e-18 -0.181199
# индексы вершин текстуры с 315 по 318

f  139/315/1 140/316/2 141/317/3 142/318/4
vt -1.04429e-18 -0.181199
vt 0.213333 -0.181199
vt 0.213333 -0.177345
vt -9.40544e-19 -0.177345
# индексы вершин текстуры с 319 по 322

f  142/319/4 141/320/3 145/321/7 146/322/8
vt -9.40544e-19 -0.177345
vt 0.213333 -0.177345
vt 0.213333 -0.173926
vt -8.01249e-19 -0.173926
# индексы вершин текстуры с 323 по 326

f  146/323/8 145/324/7 149/325/11 150/326/12
vt -8.01249e-19 0.0153344
vt 0.213333 0.0153344
vt 0.213333 0.0120808
vt -6.31242e-19 0.0120808
# индексы вершин текстуры с 327 по 330

f  150/327/12 149/328/11 153/329/15 154/330/16
vt -6.31242e-19 0.0120808
vt 0.213333 0.0120808
vt 0.213333 0.00835229
vt -4.36421e-19 0.00835229
# индексы вершин текстуры с 331 по 334

f  154/331/16 153/332/15 157/333/19 158/334/20
vt -4.36421e-19 0.00835229
vt 0.213333 0.00835229
vt 0.213333 0.00427824
vt -2.23545e-19 0.00427824
# индексы вершин текстуры с 335 по 338

f  158/335/20 157/336/19 161/337/23 162/338/24
vt -2.23545e-19 0.00427824
vt 0.213333 0.00427824
vt 0.213333 -1.07989e-17
vt 5.33248e-34 -1.02054e-17
# индексы вершин текстуры с 339 по 342

f  162/339/24 161/340/23 165/341/27 166/342/28
vt 5.5067e-34 -1.05388e-17
vt 0.213333 -9.68676e-18
vt 0.213333 0.000466291
vt -2.43644e-20 0.000466291
# индексы вершин текстуры с 343 по 346

f  167/343/29 168/344/30 169/345/31 170/346/32
vt -2.43644e-20 0.000466291
vt 0.213333 0.000466291
vt 0.213333 0.00085874
vt -4.48705e-20 0.00085874
# индексы вершин текстуры с 347 по 350

f  170/347/32 169/348/31 173/349/35 174/350/36
vt -4.48705e-20 -0.172491
vt 0.213333 -0.172491
vt 0.213333 -0.172891
vt -5.85137e-20 -0.172891
# индексы вершин текстуры с 351 по 354

f  174/351/36 173/352/35 177/353/39 178/354/40
vt -5.85137e-20 -0.172891
vt 0.213333 -0.172891
vt 0.213333 -0.17336
vt -6.32949e-20 -0.17336
# индексы вершин текстуры с 355 по 358

f  178/355/40 177/356/39 181/357/43 182/358/44
vt -6.32949e-20 -0.17336
vt 0.213333 -0.17336
vt 0.213333 -0.17383
vt -5.85137e-20 -0.17383
# индексы вершин текстуры с 359 по 362

f  182/359/44 181/360/43 185/361/47 186/362/48
vt -5.85137e-20 -0.17383
vt 0.213333 -0.17383
vt 0.213333 -0.17423
vt -4.48705e-20 -0.17423
# индексы вершин текстуры с 363 по 366

f  186/363/48 185/364/47 189/365/51 190/366/52
vt -4.48705e-20 0.00085874
vt 0.213333 0.00085874
vt 0.213333 0.000466291
vt -2.43644e-20 0.000466291
# индексы вершин текстуры с 367 по 370

f  190/367/52 189/368/51 193/369/55 194/370/56
vt -2.43644e-20 0.000466291
vt 0.213333 0.000466291
vt 0.213333 -9.83965e-18
vt 5.58659e-34 -1.06917e-17
# индексы вершин текстуры с 371 по 374

f  194/371/56 193/372/55 197/373/59 198/374/60
vt -5.92523e-19 0.0113398
vt 0.213333 0.0113398
vt 0.213333 0.0115861
vt -6.05395e-19 0.0115861
# индексы вершин текстуры с 375 по 378

f  199/375/61 200/376/62 201/377/63 202/378/64
vt -6.05395e-19 0.0115861
vt 0.213333 0.0115861
vt 0.213333 0.0118103
vt -6.17104e-19 0.0118103
# индексы вершин текстуры с 379 по 382

f  202/379/64 201/380/63 205/381/67 206/382/68
vt -6.17104e-19 0.0118103
vt 0.213333 0.0118103
vt 0.213333 0.0119992
vt -6.26978e-19 0.0119992
# индексы вершин текстуры с 383 по 386

f  206/383/68 205/384/67 209/385/71 210/386/72
vt -6.26978e-19 -0.180354
vt 0.213333 -0.180354
vt 0.213333 -0.180565
vt -6.34445e-19 -0.180565
# индексы вершин текстуры с 387 по 390

f  210/387/72 209/388/71 213/389/75 214/390/76
vt -6.34445e-19 -0.180565
vt 0.213333 -0.180565
vt 0.213333 -0.182622
vt -6.98599e-19 -0.182622
# индексы вершин текстуры с 391 по 394

f  214/391/76 213/392/75 217/393/79 218/394/80
vt -6.98599e-19 -0.182622
vt 0.213333 -0.182622
vt 0.213333 -0.184843
vt -7.45459e-19 -0.184843
# индексы вершин текстуры с 395 по 398

f  218/395/80 217/396/79 221/397/83 222/398/84
vt -7.45459e-19 -0.184843
vt 0.213333 -0.184843
vt 0.213333 -0.187176
vt -7.73912e-19 -0.187176
# индексы вершин текстуры с 399 по 402

f  222/399/84 221/400/83 225/401/87 226/402/88
vt -7.73912e-19 -0.187176
vt 0.213333 -0.187176
vt 0.213333 -0.189564
vt -7.8328e-19 -0.189564
# индексы вершин текстуры с 403 по 406

f  226/403/88 225/404/87 229/405/91 230/406/92
vt -7.8328e-19 -0.274209
vt 0.213333 -0.274209
vt 0.213333 -0.274529
vt -7.79956e-19 -0.274529
# индексы вершин текстуры с 407 по 410

f  231/407/93 232/408/94 233/409/95 234/410/96
vt -7.79956e-19 -0.274529
vt 0.213333 -0.274529
vt 0.213333 -0.274781
vt -7.70898e-19 -0.274781
# индексы вершин текстуры с 411 по 414

f  234/411/96 233/412/95 237/413/99 238/414/100
vt -7.70898e-19 0.0147536
vt 0.213333 0.0147536
vt 0.213333 0.0144969
vt -7.57484e-19 0.0144969
# индексы вершин текстуры с 415 по 418

f  238/415/100 237/416/99 241/417/103 242/418/104
vt -7.57484e-19 0.0144969
vt 0.213333 0.0144969
vt 0.213333 0.0141959
vt -7.41756e-19 0.0141959
# индексы вершин текстуры с 419 по 422

f  242/419/104 241/420/103 245/421/107 246/422/108
vt 5.19534e-34 -9.94294e-18
vt 0.213333 -1.05365e-17
vt 0.213333 0.000869264
vt -4.54204e-20 0.000869264
# индексы вершин текстуры с 423 по 426

f  247/423/109 248/424/110 249/425/111 250/426/112
vt -4.54204e-20 -0.280822
vt 0.213333 -0.280822
vt 0.213333 -0.281711
vt -6.39612e-20 -0.281711
# индексы вершин текстуры с 427 по 430

f  250/427/112 249/428/111 253/429/115 254/430/116
vt -6.39612e-20 -0.281711
vt 0.213333 -0.281711
vt 0.213333 -0.282599
vt -4.54204e-20 -0.282599
# индексы вершин текстуры с 431 по 434

f  254/431/116 253/432/115 257/433/119 258/434/120
vt -4.54204e-20 0.000869264
vt 0.213333 0.000869264
vt 0.213333 -1.06942e-17
vt 5.27777e-34 -1.01007e-17
# индексы вершин текстуры с 435 по 438

f  258/435/120 257/436/119 261/437/123 262/438/124
vt -7.41756e-19 0.0141959
vt 0.213333 0.0141959
vt 0.213333 0.0145381
vt -7.59638e-19 0.0145381
# индексы вершин текстуры с 439 по 442

f  263/439/125 264/440/126 265/441/127 266/442/128
vt -7.59638e-19 0.0145381
vt 0.213333 0.0145381
vt 0.213333 0.0148113
vt -7.73914e-19 0.0148113
# индексы вершин текстуры с 443 по 446

f  266/443/128 265/444/127 269/445/131 270/446/132
vt -7.73914e-19 -0.288671
vt 0.213333 -0.288671
vt 0.213333 -0.288991
vt -7.8225e-19 -0.288991
# индексы вершин текстуры с 447 по 450

f  270/447/132 269/448/131 273/449/135 274/450/136
vt -7.8225e-19 -0.288991
vt 0.213333 -0.288991
vt 0.213333 -0.289348
vt -7.8328e-19 -0.289348
# индексы вершин текстуры с 451 по 454

f  274/451/136 273/452/135 277/453/139 278/454/140
vt -1.13212e-18 -0.189667
vt 0.213333 -0.189667
vt 0.213333 -0.185354
vt -1.1089e-18 -0.185354
# индексы вершин текстуры с 455 по 458

f  279/455/141 280/456/142 140/457/2 139/458/1
