# FILE HCR 528.obj
mtllib HCR 528.mtl
trace_obj HCR 528.obj
shadow_obj HCR 528.obj

g Конструктив_-_Стены_Несущие Кирпич_-_Красный FLAT_PART

usemtl Кирпич_-_Красный

v 0 6.73599 -99.9986
v 2000 6.73599 -99.9986
v 2000 4.50655 -99.999
v 0 4.50655 -99.999
v 0 4.50655 -99.999
v 2000 4.50655 -99.999
v 2000 2.49565 -95.7006
v 0 2.49565 -95.7006
v 0 -2.49528 -95.7049
v 2000 -2.49528 -95.7049
v 2000 -4.50176 -100.001
v 0 -4.50176 -100.001
v 0 -4.50176 -100.001
v 2000 -4.50176 -100.001
v 2000 -6.75926 -100.002
v 0 -6.75926 -100.002
v 0 -8.25898 -100.002
v 2000 -8.25898 -100.002
v 2000 -10.5043 -100.002
v 0 -10.5043 -100.002
v 0 -10.5043 -100.002
v 2000 -10.5043 -100.002
v 2000 -10.5046 -95.1415
v 0 -10.5046 -95.1415
v 0 -10.3297 -94.9978
v 2000 -10.3297 -94.9978
v 2000 -6.60002 -94.9978
v 0 -6.60002 -94.9978
v 0 -6.45655 -94.8879
v 2000 -6.45655 -94.8879
v 2000 -6.06882 -93.8906
v 0 -6.06882 -93.8906
v 0 -6.06882 -93.8906
v 2000 -6.06882 -93.8906
v 2000 -5.50826 -92.9454
v 0 -5.50826 -92.9454
v 0 -5.50826 -92.9454
v 2000 -5.50826 -92.9454
v 2000 -4.84341 -92.1176
v 0 -4.84341 -92.1176
v 0 -4.84341 -92.1176
v 2000 -4.84341 -92.1176
v 2000 -4.00908 -91.3811
v 0 -4.00908 -91.3811
v 0 -4.00908 -91.3811
v 2000 -4.00908 -91.3811
v 2000 -3.09199 -90.8112
v 0 -3.09199 -90.8112
v 0 -3.09199 -90.8112
v 2000 -3.09199 -90.8112
v 2000 -2.10774 -90.3615
v 0 -2.10774 -90.3615
v 0 -2.10774 -90.3615
v 2000 -2.10774 -90.3615
v 2000 -1.0518 -90.1008
v 0 -1.0518 -90.1008
v 0 -1.0518 -90.1008
v 2000 -1.0518 -90.1008
v 2000 0.0106637 -89.9965
v 0 0.0106637 -89.9965
v 0 0.0106637 -89.9965
v 2000 0.0106637 -89.9965
v 2000 1.08616 -90.1008
v 0 1.08616 -90.1008
v 0 1.08616 -90.1008
v 2000 1.08616 -90.1008
v 2000 2.13559 -90.3876
v 0 2.13559 -90.3876
v 0 2.13559 -90.3876
v 2000 2.13559 -90.3876
v 2000 3.11983 -90.8243
v 0 3.11983 -90.8243
v 0 3.11983 -90.8243
v 2000 3.11983 -90.8243
v 2000 4.04541 -91.4044
v 0 4.04541 -91.4044
v 0 4.04541 -91.4044
v 2000 4.04541 -91.4044
v 2000 4.8276 -92.1149
v 0 4.8276 -92.1149
v 0 4.8276 -92.1149
v 2000 4.8276 -92.1149
v 2000 5.50549 -92.9492
v 0 5.50549 -92.9492
v 0 5.50549 -92.9492
v 2000 5.50549 -92.9492
v 2000 6.06605 -93.9009
v 0 6.06605 -93.9009
v 0 6.06605 -93.9009
v 2000 6.06605 -93.9009
v 2000 6.45458 -94.8904
v 0 6.45458 -94.8904
v 0 6.60265 -94.9978
v 2000 6.60265 -94.9978
v 2000 10.3218 -94.9978
v 0 10.3218 -94.9978
v 0 10.5027 -95.1432
v 0 10.5027 -99.9978
v 0 8.25454 -99.9982
v 0 8.1926 -99.7121
v 0 8.02702 -99.4706
v 0 7.7824 -99.3098
v 0 7.49511 -99.2534
v 0 7.20783 -99.3099
v 0 6.96328 -99.4709
v 0 6.7978 -99.7124
v 0 6.73599 -99.9986
v 0 4.50655 -99.999
v 0 2.49565 -95.7006
v 0 2.07387 -95.0314
v 0 1.4861 -94.502
v 0 0.776584 -94.1522
v 0 -0.00127508 -94.0084
v 0 -0.778572 -94.1543
v 0 -1.48721 -94.5054
v 0 -2.0741 -95.0355
v 0 -2.49528 -95.7049
v 0 -4.50176 -100.001
v 0 -6.75926 -100.002
v 0 -6.82533 -99.7144
v 0 -6.98825 -99.4831
v 0 -7.22821 -99.3273
v 0 -7.50903 -99.2727
v 0 -7.79124 -99.3278
v 0 -8.03201 -99.485
v 0 -8.19595 -99.7212
v 0 -8.25898 -100.002
v 0 -10.5043 -100.002
v 0 -10.5046 -95.1415
v 0 -10.4461 -95.0344
v 0 -10.3297 -94.9978
v 0 -6.60002 -94.9978
v 0 -6.51244 -94.9635
v 0 -6.45655 -94.8879
v 0 -6.06882 -93.8906
v 0 -5.50826 -92.9454
v 0 -4.84341 -92.1176
v 0 -4.00908 -91.3811
v 0 -3.09199 -90.8112
v 0 -2.10774 -90.3615
v 0 -1.0518 -90.1008
v 0 0.0106637 -89.9965
v 0 1.08616 -90.1008
v 0 2.13559 -90.3876
v 0 3.11983 -90.8243
v 0 4.04541 -91.4044
v 0 4.8276 -92.1149
v 0 5.50549 -92.9492
v 0 6.06605 -93.9009
v 0 6.45458 -94.8904
v 0 6.51496 -94.9629
v 0 6.60265 -94.9978
v 0 10.3218 -94.9978
v 0 10.443 -95.0321
v 2000 8.25454 -99.9982
v 2000 10.5027 -99.9978
v 2000 10.5027 -95.1432
v 2000 10.443 -95.0321
v 2000 10.3218 -94.9978
v 2000 6.60265 -94.9978
v 2000 6.51496 -94.9629
v 2000 6.45458 -94.8904
v 2000 6.06605 -93.9009
v 2000 5.50549 -92.9492
v 2000 4.8276 -92.1149
v 2000 4.04541 -91.4044
v 2000 3.11983 -90.8243
v 2000 2.13559 -90.3876
v 2000 1.08616 -90.1008
v 2000 0.0106637 -89.9965
v 2000 -1.0518 -90.1008
v 2000 -2.10774 -90.3615
v 2000 -3.09199 -90.8112
v 2000 -4.00908 -91.3811
v 2000 -4.84341 -92.1176
v 2000 -5.50826 -92.9454
v 2000 -6.06882 -93.8906
v 2000 -6.45655 -94.8879
v 2000 -6.51244 -94.9635
v 2000 -6.60002 -94.9978
v 2000 -10.3297 -94.9978
v 2000 -10.4461 -95.0344
v 2000 -10.5046 -95.1415
v 2000 -10.5043 -100.002
v 2000 -8.25898 -100.002
v 2000 -8.19595 -99.7212
v 2000 -8.03201 -99.485
v 2000 -7.79124 -99.3278
v 2000 -7.50903 -99.2727
v 2000 -7.22821 -99.3273
v 2000 -6.98825 -99.4831
v 2000 -6.82533 -99.7144
v 2000 -6.75926 -100.002
v 2000 -4.50176 -100.001
v 2000 -2.49528 -95.7049
v 2000 -2.0741 -95.0355
v 2000 -1.48721 -94.5054
v 2000 -0.778572 -94.1543
v 2000 -0.00127508 -94.0084
v 2000 0.776584 -94.1522
v 2000 1.4861 -94.502
v 2000 2.07387 -95.0314
v 2000 2.49565 -95.7006
v 2000 4.50655 -99.999
v 2000 6.73599 -99.9986
v 2000 6.7978 -99.7124
v 2000 6.96328 -99.4709
v 2000 7.20783 -99.3099
v 2000 7.49511 -99.2534
v 2000 7.7824 -99.3098
v 2000 8.02702 -99.4706
v 2000 8.1926 -99.7121
v 0 10.5027 -95.1432
v 2000 10.5027 -95.1432
v 2000 10.5027 -99.9978
v 0 10.5027 -99.9978
v 0 10.5027 -99.9978
v 2000 10.5027 -99.9978
v 2000 8.25454 -99.9982
v 0 8.25454 -99.9982
# индексы вершин с 1 по 220

s off
vt 5.8661e-19 -0.0112266
vt 2.84444 -0.0112266
vt 2.84444 -0.00751091
vt 3.92457e-19 -0.00751091
# индексы вершин текстуры с 1 по 4

f  1/1 2/2 3/3 4/4
vt 3.92457e-19 -0.166665
vt 2.84444 -0.166665
vt 2.84444 -0.159501
vt 2.17336e-19 -0.159501
# индексы вершин текстуры с 5 по 8

f  4/5 3/6 7/7 8/8
vt -2.17304e-19 -0.159508
vt 2.84444 -0.159508
vt 2.84444 -0.166668
vt -3.9204e-19 -0.166668
# индексы вершин текстуры с 9 по 12

f  9/9 10/10 11/11 12/12
vt -3.9204e-19 0.00750294
vt 2.84444 0.00750294
vt 2.84444 0.0112654
vt -5.88637e-19 0.0112654
# индексы вершин текстуры с 13 по 16

f  12/13 11/14 15/15 16/16
vt -7.19242e-19 0.013765
vt 2.84444 0.013765
vt 2.84444 0.0175071
vt -9.14775e-19 0.0175071
# индексы вершин текстуры с 17 по 20

f  17/17 18/18 19/19 20/20
vt -9.14775e-19 -0.16667
vt 2.84444 -0.16667
vt 2.84444 -0.158569
vt -9.14807e-19 -0.158569
# индексы вершин текстуры с 21 по 24

f  20/21 19/22 23/23 24/24
vt -8.99573e-19 0.0172162
vt 2.84444 0.0172162
vt 2.84444 0.011
vt -5.7477e-19 0.011
# индексы вершин текстуры с 25 по 28

f  25/25 26/26 27/27 28/28
vt -5.62275e-19 -0.158146
vt 2.84444 -0.158146
vt 2.84444 -0.156484
vt -5.28509e-19 -0.156484
# индексы вершин текстуры с 29 по 32

f  29/29 30/30 31/31 32/32
vt -5.28509e-19 -0.156484
vt 2.84444 -0.156484
vt 2.84444 -0.154909
vt -4.79692e-19 -0.154909
# индексы вершин текстуры с 33 по 36

f  32/33 31/34 35/35 36/36
vt -4.79692e-19 -0.154909
vt 2.84444 -0.154909
vt 2.84444 -0.153529
vt -4.21793e-19 -0.153529
# индексы вершин текстуры с 37 по 40

f  36/37 35/38 39/39 40/40
vt -4.21793e-19 0.00807234
vt 2.84444 0.00807234
vt 2.84444 0.0066818
vt -3.49135e-19 0.0066818
# индексы вершин текстуры с 41 по 44

f  40/41 39/42 43/43 44/44
vt -3.49135e-19 0.0066818
vt 2.84444 0.0066818
vt 2.84444 0.00515331
vt -2.69269e-19 0.00515331
# индексы вершин текстуры с 45 по 48

f  44/45 43/46 47/47 48/48
vt -2.69269e-19 0.00515331
vt 2.84444 0.00515331
vt 2.84444 0.00351291
vt -1.83555e-19 0.00351291
# индексы вершин текстуры с 49 по 52

f  48/49 47/50 51/51 52/52
vt -1.83555e-19 0.00351291
vt 2.84444 0.00351291
vt 2.84444 0.001753
vt -9.1597e-20 0.001753
# индексы вершин текстуры с 53 по 56

f  52/53 51/54 55/55 56/56
vt -9.1597e-20 0.001753
vt 2.84444 0.001753
vt 2.84444 -1.77729e-05
vt 9.28663e-22 -1.77729e-05
# индексы вершин текстуры с 57 по 60

f  56/57 55/58 59/59 60/60
vt 9.28663e-22 -1.77729e-05
vt 2.84444 -1.77729e-05
vt 2.84444 -0.00181027
vt 9.45896e-20 -0.00181027
# индексы вершин текстуры с 61 по 64

f  60/61 59/62 63/63 64/64
vt 9.45896e-20 -0.00181027
vt 2.84444 -0.00181027
vt 2.84444 -0.00355932
vt 1.8598e-19 -0.00355932
# индексы вершин текстуры с 65 по 68

f  64/65 63/66 67/67 68/68
vt 1.8598e-19 -0.00355932
vt 2.84444 -0.00355932
vt 2.84444 -0.00519972
vt 2.71694e-19 -0.00519972
# индексы вершин текстуры с 69 по 72

f  68/69 67/70 71/71 72/72
vt 2.71694e-19 -0.00519972
vt 2.84444 -0.00519972
vt 2.84444 -0.00674236
vt 3.52299e-19 -0.00674236
# индексы вершин текстуры с 73 по 76

f  72/73 71/74 75/75 76/76
vt 3.52299e-19 -0.00674236
vt 2.84444 -0.00674236
vt 2.84444 -0.00804599
vt 4.20416e-19 -0.00804599
# индексы вершин текстуры с 77 по 80

f  76/77 75/78 79/79 80/80
vt 4.20416e-19 -0.153525
vt 2.84444 -0.153525
vt 2.84444 -0.154915
vt 4.79451e-19 -0.154915
# индексы вершин текстуры с 81 по 84

f  80/81 79/82 83/83 84/84
vt 4.79451e-19 -0.154915
vt 2.84444 -0.154915
vt 2.84444 -0.156501
vt 5.28268e-19 -0.156501
# индексы вершин текстуры с 85 по 88

f  84/85 83/86 87/87 88/88
vt 5.28268e-19 -0.156501
vt 2.84444 -0.156501
vt 2.84444 -0.158151
vt 5.62104e-19 -0.158151
# индексы вершин текстуры с 89 по 92

f  88/89 87/90 91/91 92/92
vt 5.74999e-19 -0.0110044
vt 2.84444 -0.0110044
vt 2.84444 -0.0172029
vt 8.9888e-19 -0.0172029
# индексы вершин текстуры с 93 по 96

f  93/93 94/94 95/95 96/96
vt 0.00149589 -0.150168
vt -1.51662e-05 -0.149994
vt -0.00154476 -0.150168
vt 0.00299768 -0.150602
vt 0.00149589 -0.150168
vt -0.00154476 -0.150168
vt 0.00299768 -0.150602
vt -0.00154476 -0.150168
vt -0.00303728 -0.150646
vt 0.00439749 -0.151352
vt 0.00299768 -0.150602
vt -0.00303728 -0.150646
vt 0.00439749 -0.151352
vt -0.00303728 -0.150646
vt -0.0044371 -0.151374
vt 0.0057018 -0.152302
vt 0.00439749 -0.151352
vt -0.0044371 -0.151374
vt 0.0057018 -0.152302
vt -0.0044371 -0.151374
vt -0.00575348 -0.152341
vt 0.0057018 -0.152302
vt -0.00575348 -0.152341
vt -0.00686591 -0.153525
vt 0.0068884 -0.153529
vt 0.0057018 -0.152302
vt -0.00686591 -0.153525
vt 0.00783397 -0.154909
vt 0.0068884 -0.153529
vt -0.00686591 -0.153525
vt 0.00783397 -0.154909
vt -0.00686591 -0.153525
vt -0.00783003 -0.154915
vt 0.00863121 -0.156484
vt 0.00783397 -0.154909
vt -0.00783003 -0.154915
vt 0.00863121 -0.156484
vt -0.00783003 -0.154915
vt -0.00862727 -0.156501
vt 0.00863121 -0.156484
vt -0.00862727 -0.156501
vt 1.81345e-06 -0.156681
vt -0.00110448 -0.15692
vt 1.81345e-06 -0.156681
vt -0.00862727 -0.156501
vt 0.00863121 -0.156484
vt 1.81345e-06 -0.156681
vt 0.0011073 -0.156924
vt -0.00211356 -0.157503
vt -0.00110448 -0.15692
vt -0.00862727 -0.156501
vt 0.00863121 -0.156484
vt 0.0011073 -0.156924
vt 0.00211514 -0.157509
vt 0.00918265 -0.158146
vt 0.00863121 -0.156484
vt 0.00211514 -0.157509
vt -0.00211356 -0.157503
vt -0.00862727 -0.156501
vt -0.00917985 -0.158151
vt -0.00211356 -0.157503
vt -0.00917985 -0.158151
vt -0.00926572 -0.158272
vt 0.00926214 -0.158273
vt 0.00918265 -0.158146
vt 0.00211514 -0.157509
vt 0.0093867 -0.15833
vt 0.00926214 -0.158273
vt 0.00211514 -0.157509
vt -0.00211356 -0.157503
vt -0.00926572 -0.158272
vt -0.00939044 -0.15833
vt -0.0029495 -0.158386
vt -0.00211356 -0.157503
vt -0.00939044 -0.15833
vt -0.0029495 -0.158386
vt -0.00939044 -0.15833
vt -0.0146798 -0.15833
vt -0.0029495 -0.158386
vt -0.0146798 -0.15833
vt -0.0148523 -0.158387
vt 0.0148567 -0.158391
vt 0.0146911 -0.15833
vt 0.0093867 -0.15833
vt 0.0093867 -0.15833
vt 0.00211514 -0.157509
vt 0.00294984 -0.158393
vt 0.0148567 -0.158391
vt 0.0093867 -0.15833
vt 0.00294984 -0.158393
vt 0.0149399 -0.158569
vt 0.0148567 -0.158391
vt 0.00294984 -0.158393
vt -0.0029495 -0.158386
vt -0.0148523 -0.158387
vt -0.0149371 -0.158572
vt -0.00354937 -0.159501
vt -0.0029495 -0.158386
vt -0.0149371 -0.158572
vt 0.0149399 -0.158569
vt 0.00294984 -0.158393
vt 0.00354885 -0.159508
vt -0.0106597 -0.165422
vt -0.00354937 -0.159501
vt -0.0149371 -0.158572
vt 0.0149399 -0.158569
vt 0.00354885 -0.159508
vt 0.0106795 -0.165455
vt -0.00354937 -0.159501
vt -0.0106597 -0.165422
vt -0.0102511 -0.165516
vt -0.0110683 -0.165516
vt -0.0106597 -0.165422
vt -0.0149371 -0.158572
vt 0.0102801 -0.165546
vt 0.0106795 -0.165455
vt 0.00354885 -0.159508
vt 0.0149399 -0.158569
vt 0.0106795 -0.165455
vt 0.0110809 -0.165546
vt -0.0114162 -0.165784
vt -0.0110683 -0.165516
vt -0.0149371 -0.158572
vt -0.00354937 -0.159501
vt -0.0102511 -0.165516
vt -0.00990333 -0.165785
vt 0.00993884 -0.165805
vt 0.0102801 -0.165546
vt 0.00354885 -0.159508
vt 0.0149399 -0.158569
vt 0.0110809 -0.165546
vt 0.0114233 -0.165808
vt -0.0116517 -0.166187
vt -0.0114162 -0.165784
vt -0.0149371 -0.158572
vt -0.00354937 -0.159501
vt -0.00990333 -0.165785
vt -0.00966799 -0.166187
vt 0.00970714 -0.166191
vt 0.00993884 -0.165805
vt 0.00354885 -0.159508
vt 0.0149399 -0.158569
vt 0.0114233 -0.165808
vt 0.0116565 -0.166202
vt -0.0116517 -0.166187
vt -0.0149371 -0.158572
vt -0.0149371 -0.166663
vt -0.0117398 -0.166664
vt -0.0116517 -0.166187
vt -0.0149371 -0.166663
vt -0.00354937 -0.159501
vt -0.00966799 -0.166187
vt -0.00958007 -0.166664
vt -0.00640931 -0.166665
vt -0.00354937 -0.159501
vt -0.00958007 -0.166664
vt 0.00970714 -0.166191
vt 0.00354885 -0.159508
vt 0.00640251 -0.166668
vt 0.00961317 -0.16667
vt 0.00970714 -0.166191
vt 0.00640251 -0.166668
vt 0.0149399 -0.158569
vt 0.0116565 -0.166202
vt 0.0117461 -0.16667
vt 0.0149394 -0.16667
vt 0.0149399 -0.158569
vt 0.0117461 -0.16667
# индексы вершин текстуры с 97 по 264

f  56/97 60/98 64/99
f  52/100 56/101 64/102
f  52/103 64/104 68/105
f  48/106 52/107 68/108
f  48/109 68/110 72/111
f  44/112 48/113 72/114
f  44/115 72/116 76/117
f  44/118 76/119 80/120
f  40/121 44/122 80/123
f  36/124 40/125 80/126
f  36/127 80/128 84/129
f  32/130 36/131 84/132
f  32/133 84/134 88/135
f  32/136 88/137 113/138
f  112/139 113/140 88/141
f  32/142 113/143 114/144
f  111/145 112/146 88/147
f  32/148 114/149 115/150
f  29/151 32/152 115/153
f  111/154 88/155 92/156
f  111/157 92/158 151/159
f  133/160 29/161 115/162
f  28/163 133/164 115/165
f  111/166 151/167 93/168
f  110/169 111/170 93/171
f  110/172 93/173 96/174
f  110/175 96/176 154/177
f  130/178 25/179 28/180
f  28/181 115/182 116/183
f  130/184 28/185 116/186
f  24/187 130/188 116/189
f  110/190 154/191 97/192
f  8/193 110/194 97/195
f  24/196 116/197 9/198
f  103/199 8/200 97/201
f  24/202 9/203 123/204
f  8/205 103/206 104/207
f  102/208 103/209 97/210
f  122/211 123/212 9/213
f  24/214 123/215 124/216
f  101/217 102/218 97/219
f  8/220 104/221 105/222
f  121/223 122/224 9/225
f  24/226 124/227 125/228
f  100/229 101/230 97/231
f  8/232 105/233 106/234
f  120/235 121/236 9/237
f  24/238 125/239 126/240
f  100/241 97/242 98/243
f  99/244 100/245 98/246
f  8/247 106/248 1/249
f  4/250 8/251 1/252
f  120/253 9/254 12/255
f  16/256 120/257 12/258
f  24/259 126/260 17/261
f  20/262 24/263 17/264
vt -0.00154476 -0.150168
vt -1.51662e-05 -0.149994
vt 0.00149589 -0.150168
vt -0.00154476 -0.150168
vt 0.00149589 -0.150168
vt 0.00299768 -0.150602
vt -0.00303728 -0.150646
vt -0.00154476 -0.150168
vt 0.00299768 -0.150602
vt -0.00303728 -0.150646
vt 0.00299768 -0.150602
vt 0.00439749 -0.151352
vt -0.0044371 -0.151374
vt -0.00303728 -0.150646
vt 0.00439749 -0.151352
vt -0.0044371 -0.151374
vt 0.00439749 -0.151352
vt 0.0057018 -0.152302
vt -0.00575348 -0.152341
vt -0.0044371 -0.151374
vt 0.0057018 -0.152302
vt -0.00686591 -0.153525
vt -0.00575348 -0.152341
vt 0.0057018 -0.152302
vt -0.00686591 -0.153525
vt 0.0057018 -0.152302
vt 0.0068884 -0.153529
vt -0.00686591 -0.153525
vt 0.0068884 -0.153529
vt 0.00783397 -0.154909
vt -0.00783003 -0.154915
vt -0.00686591 -0.153525
vt 0.00783397 -0.154909
vt -0.00783003 -0.154915
vt 0.00783397 -0.154909
vt 0.00863121 -0.156484
vt -0.00862727 -0.156501
vt -0.00783003 -0.154915
vt 0.00863121 -0.156484
vt 1.81345e-06 -0.156681
vt -0.00862727 -0.156501
vt 0.00863121 -0.156484
vt -0.00862727 -0.156501
vt 1.81345e-06 -0.156681
vt -0.00110448 -0.15692
vt 0.0011073 -0.156924
vt 1.81345e-06 -0.156681
vt 0.00863121 -0.156484
vt -0.00862727 -0.156501
vt -0.00110448 -0.15692
vt -0.00211356 -0.157503
vt 0.00211514 -0.157509
vt 0.0011073 -0.156924
vt 0.00863121 -0.156484
vt 0.00211514 -0.157509
vt 0.00863121 -0.156484
vt 0.00918265 -0.158146
vt -0.00917985 -0.158151
vt -0.00862727 -0.156501
vt -0.00211356 -0.157503
vt -0.00926572 -0.158272
vt -0.00917985 -0.158151
vt -0.00211356 -0.157503
vt 0.00211514 -0.157509
vt 0.00918265 -0.158146
vt 0.00926214 -0.158273
vt -0.00939044 -0.15833
vt -0.00926572 -0.158272
vt -0.00211356 -0.157503
vt 0.00211514 -0.157509
vt 0.00926214 -0.158273
vt 0.0093867 -0.15833
vt -0.00939044 -0.15833
vt -0.00211356 -0.157503
vt -0.0029495 -0.158386
vt -0.0146798 -0.15833
vt -0.00939044 -0.15833
vt -0.0029495 -0.158386
vt -0.0148523 -0.158387
vt -0.0146798 -0.15833
vt -0.0029495 -0.158386
vt 0.0093867 -0.15833
vt 0.0146911 -0.15833
vt 0.0148567 -0.158391
vt 0.00294984 -0.158393
vt 0.00211514 -0.157509
vt 0.0093867 -0.15833
vt 0.00294984 -0.158393
vt 0.0093867 -0.15833
vt 0.0148567 -0.158391
vt 0.00294984 -0.158393
vt 0.0148567 -0.158391
vt 0.0149399 -0.158569
vt -0.0149371 -0.158572
vt -0.0148523 -0.158387
vt -0.0029495 -0.158386
vt -0.0149371 -0.158572
vt -0.0029495 -0.158386
vt -0.00354937 -0.159501
vt 0.00354885 -0.159508
vt 0.00294984 -0.158393
vt 0.0149399 -0.158569
vt -0.0149371 -0.158572
vt -0.00354937 -0.159501
vt -0.0106597 -0.165422
vt 0.0106795 -0.165455
vt 0.00354885 -0.159508
vt 0.0149399 -0.158569
vt -0.0149371 -0.158572
vt -0.0106597 -0.165422
vt -0.0110683 -0.165516
vt -0.0102511 -0.165516
vt -0.0106597 -0.165422
vt -0.00354937 -0.159501
vt 0.00354885 -0.159508
vt 0.0106795 -0.165455
vt 0.0102801 -0.165546
vt 0.0110809 -0.165546
vt 0.0106795 -0.165455
vt 0.0149399 -0.158569
vt -0.0149371 -0.158572
vt -0.0110683 -0.165516
vt -0.0114162 -0.165784
vt -0.00990333 -0.165785
vt -0.0102511 -0.165516
vt -0.00354937 -0.159501
vt 0.00354885 -0.159508
vt 0.0102801 -0.165546
vt 0.00993884 -0.165805
vt 0.0114233 -0.165808
vt 0.0110809 -0.165546
vt 0.0149399 -0.158569
vt -0.0149371 -0.158572
vt -0.0114162 -0.165784
vt -0.0116517 -0.166187
vt -0.00966799 -0.166187
vt -0.00990333 -0.165785
vt -0.00354937 -0.159501
vt 0.00354885 -0.159508
vt 0.00993884 -0.165805
vt 0.00970714 -0.166191
vt 0.0116565 -0.166202
vt 0.0114233 -0.165808
vt 0.0149399 -0.158569
vt -0.0149371 -0.166663
vt -0.0149371 -0.158572
vt -0.0116517 -0.166187
vt -0.0117398 -0.166664
vt -0.0149371 -0.166663
vt -0.0116517 -0.166187
vt -0.00958007 -0.166664
vt -0.00966799 -0.166187
vt -0.00354937 -0.159501
vt -0.00640931 -0.166665
vt -0.00958007 -0.166664
vt -0.00354937 -0.159501
vt 0.00640251 -0.166668
vt 0.00354885 -0.159508
vt 0.00970714 -0.166191
vt 0.00961317 -0.16667
vt 0.00640251 -0.166668
vt 0.00970714 -0.166191
vt 0.0117461 -0.16667
vt 0.0116565 -0.166202
vt 0.0149399 -0.158569
vt 0.0149394 -0.16667
vt 0.0117461 -0.16667
vt 0.0149399 -0.158569
# индексы вершин текстуры с 265 по 432

f  63/265 59/266 55/267
f  63/268 55/269 51/270
f  67/271 63/272 51/273
f  67/274 51/275 47/276
f  71/277 67/278 47/279
f  71/280 47/281 43/282
f  75/283 71/284 43/285
f  79/286 75/287 43/288
f  79/289 43/290 39/291
f  79/292 39/293 35/294
f  83/295 79/296 35/297
f  83/298 35/299 31/300
f  87/301 83/302 31/303
f  199/304 87/305 31/306
f  87/307 199/308 200/309
f  198/310 199/311 31/312
f  87/313 200/314 201/315
f  197/316 198/317 31/318
f  197/319 31/320 30/321
f  91/322 87/323 201/324
f  161/325 91/326 201/327
f  197/328 30/329 179/330
f  94/331 161/332 201/333
f  197/334 179/335 27/336
f  94/337 201/338 202/339
f  95/340 94/341 202/342
f  158/343 95/344 202/345
f  27/346 26/347 182/348
f  196/349 197/350 27/351
f  196/352 27/353 182/354
f  196/355 182/356 23/357
f  157/358 158/359 202/360
f  157/361 202/362 7/363
f  10/364 196/365 23/366
f  157/367 7/368 209/369
f  189/370 10/371 23/372
f  157/373 209/374 210/375
f  208/376 209/377 7/378
f  10/379 189/380 190/381
f  188/382 189/383 23/384
f  157/385 210/386 211/387
f  207/388 208/389 7/390
f  10/391 190/392 191/393
f  187/394 188/395 23/396
f  157/397 211/398 212/399
f  206/400 207/401 7/402
f  10/403 191/404 192/405
f  186/406 187/407 23/408
f  156/409 157/410 212/411
f  155/412 156/413 212/414
f  2/415 206/416 7/417
f  3/418 2/419 7/420
f  11/421 10/422 192/423
f  15/424 11/425 192/426
f  18/427 186/428 23/429
f  19/430 18/431 23/432
vt 9.14634e-19 -0.158572
vt 2.84444 -0.158572
vt 2.84444 -0.166663
vt 9.14634e-19 -0.166663
# индексы вершин текстуры с 433 по 436

f  97/433 157/434 156/435 98/436
vt 9.14634e-19 -0.0175044
vt 2.84444 -0.0175044
vt 2.84444 -0.0137576
vt 7.18855e-19 -0.0137576
# индексы вершин текстуры с 437 по 440

f  98/437 156/438 155/439 99/440

g Конструктив_-_Стены_Несущие Кирпич_-_Красный SMOOTH_PART

usemtl Кирпич_-_Красный

v 0 8.1926 -99.7121
v 2000 8.1926 -99.7121
v 2000 8.02702 -99.4706
v 0 8.02702 -99.4706
v 0 8.02702 -99.4706
v 2000 8.02702 -99.4706
v 2000 7.7824 -99.3098
v 0 7.7824 -99.3098
v 0 7.7824 -99.3098
v 2000 7.7824 -99.3098
v 2000 7.49511 -99.2534
v 0 7.49511 -99.2534
v 0 7.49511 -99.2534
v 2000 7.49511 -99.2534
v 2000 7.20783 -99.3099
v 0 7.20783 -99.3099
v 0 7.20783 -99.3099
v 2000 7.20783 -99.3099
v 2000 6.96328 -99.4709
v 0 6.96328 -99.4709
v 0 6.96328 -99.4709
v 2000 6.96328 -99.4709
v 2000 6.7978 -99.7124
v 0 6.7978 -99.7124
v 0 6.7978 -99.7124
v 2000 6.7978 -99.7124
v 2000 6.73599 -99.9986
v 0 6.73599 -99.9986
v 0 2.49565 -95.7006
v 2000 2.49565 -95.7006
v 2000 2.07387 -95.0314
v 0 2.07387 -95.0314
v 0 2.07387 -95.0314
v 2000 2.07387 -95.0314
v 2000 1.4861 -94.502
v 0 1.4861 -94.502
v 0 1.4861 -94.502
v 2000 1.4861 -94.502
v 2000 0.776584 -94.1522
v 0 0.776584 -94.1522
v 0 0.776584 -94.1522
v 2000 0.776584 -94.1522
v 2000 -0.00127508 -94.0084
v 0 -0.00127508 -94.0084
v 0 -0.00127508 -94.0084
v 2000 -0.00127508 -94.0084
v 2000 -0.778572 -94.1543
v 0 -0.778572 -94.1543
v 0 -0.778572 -94.1543
v 2000 -0.778572 -94.1543
v 2000 -1.48721 -94.5054
v 0 -1.48721 -94.5054
v 0 -1.48721 -94.5054
v 2000 -1.48721 -94.5054
v 2000 -2.0741 -95.0355
v 0 -2.0741 -95.0355
v 0 -2.0741 -95.0355
v 2000 -2.0741 -95.0355
v 2000 -2.49528 -95.7049
v 0 -2.49528 -95.7049
v 0 -6.75926 -100.002
v 2000 -6.75926 -100.002
v 2000 -6.82533 -99.7144
v 0 -6.82533 -99.7144
v 0 -6.82533 -99.7144
v 2000 -6.82533 -99.7144
v 2000 -6.98825 -99.4831
v 0 -6.98825 -99.4831
v 0 -6.98825 -99.4831
v 2000 -6.98825 -99.4831
v 2000 -7.22821 -99.3273
v 0 -7.22821 -99.3273
v 0 -7.22821 -99.3273
v 2000 -7.22821 -99.3273
v 2000 -7.50903 -99.2727
v 0 -7.50903 -99.2727
v 0 -7.50903 -99.2727
v 2000 -7.50903 -99.2727
v 2000 -7.79124 -99.3278
v 0 -7.79124 -99.3278
v 0 -7.79124 -99.3278
v 2000 -7.79124 -99.3278
v 2000 -8.03201 -99.485
v 0 -8.03201 -99.485
v 0 -8.03201 -99.485
v 2000 -8.03201 -99.485
v 2000 -8.19595 -99.7212
v 0 -8.19595 -99.7212
v 0 -8.19595 -99.7212
v 2000 -8.19595 -99.7212
v 2000 -8.25898 -100.002
v 0 -8.25898 -100.002
v 0 -10.5046 -95.1415
v 2000 -10.5046 -95.1415
v 2000 -10.4461 -95.0344
v 0 -10.4461 -95.0344
v 0 -10.4461 -95.0344
v 2000 -10.4461 -95.0344
v 2000 -10.3297 -94.9978
v 0 -10.3297 -94.9978
v 0 -6.60002 -94.9978
v 2000 -6.60002 -94.9978
v 2000 -6.51244 -94.9635
v 0 -6.51244 -94.9635
v 0 -6.51244 -94.9635
v 2000 -6.51244 -94.9635
v 2000 -6.45655 -94.8879
v 0 -6.45655 -94.8879
v 0 6.45458 -94.8904
v 2000 6.45458 -94.8904
v 2000 6.51496 -94.9629
v 0 6.51496 -94.9629
v 0 6.51496 -94.9629
v 2000 6.51496 -94.9629
v 2000 6.60265 -94.9978
v 0 6.60265 -94.9978
v 0 10.3218 -94.9978
v 2000 10.3218 -94.9978
v 2000 10.443 -95.0321
v 0 10.443 -95.0321
v 0 10.443 -95.0321
v 2000 10.443 -95.0321
v 2000 10.5027 -95.1432
v 0 10.5027 -95.1432
v 0 8.25454 -99.9982
v 2000 8.25454 -99.9982
v 2000 8.1926 -99.7121
v 0 8.1926 -99.7121
# индексы вершин с 221 по 348

vn 5.62272e-17 -0.91826 -0.395977
vn 5.62272e-17 -0.91826 -0.395977
vn 4.28761e-17 -0.70022 -0.713927
vn 4.28761e-17 -0.70022 -0.713927
vn 4.28761e-17 -0.70022 -0.713927
vn 4.28761e-17 -0.70022 -0.713927
vn 2.31521e-17 -0.378103 -0.925764
vn 2.31521e-17 -0.378103 -0.925764
vn 2.31521e-17 -0.378103 -0.925764
vn 2.31521e-17 -0.378103 -0.925764
vn -1.3031e-20 0.000212812 -1
vn -1.3031e-20 0.000212812 -1
vn -1.3031e-20 0.000212812 -1
vn -1.3031e-20 0.000212812 -1
vn -2.31763e-17 0.378497 -0.925603
vn -2.31763e-17 0.378497 -0.925603
vn -2.31763e-17 0.378497 -0.925603
vn -2.31763e-17 0.378497 -0.925603
vn -4.28947e-17 0.700524 -0.713629
vn -4.28947e-17 0.700524 -0.713629
vn -4.28947e-17 0.700524 -0.713629
vn -4.28947e-17 0.700524 -0.713629
vn -5.62375e-17 0.918429 -0.395587
vn -5.62375e-17 0.918429 -0.395587
vn -5.62375e-17 0.918429 -0.395587
vn -5.62375e-17 0.918429 -0.395587
vn -5.98521e-17 0.977459 -0.211126
vn -5.98521e-17 0.977459 -0.211126
vn 5.18016e-17 -0.845984 -0.533208
vn 5.18016e-17 -0.845984 -0.533208
vn 4.68334e-17 -0.764848 -0.644211
vn 4.68334e-17 -0.764848 -0.644211
vn 4.68334e-17 -0.764848 -0.644211
vn 4.68334e-17 -0.764848 -0.644211
vn 3.43516e-17 -0.561004 -0.827813
vn 3.43516e-17 -0.561004 -0.827813
vn 3.43516e-17 -0.561004 -0.827813
vn 3.43516e-17 -0.561004 -0.827813
vn 1.92844e-17 -0.314938 -0.949112
vn 1.92844e-17 -0.314938 -0.949112
vn 1.92844e-17 -0.314938 -0.949112
vn 1.92844e-17 -0.314938 -0.949112
vn -8.20587e-20 0.00134012 -0.999999
vn -8.20587e-20 0.00134012 -0.999999
vn -8.20587e-20 0.00134012 -0.999999
vn -8.20587e-20 0.00134012 -0.999999
vn -1.94216e-17 0.317179 -0.948366
vn -1.94216e-17 0.317179 -0.948366
vn -1.94216e-17 0.317179 -0.948366
vn -1.94216e-17 0.317179 -0.948366
vn -3.44389e-17 0.56243 -0.826845
vn -3.44389e-17 0.56243 -0.826845
vn -3.44389e-17 0.56243 -0.826845
vn -3.44389e-17 0.56243 -0.826845
vn -4.68763e-17 0.765547 -0.64338
vn -4.68763e-17 0.765547 -0.64338
vn -4.68763e-17 0.765547 -0.64338
vn -4.68763e-17 0.765547 -0.64338
vn -5.18267e-17 0.846393 -0.532558
vn -5.18267e-17 0.846393 -0.532558
vn 5.96772e-17 -0.974602 -0.223944
vn 5.96772e-17 -0.974602 -0.223944
vn 5.59181e-17 -0.913212 -0.407484
vn 5.59181e-17 -0.913212 -0.407484
vn 5.59181e-17 -0.913212 -0.407484
vn 5.59181e-17 -0.913212 -0.407484
vn 4.24705e-17 -0.693595 -0.720365
vn 4.24705e-17 -0.693595 -0.720365
vn 4.24705e-17 -0.693595 -0.720365
vn 4.24705e-17 -0.693595 -0.720365
vn 2.29298e-17 -0.374471 -0.927238
vn 2.29298e-17 -0.374471 -0.927238
vn 2.29298e-17 -0.374471 -0.927238
vn 2.29298e-17 -0.374471 -0.927238
vn -2.25667e-20 0.000368543 -1
vn -2.25667e-20 0.000368543 -1
vn -2.25667e-20 0.000368543 -1
vn -2.25667e-20 0.000368543 -1
vn -2.3028e-17 0.376076 -0.926589
vn -2.3028e-17 0.376076 -0.926589
vn -2.3028e-17 0.376076 -0.926589
vn -2.3028e-17 0.376076 -0.926589
vn -4.26807e-17 0.697029 -0.717043
vn -4.26807e-17 0.697029 -0.717043
vn -4.26807e-17 0.697029 -0.717043
vn -4.26807e-17 0.697029 -0.717043
vn -5.60627e-17 0.915574 -0.40215
vn -5.60627e-17 0.915574 -0.40215
vn -5.60627e-17 0.915574 -0.40215
vn -5.60627e-17 0.915574 -0.40215
vn -5.97428e-17 0.975674 -0.219226
vn -5.97428e-17 0.975674 -0.219226
vn 5.37255e-17 -0.877404 0.479752
vn 5.37255e-17 -0.877404 0.479752
vn 3.88704e-17 -0.634801 0.772675
vn 3.88704e-17 -0.634801 0.772675
vn 3.88704e-17 -0.634801 0.772675
vn 3.88704e-17 -0.634801 0.772675
vn 1.83922e-17 -0.300368 0.953824
vn 1.83922e-17 -0.300368 0.953824
vn 2.23059e-17 -0.364284 0.931288
vn 2.23059e-17 -0.364284 0.931288
vn 3.72347e-17 -0.608089 0.793869
vn 3.72347e-17 -0.608089 0.793869
vn 3.72347e-17 -0.608089 0.793869
vn 3.72347e-17 -0.608089 0.793869
vn 4.9247e-17 -0.804265 0.594271
vn 4.9247e-17 -0.804265 0.594271
vn -4.70531e-17 0.768435 0.639927
vn -4.70531e-17 0.768435 0.639927
vn -3.59354e-17 0.586869 0.809682
vn -3.59354e-17 0.586869 0.809682
vn -3.59354e-17 0.586869 0.809682
vn -3.59354e-17 0.586869 0.809682
vn -2.25975e-17 0.369045 0.929412
vn -2.25975e-17 0.369045 0.929412
vn -1.66813e-17 0.272426 0.962177
vn -1.66813e-17 0.272426 0.962177
vn -3.83596e-17 0.626459 0.779454
vn -3.83596e-17 0.626459 0.779454
vn -3.83596e-17 0.626459 0.779454
vn -3.83596e-17 0.626459 0.779454
vn -5.39492e-17 0.881057 0.47301
vn -5.39492e-17 0.881057 0.47301
vn 5.98466e-17 -0.977369 -0.211542
vn 5.98466e-17 -0.977369 -0.211542
vn 5.62272e-17 -0.91826 -0.395977
vn 5.62272e-17 -0.91826 -0.395977
# индексы нормалей вершин с 1 по 128

s 1
vt 7.13461e-19 -0.166187
vt 2.84444 -0.166187
vt 2.84444 -0.165784
vt 6.99041e-19 -0.165784
# индексы вершин текстуры с 441 по 444

f  221/441/1 222/442/2 223/443/3 224/444/4
vt 6.99041e-19 -0.0133784
vt 2.84444 -0.0133784
vt 2.84444 -0.0129707
vt 6.77738e-19 -0.0129707
# индексы вершин текстуры с 445 по 448

f  224/445/4 223/446/3 227/447/7 228/448/8
vt 6.77738e-19 -0.0129707
vt 2.84444 -0.0129707
vt 2.84444 -0.0124918
vt 6.52719e-19 -0.0124918
# индексы вершин текстуры с 449 по 452

f  228/449/8 227/450/7 231/451/11 232/452/12
vt 6.52719e-19 -0.0124918
vt 2.84444 -0.0124918
vt 2.84444 -0.0120131
vt 6.27701e-19 -0.0120131
# индексы вершин текстуры с 453 по 456

f  232/453/12 231/454/11 235/455/15 236/456/16
vt 6.27701e-19 -0.0120131
vt 2.84444 -0.0120131
vt 2.84444 -0.0116055
vt 6.06404e-19 -0.0116055
# индексы вершин текстуры с 457 по 460

f  236/457/16 235/458/15 239/459/19 240/460/20
vt 6.06404e-19 -0.165785
vt 2.84444 -0.165785
vt 2.84444 -0.166187
vt 5.91993e-19 -0.166187
# индексы вершин текстуры с 461 по 464

f  240/461/20 239/462/19 243/463/23 244/464/24
vt 5.91993e-19 -0.166187
vt 2.84444 -0.166187
vt 2.84444 -0.166664
vt 5.8661e-19 -0.166664
# индексы вершин текстуры с 465 по 468

f  244/465/24 243/466/23 247/467/27 248/468/28
vt 2.17336e-19 -0.159501
vt 2.84444 -0.159501
vt 2.84444 -0.158386
vt 1.80605e-19 -0.158386
# индексы вершин текстуры с 469 по 472

f  249/469/29 250/470/30 251/471/31 252/472/32
vt 1.80605e-19 -0.00345644
vt 2.84444 -0.00345644
vt 2.84444 -0.00247683
vt 1.29418e-19 -0.00247683
# индексы вершин текстуры с 473 по 476

f  252/473/32 251/474/31 255/475/35 256/476/36
vt 1.29418e-19 -0.00247683
vt 2.84444 -0.00247683
vt 2.84444 -0.00129431
vt 6.76296e-20 -0.00129431
# индексы вершин текстуры с 477 по 480

f  256/477/36 255/478/35 259/479/39 260/480/40
vt 6.76296e-20 -0.00129431
vt 2.84444 -0.00129431
vt 2.84444 2.12513e-06
vt -1.11042e-22 2.12513e-06
# индексы вершин текстуры с 481 по 484

f  260/481/40 259/482/39 263/483/43 264/484/44
vt -1.11042e-22 2.12513e-06
vt 2.84444 2.12513e-06
vt 2.84444 0.00129762
vt -6.78027e-20 0.00129762
# индексы вершин текстуры с 485 по 488

f  264/485/44 263/486/43 267/487/47 268/488/48
vt -6.78027e-20 0.00129762
vt 2.84444 0.00129762
vt 2.84444 0.00247869
vt -1.29515e-19 0.00247869
# индексы вершин текстуры с 489 по 492

f  268/489/48 267/490/47 271/491/51 272/492/52
vt -1.29515e-19 0.00247869
vt 2.84444 0.00247869
vt 2.84444 0.00345684
vt -1.80625e-19 0.00345684
# индексы вершин текстуры с 493 по 496

f  272/493/52 271/494/51 275/495/55 276/496/56
vt -1.80625e-19 -0.158393
vt 2.84444 -0.158393
vt 2.84444 -0.159508
vt -2.17304e-19 -0.159508
# индексы вершин текстуры с 497 по 500

f  276/497/56 275/498/55 279/499/59 280/500/60
vt -5.88637e-19 -0.16667
vt 2.84444 -0.16667
vt 2.84444 -0.166191
vt -5.94391e-19 -0.166191
# индексы вершин текстуры с 501 по 504

f  281/501/61 282/502/62 283/503/63 284/504/64
vt -5.94391e-19 -0.166191
vt 2.84444 -0.166191
vt 2.84444 -0.165805
vt -6.08578e-19 -0.165805
# индексы вершин текстуры с 505 по 508

f  284/505/64 283/506/63 287/507/67 288/508/68
vt -6.08578e-19 0.0116471
vt 2.84444 0.0116471
vt 2.84444 0.012047
vt -6.29476e-19 0.012047
# индексы вершин текстуры с 509 по 512

f  288/509/68 287/510/67 291/511/71 292/512/72
vt -6.29476e-19 0.012047
vt 2.84444 0.012047
vt 2.84444 0.012515
vt -6.53931e-19 0.012515
# индексы вершин текстуры с 513 по 516

f  292/513/72 291/514/71 295/515/75 296/516/76
vt -6.53931e-19 0.012515
vt 2.84444 0.012515
vt 2.84444 0.0129854
vt -6.78508e-19 0.0129854
# индексы вершин текстуры с 517 по 520

f  296/517/76 295/518/75 299/519/79 300/520/80
vt -6.78508e-19 0.0129854
vt 2.84444 0.0129854
vt 2.84444 0.0133867
vt -6.99475e-19 0.0133867
# индексы вершин текстуры с 521 по 524

f  300/521/80 299/522/79 303/523/83 304/524/84
vt -6.99475e-19 -0.165808
vt 2.84444 -0.165808
vt 2.84444 -0.166202
vt -7.13752e-19 -0.166202
# индексы вершин текстуры с 525 по 528

f  304/525/84 303/526/83 307/527/87 308/528/88
vt -7.13752e-19 -0.166202
vt 2.84444 -0.166202
vt 2.84444 -0.16667
vt -7.19242e-19 -0.16667
# индексы вершин текстуры с 529 по 532

f  308/529/88 307/530/87 311/531/91 312/532/92
vt -9.14807e-19 -0.158569
vt 2.84444 -0.158569
vt 2.84444 -0.158391
vt -9.09709e-19 -0.158391
# индексы вершин текстуры с 533 по 536

f  313/533/93 314/534/94 315/535/95 316/536/96
vt -9.09709e-19 0.0174102
vt 2.84444 0.0174102
vt 2.84444 0.0172162
vt -8.99573e-19 0.0172162
# индексы вершин текстуры с 537 по 540

f  316/537/96 315/538/95 319/539/99 320/540/100
vt -5.7477e-19 0.011
vt 2.84444 0.011
vt 2.84444 0.0108541
vt -5.67142e-19 0.0108541
# индексы вершин текстуры с 541 по 544

f  321/541/101 322/542/102 323/543/103 324/544/104
vt -5.67142e-19 -0.158273
vt 2.84444 -0.158273
vt 2.84444 -0.158146
vt -5.62275e-19 -0.158146
# индексы вершин текстуры с 545 по 548

f  324/545/104 323/546/103 327/547/107 328/548/108
vt 5.62104e-19 -0.158151
vt 2.84444 -0.158151
vt 2.84444 -0.158272
vt 5.67362e-19 -0.158272
# индексы вершин текстуры с 549 по 552

f  329/549/109 330/550/110 331/551/111 332/552/112
vt 5.67362e-19 -0.0108583
vt 2.84444 -0.0108583
vt 2.84444 -0.0110044
vt 5.74999e-19 -0.0110044
# индексы вершин текстуры с 553 по 556

f  332/553/112 331/554/111 335/555/115 336/556/116
vt 8.9888e-19 -0.0172029
vt 2.84444 -0.0172029
vt 2.84444 -0.0174051
vt 9.09442e-19 -0.0174051
# индексы вершин текстуры с 557 по 560

f  337/557/117 338/558/118 339/559/119 340/560/120
vt 9.09442e-19 -0.158387
vt 2.84444 -0.158387
vt 2.84444 -0.158572
vt 9.14634e-19 -0.158572
# индексы вершин текстуры с 561 по 564

f  340/561/120 339/562/119 343/563/123 344/564/124
vt 7.18855e-19 -0.166664
vt 2.84444 -0.166664
vt 2.84444 -0.166187
vt 7.13461e-19 -0.166187
# индексы вершин текстуры с 565 по 568

f  345/565/125 346/566/126 222/567/2 221/568/1
