# File exported by Pixologic 3D Print Exporter for ZBrush
# http://www.pixologic.com
mtllib HCR_523.mtl

#Object: obj0
#Vertex Count: 324
#UV Count: 528
#Face Count: 158
#Vertex Count: 324
v 0.000000 14.300781 0.000000
v 150.000000 14.300781 0.000000
v 150.000000 11.000000 0.000000
v 0.000000 11.000000 0.000000
v 0.000000 11.000000 0.000000
v 150.000000 11.000000 0.000000
v 150.000000 6.799805 1.992996
v 0.000000 6.799805 1.992996
v 0.000000 6.000977 1.496292
v 150.000000 6.000977 1.496292
v 150.000000 6.000977 0.000000
v 0.000000 6.000977 0.000000
v 0.000000 6.000977 0.000000
v 150.000000 6.000977 0.000000
v 150.000000 3.799805 0.000000
v 0.000000 3.799805 0.000000
v 0.000000 2.299805 0.000000
v 150.000000 2.299805 0.000000
v 150.000000 0.000000 0.000000
v 0.000000 0.000000 0.000000
v 0.000000 0.000000 0.000000
v 150.000000 0.000000 0.000000
v 150.000000 0.201172 5.546097
v 0.000000 0.201172 5.546097
v 0.000000 7.500000 5.766998
v 150.000000 7.500000 5.766998
v 150.000000 8.702148 5.977898
v 0.000000 8.702148 5.977898
v 0.000000 14.900391 3.510292
v 150.000000 14.900391 3.510292
v 150.000000 16.300781 4.021004
v 0.000000 16.300781 4.021004
v 0.000000 19.001953 2.196297
v 0.000000 19.001953 0.000000
v 0.000000 15.799805 0.000000
v 0.000000 15.500000 0.538101
v 0.000000 15.000977 0.762199
v 0.000000 14.500000 0.538101
v 0.000000 14.300781 0.000000
v 0.000000 11.000000 0.000000
v 0.000000 6.799805 1.992996
v 0.000000 6.500000 2.040298
v 0.000000 6.200195 1.953201
v 0.000000 6.099609 1.754601
v 0.000000 6.000977 1.496292
v 0.000000 6.000977 0.000000
v 0.000000 3.799805 0.000000
v 0.000000 3.501953 0.532394
v 0.000000 3.000977 0.752998
v 0.000000 2.501953 0.532394
v 0.000000 2.299805 0.000000
v 0.000000 0.000000 0.000000
v 0.000000 0.201172 5.546097
v 0.000000 0.299805 6.298798
v 0.000000 0.800781 6.922600
v 0.000000 1.500977 7.457100
v 0.000000 2.299805 7.818100
v 0.000000 3.202148 7.987793
v 0.000000 4.099609 7.957703
v 0.000000 5.000977 7.729301
v 0.000000 5.799805 7.313896
v 0.000000 6.500000 6.732201
v 0.000000 7.000977 6.013100
v 0.000000 7.099609 5.890900
v 0.000000 7.200195 5.803795
v 0.000000 7.399414 5.760994
v 0.000000 7.500000 5.766998
v 0.000000 8.702148 5.977898
v 0.000000 8.901367 5.980095
v 0.000000 9.000000 5.944298
v 0.000000 9.201172 5.872803
v 0.000000 9.299805 5.770599
v 0.000000 9.700195 5.068199
v 0.000000 10.201172 4.455498
v 0.000000 10.899414 3.952599
v 0.000000 11.599609 3.575989
v 0.000000 12.400391 3.338097
v 0.000000 13.202148 3.246696
v 0.000000 14.101563 3.304703
v 0.000000 14.900391 3.510292
v 0.000000 16.300781 4.021004
v 0.000000 16.900391 4.127701
v 0.000000 17.500000 4.037804
v 0.000000 18.099609 3.775299
v 0.000000 18.500000 3.378403
v 0.000000 18.799805 2.823593
v 150.000000 15.799805 0.000000
v 150.000000 19.001953 0.000000
v 150.000000 19.001953 2.196297
v 150.000000 18.799805 2.823593
v 150.000000 18.500000 3.378403
v 150.000000 18.099609 3.775299
v 150.000000 17.500000 4.037804
v 150.000000 16.900391 4.127701
v 150.000000 16.300781 4.021004
v 150.000000 14.900391 3.510292
v 150.000000 14.101563 3.304703
v 150.000000 13.202148 3.246696
v 150.000000 12.400391 3.338097
v 150.000000 11.599609 3.575989
v 150.000000 10.899414 3.952599
v 150.000000 10.201172 4.455498
v 150.000000 9.700195 5.068199
v 150.000000 9.299805 5.770599
v 150.000000 9.201172 5.872803
v 150.000000 9.000000 5.944298
v 150.000000 8.901367 5.980095
v 150.000000 8.702148 5.977898
v 150.000000 7.500000 5.766998
v 150.000000 7.399414 5.760994
v 150.000000 7.200195 5.803795
v 150.000000 7.099609 5.890900
v 150.000000 7.000977 6.013100
v 150.000000 6.500000 6.732201
v 150.000000 5.799805 7.313896
v 150.000000 5.000977 7.729301
v 150.000000 4.099609 7.957703
v 150.000000 3.202148 7.987793
v 150.000000 2.299805 7.818100
v 150.000000 1.500977 7.457100
v 150.000000 0.800781 6.922600
v 150.000000 0.299805 6.298798
v 150.000000 0.201172 5.546097
v 150.000000 0.000000 0.000000
v 150.000000 2.299805 0.000000
v 150.000000 2.501953 0.532394
v 150.000000 3.000977 0.752998
v 150.000000 3.501953 0.532394
v 150.000000 3.799805 0.000000
v 150.000000 6.000977 0.000000
v 150.000000 6.000977 1.496292
v 150.000000 6.099609 1.754601
v 150.000000 6.200195 1.953201
v 150.000000 6.500000 2.040298
v 150.000000 6.799805 1.992996
v 150.000000 11.000000 0.000000
v 150.000000 14.300781 0.000000
v 150.000000 14.500000 0.538101
v 150.000000 15.000977 0.762199
v 150.000000 15.500000 0.538101
v 0.000000 19.001953 2.196297
v 150.000000 19.001953 2.196297
v 150.000000 19.001953 0.000000
v 0.000000 19.001953 0.000000
v 0.000000 19.001953 0.000000
v 150.000000 19.001953 0.000000
v 150.000000 15.799805 0.000000
v 0.000000 15.799805 0.000000
v 0.000000 15.500000 0.538101
v 150.000000 15.500000 0.538101
v 150.000000 15.000977 0.762199
v 0.000000 15.000977 0.762199
v 0.000000 15.000977 0.762199
v 150.000000 15.000977 0.762199
v 150.000000 14.500000 0.538101
v 0.000000 14.500000 0.538101
v 0.000000 14.500000 0.538101
v 150.000000 14.500000 0.538101
v 150.000000 14.300781 0.000000
v 0.000000 14.300781 0.000000
v 0.000000 6.799805 1.992996
v 150.000000 6.799805 1.992996
v 150.000000 6.500000 2.040298
v 0.000000 6.500000 2.040298
v 0.000000 6.500000 2.040298
v 150.000000 6.500000 2.040298
v 150.000000 6.200195 1.953201
v 0.000000 6.200195 1.953201
v 0.000000 6.200195 1.953201
v 150.000000 6.200195 1.953201
v 150.000000 6.099609 1.754601
v 0.000000 6.099609 1.754601
v 0.000000 6.099609 1.754601
v 150.000000 6.099609 1.754601
v 150.000000 6.000977 1.496292
v 0.000000 6.000977 1.496292
v 0.000000 3.799805 0.000000
v 150.000000 3.799805 0.000000
v 150.000000 3.501953 0.532394
v 0.000000 3.501953 0.532394
v 0.000000 3.501953 0.532394
v 150.000000 3.501953 0.532394
v 150.000000 3.000977 0.752998
v 0.000000 3.000977 0.752998
v 0.000000 3.000977 0.752998
v 150.000000 3.000977 0.752998
v 150.000000 2.501953 0.532394
v 0.000000 2.501953 0.532394
v 0.000000 2.501953 0.532394
v 150.000000 2.501953 0.532394
v 150.000000 2.299805 0.000000
v 0.000000 2.299805 0.000000
v 0.000000 0.201172 5.546097
v 150.000000 0.201172 5.546097
v 150.000000 0.299805 6.298798
v 0.000000 0.299805 6.298798
v 0.000000 0.299805 6.298798
v 150.000000 0.299805 6.298798
v 150.000000 0.800781 6.922600
v 0.000000 0.800781 6.922600
v 0.000000 0.800781 6.922600
v 150.000000 0.800781 6.922600
v 150.000000 1.500977 7.457100
v 0.000000 1.500977 7.457100
v 0.000000 1.500977 7.457100
v 150.000000 1.500977 7.457100
v 150.000000 2.299805 7.818100
v 0.000000 2.299805 7.818100
v 0.000000 2.299805 7.818100
v 150.000000 2.299805 7.818100
v 150.000000 3.202148 7.987793
v 0.000000 3.202148 7.987793
v 0.000000 3.202148 7.987793
v 150.000000 3.202148 7.987793
v 150.000000 4.099609 7.957703
v 0.000000 4.099609 7.957703
v 0.000000 4.099609 7.957703
v 150.000000 4.099609 7.957703
v 150.000000 5.000977 7.729301
v 0.000000 5.000977 7.729301
v 0.000000 5.000977 7.729301
v 150.000000 5.000977 7.729301
v 150.000000 5.799805 7.313896
v 0.000000 5.799805 7.313896
v 0.000000 5.799805 7.313896
v 150.000000 5.799805 7.313896
v 150.000000 6.500000 6.732201
v 0.000000 6.500000 6.732201
v 0.000000 6.500000 6.732201
v 150.000000 6.500000 6.732201
v 150.000000 7.000977 6.013100
v 0.000000 7.000977 6.013100
v 0.000000 7.000977 6.013100
v 150.000000 7.000977 6.013100
v 150.000000 7.099609 5.890900
v 0.000000 7.099609 5.890900
v 0.000000 7.099609 5.890900
v 150.000000 7.099609 5.890900
v 150.000000 7.200195 5.803795
v 0.000000 7.200195 5.803795
v 0.000000 7.200195 5.803795
v 150.000000 7.200195 5.803795
v 150.000000 7.399414 5.760994
v 0.000000 7.399414 5.760994
v 0.000000 7.399414 5.760994
v 150.000000 7.399414 5.760994
v 150.000000 7.500000 5.766998
v 0.000000 7.500000 5.766998
v 0.000000 8.702148 5.977898
v 150.000000 8.702148 5.977898
v 150.000000 8.901367 5.980095
v 0.000000 8.901367 5.980095
v 0.000000 8.901367 5.980095
v 150.000000 8.901367 5.980095
v 150.000000 9.000000 5.944298
v 0.000000 9.000000 5.944298
v 0.000000 9.000000 5.944298
v 150.000000 9.000000 5.944298
v 150.000000 9.201172 5.872803
v 0.000000 9.201172 5.872803
v 0.000000 9.201172 5.872803
v 150.000000 9.201172 5.872803
v 150.000000 9.299805 5.770599
v 0.000000 9.299805 5.770599
v 0.000000 9.299805 5.770599
v 150.000000 9.299805 5.770599
v 150.000000 9.700195 5.068199
v 0.000000 9.700195 5.068199
v 0.000000 9.700195 5.068199
v 150.000000 9.700195 5.068199
v 150.000000 10.201172 4.455498
v 0.000000 10.201172 4.455498
v 0.000000 10.201172 4.455498
v 150.000000 10.201172 4.455498
v 150.000000 10.899414 3.952599
v 0.000000 10.899414 3.952599
v 0.000000 10.899414 3.952599
v 150.000000 10.899414 3.952599
v 150.000000 11.599609 3.575989
v 0.000000 11.599609 3.575989
v 0.000000 11.599609 3.575989
v 150.000000 11.599609 3.575989
v 150.000000 12.400391 3.338097
v 0.000000 12.400391 3.338097
v 0.000000 12.400391 3.338097
v 150.000000 12.400391 3.338097
v 150.000000 13.202148 3.246696
v 0.000000 13.202148 3.246696
v 0.000000 13.202148 3.246696
v 150.000000 13.202148 3.246696
v 150.000000 14.101563 3.304703
v 0.000000 14.101563 3.304703
v 0.000000 14.101563 3.304703
v 150.000000 14.101563 3.304703
v 150.000000 14.900391 3.510292
v 0.000000 14.900391 3.510292
v 0.000000 16.300781 4.021004
v 150.000000 16.300781 4.021004
v 150.000000 16.900391 4.127701
v 0.000000 16.900391 4.127701
v 0.000000 16.900391 4.127701
v 150.000000 16.900391 4.127701
v 150.000000 17.500000 4.037804
v 0.000000 17.500000 4.037804
v 0.000000 17.500000 4.037804
v 150.000000 17.500000 4.037804
v 150.000000 18.099609 3.775299
v 0.000000 18.099609 3.775299
v 0.000000 18.099609 3.775299
v 150.000000 18.099609 3.775299
v 150.000000 18.500000 3.378403
v 0.000000 18.500000 3.378403
v 0.000000 18.500000 3.378403
v 150.000000 18.500000 3.378403
v 150.000000 18.799805 2.823593
v 0.000000 18.799805 2.823593
v 0.000000 18.799805 2.823593
v 150.000000 18.799805 2.823593
v 150.000000 19.001953 2.196297
v 0.000000 19.001953 2.196297
v 0.000000 15.799805 0.000000
v 150.000000 15.799805 0.000000
v 150.000000 15.500000 0.538101
v 0.000000 15.500000 0.538101
#UV count: 528
vt -9.527810 -18.836599
vt -9.314470 -18.836599
vt -9.314470 -18.831200
vt -9.527810 -18.831200
vt -9.527810 -18.831200
vt -9.314470 -18.831200
vt -9.314470 -18.824100
vt -9.527810 -18.824100
vt -9.527810 -0.164173
vt -9.314470 -0.164173
vt -9.314470 -0.166667
vt -9.527810 -0.166667
vt -9.527810 -18.822901
vt -9.314470 -18.822901
vt -9.314470 -18.819099
vt -9.527810 -18.819099
vt -9.527810 -18.816601
vt -9.314470 -18.816601
vt -9.314470 -18.812799
vt -9.527810 -18.812799
vt -9.527810 -0.166667
vt -9.314470 -0.166667
vt -9.314470 -0.157423
vt -9.527810 -0.157423
vt -9.527810 -18.825399
vt -9.314470 -18.825399
vt -9.314470 -18.827400
vt -9.527810 -18.827400
vt -9.527810 -18.837601
vt -9.314470 -18.837601
vt -9.314470 -18.840000
vt -9.527810 -18.840000
vt -16.056900 -0.153636
vt -16.058201 -0.153354
vt -16.059500 -0.153404
vt -16.056900 -0.153636
vt -16.059500 -0.153404
vt -16.060699 -0.153785
vt -16.055799 -0.154238
vt -16.056900 -0.153636
vt -16.060699 -0.153785
vt -16.055799 -0.154238
vt -16.060699 -0.153785
vt -16.061800 -0.154477
vt -16.054701 -0.155129
vt -16.055799 -0.154238
vt -16.061800 -0.154477
vt -16.054701 -0.155129
vt -16.061800 -0.154477
vt -16.062799 -0.155446
vt -16.054100 -0.156169
vt -16.054701 -0.155129
vt -16.062799 -0.155446
vt -16.054100 -0.156169
vt -16.062799 -0.155446
vt -16.063601 -0.156645
vt -16.066099 -0.156704
vt -16.066299 -0.156700
vt -16.066500 -0.156760
vt -16.054100 -0.156169
vt -16.063601 -0.156645
vt -16.063700 -0.156849
vt -16.066099 -0.156704
vt -16.066500 -0.156760
vt -16.066601 -0.156879
vt -16.054100 -0.156169
vt -16.063700 -0.156849
vt -16.063900 -0.156994
vt -16.066099 -0.156704
vt -16.066601 -0.156879
vt -16.066799 -0.157049
vt -16.064301 -0.157055
vt -16.066099 -0.156704
vt -16.066799 -0.157049
vt -16.054100 -0.156169
vt -16.063900 -0.156994
vt -16.064100 -0.157065
vt -16.064100 -0.157065
vt -16.064301 -0.157055
vt -16.066799 -0.157049
vt -16.053801 -0.157423
vt -16.054100 -0.156169
vt -16.064100 -0.157065
vt -16.053801 -0.157423
vt -16.064100 -0.157065
vt -16.066799 -0.157049
vt -16.053801 -0.157423
vt -16.066799 -0.157049
vt -16.067400 -0.158220
vt -16.053801 -0.157423
vt -16.067400 -0.158220
vt -16.068199 -0.159241
vt -16.076799 -0.159965
vt -16.077700 -0.159787
vt -16.078501 -0.159937
vt -16.053801 -0.157423
vt -16.068199 -0.159241
vt -16.069099 -0.160079
vt -16.076799 -0.159965
vt -16.078501 -0.159937
vt -16.079300 -0.160375
vt -16.053801 -0.157423
vt -16.069099 -0.160079
vt -16.070200 -0.160707
vt -16.074800 -0.160816
vt -16.076799 -0.159965
vt -16.079300 -0.160375
vt -16.074800 -0.160816
vt -16.079300 -0.160375
vt -16.079901 -0.161036
vt -16.053801 -0.157423
vt -16.070200 -0.160707
vt -16.071301 -0.161103
vt -16.073601 -0.161159
vt -16.074800 -0.160816
vt -16.079901 -0.161036
vt -16.072500 -0.161256
vt -16.073601 -0.161159
vt -16.079901 -0.161036
vt -16.072500 -0.161256
vt -16.079901 -0.161036
vt -16.080400 -0.161961
vt -16.072500 -0.161256
vt -16.080400 -0.161961
vt -16.080601 -0.163006
vt -16.071301 -0.161103
vt -16.072500 -0.161256
vt -16.080601 -0.163006
vt -16.071301 -0.161103
vt -16.080601 -0.163006
vt -16.062901 -0.163266
vt -16.053801 -0.157423
vt -16.071301 -0.161103
vt -16.062901 -0.163266
vt -16.063200 -0.163345
vt -16.062901 -0.163266
vt -16.080601 -0.163006
vt -16.053801 -0.157423
vt -16.062901 -0.163266
vt -16.062500 -0.163411
vt -16.053801 -0.157423
vt -16.062500 -0.163411
vt -16.062300 -0.163742
vt -16.053801 -0.157423
vt -16.062300 -0.163742
vt -16.062201 -0.164173
vt -16.075001 -0.165396
vt -16.063200 -0.163345
vt -16.080601 -0.163006
vt -16.053801 -0.157423
vt -16.062201 -0.164173
vt -16.057899 -0.165412
vt -16.063200 -0.163345
vt -16.075001 -0.165396
vt -16.074200 -0.165770
vt -16.075701 -0.165770
vt -16.075001 -0.165396
vt -16.080601 -0.163006
vt -16.053801 -0.157423
vt -16.057899 -0.165412
vt -16.057100 -0.165779
vt -16.058701 -0.165779
vt -16.057899 -0.165412
vt -16.062201 -0.164173
vt -16.053600 -0.166667
vt -16.053801 -0.157423
vt -16.057100 -0.165779
vt -16.053600 -0.166667
vt -16.057100 -0.165779
vt -16.056801 -0.166667
vt -16.059000 -0.166667
vt -16.058701 -0.165779
vt -16.062201 -0.166667
vt -16.062201 -0.166667
vt -16.058701 -0.165779
vt -16.062201 -0.164173
vt -16.069300 -0.166667
vt -16.063200 -0.163345
vt -16.074200 -0.165770
vt -16.069300 -0.166667
vt -16.074200 -0.165770
vt -16.073900 -0.166667
vt -16.076000 -0.166667
vt -16.075701 -0.165770
vt -16.080700 -0.166667
vt -16.080700 -0.166667
vt -16.075701 -0.165770
vt -16.080601 -0.163006
vt -16.059500 -0.153404
vt -16.058201 -0.153354
vt -16.056900 -0.153636
vt -16.060699 -0.153785
vt -16.059500 -0.153404
vt -16.056900 -0.153636
vt -16.060699 -0.153785
vt -16.056900 -0.153636
vt -16.055799 -0.154238
vt -16.061800 -0.154477
vt -16.060699 -0.153785
vt -16.055799 -0.154238
vt -16.061800 -0.154477
vt -16.055799 -0.154238
vt -16.054701 -0.155129
vt -16.062799 -0.155446
vt -16.061800 -0.154477
vt -16.054701 -0.155129
vt -16.062799 -0.155446
vt -16.054701 -0.155129
vt -16.054100 -0.156169
vt -16.063601 -0.156645
vt -16.062799 -0.155446
vt -16.054100 -0.156169
vt -16.066500 -0.156760
vt -16.066299 -0.156700
vt -16.066099 -0.156704
vt -16.063700 -0.156849
vt -16.063601 -0.156645
vt -16.054100 -0.156169
vt -16.066601 -0.156879
vt -16.066500 -0.156760
vt -16.066099 -0.156704
vt -16.063900 -0.156994
vt -16.063700 -0.156849
vt -16.054100 -0.156169
vt -16.066799 -0.157049
vt -16.066601 -0.156879
vt -16.066099 -0.156704
vt -16.066799 -0.157049
vt -16.066099 -0.156704
vt -16.064301 -0.157055
vt -16.066799 -0.157049
vt -16.064301 -0.157055
vt -16.064100 -0.157065
vt -16.064100 -0.157065
vt -16.063900 -0.156994
vt -16.054100 -0.156169
vt -16.064100 -0.157065
vt -16.054100 -0.156169
vt -16.053801 -0.157423
vt -16.066799 -0.157049
vt -16.064100 -0.157065
vt -16.053801 -0.157423
vt -16.067400 -0.158220
vt -16.066799 -0.157049
vt -16.053801 -0.157423
vt -16.068199 -0.159241
vt -16.067400 -0.158220
vt -16.053801 -0.157423
vt -16.078501 -0.159937
vt -16.077700 -0.159787
vt -16.076799 -0.159965
vt -16.069099 -0.160079
vt -16.068199 -0.159241
vt -16.053801 -0.157423
vt -16.079300 -0.160375
vt -16.078501 -0.159937
vt -16.076799 -0.159965
vt -16.070200 -0.160707
vt -16.069099 -0.160079
vt -16.053801 -0.157423
vt -16.079300 -0.160375
vt -16.076799 -0.159965
vt -16.074800 -0.160816
vt -16.079901 -0.161036
vt -16.079300 -0.160375
vt -16.074800 -0.160816
vt -16.071301 -0.161103
vt -16.070200 -0.160707
vt -16.053801 -0.157423
vt -16.079901 -0.161036
vt -16.074800 -0.160816
vt -16.073601 -0.161159
vt -16.079901 -0.161036
vt -16.073601 -0.161159
vt -16.072500 -0.161256
vt -16.080400 -0.161961
vt -16.079901 -0.161036
vt -16.072500 -0.161256
vt -16.080601 -0.163006
vt -16.080400 -0.161961
vt -16.072500 -0.161256
vt -16.080601 -0.163006
vt -16.072500 -0.161256
vt -16.071301 -0.161103
vt -16.062901 -0.163266
vt -16.080601 -0.163006
vt -16.071301 -0.161103
vt -16.062901 -0.163266
vt -16.071301 -0.161103
vt -16.053801 -0.157423
vt -16.080601 -0.163006
vt -16.062901 -0.163266
vt -16.063200 -0.163345
vt -16.062500 -0.163411
vt -16.062901 -0.163266
vt -16.053801 -0.157423
vt -16.062300 -0.163742
vt -16.062500 -0.163411
vt -16.053801 -0.157423
vt -16.062201 -0.164173
vt -16.062300 -0.163742
vt -16.053801 -0.157423
vt -16.080601 -0.163006
vt -16.063200 -0.163345
vt -16.075001 -0.165396
vt -16.057899 -0.165412
vt -16.062201 -0.164173
vt -16.053801 -0.157423
vt -16.080601 -0.163006
vt -16.075001 -0.165396
vt -16.075701 -0.165770
vt -16.074200 -0.165770
vt -16.075001 -0.165396
vt -16.063200 -0.163345
vt -16.062201 -0.164173
vt -16.057899 -0.165412
vt -16.058701 -0.165779
vt -16.057100 -0.165779
vt -16.057899 -0.165412
vt -16.053801 -0.157423
vt -16.080700 -0.166667
vt -16.080601 -0.163006
vt -16.075701 -0.165770
vt -16.080700 -0.166667
vt -16.075701 -0.165770
vt -16.076000 -0.166667
vt -16.073900 -0.166667
vt -16.074200 -0.165770
vt -16.069300 -0.166667
vt -16.069300 -0.166667
vt -16.074200 -0.165770
vt -16.063200 -0.163345
vt -16.062201 -0.166667
vt -16.062201 -0.164173
vt -16.058701 -0.165779
vt -16.062201 -0.166667
vt -16.058701 -0.165779
vt -16.059000 -0.166667
vt -16.056801 -0.166667
vt -16.057100 -0.165779
vt -16.053600 -0.166667
vt -16.053600 -0.166667
vt -16.057100 -0.165779
vt -16.053801 -0.157423
vt -9.527810 -0.163006
vt -9.314470 -0.163006
vt -9.314470 -0.166667
vt -9.527810 -0.166667
vt -9.527810 -18.844500
vt -9.314470 -18.844500
vt -9.314470 -18.839100
vt -9.527810 -18.839100
vt -9.527810 -18.838699
vt -9.314470 -18.838699
vt -9.314470 -18.837799
vt -9.527810 -18.837799
vt -9.527810 -18.837799
vt -9.314470 -18.837799
vt -9.314470 -18.836901
vt -9.527810 -18.836901
vt -9.527810 -0.165770
vt -9.314470 -0.165770
vt -9.314470 -0.166667
vt -9.527810 -0.166667
vt -9.527810 -18.824100
vt -9.314470 -18.824100
vt -9.314470 -18.823700
vt -9.527810 -18.823700
vt -9.527810 -18.823700
vt -9.314470 -18.823700
vt -9.314470 -18.823200
vt -9.527810 -18.823200
vt -9.527810 -0.163411
vt -9.314470 -0.163411
vt -9.314470 -0.163742
vt -9.527810 -0.163742
vt -9.527810 -0.163742
vt -9.314470 -0.163742
vt -9.314470 -0.164173
vt -9.527810 -0.164173
vt -9.527810 -0.166667
vt -9.314470 -0.166667
vt -9.314470 -0.165779
vt -9.527810 -0.165779
vt -9.527810 -18.818701
vt -9.314470 -18.818701
vt -9.314470 -18.817900
vt -9.527810 -18.817900
vt -9.527810 -18.817900
vt -9.314470 -18.817900
vt -9.314470 -18.816999
vt -9.527810 -18.816999
vt -9.527810 -0.165779
vt -9.314470 -0.165779
vt -9.314470 -0.166667
vt -9.527810 -0.166667
vt -9.527810 -0.157423
vt -9.314470 -0.157423
vt -9.314470 -0.156169
vt -9.527810 -0.156169
vt -9.527810 -0.156169
vt -9.314470 -0.156169
vt -9.314470 -0.155129
vt -9.527810 -0.155129
vt -9.527810 -18.814100
vt -9.314470 -18.814100
vt -9.314470 -18.815300
vt -9.527810 -18.815300
vt -9.527810 -18.815300
vt -9.314470 -18.815300
vt -9.314470 -18.816700
vt -9.527810 -18.816700
vt -9.527810 -18.816700
vt -9.314470 -18.816700
vt -9.314470 -18.818199
vt -9.527810 -18.818199
vt -9.527810 -18.818199
vt -9.314470 -18.818199
vt -9.314470 -18.819700
vt -9.527810 -18.819700
vt -9.527810 -18.819700
vt -9.314470 -18.819700
vt -9.314470 -18.821100
vt -9.527810 -18.821100
vt -9.527810 -18.821100
vt -9.314470 -18.821100
vt -9.314470 -18.822500
vt -9.527810 -18.822500
vt -9.527810 -18.822500
vt -9.314470 -18.822500
vt -9.314470 -18.823601
vt -9.527810 -18.823601
vt -9.527810 -0.155446
vt -9.314470 -0.155446
vt -9.314470 -0.156645
vt -9.527810 -0.156645
vt -9.527810 -0.156645
vt -9.314470 -0.156645
vt -9.314470 -0.156849
vt -9.527810 -0.156849
vt -9.527810 -18.824699
vt -9.314470 -18.824699
vt -9.314470 -18.824900
vt -9.527810 -18.824900
vt -9.527810 -18.824900
vt -9.314470 -18.824900
vt -9.314470 -18.825100
vt -9.527810 -18.825100
vt -9.527810 -18.825100
vt -9.314470 -18.825100
vt -9.314470 -18.825399
vt -9.527810 -18.825399
vt -9.527810 -18.827400
vt -9.314470 -18.827400
vt -9.314470 -18.827600
vt -9.527810 -18.827600
vt -9.527810 -18.827600
vt -9.314470 -18.827600
vt -9.314470 -18.827900
vt -9.527810 -18.827900
vt -9.527810 -18.827900
vt -9.314470 -18.827900
vt -9.314470 -18.828100
vt -9.527810 -18.828100
vt -9.527810 -18.828100
vt -9.314470 -18.828100
vt -9.314470 -18.828300
vt -9.527810 -18.828300
vt -9.527810 -0.157049
vt -9.314470 -0.157049
vt -9.314470 -0.158220
vt -9.527810 -0.158220
vt -9.527810 -0.158220
vt -9.314470 -0.158220
vt -9.314470 -0.159241
vt -9.527810 -0.159241
vt -9.527810 -18.829901
vt -9.314470 -18.829901
vt -9.314470 -18.830999
vt -9.527810 -18.830999
vt -9.527810 -18.830999
vt -9.314470 -18.830999
vt -9.314470 -18.832199
vt -9.527810 -18.832199
vt -9.527810 -18.832199
vt -9.314470 -18.832199
vt -9.314470 -18.833500
vt -9.527810 -18.833500
vt -9.527810 -18.833500
vt -9.314470 -18.833500
vt -9.314470 -18.834900
vt -9.527810 -18.834900
vt -9.527810 -18.834900
vt -9.314470 -18.834900
vt -9.314470 -18.836300
vt -9.527810 -18.836300
vt -9.527810 -18.836300
vt -9.314470 -18.836300
vt -9.314470 -18.837601
vt -9.527810 -18.837601
vt -9.527810 -18.840000
vt -9.314470 -18.840000
vt -9.314470 -18.841000
vt -9.527810 -18.841000
vt -9.527810 -18.841000
vt -9.314470 -18.841000
vt -9.314470 -18.841999
vt -9.527810 -18.841999
vt -9.527810 -18.841999
vt -9.314470 -18.841999
vt -9.314470 -18.842899
vt -9.527810 -18.842899
vt -9.527810 -18.842899
vt -9.314470 -18.842899
vt -9.314470 -18.843700
vt -9.527810 -18.843700
vt -9.527810 -0.161036
vt -9.314470 -0.161036
vt -9.314470 -0.161961
vt -9.527810 -0.161961
vt -9.527810 -0.161961
vt -9.314470 -0.161961
vt -9.314470 -0.163006
vt -9.527810 -0.163006
vt -9.527810 -0.166667
vt -9.314470 -0.166667
vt -9.314470 -0.165770
vt -9.527810 -0.165770
g obj0
#Face Count: 158
f 1/1 2/2 3/3 4/4
f 4/5 3/6 7/7 8/8
f 9/9 10/10 11/11 12/12
f 12/13 11/14 15/15 16/16
f 17/17 18/18 19/19 20/20
f 20/21 19/22 23/23 24/24
f 25/25 26/26 27/27 28/28
f 29/29 30/30 31/31 32/32
f 57/33 58/34 59/35
f 57/36 59/37 60/38
f 56/39 57/40 60/41
f 56/42 60/43 61/44
f 55/45 56/46 61/47
f 55/48 61/49 62/50
f 54/51 55/52 62/53
f 54/54 62/55 63/56
f 28/57 69/58 70/59
f 54/60 63/61 64/62
f 28/63 70/64 71/65
f 54/66 64/67 65/68
f 28/69 71/70 72/71
f 25/72 28/73 72/74
f 54/75 65/76 66/77
f 66/78 25/79 72/80
f 24/81 54/82 66/83
f 24/84 66/85 72/86
f 24/87 72/88 73/89
f 24/90 73/91 74/92
f 32/93 82/94 83/95
f 24/96 74/97 75/98
f 32/99 83/100 84/101
f 24/102 75/103 76/104
f 29/105 32/106 84/107
f 29/108 84/109 85/110
f 24/111 76/112 77/113
f 79/114 29/115 85/116
f 78/117 79/118 85/119
f 78/120 85/121 86/122
f 78/123 86/124 33/125
f 77/126 78/127 33/128
f 77/129 33/130 42/131
f 24/132 77/133 42/134
f 8/135 42/136 33/137
f 24/138 42/139 43/140
f 24/141 43/142 44/143
f 24/144 44/145 9/146
f 37/147 8/148 33/149
f 24/150 9/151 49/152
f 8/153 37/154 38/155
f 36/156 37/157 33/158
f 24/159 49/160 50/161
f 48/162 49/163 9/164
f 20/165 24/166 50/167
f 20/168 50/169 17/170
f 16/171 48/172 12/173
f 12/174 48/175 9/176
f 4/177 8/178 38/179
f 4/180 38/181 1/182
f 35/183 36/184 34/185
f 34/186 36/187 33/188
f 117/189 118/190 119/191
f 116/192 117/193 119/194
f 116/195 119/196 120/197
f 115/198 116/199 120/200
f 115/201 120/202 121/203
f 114/204 115/205 121/206
f 114/207 121/208 122/209
f 113/210 114/211 122/212
f 106/213 107/214 27/215
f 112/216 113/217 122/218
f 105/219 106/220 27/221
f 111/222 112/223 122/224
f 104/225 105/226 27/227
f 104/228 27/229 26/230
f 104/231 26/232 110/233
f 110/234 111/235 122/236
f 110/237 122/238 23/239
f 104/240 110/241 23/242
f 103/243 104/244 23/245
f 102/246 103/247 23/248
f 93/249 94/250 31/251
f 101/252 102/253 23/254
f 92/255 93/256 31/257
f 100/258 101/259 23/260
f 92/261 31/262 30/263
f 91/264 92/265 30/266
f 99/267 100/268 23/269
f 91/270 30/271 97/272
f 91/273 97/274 98/275
f 90/276 91/277 98/278
f 89/279 90/280 98/281
f 89/282 98/283 99/284
f 134/285 89/286 99/287
f 134/288 99/289 23/290
f 89/291 134/292 7/293
f 133/294 134/295 23/296
f 132/297 133/298 23/299
f 10/300 132/301 23/302
f 89/303 7/304 139/305
f 127/306 10/307 23/308
f 89/309 139/310 140/311
f 138/312 139/313 7/314
f 10/315 127/316 128/317
f 126/318 127/319 23/320
f 88/321 89/322 140/323
f 88/324 140/325 87/326
f 2/327 138/328 3/329
f 3/330 138/331 7/332
f 11/333 10/334 128/335
f 11/336 128/337 15/338
f 18/339 126/340 19/341
f 19/342 126/343 23/344
f 33/345 89/346 88/347 34/348
f 34/349 88/350 87/351 35/352
f 149/353 150/354 151/355 152/356
f 152/357 151/358 155/359 156/360
f 156/361 155/362 159/363 160/364
f 161/365 162/366 163/367 164/368
f 164/369 163/370 167/371 168/372
f 168/373 167/374 171/375 172/376
f 172/377 171/378 175/379 176/380
f 177/381 178/382 179/383 180/384
f 180/385 179/386 183/387 184/388
f 184/389 183/390 187/391 188/392
f 188/393 187/394 191/395 192/396
f 193/397 194/398 195/399 196/400
f 196/401 195/402 199/403 200/404
f 200/405 199/406 203/407 204/408
f 204/409 203/410 207/411 208/412
f 208/413 207/414 211/415 212/416
f 212/417 211/418 215/419 216/420
f 216/421 215/422 219/423 220/424
f 220/425 219/426 223/427 224/428
f 224/429 223/430 227/431 228/432
f 228/433 227/434 231/435 232/436
f 232/437 231/438 235/439 236/440
f 236/441 235/442 239/443 240/444
f 240/445 239/446 243/447 244/448
f 244/449 243/450 247/451 248/452
f 249/453 250/454 251/455 252/456
f 252/457 251/458 255/459 256/460
f 256/461 255/462 259/463 260/464
f 260/465 259/466 263/467 264/468
f 264/469 263/470 267/471 268/472
f 268/473 267/474 271/475 272/476
f 272/477 271/478 275/479 276/480
f 276/481 275/482 279/483 280/484
f 280/485 279/486 283/487 284/488
f 284/489 283/490 287/491 288/492
f 288/493 287/494 291/495 292/496
f 292/497 291/498 295/499 296/500
f 297/501 298/502 299/503 300/504
f 300/505 299/506 303/507 304/508
f 304/509 303/510 307/511 308/512
f 308/513 307/514 311/515 312/516
f 312/517 311/518 315/519 316/520
f 316/521 315/522 319/523 320/524
f 321/525 322/526 150/527 149/528
