# File exported by Pixologic 3D Print Exporter for ZBrush
# http://www.pixologic.com
mtllib HCR 522-1.mtl

#Object: obj0
#Vertex Count: 673
#Face Count: 732
#Vertex Count: 673
v -0.000003 105.200066 -0.000004
v 93.279137 93.279137 -0.000004
v 96.281578 96.281578 -0.000004
v 93.231560 93.231529 0.295711
v 93.104637 93.104576 0.541057
v 92.935112 92.935051 0.688808
v 92.735039 92.735039 0.738658
v 92.534081 92.534050 0.678455
v 92.343925 92.343864 0.475467
v 92.248039 92.247978 0.270259
v 92.214287 92.214256 0.041919
v 75.912498 75.912491 -0.000004
v 75.863518 75.863480 0.283878
v 75.749107 75.749100 0.535450
v 75.587578 75.587570 0.687854
v 75.377037 75.377029 0.766964
v 75.171501 75.171494 0.703174
v 75.002525 75.002487 0.530696
v 74.882072 74.882065 0.276912
v 74.837029 74.837021 -0.000004
v 72.892052 72.892044 -0.000004
v 73.297569 73.297562 9.185346
v 73.487999 73.487991 10.534253
v 73.903618 73.903580 11.778592
v 74.531578 74.531570 12.837903
v 75.330070 75.330063 13.651662
v 76.256554 76.256546 14.103795
v 77.235100 77.235092 14.268231
v 78.162529 78.162529 14.060811
v 79.074608 79.074608 13.519643
v 79.838524 79.838524 12.662580
v 80.443077 80.443047 11.565038
v 80.910423 80.910423 10.195340
v 81.983208 81.983208 10.744527
v 82.639061 82.639030 9.192845
v 83.405113 83.405113 7.834019
v 84.270012 84.270012 6.655575
v 85.270103 85.270103 5.699352
v 86.361137 86.361137 4.939663
v 87.491539 87.491539 4.409382
v 88.691002 88.690971 4.131611
v 89.901054 89.901024 4.111019
v 90.088585 90.088585 4.150303
v 90.418602 90.418541 4.301655
v 90.572075 90.572044 4.415821
v 90.721550 90.721550 4.572758
v 90.858025 90.857994 4.754208
v 90.985588 90.985558 4.953075
v 91.266045 91.266014 5.610630
v 91.941032 91.941002 6.741757
v 92.515068 92.515068 7.310597
v 93.137627 93.137566 7.599553
v 93.810570 93.810539 7.671795
v 94.464622 94.464622 7.460560
v 95.055046 95.055046 6.993748
v 95.995628 95.995628 4.555759
v 80.850090 104.590080 -0.000004
v 83.477043 107.933067 -0.000004
v 80.808037 104.536095 0.295711
v 80.698021 104.396049 0.541057
v 80.548973 104.207085 0.688808
v 80.374138 103.984032 0.738658
v 80.198051 103.759087 0.678455
v 80.031639 103.548363 0.475467
v 79.948082 103.441002 0.270259
v 79.918510 103.403831 0.041919
v 65.654015 85.247002 -0.000004
v 65.612083 85.192070 0.283878
v 65.511986 85.065086 0.535450
v 65.370079 84.885094 0.687854
v 65.186089 84.651085 0.766964
v 65.005974 84.422081 0.703174
v 64.858086 84.233025 0.530696
v 64.753075 84.099022 0.276912
v 64.712975 84.049065 -0.000004
v 63.012043 81.883049 -0.000004
v 63.366047 82.333977 9.185346
v 63.532948 82.547050 10.534253
v 63.897114 83.008995 11.778592
v 64.447136 83.709129 12.837903
v 65.145164 84.598045 13.651662
v 65.955070 85.630058 14.103795
v 66.812035 86.719994 14.268231
v 67.622978 87.753044 14.060811
v 68.422112 88.769127 13.519643
v 69.090080 89.620018 12.662580
v 69.618065 90.293053 11.565038
v 70.027489 90.813255 10.195340
v 70.966118 92.008080 10.744527
v 71.541100 92.738945 9.192845
v 72.210014 93.592003 7.834019
v 72.967033 94.556084 6.655575
v 73.842003 95.668938 5.699352
v 74.797020 96.883995 4.939663
v 75.786003 98.143059 4.409382
v 76.836082 99.480034 4.131611
v 77.895042 100.826988 4.111019
v 78.058067 101.036034 4.150303
v 78.347069 101.403008 4.301655
v 78.481071 101.574028 4.415821
v 78.612053 101.741020 4.572758
v 78.732079 101.893120 4.754208
v 78.843040 102.035027 4.953075
v 79.088066 102.346977 5.610630
v 79.679070 103.099144 6.741757
v 80.181084 103.738976 7.310597
v 80.726036 104.432091 7.599553
v 81.315025 105.181969 7.671795
v 81.887016 105.910027 7.460560
v 82.404045 106.568047 6.993748
v 95.519554 95.519524 6.339047
v 95.841057 95.841026 5.496037
v 83.226036 107.615013 4.555759
v 60.302052 118.012077 -0.000004
v 62.308094 121.760918 -0.000004
v 60.270100 117.952019 0.295711
v 60.185108 117.793999 0.541057
v 60.072041 117.582085 0.688808
v 59.938068 117.332054 0.738658
v 59.804096 117.080956 0.678455
v 59.677204 116.843987 0.475467
v 59.612995 116.724052 0.270259
v 59.590260 116.681786 0.041919
v 48.696064 96.324089 -0.000004
v 48.663136 96.263054 0.283878
v 48.587025 96.120079 0.535450
v 48.479115 95.919090 0.687854
v 48.338093 95.656059 0.766964
v 48.201069 95.399071 0.703174
v 48.088001 95.188042 0.530696
v 48.006977 95.038017 0.276912
v 47.977100 94.981071 -0.000004
v 46.678028 92.553185 -0.000004
v 46.948078 93.059044 9.185346
v 47.076008 93.297050 10.534253
v 47.353016 93.815117 11.778592
v 47.773090 94.600090 12.837903
v 48.307026 95.597069 13.651662
v 48.926075 96.754051 14.103795
v 49.580036 97.976067 14.268231
v 50.200062 99.134056 14.060811
v 50.809040 100.274071 13.519643
v 51.320026 101.227135 12.662580
v 51.724049 101.982018 11.565038
v 52.036152 102.565636 10.195340
v 52.753071 103.905388 10.744527
v 53.191975 104.724998 9.192845
v 53.703083 105.681053 7.834019
v 54.281086 106.762138 6.655575
v 54.950092 108.010033 5.699352
v 55.678944 109.372978 4.939663
v 56.433979 110.783989 4.409382
v 57.236134 112.281975 4.131611
v 58.045063 113.794151 4.111019
v 58.169117 114.027061 4.150303
v 58.390034 114.439171 4.301655
v 58.493092 114.631096 4.415821
v 58.593006 114.818077 4.572758
v 58.684040 114.988091 4.754208
v 58.769032 115.147057 4.953075
v 58.956013 115.497002 5.610630
v 59.408070 116.341087 6.741757
v 59.791096 117.058128 7.310597
v 60.206989 117.834984 7.599553
v 60.657032 118.676079 7.671795
v 61.094135 119.492119 7.460560
v 61.489124 120.230156 6.993748
v 82.810081 107.084007 6.339047
v 83.091087 107.443016 5.496037
v 62.117023 121.404015 4.555759
v 37.735062 127.662071 -0.000004
v 39.059952 131.702026 -0.000004
v 37.714066 127.598076 0.295711
v 37.658066 127.427055 0.541057
v 37.583023 127.198997 0.688808
v 37.495041 126.930046 0.738658
v 37.406082 126.658989 0.678455
v 37.322311 126.403313 0.475467
v 37.280106 126.274040 0.270259
v 37.264786 126.228569 0.041919
v 30.072067 104.288017 -0.000004
v 30.050125 104.223015 0.283878
v 29.999985 104.069115 0.535450
v 29.927963 103.852013 0.687854
v 29.835068 103.568077 0.766964
v 29.745071 103.291069 0.703174
v 29.670120 103.064018 0.530696
v 29.617111 102.901939 0.276912
v 29.596970 102.841148 -0.000004
v 28.739120 100.224113 -0.000004
v 28.917984 100.769005 9.185346
v 29.002060 101.025963 10.534253
v 29.185074 101.585075 11.778592
v 29.462021 102.430016 12.837903
v 29.815048 103.505058 13.651662
v 30.223099 104.751030 14.103795
v 30.655045 106.069115 14.268231
v 31.064072 107.316063 14.060811
v 31.467087 108.544945 13.519643
v 31.803940 109.572075 12.662580
v 32.070999 110.386101 11.565038
v 32.277267 111.014885 10.195340
v 32.750412 112.459099 10.744527
v 33.040054 113.342125 9.192845
v 33.378128 114.373039 7.834019
v 33.760025 115.537041 6.655575
v 34.201035 116.882988 5.699352
v 34.681992 118.351036 4.939663
v 35.181076 119.872093 4.409382
v 35.711044 121.487053 4.131611
v 36.245132 123.116020 4.111019
v 36.327042 123.367027 4.150303
v 36.472977 123.811089 4.301655
v 36.540024 124.018120 4.415821
v 36.607010 124.220116 4.572758
v 36.666977 124.402977 4.754208
v 36.723129 124.575066 4.953075
v 36.847092 124.952080 5.610630
v 37.144974 125.860985 6.741757
v 37.398087 126.634026 7.310597
v 37.673080 127.471001 7.599553
v 37.970078 128.377167 7.671795
v 38.258102 129.257111 7.460560
v 38.519028 130.052155 6.993748
v 61.799030 120.809105 6.339047
v 62.014027 121.211082 5.496037
v 38.933975 131.317047 4.555759
v 10.347059 108.897118 -0.000004
v 10.336943 108.829094 0.283878
v 10.314070 108.669060 0.535450
v 10.282087 108.443077 0.687854
v 10.239943 108.147057 0.766964
v 10.198011 107.859062 0.703174
v 10.163954 107.622002 0.530696
v 10.139982 107.452995 0.276912
v 10.131041 107.389977 -0.000004
v 9.741041 104.663109 -0.000004
v 9.821974 105.230980 9.185346
v 9.860044 105.499107 10.534253
v 9.943998 106.081108 11.778592
v 10.070021 106.961967 12.837903
v 10.229963 108.080986 13.651662
v 10.415983 109.380089 14.103795
v 10.613066 110.752007 14.268231
v 10.799025 112.052086 14.060811
v 10.982008 113.332085 13.519643
v 11.136015 114.402000 12.662580
v 11.257048 115.249077 11.565038
v 11.351408 115.905083 10.195340
v 38.724045 130.676971 6.339047
v 38.866165 131.110077 5.496037
v 0.009213 105.365349 0.010868
v 0.391965 105.751213 9.185346
v 33.000961 133.002838 -0.000004
v 28.765976 130.070129 -0.000004
v 28.697952 130.021393 0.295711
v 28.280106 129.719513 0.688808
v 28.031967 129.468262 0.713726
v 27.751999 129.251526 0.708553
v 27.471024 129.125580 0.513271
v 27.311035 129.006927 0.270259
v 27.254120 128.964661 -0.000004
v 3.953214 109.249290 -0.000004
v 11.313276 116.302727 10.195340
v 12.827024 117.625053 10.744527
v 13.752958 118.409447 9.192845
v 14.834074 119.301842 7.834019
v 16.053938 120.285179 6.655575
v 17.464964 121.406059 5.699352
v 19.004042 122.622490 4.939663
v 20.598984 123.873283 4.409382
v 22.292114 125.189934 4.131611
v 24.000046 126.505486 4.111019
v 24.263000 126.706932 4.150303
v 24.728958 127.062584 4.301655
v 24.946045 127.227867 4.415821
v 25.157074 127.388268 4.572758
v 25.348999 127.534050 4.754208
v 25.529068 127.670341 4.953075
v 25.924957 127.969566 5.610630
v 26.876953 128.683990 6.741757
v 27.687088 129.285004 7.310597
v 28.564957 129.925690 7.599553
v 29.516037 130.604156 7.671795
v 30.438065 131.249969 7.460560
v 31.271011 131.825592 6.993748
v 32.257858 132.877289 4.555759
v 3.886487 109.184654 0.283878
v 3.728864 109.031853 0.535450
v 3.506238 108.815697 0.687854
v 3.216138 108.534294 0.766964
v 2.932584 108.259270 0.703174
v 2.699658 108.033348 0.530696
v 2.533551 107.872032 0.276912
v 2.472028 107.812157 -0.000004
v 0.645627 106.006065 10.534253
v 1.202359 106.562248 11.778592
v 2.054120 107.403801 12.837903
v 3.439939 108.899437 13.651662
v 4.747052 110.147240 14.103795
v 6.128095 111.468193 14.268231
v 7.435956 112.713371 14.060811
v 8.724089 113.927818 13.519643
v 9.800917 114.929741 12.662580
v 10.653975 115.710228 11.565038
v 31.926071 132.273773 6.339047
v 32.380051 132.582428 5.496037
v 27.254028 152.011536 -0.000004
v 4.260938 152.011566 -0.000004
v 4.191968 152.011719 0.283878
v 4.030820 152.011627 0.535450
v 3.803021 152.011719 0.687854
v 3.505887 152.011566 0.766964
v 3.215833 152.011719 0.703174
v 2.976972 152.011566 0.530696
v 2.808042 152.011627 0.276912
v 2.743955 152.011536 -0.000004
v -0.000003 152.011566 -0.000004
v 0.572003 152.011566 9.185346
v 0.840970 152.011566 10.534253
v 1.426953 152.011566 11.778592
v 2.314053 152.011536 12.837903
v 3.439893 152.011566 13.651662
v 4.747006 152.011688 14.103795
v 6.128095 152.011627 14.268231
v 7.435880 152.011566 14.060811
v 8.723967 152.011627 13.519643
v 9.800993 152.011627 12.662580
v 10.654051 152.011627 11.565038
v 11.313276 152.011566 10.195340
v 12.827040 152.011566 10.744527
v 13.752974 152.011627 9.192845
v 14.833967 152.011627 7.834019
v 16.053938 152.011475 6.655575
v 17.464933 152.011536 5.699352
v 19.004011 152.011566 4.939663
v 20.598877 152.011566 4.409382
v 22.292053 152.011627 4.131611
v 24.000061 152.011475 4.111019
v 24.263031 152.011566 4.150303
v 24.729034 152.011566 4.301655
v 24.946045 152.011566 4.415821
v 25.157074 152.011566 4.572758
v 25.349075 152.011688 4.754208
v 25.529068 152.011536 4.953075
v 25.924957 152.011627 5.610630
v 26.876968 152.011566 6.741757
v 27.687088 152.011627 7.310597
v 28.565048 152.011627 7.599553
v 29.515945 152.011536 7.671795
v 30.438004 152.011536 7.460560
v 31.271103 152.011536 6.993748
v 31.926102 152.011566 6.339047
v 32.380051 152.011566 5.496037
v 32.597946 152.011566 4.555759
v 28.766037 152.011536 -0.000004
v 33.001022 152.011566 -0.000004
v 27.311005 152.011627 0.270259
v 27.471085 152.011536 0.513271
v 27.714096 152.011536 0.678455
v 27.998032 152.011536 0.738658
v 28.280075 152.011627 0.688808
v 28.520004 152.011475 0.541057
v 28.697983 152.011566 0.295711
v 32.598038 132.730225 4.555759
v 105.200066 0.000010 -0.000004
v 104.590080 80.850060 -0.000004
v 107.933067 83.477013 -0.000004
v 104.536095 80.808006 0.295711
v 104.396080 80.698021 0.541057
v 104.207115 80.548943 0.688808
v 103.984032 80.374138 0.738658
v 103.759117 80.198051 0.678455
v 103.548363 80.031639 0.475467
v 103.441032 79.948082 0.270259
v 103.403831 79.918480 0.041919
v 85.247032 65.654007 -0.000004
v 85.192070 65.612045 0.283878
v 85.065086 65.511978 0.535450
v 84.885124 65.370071 0.687854
v 84.651085 65.186081 0.766964
v 84.422112 65.005966 0.703174
v 84.233025 64.858078 0.530696
v 84.099052 64.753067 0.276912
v 84.049065 64.712967 -0.000004
v 81.883049 63.012043 -0.000004
v 82.333977 63.366047 9.185346
v 82.547050 63.532948 10.534253
v 83.009026 63.897083 11.778592
v 83.709129 64.447098 12.837903
v 84.598045 65.145157 13.651662
v 85.630058 65.955063 14.103795
v 86.720024 66.811996 14.268231
v 87.753105 67.622971 14.060811
v 88.769127 68.422104 13.519643
v 89.620018 69.090042 12.662580
v 90.293053 69.618057 11.565038
v 90.813255 70.027451 10.195340
v 92.008110 70.966110 10.744527
v 92.738976 71.541092 9.192845
v 93.592033 72.210007 7.834019
v 94.556084 72.967026 6.655575
v 95.668999 73.841995 5.699352
v 96.884056 74.797012 4.939663
v 98.143089 75.785995 4.409382
v 99.480095 76.836075 4.131611
v 100.827019 77.895012 4.111019
v 101.036034 78.058037 4.150303
v 101.403008 78.347069 4.301655
v 101.574028 78.481041 4.415821
v 101.741020 78.612022 4.572758
v 101.893120 78.732079 4.754208
v 102.035027 78.843040 4.953075
v 102.346977 79.088066 5.610630
v 103.099144 79.679070 6.741757
v 103.739006 80.181053 7.310597
v 104.432121 80.726036 7.599553
v 105.181969 81.315025 7.671795
v 105.910057 81.887016 7.460560
v 106.568077 82.404015 6.993748
v 107.615013 83.226036 4.555759
v 118.012077 60.302048 -0.000004
v 121.760948 62.308094 -0.000004
v 117.952019 60.270096 0.295711
v 117.794060 60.185104 0.541057
v 117.582054 60.072037 0.688808
v 117.332054 59.938034 0.738658
v 117.080956 59.804062 0.678455
v 116.843987 59.677200 0.475467
v 116.724052 59.612991 0.270259
v 116.681816 59.590256 0.041919
v 96.324089 48.696030 -0.000004
v 96.263084 48.663101 0.283878
v 96.120049 48.587021 0.535450
v 95.919090 48.479111 0.687854
v 95.656090 48.338089 0.766964
v 95.399071 48.201035 0.703174
v 95.188042 48.087997 0.530696
v 95.038017 48.006973 0.276912
v 94.981102 47.977097 -0.000004
v 92.553185 46.678024 -0.000004
v 93.059044 46.948044 9.185346
v 93.297081 47.075974 10.534253
v 93.815117 47.352982 11.778592
v 94.600090 47.773056 12.837903
v 95.597069 48.307022 13.651662
v 96.754082 48.926071 14.103795
v 97.976097 49.580032 14.268231
v 99.134087 50.200027 14.060811
v 100.274071 50.809036 13.519643
v 101.227165 51.320023 12.662580
v 101.982018 51.724014 11.565038
v 102.565636 52.036148 10.195340
v 103.905418 52.753036 10.744527
v 104.724998 53.191971 9.192845
v 105.681084 53.703049 7.834019
v 106.762169 54.281082 6.655575
v 108.010063 54.950089 5.699352
v 109.372978 55.678940 4.939663
v 110.783989 56.433975 4.409382
v 112.282005 57.236099 4.131611
v 113.794121 58.045059 4.111019
v 114.027061 58.169083 4.150303
v 114.439140 58.389999 4.301655
v 114.631065 58.493088 4.415821
v 114.818077 58.593002 4.572758
v 114.988121 58.684036 4.754208
v 115.147057 58.768997 4.953075
v 115.497002 58.956009 5.610630
v 116.341087 59.408066 6.741757
v 117.058098 59.791092 7.310597
v 117.835014 60.206955 7.599553
v 118.676079 60.657028 7.671795
v 119.492119 61.094101 7.460560
v 120.230186 61.489090 6.993748
v 107.084007 82.810051 6.339047
v 107.443016 83.091087 5.496037
v 121.404015 62.116993 4.555759
v 127.662048 37.735062 -0.000004
v 131.702057 39.059952 -0.000004
v 127.598083 37.714066 0.295711
v 127.427063 37.658066 0.541057
v 127.199066 37.582993 0.688808
v 126.930054 37.495041 0.738658
v 126.659088 37.406052 0.678455
v 126.403320 37.322311 0.475467
v 126.274109 37.280106 0.270259
v 126.228577 37.264786 0.041919
v 104.288017 30.072065 -0.000004
v 104.223045 30.050123 0.283878
v 104.069115 29.999983 0.535450
v 103.852013 29.927961 0.687854
v 103.568077 29.835066 0.766964
v 103.291069 29.745039 0.703174
v 103.064018 29.670088 0.530696
v 102.902000 29.617079 0.276912
v 102.841148 29.596937 -0.000004
v 100.224113 28.739119 -0.000004
v 100.769035 28.917982 9.185346
v 101.025963 29.002058 10.534253
v 101.585045 29.185011 11.778592
v 102.430046 29.462019 12.837903
v 103.505058 29.815016 13.651662
v 104.750999 30.223097 14.103795
v 106.069115 30.655043 14.268231
v 107.316063 31.064070 14.060811
v 108.545006 31.467054 13.519643
v 109.572075 31.803968 12.662580
v 110.386101 32.070969 11.565038
v 111.014885 32.277237 10.195340
v 112.459099 32.750443 10.744527
v 113.342094 33.040024 9.192845
v 114.373039 33.378128 7.834019
v 115.537041 33.759995 6.655575
v 116.882988 34.201004 5.699352
v 118.351067 34.681961 4.939663
v 119.872093 35.181076 4.409382
v 121.487053 35.711075 4.131611
v 123.116051 36.245102 4.111019
v 123.367027 36.327042 4.150303
v 123.811127 36.472946 4.301655
v 124.018097 36.540024 4.415821
v 124.220123 36.607010 4.572758
v 124.403015 36.666977 4.754208
v 124.575104 36.723129 4.953075
v 124.952087 36.847092 5.610630
v 125.861023 37.145004 6.741757
v 126.634033 37.398087 7.310597
v 127.471039 37.673080 7.599553
v 128.377167 37.970078 7.671795
v 129.257111 38.258102 7.460560
v 130.052155 38.519028 6.993748
v 120.809074 61.799000 6.339047
v 121.211113 62.014027 5.496037
v 131.317108 38.933975 4.555759
v 108.897118 10.347057 -0.000004
v 108.829094 10.336956 0.283878
v 108.669029 10.314037 0.535450
v 108.443077 10.282085 0.687854
v 108.147057 10.239941 0.766964
v 107.859062 10.198040 0.703174
v 107.622032 10.163952 0.530696
v 107.452995 10.139965 0.276912
v 107.389977 10.131023 -0.000004
v 104.663109 9.741009 -0.000004
v 105.231010 9.821972 9.185346
v 105.499107 9.860058 10.534253
v 106.081139 9.943981 11.778592
v 106.961998 10.070019 12.837903
v 108.080986 10.229961 13.651662
v 109.380089 10.415966 14.103795
v 110.752007 10.613049 14.268231
v 112.052086 10.798992 14.060811
v 113.332085 10.982006 13.519643
v 114.402092 11.135967 12.662580
v 115.249046 11.257030 11.565038
v 115.905113 11.351391 10.195340
v 130.677002 38.724045 6.339047
v 131.110077 38.866135 5.496037
v 105.365349 0.009226 0.010868
v 105.751213 0.391947 9.185346
v 133.002838 33.000961 -0.000004
v 130.070160 28.766005 -0.000004
v 130.021393 28.697950 0.295711
v 129.719482 28.280104 0.688808
v 129.468262 28.031965 0.713726
v 129.251526 27.751966 0.708553
v 129.125580 27.471022 0.513271
v 129.006897 27.311018 0.270259
v 128.964630 27.254103 -0.000004
v 109.249290 3.953227 -0.000004
v 116.302727 11.313274 10.195340
v 117.625053 12.827007 10.744527
v 118.409447 13.752911 9.192845
v 119.301811 14.834057 7.834019
v 120.285179 16.053936 6.655575
v 121.406120 17.464977 5.699352
v 122.622490 19.004009 4.939663
v 123.873291 20.598980 4.409382
v 125.189911 22.292128 4.131611
v 126.505524 24.000044 4.111019
v 126.706909 24.263014 4.150303
v 127.062622 24.728956 4.301655
v 127.227875 24.945997 4.415821
v 127.388275 25.157118 4.572758
v 127.534058 25.348982 4.754208
v 127.670349 25.529036 4.953075
v 127.969604 25.924940 5.610630
v 128.683990 26.876936 6.741757
v 129.285004 27.687086 7.310597
v 129.925720 28.564985 7.599553
v 130.604187 29.516035 7.671795
v 131.249969 30.438032 7.460560
v 131.825653 31.271040 6.993748
v 132.877289 32.257828 4.555759
v 109.184654 3.886485 0.283878
v 109.031853 3.728892 0.535450
v 108.815697 3.506205 0.687854
v 108.534294 3.216136 0.766964
v 108.259300 2.932566 0.703174
v 108.033379 2.699626 0.530696
v 107.872063 2.533549 0.276912
v 107.812157 2.471995 -0.000004
v 106.006065 0.645609 10.534253
v 106.562248 1.202342 11.778592
v 107.403801 2.054118 12.837903
v 108.899437 3.439952 13.651662
v 110.147270 4.747050 14.103795
v 111.468193 6.128093 14.268231
v 112.713371 7.435924 14.060811
v 113.927818 8.724071 13.519643
v 114.929741 9.800915 12.662580
v 115.710228 10.653942 11.565038
v 132.273804 31.926039 6.339047
v 132.582489 32.380020 5.496037
v 152.011536 27.254042 -0.000004
v 152.011566 4.260905 -0.000004
v 152.011719 4.191997 0.283878
v 152.011658 4.030803 0.535450
v 152.011719 3.803050 0.687854
v 152.011627 3.505900 0.766964
v 152.011749 3.215892 0.703174
v 152.011597 2.976939 0.530696
v 152.011688 2.808055 0.276912
v 152.011475 2.743998 -0.000004
v 152.011597 -0.000021 -0.000004
v 152.011566 0.572001 9.185346
v 152.011566 0.840983 10.534253
v 152.011566 1.426920 11.778592
v 152.011536 2.314097 12.837903
v 152.011566 3.439891 13.651662
v 152.011688 4.746989 14.103795
v 152.011688 6.128154 14.268231
v 152.011597 7.435863 14.060811
v 152.011627 8.723918 13.519643
v 152.011627 9.801006 12.662580
v 152.011597 10.653973 11.565038
v 152.011597 11.313305 10.195340
v 152.011566 12.827007 10.744527
v 152.011566 13.752911 9.192845
v 152.011627 14.833935 7.834019
v 152.011536 16.053936 6.655575
v 152.011505 17.464947 5.699352
v 152.011597 19.004070 4.939663
v 152.011597 20.598888 4.409382
v 152.011627 22.292067 4.131611
v 152.011536 24.000074 4.111019
v 152.011597 24.263014 4.150303
v 152.011566 24.729048 4.301655
v 152.011627 24.946028 4.415821
v 152.011597 25.157118 4.572758
v 152.011688 25.349104 4.754208
v 152.011536 25.529036 4.953075
v 152.011627 25.924940 5.610630
v 152.011627 26.876936 6.741757
v 152.011627 27.687086 7.310597
v 152.011627 28.565046 7.599553
v 152.011536 29.515944 7.671795
v 152.011536 30.437971 7.460560
v 152.011536 31.271101 6.993748
v 152.011597 31.926100 6.339047
v 152.011627 32.380020 5.496037
v 152.011597 32.597946 4.555759
v 152.011536 28.765974 -0.000004
v 152.011597 33.001053 -0.000004
v 152.011566 27.311018 0.270259
v 152.011536 27.471052 0.513271
v 152.011536 27.714033 0.678455
v 152.011536 27.997969 0.738658
v 152.011597 28.280073 0.688808
v 152.011505 28.520002 0.541057
v 152.011627 28.697950 0.295711
v 132.730225 32.598007 4.555759
g obj0
#Face Count: 732
f 57 58 3 2
f 59 57 2 4
f 60 59 4 5
f 61 60 5 6
f 62 61 6 7
f 63 62 7 8
f 64 63 8 9
f 65 64 9 10
f 67 66 11 12
f 68 67 12 13
f 69 68 13 14
f 70 69 14 15
f 71 70 15 16
f 72 71 16 17
f 73 72 17 18
f 74 73 18 19
f 75 74 19 20
f 76 75 20 21
f 77 76 21 22
f 78 77 22 23
f 79 78 23 24
f 80 79 24 25
f 81 80 25 26
f 82 81 26 27
f 83 82 27 28
f 84 83 28 29
f 85 84 29 30
f 86 85 30 31
f 87 86 31 32
f 88 87 32 33
f 89 88 33 34
f 90 89 34 35
f 91 90 35 36
f 92 91 36 37
f 93 92 37 38
f 94 93 38 39
f 95 94 39 40
f 96 95 40 41
f 97 96 41 42
f 98 97 42 43
f 99 98 43 44
f 100 99 44 45
f 101 100 45 46
f 102 101 46 47
f 103 102 47 48
f 104 103 48 49
f 105 104 49 50
f 106 105 50 51
f 107 106 51 52
f 108 107 52 53
f 109 108 53 54
f 110 109 54 55
f 58 113 56 3
f 114 115 58 57
f 116 114 57 59
f 117 116 59 60
f 118 117 60 61
f 119 118 61 62
f 120 119 62 63
f 121 120 63 64
f 122 121 64 65
f 124 123 66 67
f 125 124 67 68
f 126 125 68 69
f 127 126 69 70
f 128 127 70 71
f 129 128 71 72
f 130 129 72 73
f 131 130 73 74
f 132 131 74 75
f 133 132 75 76
f 134 133 76 77
f 135 134 77 78
f 136 135 78 79
f 137 136 79 80
f 138 137 80 81
f 139 138 81 82
f 140 139 82 83
f 141 140 83 84
f 142 141 84 85
f 143 142 85 86
f 144 143 86 87
f 145 144 87 88
f 146 145 88 89
f 147 146 89 90
f 148 147 90 91
f 149 148 91 92
f 150 149 92 93
f 151 150 93 94
f 152 151 94 95
f 153 152 95 96
f 154 153 96 97
f 155 154 97 98
f 156 155 98 99
f 157 156 99 100
f 158 157 100 101
f 159 158 101 102
f 160 159 102 103
f 161 160 103 104
f 162 161 104 105
f 163 162 105 106
f 164 163 106 107
f 165 164 107 108
f 166 165 108 109
f 167 166 109 110
f 168 110 55 111
f 113 169 112 56
f 115 170 113 58
f 171 172 115 114
f 173 171 114 116
f 174 173 116 117
f 175 174 117 118
f 176 175 118 119
f 177 176 119 120
f 178 177 120 121
f 179 178 121 122
f 181 180 123 124
f 182 181 124 125
f 183 182 125 126
f 184 183 126 127
f 185 184 127 128
f 186 185 128 129
f 187 186 129 130
f 188 187 130 131
f 189 188 131 132
f 190 189 132 133
f 191 190 133 134
f 192 191 134 135
f 193 192 135 136
f 194 193 136 137
f 195 194 137 138
f 196 195 138 139
f 197 196 139 140
f 198 197 140 141
f 199 198 141 142
f 200 199 142 143
f 201 200 143 144
f 202 201 144 145
f 203 202 145 146
f 204 203 146 147
f 205 204 147 148
f 206 205 148 149
f 207 206 149 150
f 208 207 150 151
f 209 208 151 152
f 210 209 152 153
f 211 210 153 154
f 212 211 154 155
f 213 212 155 156
f 214 213 156 157
f 215 214 157 158
f 216 215 158 159
f 217 216 159 160
f 218 217 160 161
f 219 218 161 162
f 220 219 162 163
f 221 220 163 164
f 222 221 164 165
f 223 222 165 166
f 224 223 166 167
f 225 167 110 168
f 169 168 111 112
f 170 226 169 113
f 172 227 170 115
f 180 228 263 262
f 229 228 181 182
f 230 229 182 183
f 231 230 183 184
f 232 231 184 185
f 233 232 185 186
f 234 233 186 187
f 235 234 187 188
f 236 235 188 189
f 237 236 189 190
f 238 237 190 191
f 239 238 191 192
f 240 239 192 193
f 241 240 193 194
f 242 241 194 195
f 243 242 195 196
f 244 243 196 197
f 245 244 197 198
f 246 245 198 199
f 247 246 199 200
f 248 247 200 201
f 249 248 201 202
f 249 203 265 264
f 250 224 167 225
f 226 225 168 169
f 227 251 226 170
f 236 1 252 295
f 238 253 1
f 251 250 225 226
f 252 1 253
f 255 254 172 171
f 256 255 171 173
f 257 256 173 174
f 258 257 174 175
f 259 258 175 176
f 260 259 176 177
f 177 178 260
f 261 260 178 179
f 181 228 180
f 202 203 249
f 266 265 203 204
f 267 266 204 205
f 268 267 205 206
f 269 268 206 207
f 270 269 207 208
f 271 270 208 209
f 272 271 209 210
f 273 272 210 211
f 274 273 211 212
f 275 274 212 213
f 276 275 213 214
f 277 276 214 215
f 278 277 215 216
f 279 278 216 217
f 280 279 217 218
f 281 280 218 219
f 282 281 219 220
f 283 282 220 221
f 284 283 221 222
f 285 284 222 223
f 286 285 223 224
f 254 287 227 172
f 288 263 228 229
f 289 288 229 230
f 290 289 230 231
f 291 290 231 232
f 292 291 232 233
f 293 292 233 234
f 294 293 234 235
f 295 294 235 236
f 237 1 236
f 237 238 1
f 296 253 238 239
f 297 296 239 240
f 298 297 240 241
f 299 298 241 242
f 300 299 242 243
f 301 300 243 244
f 302 301 244 245
f 303 302 245 246
f 304 303 246 247
f 305 304 247 248
f 264 305 248 249
f 306 286 224 250
f 287 307 251 227
f 307 306 250 251
f 324 325 326
f 323 324 326
f 323 326 327
f 322 323 327
f 322 327 328
f 321 322 328
f 321 328 329
f 320 321 329
f 320 329 330
f 330 331 332
f 320 330 332
f 319 320 332
f 319 332 333
f 349 350 351
f 348 349 351
f 348 351 352
f 347 348 352
f 319 333 334
f 347 352 353
f 319 334 335
f 346 347 353
f 346 353 354
f 345 346 354
f 319 335 336
f 344 345 354
f 343 344 354
f 343 354 355
f 342 343 355
f 319 336 337
f 341 342 355
f 340 341 355
f 339 340 355
f 313 339 355
f 338 339 313
f 337 338 313
f 319 337 313
f 361 313 355
f 319 313 314
f 362 361 355
f 312 313 361
f 312 361 360
f 363 362 355
f 311 312 360
f 319 314 315
f 311 360 359
f 364 363 355
f 310 311 359
f 319 315 316
f 310 359 358
f 364 355 357
f 356 364 357
f 309 358 308
f 310 358 309
f 318 316 317
f 319 316 318
f 262 263 309 308
f 263 288 310 309
f 288 289 311 310
f 289 290 312 311
f 290 291 313 312
f 291 292 314 313
f 292 293 315 314
f 293 294 316 315
f 294 295 317 316
f 295 252 318 317
f 252 253 319 318
f 253 296 320 319
f 296 297 321 320
f 297 298 322 321
f 298 299 323 322
f 299 300 324 323
f 300 301 325 324
f 301 302 326 325
f 302 303 327 326
f 303 304 328 327
f 304 305 329 328
f 305 264 330 329
f 264 265 331 330
f 265 266 332 331
f 266 267 333 332
f 267 268 334 333
f 268 269 335 334
f 269 270 336 335
f 270 271 337 336
f 271 272 338 337
f 272 273 339 338
f 273 274 340 339
f 274 275 341 340
f 275 276 342 341
f 276 277 343 342
f 277 278 344 343
f 278 279 345 344
f 279 280 346 345
f 280 281 347 346
f 281 282 348 347
f 282 283 349 348
f 283 284 350 349
f 284 285 351 350
f 285 286 352 351
f 286 306 353 352
f 306 307 354 353
f 307 365 355 354
f 365 254 357 355
f 254 255 356 357
f 363 364 256
f 256 257 362 363
f 257 258 361 362
f 258 259 360 361
f 259 260 359 360
f 260 261 358 359
f 261 262 308 358
f 255 256 364 356
f 66 65 10 11
f 123 122 65 66
f 180 179 122 123
f 262 261 179 180
f 367 2 3 368
f 369 4 2 367
f 370 5 4 369
f 371 6 5 370
f 372 7 6 371
f 373 8 7 372
f 374 9 8 373
f 375 10 9 374
f 377 12 11 376
f 378 13 12 377
f 379 14 13 378
f 380 15 14 379
f 381 16 15 380
f 382 17 16 381
f 383 18 17 382
f 384 19 18 383
f 385 20 19 384
f 386 21 20 385
f 387 22 21 386
f 388 23 22 387
f 389 24 23 388
f 390 25 24 389
f 391 26 25 390
f 392 27 26 391
f 393 28 27 392
f 394 29 28 393
f 395 30 29 394
f 396 31 30 395
f 397 32 31 396
f 398 33 32 397
f 399 34 33 398
f 400 35 34 399
f 401 36 35 400
f 402 37 36 401
f 403 38 37 402
f 404 39 38 403
f 405 40 39 404
f 406 41 40 405
f 407 42 41 406
f 408 43 42 407
f 409 44 43 408
f 410 45 44 409
f 411 46 45 410
f 412 47 46 411
f 413 48 47 412
f 414 49 48 413
f 415 50 49 414
f 416 51 50 415
f 417 52 51 416
f 418 53 52 417
f 419 54 53 418
f 420 55 54 419
f 368 3 56 421
f 422 367 368 423
f 424 369 367 422
f 425 370 369 424
f 426 371 370 425
f 427 372 371 426
f 428 373 372 427
f 429 374 373 428
f 430 375 374 429
f 432 377 376 431
f 433 378 377 432
f 434 379 378 433
f 435 380 379 434
f 436 381 380 435
f 437 382 381 436
f 438 383 382 437
f 439 384 383 438
f 440 385 384 439
f 441 386 385 440
f 442 387 386 441
f 443 388 387 442
f 444 389 388 443
f 445 390 389 444
f 446 391 390 445
f 447 392 391 446
f 448 393 392 447
f 449 394 393 448
f 450 395 394 449
f 451 396 395 450
f 452 397 396 451
f 453 398 397 452
f 454 399 398 453
f 455 400 399 454
f 456 401 400 455
f 457 402 401 456
f 458 403 402 457
f 459 404 403 458
f 460 405 404 459
f 461 406 405 460
f 462 407 406 461
f 463 408 407 462
f 464 409 408 463
f 465 410 409 464
f 466 411 410 465
f 467 412 411 466
f 468 413 412 467
f 469 414 413 468
f 470 415 414 469
f 471 416 415 470
f 472 417 416 471
f 473 418 417 472
f 474 419 418 473
f 475 420 419 474
f 476 111 55 420
f 421 56 112 477
f 423 368 421 478
f 479 422 423 480
f 481 424 422 479
f 482 425 424 481
f 483 426 425 482
f 484 427 426 483
f 485 428 427 484
f 486 429 428 485
f 487 430 429 486
f 489 432 431 488
f 490 433 432 489
f 491 434 433 490
f 492 435 434 491
f 493 436 435 492
f 494 437 436 493
f 495 438 437 494
f 496 439 438 495
f 497 440 439 496
f 498 441 440 497
f 499 442 441 498
f 500 443 442 499
f 501 444 443 500
f 502 445 444 501
f 503 446 445 502
f 504 447 446 503
f 505 448 447 504
f 506 449 448 505
f 507 450 449 506
f 508 451 450 507
f 509 452 451 508
f 510 453 452 509
f 511 454 453 510
f 512 455 454 511
f 513 456 455 512
f 514 457 456 513
f 515 458 457 514
f 516 459 458 515
f 517 460 459 516
f 518 461 460 517
f 519 462 461 518
f 520 463 462 519
f 521 464 463 520
f 522 465 464 521
f 523 466 465 522
f 524 467 466 523
f 525 468 467 524
f 526 469 468 525
f 527 470 469 526
f 528 471 470 527
f 529 472 471 528
f 530 473 472 529
f 531 474 473 530
f 532 475 474 531
f 533 476 420 475
f 477 112 111 476
f 478 421 477 534
f 480 423 478 535
f 488 570 571 536
f 537 490 489 536
f 538 491 490 537
f 539 492 491 538
f 540 493 492 539
f 541 494 493 540
f 542 495 494 541
f 543 496 495 542
f 544 497 496 543
f 545 498 497 544
f 546 499 498 545
f 547 500 499 546
f 548 501 500 547
f 549 502 501 548
f 550 503 502 549
f 551 504 503 550
f 552 505 504 551
f 553 506 505 552
f 554 507 506 553
f 555 508 507 554
f 556 509 508 555
f 557 510 509 556
f 557 572 573 511
f 558 533 475 532
f 534 477 476 533
f 535 478 534 559
f 544 603 560 366
f 366 561 546
f 559 534 533 558
f 561 366 560
f 563 479 480 562
f 564 481 479 563
f 565 482 481 564
f 566 483 482 565
f 567 484 483 566
f 568 485 484 567
f 568 486 485
f 569 487 486 568
f 488 536 489
f 557 511 510
f 574 512 511 573
f 575 513 512 574
f 576 514 513 575
f 577 515 514 576
f 578 516 515 577
f 579 517 516 578
f 580 518 517 579
f 581 519 518 580
f 582 520 519 581
f 583 521 520 582
f 584 522 521 583
f 585 523 522 584
f 586 524 523 585
f 587 525 524 586
f 588 526 525 587
f 589 527 526 588
f 590 528 527 589
f 591 529 528 590
f 592 530 529 591
f 593 531 530 592
f 594 532 531 593
f 562 480 535 595
f 596 537 536 571
f 597 538 537 596
f 598 539 538 597
f 599 540 539 598
f 600 541 540 599
f 601 542 541 600
f 602 543 542 601
f 603 544 543 602
f 544 366 545
f 366 546 545
f 604 547 546 561
f 605 548 547 604
f 606 549 548 605
f 607 550 549 606
f 608 551 550 607
f 609 552 551 608
f 610 553 552 609
f 611 554 553 610
f 612 555 554 611
f 613 556 555 612
f 572 557 556 613
f 614 558 532 594
f 595 535 559 615
f 615 559 558 614
f 634 633 632
f 634 632 631
f 635 634 631
f 635 631 630
f 636 635 630
f 636 630 629
f 637 636 629
f 637 629 628
f 638 637 628
f 640 639 638
f 640 638 628
f 640 628 627
f 641 640 627
f 659 658 657
f 659 657 656
f 660 659 656
f 660 656 655
f 642 641 627
f 661 660 655
f 643 642 627
f 661 655 654
f 662 661 654
f 662 654 653
f 644 643 627
f 662 653 652
f 662 652 651
f 663 662 651
f 663 651 650
f 645 644 627
f 663 650 649
f 663 649 648
f 663 648 647
f 663 647 621
f 621 647 646
f 621 646 645
f 621 645 627
f 663 621 669
f 622 621 627
f 663 669 670
f 669 621 620
f 668 669 620
f 663 670 671
f 668 620 619
f 623 622 627
f 667 668 619
f 663 671 672
f 667 619 618
f 624 623 627
f 666 667 618
f 665 663 672
f 665 672 664
f 616 666 617
f 617 666 618
f 625 624 626
f 626 624 627
f 570 616 617 571
f 571 617 618 596
f 596 618 619 597
f 597 619 620 598
f 598 620 621 599
f 599 621 622 600
f 600 622 623 601
f 601 623 624 602
f 602 624 625 603
f 603 625 626 560
f 560 626 627 561
f 561 627 628 604
f 604 628 629 605
f 605 629 630 606
f 606 630 631 607
f 607 631 632 608
f 608 632 633 609
f 609 633 634 610
f 610 634 635 611
f 611 635 636 612
f 612 636 637 613
f 613 637 638 572
f 572 638 639 573
f 573 639 640 574
f 574 640 641 575
f 575 641 642 576
f 576 642 643 577
f 577 643 644 578
f 578 644 645 579
f 579 645 646 580
f 580 646 647 581
f 581 647 648 582
f 582 648 649 583
f 583 649 650 584
f 584 650 651 585
f 585 651 652 586
f 586 652 653 587
f 587 653 654 588
f 588 654 655 589
f 589 655 656 590
f 590 656 657 591
f 591 657 658 592
f 592 658 659 593
f 593 659 660 594
f 594 660 661 614
f 614 661 662 615
f 615 662 663 673
f 673 663 665 562
f 562 665 664 563
f 564 672 671
f 564 671 670 565
f 565 670 669 566
f 566 669 668 567
f 567 668 667 568
f 568 667 666 569
f 569 666 616 570
f 563 664 672 564
f 376 11 10 375
f 431 376 375 430
f 488 431 430 487
f 570 488 487 569
