# 3ds Max Wavefront OBJ Exporter v0.99 - (c)2007 guruware
# File Created: 26.11.2025 14:21:39

mtllib HCR531.mtl

#
# object Вырез_Вытянуть2
#

v  -1376.2445 -2000.0000 931.1478
v  -1376.0127 -2000.0000 931.1844
v  -1376.2445 0.0000 931.1478
v  -1376.0127 0.0000 931.1844
v  -1375.8037 -2000.0000 931.2910
v  -1375.8037 0.0000 931.2910
v  -1375.6377 -2000.0000 931.4569
v  -1375.6377 0.0000 931.4569
v  -1375.5313 -2000.0000 931.6660
v  -1375.5313 0.0000 931.6660
v  -1375.4945 0.0000 931.8978
v  -1375.4945 -2000.0000 931.8978
v  -1376.2445 -2000.0000 850.1478
v  -1376.0127 -2000.0000 850.1844
v  -1376.2445 0.0000 850.1478
v  -1376.0127 0.0000 850.1844
v  -1375.8037 -2000.0000 850.2910
v  -1375.8037 0.0000 850.2910
v  -1375.6377 -2000.0000 850.4569
v  -1375.6377 0.0000 850.4569
v  -1375.5313 -2000.0000 850.6660
v  -1375.5313 0.0000 850.6660
v  -1375.4945 0.0000 850.8978
v  -1375.4945 -2000.0000 850.8978
v  -1376.2445 0.0000 851.6478
v  -1376.2445 -2000.0000 851.6478
v  -1376.2445 0.0000 855.3978
v  -1376.2445 -2000.0000 855.3978
v  -1376.2445 0.0000 932.6478
v  -1376.2445 -2000.0000 932.6478
v  -1376.2445 0.0000 936.3978
v  -1376.2445 -2000.0000 936.3978
v  -1376.2445 -2000.0000 846.3978
v  -1376.2445 0.0000 846.3978
v  -1362.2445 0.0000 936.3978
v  -1362.2445 -2000.0000 936.3978
v  -1376.2445 -2000.0000 927.3978
v  -1376.2445 0.0000 927.3978
v  -1372.2445 0.0000 846.3978
v  -1372.2445 -2000.0000 846.3978
v  -1372.2445 0.0000 850.6835
v  -1372.2445 -2000.0000 850.6835
v  -1367.2445 0.0000 850.6835
v  -1367.2445 -2000.0000 850.6835
v  -1367.2445 0.0000 886.2549
v  -1367.2445 -2000.0000 886.2549
v  -1362.2445 0.0000 886.2549
v  -1362.2445 -2000.0000 886.2549
v  -1376.0127 -2000.0000 932.6110
v  -1375.8037 -2000.0000 932.5045
v  -1375.6377 -2000.0000 932.3386
v  -1375.5313 -2000.0000 932.1295
v  -1369.2445 -2000.0000 927.3978
v  -1369.2445 -2000.0000 890.9692
v  -1374.2445 -2000.0000 890.9692
v  -1374.2445 -2000.0000 855.3978
v  -1375.5313 -2000.0000 851.1295
v  -1376.0127 -2000.0000 851.6110
v  -1375.8037 -2000.0000 851.5045
v  -1375.6377 -2000.0000 851.3386
v  -1369.2445 0.0000 927.3978
v  -1375.5313 0.0000 932.1295
v  -1375.6377 0.0000 932.3386
v  -1375.8037 0.0000 932.5045
v  -1376.0127 0.0000 932.6110
v  -1369.2445 0.0000 890.9692
v  -1374.2445 0.0000 855.3978
v  -1374.2445 0.0000 890.9692
v  -1375.5313 0.0000 851.1295
v  -1375.6377 0.0000 851.3386
v  -1375.8037 0.0000 851.5045
v  -1376.0127 0.0000 851.6110
# 72 vertices

vn 0.0000 0.0000 0.1000
vn -0.0309 0.0000 0.0951
vn -0.0588 0.0000 0.0809
vn -0.0809 0.0000 0.0588
vn -0.0951 0.0000 0.0309
vn -0.1000 0.0000 -0.0000
vn 0.0000 0.0000 -0.1000
vn 0.1000 0.0000 -0.0000
vn 0.0000 -0.1000 -0.0000
vn 0.0000 0.1000 -0.0000
vn -0.1000 -0.0000 -0.0000
vn -0.0000 -0.0000 -0.1000
vn -0.0951 0.0000 -0.0309
vn -0.0809 0.0000 -0.0588
vn -0.0588 0.0000 -0.0809
vn -0.0309 0.0000 -0.0951
# 16 vertex normals

vt 0.0000 0.1178 0.0000
vt 0.0000 0.0942 0.0000
vt 200.0000 0.1178 0.0000
vt 200.0000 0.0942 0.0000
vt 0.0000 0.0707 0.0000
vt 200.0000 0.0707 0.0000
vt 0.0000 0.0471 0.0000
vt 200.0000 0.0471 0.0000
vt 0.0000 0.0236 0.0000
vt 200.0000 0.0236 0.0000
vt 200.0000 0.0000 0.0000
vt 0.0000 0.0000 0.0000
vt 200.0000 8.4750 0.0000
vt 0.0000 8.4750 0.0000
vt 200.0000 8.1000 0.0000
vt 0.0000 8.1000 0.0000
vt 200.0000 0.3750 0.0000
vt 0.0000 0.3750 0.0000
vt 0.0000 8.6250 0.0000
vt 200.0000 8.6250 0.0000
vt 0.0000 9.0000 0.0000
vt 200.0000 9.0000 0.0000
vt 0.0000 200.0000 0.0000
vt -1.4000 200.0000 0.0000
vt -1.4000 0.0000 0.0000
vt 0.0000 0.5250 0.0000
vt 200.0000 0.5250 0.0000
vt 0.0000 0.9000 0.0000
vt 200.0000 0.9000 0.0000
vt 200.0000 0.4000 0.0000
vt 0.0000 0.4000 0.0000
vt -0.4286 200.0000 0.0000
vt -0.4286 0.0000 0.0000
vt 200.0000 0.5000 0.0000
vt 0.0000 0.5000 0.0000
vt -3.5571 200.0000 0.0000
vt -3.5571 0.0000 0.0000
vt -0.5000 200.0000 0.0000
vt -0.5000 0.0000 0.0000
vt -5.0143 200.0000 0.0000
vt -5.0143 0.0000 0.0000
vt -0.0000 0.3750 0.0000
vt -0.0232 0.3787 0.0000
vt -0.0441 0.3893 0.0000
vt -0.0607 0.4059 0.0000
vt -0.0713 0.4268 0.0000
vt -0.7000 0.9000 0.0000
vt -0.9000 5.0143 0.0000
vt -1.4000 5.0143 0.0000
vt -0.0750 0.4500 0.0000
vt -0.0713 0.4732 0.0000
vt -0.0607 0.4941 0.0000
vt -0.0441 0.5107 0.0000
vt -0.0232 0.5213 0.0000
vt -0.0000 0.5250 0.0000
vt -0.7000 4.5429 0.0000
vt -0.9000 8.5714 0.0000
vt -0.4000 8.5714 0.0000
vt -0.2000 4.5429 0.0000
vt -0.2000 8.1000 0.0000
vt -0.0713 8.5268 0.0000
vt -0.0750 8.5500 0.0000
vt -0.4000 9.0000 0.0000
vt -0.0713 8.5732 0.0000
vt -0.0607 8.5941 0.0000
vt -0.0441 8.6107 0.0000
vt -0.0000 8.4750 0.0000
vt -0.0232 8.4787 0.0000
vt -0.0441 8.4893 0.0000
vt -0.0607 8.5059 0.0000
vt -0.0232 8.6213 0.0000
vt -0.0000 8.6250 0.0000
vt 0.0232 0.5213 0.0000
vt -0.0000 0.9000 0.0000
vt 0.0441 0.5107 0.0000
vt 0.0607 0.4941 0.0000
vt 0.0713 0.4732 0.0000
vt 0.7000 0.9000 0.0000
vt 0.0750 0.4500 0.0000
vt 0.0713 0.4268 0.0000
vt -0.0000 0.0000 0.0000
vt 0.0607 0.4059 0.0000
vt 0.0441 0.3893 0.0000
vt 0.0232 0.3787 0.0000
vt 1.4000 0.0000 0.0000
vt 0.9000 5.0143 0.0000
vt 0.7000 4.5429 0.0000
vt 0.9000 8.5714 0.0000
vt 0.4000 8.5714 0.0000
vt 1.4000 5.0143 0.0000
vt 0.4000 9.0000 0.0000
vt 0.2000 8.1000 0.0000
vt 0.2000 4.5429 0.0000
vt -0.0000 9.0000 0.0000
vt 0.0713 8.5732 0.0000
vt 0.0750 8.5500 0.0000
vt 0.0713 8.5268 0.0000
vt -0.0000 8.1000 0.0000
vt 0.0607 8.5059 0.0000
vt 0.0441 8.4893 0.0000
vt 0.0232 8.6213 0.0000
vt 0.0441 8.6107 0.0000
vt 0.0607 8.5941 0.0000
vt 0.0232 8.4787 0.0000
vt -200.0000 -0.2000 0.0000
vt -0.0000 -0.2000 0.0000
vt -200.0000 0.0000 0.0000
vt 200.0000 3.5571 0.0000
vt -0.0000 3.5571 0.0000
vt -200.0000 -0.5000 0.0000
vt -0.0000 -0.5000 0.0000
vt 200.0000 3.6429 0.0000
vt -0.0000 3.6429 0.0000
vt 200.0000 0.7000 0.0000
vt -0.0000 0.7000 0.0000
vt 200.0000 -0.0236 0.0000
vt 0.0000 -0.0236 0.0000
vt 0.0000 -0.0471 0.0000
vt 200.0000 -0.0471 0.0000
vt 0.0000 -0.0707 0.0000
vt 200.0000 -0.0707 0.0000
vt 0.0000 -0.0942 0.0000
vt 200.0000 -0.0942 0.0000
vt 0.0000 -0.1178 0.0000
vt 200.0000 -0.1178 0.0000
# 125 texture coords

o Вырез_Вытянуть2
g Вырез_Вытянуть2
usemtl Empty_material
s off
f 1/1/1 2/2/2 3/3/1 
f 3/3/1 2/2/2 4/4/2 
f 4/4/2 2/2/2 5/5/3 
f 4/4/2 5/5/3 6/6/3 
f 6/6/3 5/5/3 7/7/4 
f 6/6/3 7/7/4 8/8/4 
f 8/8/4 7/7/4 9/9/5 
f 8/8/4 9/9/5 10/10/5 
f 10/10/5 9/9/5 11/11/6 
f 11/11/6 9/9/5 12/12/6 
f 13/1/1 14/2/2 15/3/1 
f 15/3/1 14/2/2 16/4/2 
f 16/4/2 14/2/2 17/5/3 
f 16/4/2 17/5/3 18/6/3 
f 18/6/3 17/5/3 19/7/4 
f 18/6/3 19/7/4 20/8/4 
f 20/8/4 19/7/4 21/9/5 
f 20/8/4 21/9/5 22/10/5 
f 22/10/5 21/9/5 23/11/6 
f 23/11/6 21/9/5 24/12/6 
f 25/13/6 26/14/6 27/15/6 
f 27/15/6 26/14/6 28/16/6 
f 29/17/6 30/18/6 31/11/6 
f 31/11/6 30/18/6 32/12/6 
f 13/19/6 15/20/6 33/21/6 
f 33/21/6 15/20/6 34/22/6 
f 35/23/1 31/24/1 36/12/1 
f 36/12/1 31/24/1 32/25/1 
f 1/26/6 3/27/6 37/28/6 
f 37/28/6 3/27/6 38/29/6 
f 39/30/7 40/31/7 34/11/7 
f 34/11/7 40/31/7 33/12/7 
f 39/23/8 41/32/8 40/12/8 
f 40/12/8 41/32/8 42/33/8 
f 43/34/7 44/35/7 41/11/7 
f 41/11/7 44/35/7 42/12/7 
f 43/23/8 45/36/8 44/12/8 
f 44/12/8 45/36/8 46/37/8 
f 45/23/7 47/38/7 46/12/7 
f 46/12/7 47/38/7 48/39/7 
f 47/23/8 35/40/8 48/12/8 
f 48/12/8 35/40/8 36/41/8 
f 30/42/9 49/43/9 32/12/9 
f 32/12/9 49/43/9 50/44/9 
f 32/12/9 50/44/9 51/45/9 
f 51/45/9 52/46/9 32/12/9 
f 32/12/9 52/46/9 53/47/9 
f 32/12/9 53/47/9 36/25/9 
f 36/25/9 53/47/9 46/48/9 
f 36/25/9 46/48/9 48/49/9 
f 52/46/9 12/50/9 53/47/9 
f 53/47/9 12/50/9 9/51/9 
f 53/47/9 9/51/9 37/28/9 
f 37/28/9 9/51/9 7/52/9 
f 37/28/9 7/52/9 5/53/9 
f 5/53/9 2/54/9 37/28/9 
f 37/28/9 2/54/9 1/55/9 
f 53/47/9 54/56/9 46/48/9 
f 46/48/9 54/56/9 44/57/9 
f 44/57/9 54/56/9 42/58/9 
f 42/58/9 54/56/9 55/59/9 
f 42/58/9 55/59/9 56/60/9 
f 28/16/9 57/61/9 56/60/9 
f 56/60/9 57/61/9 24/62/9 
f 56/60/9 24/62/9 40/63/9 
f 40/63/9 24/62/9 21/64/9 
f 40/63/9 21/64/9 33/21/9 
f 33/21/9 21/64/9 19/65/9 
f 33/21/9 19/65/9 17/66/9 
f 26/67/9 58/68/9 28/16/9 
f 28/16/9 58/68/9 59/69/9 
f 28/16/9 59/69/9 60/70/9 
f 60/70/9 57/61/9 28/16/9 
f 17/66/9 14/71/9 33/21/9 
f 33/21/9 14/71/9 13/72/9 
f 40/63/9 42/58/9 56/60/9 
f 3/26/10 4/73/10 38/74/10 
f 38/74/10 4/73/10 6/75/10 
f 38/74/10 6/75/10 8/76/10 
f 8/76/10 10/77/10 38/74/10 
f 38/74/10 10/77/10 61/78/10 
f 61/78/10 10/77/10 11/79/10 
f 61/78/10 11/79/10 62/80/10 
f 61/78/10 62/80/10 31/81/10 
f 31/81/10 62/80/10 63/82/10 
f 31/81/10 63/82/10 64/83/10 
f 64/83/10 65/84/10 31/81/10 
f 31/81/10 65/84/10 29/18/10 
f 31/81/10 35/85/10 61/78/10 
f 61/78/10 35/85/10 45/86/10 
f 61/78/10 45/86/10 66/87/10 
f 66/87/10 45/86/10 43/88/10 
f 66/87/10 43/88/10 41/89/10 
f 35/85/10 47/90/10 45/86/10 
f 39/91/10 67/92/10 41/89/10 
f 41/89/10 67/92/10 68/93/10 
f 41/89/10 68/93/10 66/87/10 
f 34/94/10 22/95/10 39/91/10 
f 39/91/10 22/95/10 23/96/10 
f 39/91/10 23/96/10 67/92/10 
f 67/92/10 23/96/10 69/97/10 
f 67/92/10 69/97/10 27/98/10 
f 27/98/10 69/97/10 70/99/10 
f 27/98/10 70/99/10 71/100/10 
f 15/19/10 16/101/10 34/94/10 
f 34/94/10 16/101/10 18/102/10 
f 34/94/10 18/102/10 20/103/10 
f 20/103/10 22/95/10 34/94/10 
f 71/100/10 72/104/10 27/98/10 
f 27/98/10 72/104/10 25/14/10 
f 27/105/1 28/106/1 67/107/1 
f 67/107/1 28/106/1 56/81/1 
f 67/108/11 56/109/11 68/11/11 
f 68/11/11 56/109/11 55/81/11 
f 68/110/1 55/111/1 66/107/1 
f 66/107/1 55/111/1 54/81/1 
f 66/112/11 54/113/11 61/11/11 
f 61/11/11 54/113/11 53/81/11 
f 61/114/12 53/115/12 38/11/12 
f 38/11/12 53/115/12 37/81/12 
f 23/11/6 24/12/6 69/116/13 
f 69/116/13 24/12/6 57/117/13 
f 69/116/13 57/117/13 60/118/14 
f 69/116/13 60/118/14 70/119/14 
f 70/119/14 60/118/14 59/120/15 
f 70/119/14 59/120/15 71/121/15 
f 71/121/15 59/120/15 58/122/16 
f 71/121/15 58/122/16 72/123/16 
f 72/123/16 58/122/16 26/124/7 
f 72/123/16 26/124/7 25/125/7 
f 11/11/6 12/12/6 62/116/13 
f 62/116/13 12/12/6 52/117/13 
f 62/116/13 52/117/13 51/118/14 
f 62/116/13 51/118/14 63/119/14 
f 63/119/14 51/118/14 50/120/15 
f 63/119/14 50/120/15 64/121/15 
f 64/121/15 50/120/15 49/122/16 
f 64/121/15 49/122/16 65/123/16 
f 65/123/16 49/122/16 30/124/7 
f 65/123/16 30/124/7 29/125/7 
# 0 polygons - 140 triangles

