# File exported by Pixologic 3D Print Exporter for ZBrush
# http://www.pixologic.com
mtllib HCR_522.mtl

#Object: obj0
#Vertex Count: 118
#UV Count: 578
#Face Count: 173
#Vertex Count: 118
v 0.000000 27.253967 0.000000
v 150.000000 27.253967 0.000000
v 150.000000 4.261047 0.000000
v 0.000000 4.261047 0.000000
v 150.000000 4.192017 0.283875
v 0.000000 4.192017 0.283875
v 150.000000 4.029968 0.535507
v 0.000000 4.029968 0.535507
v 150.000000 3.803040 0.687912
v 0.000000 3.803040 0.687912
v 150.000000 3.506042 0.766953
v 0.000000 3.506042 0.766953
v 150.000000 3.215027 0.703209
v 0.000000 3.215027 0.703209
v 150.000000 2.977051 0.530701
v 0.000000 2.977051 0.530701
v 150.000000 2.807007 0.276901
v 0.000000 2.807007 0.276901
v 150.000000 2.743042 0.000000
v 0.000000 2.743042 0.000000
v 150.000000 0.000000 0.000000
v 0.000000 0.000000 0.000000
v 150.000000 0.571045 9.185249
v 0.000000 0.571045 9.185249
v 150.000000 0.840027 10.534210
v 0.000000 0.840027 10.534210
v 150.000000 1.426025 11.778603
v 0.000000 1.426025 11.778603
v 150.000000 2.313049 12.837906
v 0.000000 2.313049 12.837906
v 150.000000 3.439026 13.651649
v 0.000000 3.439026 13.651649
v 150.000000 4.746033 14.103752
v 0.000000 4.746033 14.103752
v 150.000000 6.126953 14.268158
v 0.000000 6.126953 14.268158
v 150.000000 7.435059 14.060776
v 0.000000 7.435059 14.060776
v 150.000000 8.723022 13.519577
v 0.000000 8.723022 13.519577
v 150.000000 9.800049 12.662552
v 0.000000 9.800049 12.662552
v 150.000000 10.652954 11.565010
v 0.000000 10.652954 11.565010
v 150.000000 11.172058 10.252579
v 0.000000 11.172058 10.252579
v 150.000000 11.345459 10.173721
v 0.000000 11.345459 10.173721
v 150.000000 12.791565 10.756126
v 0.000000 12.791565 10.756126
v 150.000000 12.895996 10.721252
v 0.000000 12.895996 10.721252
v 150.000000 13.753113 9.192757
v 0.000000 13.753113 9.192757
v 150.000000 14.833008 7.833977
v 0.000000 14.833008 7.833977
v 150.000000 16.054016 6.655579
v 0.000000 16.054016 6.655579
v 150.000000 17.464050 5.699257
v 0.000000 17.464050 5.699257
v 150.000000 19.004028 4.939659
v 0.000000 19.004028 4.939659
v 150.000000 20.598938 4.409401
v 0.000000 20.598938 4.409401
v 150.000000 22.291016 4.131607
v 0.000000 22.291016 4.131607
v 150.000000 23.999023 4.110977
v 0.000000 23.999023 4.110977
v 150.000000 24.263062 4.150284
v 0.000000 24.263062 4.150284
v 150.000000 24.727966 4.301704
v 0.000000 24.727966 4.301704
v 150.000000 24.945007 4.415779
v 0.000000 24.945007 4.415779
v 150.000000 25.156006 4.572754
v 0.000000 25.156006 4.572754
v 150.000000 25.349060 4.754181
v 0.000000 25.349060 4.754181
v 150.000000 25.528015 4.953079
v 0.000000 25.528015 4.953079
v 150.000000 25.923950 5.610603
v 0.000000 25.923950 5.610603
v 150.000000 26.876953 6.741684
v 0.000000 26.876953 6.741684
v 150.000000 27.687012 7.310547
v 0.000000 27.687012 7.310547
v 150.000000 28.565002 7.599449
v 0.000000 28.565002 7.599449
v 150.000000 29.514954 7.671753
v 0.000000 29.514954 7.671753
v 150.000000 30.437012 7.460556
v 0.000000 30.437012 7.460556
v 150.000000 31.271057 6.993683
v 0.000000 31.271057 6.993683
v 150.000000 31.926025 6.338997
v 0.000000 31.926025 6.338997
v 150.000000 32.379028 5.496002
v 0.000000 32.379028 5.496002
v 0.000000 32.597046 4.555809
v 0.000000 33.001038 0.000000
v 0.000000 28.765015 0.000000
v 0.000000 28.697021 0.295654
v 0.000000 28.519043 0.540977
v 0.000000 28.280029 0.688805
v 0.000000 27.997009 0.738686
v 0.000000 27.713013 0.678459
v 0.000000 27.471008 0.513306
v 0.000000 27.310059 0.270309
v 150.000000 33.001038 0.000000
v 150.000000 28.765015 0.000000
v 150.000000 32.597046 4.555809
v 150.000000 27.310059 0.270309
v 150.000000 27.471008 0.513306
v 150.000000 27.713013 0.678459
v 150.000000 27.997009 0.738686
v 150.000000 28.280029 0.688805
v 150.000000 28.519043 0.540977
v 150.000000 28.697021 0.295654
#UV count: 578
vt 0.283087 -1.199040
vt 0.496421 -1.199040
vt 0.496421 -1.160710
vt 0.283087 -1.160710
vt 0.283087 -0.166667
vt 0.496421 -0.166667
vt 0.496421 -0.166193
vt 0.283087 -0.166193
vt 0.283087 -0.166193
vt 0.496421 -0.166193
vt 0.496421 -0.165774
vt 0.283087 -0.165774
vt 0.283087 -1.160330
vt 0.496421 -1.160330
vt 0.496421 -1.159950
vt 0.283087 -1.159950
vt 0.283087 -1.159950
vt 0.496421 -1.159950
vt 0.496421 -1.159460
vt 0.283087 -1.159460
vt 0.283087 -1.159460
vt 0.496421 -1.159460
vt 0.496421 -1.158970
vt 0.283087 -1.158970
vt 0.283087 -1.158970
vt 0.496421 -1.158970
vt 0.496421 -1.158570
vt 0.283087 -1.158570
vt 0.283087 -0.165782
vt 0.496421 -0.165782
vt 0.496421 -0.166205
vt 0.283087 -0.166205
vt 0.283087 -0.166205
vt 0.496421 -0.166205
vt 0.496421 -0.166667
vt 0.283087 -0.166667
vt 0.283087 -1.158190
vt 0.496421 -1.158190
vt 0.496421 -1.153610
vt 0.283087 -1.153610
vt 0.283087 -0.166667
vt 0.496421 -0.166667
vt 0.496421 -0.151358
vt 0.283087 -0.151358
vt 0.283087 -0.151358
vt 0.496421 -0.151358
vt 0.496421 -0.149110
vt 0.283087 -0.149110
vt 0.283087 -0.149110
vt 0.496421 -0.149110
vt 0.496421 -0.147036
vt 0.283087 -0.147036
vt 0.283087 -0.147036
vt 0.496421 -0.147036
vt 0.496421 -0.145270
vt 0.283087 -0.145270
vt 0.283087 -1.157470
vt 0.496421 -1.157470
vt 0.496421 -1.159350
vt 0.283087 -1.159350
vt 0.283087 -1.159350
vt 0.496421 -1.159350
vt 0.496421 -1.161520
vt 0.283087 -1.161520
vt 0.283087 -1.161520
vt 0.496421 -1.161520
vt 0.496421 -1.163820
vt 0.283087 -1.163820
vt 0.283087 -1.163820
vt 0.496421 -1.163820
vt 0.496421 -1.166010
vt 0.283087 -1.166010
vt 0.283087 -1.166010
vt 0.496421 -1.166010
vt 0.496421 -1.168150
vt 0.283087 -1.168150
vt 0.283087 -1.168150
vt 0.496421 -1.168150
vt 0.496421 -1.169950
vt 0.283087 -1.169950
vt 0.283087 -0.145562
vt 0.496421 -0.145562
vt 0.496421 -0.147392
vt 0.283087 -0.147392
vt 0.283087 -0.147392
vt 0.496421 -0.147392
vt 0.496421 -0.149579
vt 0.283087 -0.149579
vt 0.283087 -1.172230
vt 0.496421 -1.172230
vt 0.496421 -1.172450
vt 0.283087 -1.172450
vt 0.283087 -1.172590
vt 0.496421 -1.172590
vt 0.496421 -1.174880
vt 0.283087 -1.174880
vt 0.283087 -1.174990
vt 0.496421 -1.174990
vt 0.496421 -1.175110
vt 0.283087 -1.175110
vt 0.283087 -0.148798
vt 0.496421 -0.148798
vt 0.496421 -0.151345
vt 0.283087 -0.151345
vt 0.283087 -0.151345
vt 0.496421 -0.151345
vt 0.496421 -0.153610
vt 0.283087 -0.153610
vt 0.283087 -1.178330
vt 0.496421 -1.178330
vt 0.496421 -1.180370
vt 0.283087 -1.180370
vt 0.283087 -1.180370
vt 0.496421 -1.180370
vt 0.496421 -1.182720
vt 0.283087 -1.182720
vt 0.283087 -1.182720
vt 0.496421 -1.182720
vt 0.496421 -1.185290
vt 0.283087 -1.185290
vt 0.283087 -1.185290
vt 0.496421 -1.185290
vt 0.496421 -1.187940
vt 0.283087 -1.187940
vt 0.283087 -1.187940
vt 0.496421 -1.187940
vt 0.496421 -1.190770
vt 0.283087 -1.190770
vt 0.283087 -1.190770
vt 0.496421 -1.190770
vt 0.496421 -1.193610
vt 0.283087 -1.193610
vt 0.283087 -1.193610
vt 0.496421 -1.193610
vt 0.496421 -1.194050
vt 0.283087 -1.194050
vt 0.283087 -1.194050
vt 0.496421 -1.194050
vt 0.496421 -1.194830
vt 0.283087 -1.194830
vt 0.283087 -1.194830
vt 0.496421 -1.194830
vt 0.496421 -1.195190
vt 0.283087 -1.195190
vt 0.283087 -1.195190
vt 0.496421 -1.195190
vt 0.496421 -1.195540
vt 0.283087 -1.195540
vt 0.283087 -1.195540
vt 0.496421 -1.195540
vt 0.496421 -1.195860
vt 0.283087 -1.195860
vt 0.283087 -0.158743
vt 0.496421 -0.158743
vt 0.496421 -0.158412
vt 0.283087 -0.158412
vt 0.283087 -0.158412
vt 0.496421 -0.158412
vt 0.496421 -0.157316
vt 0.283087 -0.157316
vt 0.283087 -0.157316
vt 0.496421 -0.157316
vt 0.496421 -0.155431
vt 0.283087 -0.155431
vt 0.283087 -1.198410
vt 0.496421 -1.198410
vt 0.496421 -1.199760
vt 0.283087 -1.199760
vt 0.283087 -1.199760
vt 0.496421 -1.199760
vt 0.496421 -1.201220
vt 0.283087 -1.201220
vt 0.283087 -1.201220
vt 0.496421 -1.201220
vt 0.496421 -1.202810
vt 0.283087 -1.202810
vt 0.283087 -1.202810
vt 0.496421 -1.202810
vt 0.496421 -1.204340
vt 0.283087 -1.204340
vt 0.283087 -1.204340
vt 0.496421 -1.204340
vt 0.496421 -1.205730
vt 0.283087 -1.205730
vt 0.283087 -1.205730
vt 0.496421 -1.205730
vt 0.496421 -1.206820
vt 0.283087 -1.206820
vt 0.283087 -0.156102
vt 0.496421 -0.156102
vt 0.496421 -0.157507
vt 0.283087 -0.157507
vt -0.991167 -0.143160
vt -0.993131 -0.142886
vt -0.994991 -0.143232
vt -0.989308 -0.143914
vt -0.991167 -0.143160
vt -0.994991 -0.143232
vt -0.989308 -0.143914
vt -0.994991 -0.143232
vt -0.996823 -0.144134
vt -0.987706 -0.145270
vt -0.989308 -0.143914
vt -0.996823 -0.144134
vt -0.987706 -0.145270
vt -0.996823 -0.144134
vt -0.998355 -0.145562
vt -0.986445 -0.147036
vt -0.987706 -0.145270
vt -0.998355 -0.145562
vt -0.986445 -0.147036
vt -0.998355 -0.145562
vt -0.999568 -0.147392
vt -0.985612 -0.149110
vt -0.986445 -0.147036
vt -0.999568 -0.147392
vt -0.985612 -0.149110
vt -0.999568 -0.147392
vt -1.000310 -0.149579
vt -1.000610 -0.149697
vt -1.002560 -0.148744
vt -1.002760 -0.148798
vt -0.985612 -0.149110
vt -1.000310 -0.149579
vt -1.000490 -0.149723
vt -1.000610 -0.149697
vt -1.002760 -0.148798
vt -1.003980 -0.151345
vt -0.985612 -0.149110
vt -1.000490 -0.149723
vt -1.003980 -0.151345
vt -0.985229 -0.151358
vt -0.985612 -0.149110
vt -1.003980 -0.151345
vt -0.985229 -0.151358
vt -1.003980 -0.151345
vt -1.005510 -0.153610
vt -1.025040 -0.154001
vt -1.026390 -0.153880
vt -1.027710 -0.154232
vt -1.023790 -0.154482
vt -1.025040 -0.154001
vt -1.027710 -0.154232
vt -1.023790 -0.154482
vt -1.027710 -0.154232
vt -1.028890 -0.155010
vt -1.022640 -0.155431
vt -1.023790 -0.154482
vt -1.028890 -0.155010
vt -0.985229 -0.151358
vt -1.005510 -0.153610
vt -1.007250 -0.155574
vt -1.022640 -0.155431
vt -1.028890 -0.155010
vt -1.029820 -0.156102
vt -0.985229 -0.151358
vt -1.007250 -0.155574
vt -1.009250 -0.157168
vt -1.021290 -0.157316
vt -1.022640 -0.155431
vt -1.029820 -0.156102
vt -1.021290 -0.157316
vt -1.029820 -0.156102
vt -1.030470 -0.157507
vt -1.020720 -0.158412
vt -1.021290 -0.157316
vt -1.030470 -0.157507
vt -0.985229 -0.151358
vt -1.009250 -0.157168
vt -1.011440 -0.158434
vt -1.020470 -0.158743
vt -1.020720 -0.158412
vt -1.030470 -0.157507
vt -1.020190 -0.159045
vt -1.020470 -0.158743
vt -1.030470 -0.157507
vt -1.020190 -0.159045
vt -1.030470 -0.157507
vt -1.030780 -0.159074
vt -1.019890 -0.159307
vt -1.020190 -0.159045
vt -1.030780 -0.159074
vt -0.985229 -0.151358
vt -1.011440 -0.158434
vt -1.013710 -0.159318
vt -1.019590 -0.159497
vt -1.019890 -0.159307
vt -1.030780 -0.159074
vt -1.018920 -0.159750
vt -1.019590 -0.159497
vt -1.030780 -0.159074
vt -1.018550 -0.159815
vt -1.018920 -0.159750
vt -1.030780 -0.159074
vt -1.016120 -0.159781
vt -1.018550 -0.159815
vt -0.989403 -0.165388
vt -1.013710 -0.159318
vt -1.016120 -0.159781
vt -0.989403 -0.165388
vt -0.985229 -0.151358
vt -1.013710 -0.159318
vt -0.989403 -0.165388
vt -0.989403 -0.165388
vt -1.018550 -0.159815
vt -1.030780 -0.159074
vt -1.024240 -0.165435
vt -0.989403 -0.165388
vt -1.030780 -0.159074
vt -0.985229 -0.151358
vt -0.989403 -0.165388
vt -0.988990 -0.165495
vt -1.024640 -0.165519
vt -1.024240 -0.165435
vt -1.030780 -0.159074
vt -0.989825 -0.165520
vt -0.989403 -0.165388
vt -1.024240 -0.165435
vt -0.989825 -0.165520
vt -1.024240 -0.165435
vt -1.023830 -0.165536
vt -1.024980 -0.165765
vt -1.024640 -0.165519
vt -1.030780 -0.159074
vt -0.990149 -0.165774
vt -0.989825 -0.165520
vt -1.023830 -0.165536
vt -0.985229 -0.151358
vt -0.988990 -0.165495
vt -0.988651 -0.165782
vt -0.990149 -0.165774
vt -1.023830 -0.165536
vt -1.023490 -0.165811
vt -1.025230 -0.166174
vt -1.024980 -0.165765
vt -1.030780 -0.159074
vt -0.990378 -0.166193
vt -0.990149 -0.165774
vt -1.023490 -0.165811
vt -0.985229 -0.151358
vt -0.988651 -0.165782
vt -0.988409 -0.166205
vt -0.990378 -0.166193
vt -1.023490 -0.165811
vt -1.023260 -0.166216
vt -0.984416 -0.166667
vt -0.985229 -0.151358
vt -0.988409 -0.166205
vt -0.984416 -0.166667
vt -0.988409 -0.166205
vt -0.988318 -0.166667
vt -0.990476 -0.166667
vt -0.990378 -0.166193
vt -1.023260 -0.166216
vt -0.990476 -0.166667
vt -1.023260 -0.166216
vt -1.023180 -0.166667
vt -1.025330 -0.166667
vt -1.025230 -0.166174
vt -1.031350 -0.166667
vt -1.031350 -0.166667
vt -1.025230 -0.166174
vt -1.030780 -0.159074
vt 0.283087 -1.208610
vt 0.496421 -1.208610
vt 0.496421 -1.201560
vt 0.283087 -1.201560
vt -0.994991 -0.143232
vt -0.993131 -0.142886
vt -0.991167 -0.143160
vt -0.994991 -0.143232
vt -0.991167 -0.143160
vt -0.989308 -0.143914
vt -0.996823 -0.144134
vt -0.994991 -0.143232
vt -0.989308 -0.143914
vt -0.996823 -0.144134
vt -0.989308 -0.143914
vt -0.987706 -0.145270
vt -0.998355 -0.145562
vt -0.996823 -0.144134
vt -0.987706 -0.145270
vt -0.998355 -0.145562
vt -0.987706 -0.145270
vt -0.986445 -0.147036
vt -0.999568 -0.147392
vt -0.998355 -0.145562
vt -0.986445 -0.147036
vt -0.999568 -0.147392
vt -0.986445 -0.147036
vt -0.985612 -0.149110
vt -1.000310 -0.149579
vt -0.999568 -0.147392
vt -0.985612 -0.149110
vt -1.002760 -0.148798
vt -1.002560 -0.148744
vt -1.000610 -0.149697
vt -1.000490 -0.149723
vt -1.000310 -0.149579
vt -0.985612 -0.149110
vt -1.003980 -0.151345
vt -1.002760 -0.148798
vt -1.000610 -0.149697
vt -1.003980 -0.151345
vt -1.000490 -0.149723
vt -0.985612 -0.149110
vt -1.003980 -0.151345
vt -0.985612 -0.149110
vt -0.985229 -0.151358
vt -1.005510 -0.153610
vt -1.003980 -0.151345
vt -0.985229 -0.151358
vt -1.027710 -0.154232
vt -1.026390 -0.153880
vt -1.025040 -0.154001
vt -1.027710 -0.154232
vt -1.025040 -0.154001
vt -1.023790 -0.154482
vt -1.028890 -0.155010
vt -1.027710 -0.154232
vt -1.023790 -0.154482
vt -1.028890 -0.155010
vt -1.023790 -0.154482
vt -1.022640 -0.155431
vt -1.007250 -0.155574
vt -1.005510 -0.153610
vt -0.985229 -0.151358
vt -1.029820 -0.156102
vt -1.028890 -0.155010
vt -1.022640 -0.155431
vt -1.009250 -0.157168
vt -1.007250 -0.155574
vt -0.985229 -0.151358
vt -1.029820 -0.156102
vt -1.022640 -0.155431
vt -1.021290 -0.157316
vt -1.030470 -0.157507
vt -1.029820 -0.156102
vt -1.021290 -0.157316
vt -1.030470 -0.157507
vt -1.021290 -0.157316
vt -1.020720 -0.158412
vt -1.011440 -0.158434
vt -1.009250 -0.157168
vt -0.985229 -0.151358
vt -1.030470 -0.157507
vt -1.020720 -0.158412
vt -1.020470 -0.158743
vt -1.030470 -0.157507
vt -1.020470 -0.158743
vt -1.020190 -0.159045
vt -1.030780 -0.159074
vt -1.030470 -0.157507
vt -1.020190 -0.159045
vt -1.030780 -0.159074
vt -1.020190 -0.159045
vt -1.019890 -0.159307
vt -1.013710 -0.159318
vt -1.011440 -0.158434
vt -0.985229 -0.151358
vt -1.030780 -0.159074
vt -1.019890 -0.159307
vt -1.019590 -0.159497
vt -1.030780 -0.159074
vt -1.019590 -0.159497
vt -1.018920 -0.159750
vt -1.030780 -0.159074
vt -1.018920 -0.159750
vt -1.018550 -0.159815
vt -1.030780 -0.159074
vt -1.018550 -0.159815
vt -0.989403 -0.165388
vt -0.989403 -0.165388
vt -1.018550 -0.159815
vt -1.016120 -0.159781
vt -0.989403 -0.165388
vt -1.016120 -0.159781
vt -1.013710 -0.159318
vt -0.989403 -0.165388
vt -1.013710 -0.159318
vt -0.985229 -0.151358
vt -1.030780 -0.159074
vt -0.989403 -0.165388
vt -1.024240 -0.165435
vt -0.988990 -0.165495
vt -0.989403 -0.165388
vt -0.985229 -0.151358
vt -1.030780 -0.159074
vt -1.024240 -0.165435
vt -1.024640 -0.165519
vt -1.024240 -0.165435
vt -0.989403 -0.165388
vt -0.989825 -0.165520
vt -1.023830 -0.165536
vt -1.024240 -0.165435
vt -0.989825 -0.165520
vt -1.030780 -0.159074
vt -1.024640 -0.165519
vt -1.024980 -0.165765
vt -1.023830 -0.165536
vt -0.989825 -0.165520
vt -0.990149 -0.165774
vt -0.988651 -0.165782
vt -0.988990 -0.165495
vt -0.985229 -0.151358
vt -1.023490 -0.165811
vt -1.023830 -0.165536
vt -0.990149 -0.165774
vt -1.030780 -0.159074
vt -1.024980 -0.165765
vt -1.025230 -0.166174
vt -1.023490 -0.165811
vt -0.990149 -0.165774
vt -0.990378 -0.166193
vt -0.988409 -0.166205
vt -0.988651 -0.165782
vt -0.985229 -0.151358
vt -1.023260 -0.166216
vt -1.023490 -0.165811
vt -0.990378 -0.166193
vt -1.031350 -0.166667
vt -1.030780 -0.159074
vt -1.025230 -0.166174
vt -1.031350 -0.166667
vt -1.025230 -0.166174
vt -1.025330 -0.166667
vt -1.023180 -0.166667
vt -1.023260 -0.166216
vt -0.990476 -0.166667
vt -0.990476 -0.166667
vt -1.023260 -0.166216
vt -0.990378 -0.166193
vt -0.988318 -0.166667
vt -0.988409 -0.166205
vt -0.984416 -0.166667
vt -0.984416 -0.166667
vt -0.988409 -0.166205
vt -0.985229 -0.151358
vt 0.283087 -0.157507
vt 0.496421 -0.157507
vt 0.496421 -0.159074
vt 0.283087 -0.159074
vt 0.283087 -0.159074
vt 0.496421 -0.159074
vt 0.496421 -0.166667
vt 0.283087 -0.166667
vt 0.283087 -0.166667
vt 0.496421 -0.166667
vt 0.496421 -0.166174
vt 0.283087 -0.166174
vt 0.283087 -0.166174
vt 0.496421 -0.166174
vt 0.496421 -0.165765
vt 0.283087 -0.165765
vt 0.283087 -1.201150
vt 0.496421 -1.201150
vt 0.496421 -1.200750
vt 0.283087 -1.200750
vt 0.283087 -1.200750
vt 0.496421 -1.200750
vt 0.496421 -1.200280
vt 0.283087 -1.200280
vt 0.283087 -1.200280
vt 0.496421 -1.200280
vt 0.496421 -1.199800
vt 0.283087 -1.199800
vt 0.283087 -1.199800
vt 0.496421 -1.199800
vt 0.496421 -1.199400
vt 0.283087 -1.199400
vt 0.283087 -0.165811
vt 0.496421 -0.165811
vt 0.496421 -0.166216
vt 0.283087 -0.166216
vt 0.283087 -0.166216
vt 0.496421 -0.166216
vt 0.496421 -0.166667
vt 0.283087 -0.166667
g obj0
#Face Count: 173
f 1/1 2/2 3/3 4/4
f 4/5 3/6 5/7 6/8
f 6/9 5/10 7/11 8/12
f 8/13 7/14 9/15 10/16
f 10/17 9/18 11/19 12/20
f 12/21 11/22 13/23 14/24
f 14/25 13/26 15/27 16/28
f 16/29 15/30 17/31 18/32
f 18/33 17/34 19/35 20/36
f 20/37 19/38 21/39 22/40
f 22/41 21/42 23/43 24/44
f 24/45 23/46 25/47 26/48
f 26/49 25/50 27/51 28/52
f 28/53 27/54 29/55 30/56
f 30/57 29/58 31/59 32/60
f 32/61 31/62 33/63 34/64
f 34/65 33/66 35/67 36/68
f 36/69 35/70 37/71 38/72
f 38/73 37/74 39/75 40/76
f 40/77 39/78 41/79 42/80
f 42/81 41/82 43/83 44/84
f 44/85 43/86 45/87 46/88
f 46/89 45/90 47/91 48/92
f 48/93 47/94 49/95 50/96
f 50/97 49/98 51/99 52/100
f 52/101 51/102 53/103 54/104
f 54/105 53/106 55/107 56/108
f 56/109 55/110 57/111 58/112
f 58/113 57/114 59/115 60/116
f 60/117 59/118 61/119 62/120
f 62/121 61/122 63/123 64/124
f 64/125 63/126 65/127 66/128
f 66/129 65/130 67/131 68/132
f 68/133 67/134 69/135 70/136
f 70/137 69/138 71/139 72/140
f 72/141 71/142 73/143 74/144
f 74/145 73/146 75/147 76/148
f 76/149 75/150 77/151 78/152
f 78/153 77/154 79/155 80/156
f 80/157 79/158 81/159 82/160
f 82/161 81/162 83/163 84/164
f 84/165 83/166 85/167 86/168
f 86/169 85/170 87/171 88/172
f 88/173 87/174 89/175 90/176
f 90/177 89/178 91/179 92/180
f 92/181 91/182 93/183 94/184
f 94/185 93/186 95/187 96/188
f 96/189 95/190 97/191 98/192
f 34/193 36/194 38/195
f 32/196 34/197 38/198
f 32/199 38/200 40/201
f 30/202 32/203 40/204
f 30/205 40/206 42/207
f 28/208 30/209 42/210
f 28/211 42/212 44/213
f 26/214 28/215 44/216
f 26/217 44/218 46/219
f 48/220 50/221 52/222
f 26/223 46/224 48/225
f 48/226 52/227 54/228
f 26/229 48/230 54/231
f 24/232 26/233 54/234
f 24/235 54/236 56/237
f 88/238 90/239 92/240
f 86/241 88/242 92/243
f 86/244 92/245 94/246
f 84/247 86/248 94/249
f 24/250 56/251 58/252
f 84/253 94/254 96/255
f 24/256 58/257 60/258
f 82/259 84/260 96/261
f 82/262 96/263 98/264
f 80/265 82/266 98/267
f 24/268 60/269 62/270
f 78/271 80/272 98/273
f 76/274 78/275 98/276
f 76/277 98/278 99/279
f 74/280 76/281 99/282
f 24/283 62/284 64/285
f 72/286 74/287 99/288
f 70/289 72/290 99/291
f 68/292 70/293 99/294
f 66/295 68/296 12/297
f 64/298 66/299 12/300
f 24/301 64/302 12/303
f 12/304 68/305 99/306
f 105/307 12/308 99/309
f 24/310 12/311 14/312
f 104/313 105/314 99/315
f 10/316 12/317 105/318
f 10/319 105/320 106/321
f 103/322 104/323 99/324
f 8/325 10/326 106/327
f 24/328 14/329 16/330
f 8/331 106/332 107/333
f 102/334 103/335 99/336
f 6/337 8/338 107/339
f 24/340 16/341 18/342
f 6/343 107/344 108/345
f 22/346 24/347 18/348
f 22/349 18/350 20/351
f 4/352 6/353 108/354
f 4/355 108/356 1/357
f 101/358 102/359 100/360
f 100/361 102/362 99/363
f 100/364 109/365 110/366 101/367
f 37/368 35/369 33/370
f 37/371 33/372 31/373
f 39/374 37/375 31/376
f 39/377 31/378 29/379
f 41/380 39/381 29/382
f 41/383 29/384 27/385
f 43/386 41/387 27/388
f 43/389 27/390 25/391
f 45/392 43/393 25/394
f 51/395 49/396 47/397
f 47/398 45/399 25/400
f 53/401 51/402 47/403
f 53/404 47/405 25/406
f 53/407 25/408 23/409
f 55/410 53/411 23/412
f 91/413 89/414 87/415
f 91/416 87/417 85/418
f 93/419 91/420 85/421
f 93/422 85/423 83/424
f 57/425 55/426 23/427
f 95/428 93/429 83/430
f 59/431 57/432 23/433
f 95/434 83/435 81/436
f 97/437 95/438 81/439
f 97/440 81/441 79/442
f 61/443 59/444 23/445
f 97/446 79/447 77/448
f 97/449 77/450 75/451
f 111/452 97/453 75/454
f 111/455 75/456 73/457
f 63/458 61/459 23/460
f 111/461 73/462 71/463
f 111/464 71/465 69/466
f 111/467 69/468 67/469
f 111/470 67/471 11/472
f 11/473 67/474 65/475
f 11/476 65/477 63/478
f 11/479 63/480 23/481
f 111/482 11/483 115/484
f 13/485 11/486 23/487
f 111/488 115/489 116/490
f 115/491 11/492 9/493
f 114/494 115/495 9/496
f 111/497 116/498 117/499
f 114/500 9/501 7/502
f 15/503 13/504 23/505
f 113/506 114/507 7/508
f 111/509 117/510 118/511
f 113/512 7/513 5/514
f 17/515 15/516 23/517
f 112/518 113/519 5/520
f 109/521 111/522 118/523
f 109/524 118/525 110/526
f 2/527 112/528 3/529
f 3/530 112/531 5/532
f 19/533 17/534 21/535
f 21/536 17/537 23/538
f 98/539 97/540 111/541 99/542
f 99/543 111/544 109/545 100/546
f 101/547 110/548 118/549 102/550
f 102/551 118/552 117/553 103/554
f 103/555 117/556 116/557 104/558
f 104/559 116/560 115/561 105/562
f 105/563 115/564 114/565 106/566
f 106/567 114/568 113/569 107/570
f 107/571 113/572 112/573 108/574
f 108/575 112/576 2/577 1/578
