# Created using Spin3D

# Vertex Array 
v 4.000 0.000 0.000
v 0.000 2000.000 0.000
v 0.000 0.000 0.000
v 0.000 2000.000 -7.350
v 0.000 0.000 -7.350
v 4.014 0.000 -0.165
v 4.120 0.000 -0.476
v 4.054 0.000 -0.325
v 4.000 2000.000 0.000
v 4.014 2000.000 -0.164
v 10.000 0.000 0.000
v 6.000 2000.000 0.000
v 6.000 0.000 0.000
v 5.986 0.000 -0.165
v 10.000 2000.000 0.000
v 18.758 0.000 -10.985
v 37.000 0.000 0.000
v 33.060 2000.000 0.000
v 33.060 0.000 0.000
v 23.362 0.000 -11.090
v 33.656 0.000 -9.828
v 34.664 0.000 -8.902
v 35.813 0.000 -8.158
v 37.071 0.000 -7.619
v 37.121 0.000 -0.476
v 37.055 0.000 -0.325
v 37.014 0.000 -0.165
v 37.323 0.000 -0.736
v 37.211 0.000 -0.614
v 23.362 2000.000 -11.090
v 37.000 2000.000 0.000
v 37.014 2000.000 -0.164
v 54.000 0.000 0.000
v 39.001 2000.000 0.000
v 39.001 0.000 0.000
v 54.014 0.000 -0.165
v 38.987 0.000 -0.165
v 39.768 0.000 -7.208
v 47.489 0.000 -6.655
v 54.121 0.000 -0.476
v 54.055 0.000 -0.325
v 41.130 0.000 -7.348
v 42.449 0.000 -7.715
v 54.000 2000.000 0.000
v 54.014 2000.000 -0.164
v 60.000 0.000 0.000
v 56.000 2000.000 0.000
v 56.000 0.000 0.000
v 55.987 0.000 -0.165
v 60.000 2000.000 0.000
v 60.000 0.000 -4.550
v 55.946 0.000 -0.325
v 4.054 2000.000 -0.325
v 5.986 2000.000 -0.164
v 18.758 2000.000 -10.985
v 5.946 2000.000 -0.325
v 37.071 2000.000 -7.619
v 35.813 2000.000 -8.158
v 34.664 2000.000 -8.902
v 37.055 2000.000 -0.325
v 37.121 2000.000 -0.476
v 37.211 2000.000 -0.614
v 43.687 2000.000 -8.299
v 42.449 2000.000 -7.715
v 47.561 2000.000 -6.630
v 47.536 2000.000 -6.634
v 47.613 2000.000 -6.635
v 47.587 2000.000 -6.630
v 41.130 2000.000 -7.348
v 39.768 2000.000 -7.208
v 38.987 2000.000 -0.164
v 47.511 2000.000 -6.643
v 47.489 2000.000 -6.655
v 47.660 2000.000 -6.657
v 47.637 2000.000 -6.644
v 55.987 2000.000 -0.164
v 60.000 2000.000 -4.550
v 55.946 2000.000 -0.325
v 55.880 2000.000 -0.476
v 5.946 0.000 -0.325
v 38.946 0.000 -0.325
v 54.055 2000.000 -0.325
v 38.946 2000.000 -0.325
v 47.680 2000.000 -6.674
v 4.120 2000.000 -0.476
v 5.879 0.000 -0.476
v 19.084 0.000 -11.333
v 38.880 0.000 -0.476
v 54.121 2000.000 -0.476
v 55.880 0.000 -0.476
v 5.879 2000.000 -0.476
v 38.880 2000.000 -0.476
v 4.211 0.000 -0.614
v 4.211 2000.000 -0.614
v 5.789 0.000 -0.614
v 23.193 0.000 -18.798
v 38.790 0.000 -0.614
v 54.211 0.000 -0.614
v 54.211 2000.000 -0.614
v 55.789 0.000 -0.614
v 5.789 2000.000 -0.614
v 38.790 2000.000 -0.614
v 55.789 2000.000 -0.614
v 4.323 0.000 -0.736
v 4.323 2000.000 -0.735
v 5.677 0.000 -0.736
v 37.323 2000.000 -0.735
v 38.678 0.000 -0.736
v 47.511 0.000 -6.643
v 54.323 0.000 -0.736
v 54.323 2000.000 -0.735
v 55.678 0.000 -0.736
v 59.850 0.000 -4.700
v 59.874 0.000 -4.698
v 59.897 0.000 -4.693
v 59.918 0.000 -4.684
v 59.938 0.000 -4.672
v 59.957 0.000 -4.656
v 59.972 0.000 -4.638
v 59.984 0.000 -4.618
v 59.993 0.000 -4.596
v 59.999 0.000 -4.574
v 23.193 2000.000 -18.798
v 5.677 2000.000 -0.735
v 38.678 2000.000 -0.735
v 47.697 2000.000 -6.694
v 59.993 2000.000 -4.596
v 59.984 2000.000 -4.618
v 59.972 2000.000 -4.638
v 59.957 2000.000 -4.656
v 59.938 2000.000 -4.672
v 59.874 2000.000 -4.698
v 55.678 2000.000 -0.735
v 59.918 2000.000 -4.684
v 59.897 2000.000 -4.693
v 59.999 2000.000 -4.574
v 4.453 0.000 -0.837
v 4.453 2000.000 -0.837
v 19.684 0.000 -18.830
v 21.490 0.000 -19.000
v 5.547 0.000 -0.837
v 16.252 0.000 -17.689
v 17.925 0.000 -18.389
v 37.454 0.000 -0.837
v 37.454 2000.000 -0.837
v 38.548 0.000 -0.837
v 54.453 0.000 -0.837
v 54.453 2000.000 -0.837
v 57.548 0.000 -4.702
v 57.572 0.000 -4.700
v 55.547 0.000 -0.837
v 57.503 0.000 -4.717
v 57.525 0.000 -4.708
v 0.002 2000.000 -7.373
v 19.684 2000.000 -18.830
v 17.925 2000.000 -18.389
v 5.547 2000.000 -0.837
v 21.490 2000.000 -19.000
v 38.403 2000.000 -7.299
v 38.548 2000.000 -0.837
v 57.572 2000.000 -4.700
v 57.548 2000.000 -4.702
v 57.525 2000.000 -4.708
v 55.547 2000.000 -0.837
v 59.850 2000.000 -4.700
v 0.082 0.000 -7.483
v 0.103 0.000 -7.493
v 0.126 0.000 -7.498
v 0.150 0.000 -7.500
v 4.598 0.000 -0.916
v 0.016 0.000 -7.418
v 0.029 0.000 -7.438
v 0.007 0.000 -7.396
v 0.044 0.000 -7.456
v 0.062 0.000 -7.471
v 0.002 0.000 -7.373
v 4.598 2000.000 -0.916
v 5.402 0.000 -0.916
v 11.008 0.000 -12.607
v 11.032 0.000 -12.608
v 11.054 0.000 -12.614
v 11.075 0.000 -12.622
v 11.095 0.000 -12.634
v 11.113 0.000 -12.649
v 38.403 0.000 -7.299
v 37.599 0.000 -0.916
v 37.599 2000.000 -0.916
v 38.402 0.000 -0.916
v 54.599 0.000 -0.916
v 54.599 2000.000 -0.916
v 47.637 0.000 -6.644
v 47.660 0.000 -6.657
v 47.680 0.000 -6.674
v 47.697 0.000 -6.694
v 55.402 0.000 -0.916
v 47.536 0.000 -6.634
v 47.561 0.000 -6.630
v 47.587 0.000 -6.630
v 47.613 0.000 -6.635
v 57.428 0.000 -4.808
v 57.437 0.000 -4.786
v 57.449 0.000 -4.765
v 57.464 0.000 -4.746
v 57.482 0.000 -4.730
v 0.126 2000.000 -7.498
v 0.103 2000.000 -7.493
v 0.082 2000.000 -7.483
v 0.062 2000.000 -7.471
v 0.044 2000.000 -7.456
v 0.029 2000.000 -7.438
v 0.016 2000.000 -7.418
v 2.500 2000.000 -7.500
v 0.150 2000.000 -7.500
v 0.007 2000.000 -7.396
v 11.054 2000.000 -12.614
v 5.402 2000.000 -0.916
v 11.128 2000.000 -12.666
v 11.113 2000.000 -12.649
v 16.252 2000.000 -17.689
v 11.095 2000.000 -12.634
v 11.075 2000.000 -12.622
v 38.402 2000.000 -0.916
v 55.402 2000.000 -0.916
v 57.482 2000.000 -4.730
v 57.464 2000.000 -4.746
v 57.449 2000.000 -4.765
v 57.503 2000.000 -4.717
v 2.500 0.000 -7.500
v 4.755 0.000 -0.969
v 4.755 2000.000 -0.969
v 5.246 0.000 -0.969
v 37.755 0.000 -0.969
v 37.755 2000.000 -0.969
v 38.246 0.000 -0.969
v 54.755 0.000 -0.969
v 54.755 2000.000 -0.969
v 55.246 0.000 -0.969
v 3.415 2000.000 -7.570
v 7.769 2000.000 -10.630
v 5.246 2000.000 -0.969
v 11.008 2000.000 -12.607
v 11.032 2000.000 -12.608
v 38.246 2000.000 -0.969
v 55.246 2000.000 -0.969
v 3.415 0.000 -7.570
v 4.918 0.000 -0.997
v 4.918 2000.000 -0.997
v 5.083 0.000 -0.997
v 5.950 0.000 -8.591
v 6.659 0.000 -9.175
v 7.769 0.000 -10.630
v 7.269 0.000 -9.860
v 37.918 0.000 -0.997
v 37.918 2000.000 -0.997
v 38.083 0.000 -0.997
v 54.918 0.000 -0.997
v 54.918 2000.000 -0.997
v 55.083 0.000 -0.997
v 4.309 2000.000 -7.779
v 7.269 2000.000 -9.860
v 6.659 2000.000 -9.175
v 5.083 2000.000 -0.997
v 38.083 2000.000 -0.997
v 55.083 2000.000 -0.997
v 4.309 0.000 -7.779
v 5.161 0.000 -8.122
v 5.161 2000.000 -8.122
v 5.950 2000.000 -8.591
v 57.437 2000.000 -4.786
v 57.428 2000.000 -4.808
v 57.424 0.000 -4.832
v 57.424 2000.000 -4.832
v 47.709 2000.000 -6.716
v 57.261 0.000 -5.650
v 47.709 0.000 -6.716
v 57.261 2000.000 -5.650
v 56.980 2000.000 -6.436
v 56.980 0.000 -6.436
v 56.585 0.000 -7.170
v 56.585 2000.000 -7.170
v 43.687 0.000 -8.299
v 47.468 0.000 -6.672
v 47.468 2000.000 -6.672
v 45.010 0.000 -9.075
v 44.809 0.000 -9.083
v 45.010 2000.000 -9.075
v 44.923 2000.000 -9.117
v 44.899 2000.000 -9.118
v 44.947 2000.000 -9.112
v 44.874 2000.000 -9.115
v 44.851 2000.000 -9.108
v 44.829 2000.000 -9.097
v 44.809 2000.000 -9.083
v 48.123 2000.000 -7.445
v 48.123 0.000 -7.445
v 48.652 0.000 -8.094
v 56.086 0.000 -7.839
v 55.493 0.000 -8.425
v 54.812 0.000 -8.914
v 56.086 2000.000 -7.839
v 55.493 2000.000 -8.425
v 48.652 2000.000 -8.094
v 54.812 2000.000 -8.913
v 49.282 2000.000 -8.645
v 49.282 0.000 -8.645
v 49.995 2000.000 -9.084
v 49.995 0.000 -9.084
v 50.771 0.000 -9.397
v 51.589 0.000 -9.577
v 52.425 0.000 -9.618
v 53.257 0.000 -9.518
v 54.060 0.000 -9.281
v 53.257 2000.000 -9.518
v 52.425 2000.000 -9.618
v 54.060 2000.000 -9.281
v 51.589 2000.000 -9.577
v 50.771 2000.000 -9.397
v 33.656 2000.000 -9.828
v 23.021 2000.000 -11.423
v 22.203 2000.000 -11.906
v 22.631 2000.000 -11.697
v 44.829 0.000 -9.097
v 44.851 0.000 -9.108
v 44.874 0.000 -9.115
v 44.899 0.000 -9.118
v 44.991 0.000 -9.091
v 44.991 2000.000 -9.091
v 44.970 0.000 -9.103
v 44.970 2000.000 -9.103
v 44.947 0.000 -9.112
v 44.923 0.000 -9.117
v 32.818 2000.000 -10.910
v 32.818 0.000 -10.911
v 21.747 2000.000 -12.045
v 8.599 0.000 -12.506
v 8.599 2000.000 -12.506
v 30.522 0.000 -13.954
v 30.522 2000.000 -13.954
v 19.084 2000.000 -11.333
v 23.021 0.000 -11.423
v 19.461 0.000 -11.625
v 19.461 2000.000 -11.625
v 22.631 0.000 -11.697
v 26.395 0.000 -17.601
v 27.812 0.000 -16.635
v 19.879 0.000 -11.854
v 19.879 2000.000 -11.854
v 22.203 0.000 -11.906
v 24.842 0.000 -18.328
v 20.329 0.000 -12.013
v 20.329 2000.000 -12.013
v 21.747 0.000 -12.045
v 20.798 0.000 -12.099
v 20.798 2000.000 -12.099
v 21.274 0.000 -12.110
v 27.812 2000.000 -16.635
v 26.395 2000.000 -17.601
v 21.274 2000.000 -12.110
v 24.842 2000.000 -18.328
v 8.608 0.000 -12.527
v 8.741 0.000 -12.607
v 8.608 2000.000 -12.527
v 8.741 2000.000 -12.607
v 8.621 0.000 -12.547
v 8.621 2000.000 -12.547
v 8.636 0.000 -12.564
v 8.636 2000.000 -12.564
v 8.654 0.000 -12.579
v 8.654 2000.000 -12.579
v 8.674 0.000 -12.591
v 8.695 0.000 -12.599
v 8.718 0.000 -12.605
v 8.674 2000.000 -12.591
v 8.695 2000.000 -12.599
v 8.718 2000.000 -12.605
v 11.128 0.000 -12.666
v 11.140 0.000 -12.686
v 13.315 0.000 -15.577
v 14.703 0.000 -16.744
v 11.140 2000.000 -12.686
v 12.118 2000.000 -14.214
v 12.118 0.000 -14.214
v 13.315 2000.000 -15.577
v 14.703 2000.000 -16.744

# Normal Array
vn 0.000 -0.000 1.000
vn -1.000 -0.000 0.000
vn -1.000 0.000 -0.000
vn 0.000 -1.000 -0.000
vn 0.000 -1.000 -0.000
vn 0.000 -1.000 -0.000
vn -0.000 -1.000 -0.000
vn 0.000 -0.000 1.000
vn 0.997 -0.000 0.081
vn 0.997 -0.000 0.081
vn 0.000 -0.000 1.000
vn 0.000 -1.000 -0.000
vn -0.996 -0.000 0.084
vn 0.000 -0.000 1.000
vn -0.000 -1.000 -0.000
vn 0.782 -0.000 0.623
vn 0.000 -0.000 1.000
vn -0.000 -1.000 -0.000
vn 0.000 -1.000 -0.000
vn -0.000 -1.000 -0.000
vn -0.000 -1.000 -0.000
vn 0.000 -1.000 -0.000
vn -0.000 -1.000 -0.000
vn 0.000 -1.000 -0.000
vn -0.000 -1.000 -0.000
vn 0.000 -1.000 -0.000
vn 0.000 -1.000 -0.000
vn -0.753 -0.000 0.658
vn -0.753 -0.000 0.658
vn 0.000 -0.000 1.000
vn 0.996 -0.000 0.084
vn 0.996 -0.000 0.084
vn 0.000 -0.000 1.000
vn 0.000 -1.000 -0.000
vn 0.000 -1.000 -0.000
vn 0.000 -1.000 -0.000
vn 0.000 -1.000 -0.000
vn -0.000 -1.000 -0.000
vn 0.000 -1.000 -0.000
vn -0.000 -1.000 -0.000
vn -0.000 -1.000 -0.000
vn -0.996 -0.000 0.084
vn 0.000 -0.000 1.000
vn 0.996 -0.000 0.084
vn 0.996 -0.000 0.084
vn 0.000 -0.000 1.000
vn 0.000 -1.000 -0.000
vn -0.997 -0.000 0.081
vn 0.000 -0.000 1.000
vn 1.000 0.000 -0.000
vn 0.000 -1.000 -0.000
vn -0.000 -1.000 -0.000
vn 0.000 1.000 0.000
vn 0.000 1.000 0.000
vn 0.000 1.000 0.000
vn 0.000 1.000 0.000
vn -0.996 -0.000 0.084
vn 0.000 1.000 0.000
vn 0.000 1.000 0.000
vn 0.782 -0.000 0.623
vn 0.000 1.000 0.000
vn 0.000 1.000 0.000
vn 0.000 1.000 0.000
vn 0.000 1.000 0.000
vn 0.000 1.000 0.000
vn 0.000 1.000 0.000
vn 0.000 1.000 0.000
vn 0.000 1.000 0.000
vn 0.000 1.000 0.000
vn 0.000 1.000 0.000
vn 0.000 1.000 0.000
vn 0.000 1.000 0.000
vn 0.000 1.000 0.000
vn 0.000 1.000 0.000
vn 0.000 1.000 0.000
vn 0.000 1.000 0.000
vn 0.000 1.000 0.000
vn 0.000 1.000 0.000
vn 0.000 1.000 0.000
vn -0.996 -0.000 0.084
vn 0.000 1.000 0.000
vn 0.000 1.000 -0.000
vn 0.000 1.000 -0.000
vn 0.000 1.000 0.000
vn -0.997 -0.000 0.081
vn 1.000 0.000 0.000
vn 0.000 1.000 0.000
vn 0.000 1.000 0.000
vn 0.000 1.000 -0.000
vn 0.969 -0.000 0.245
vn 0.969 -0.000 0.245
vn -0.000 -1.000 -0.000
vn -0.969 -0.000 0.245
vn 0.969 -0.000 0.245
vn 0.969 -0.000 0.245
vn -0.000 -1.000 -0.000
vn -0.969 -0.000 0.245
vn 0.969 -0.000 0.245
vn 0.969 -0.000 0.245
vn -0.969 -0.000 0.245
vn -0.969 -0.000 0.245
vn 0.000 1.000 0.000
vn -0.969 -0.000 0.245
vn 0.000 1.000 0.000
vn 0.000 1.000 -0.000
vn -0.969 -0.000 0.245
vn 0.916 -0.000 0.402
vn 0.916 -0.000 0.402
vn -0.000 -1.000 -0.000
vn 0.000 -1.000 -0.000
vn -0.916 -0.000 0.402
vn 0.916 -0.000 0.402
vn 0.916 -0.000 0.402
vn 0.000 -1.000 -0.000
vn -0.916 -0.000 0.402
vn 0.916 -0.000 0.402
vn 0.916 -0.000 0.402
vn 0.000 -1.000 -0.000
vn -0.916 -0.000 0.402
vn 0.000 1.000 0.000
vn 0.000 1.000 0.000
vn -0.916 -0.000 0.402
vn 0.000 1.000 0.000
vn -0.916 -0.000 0.402
vn 0.000 1.000 0.000
vn -0.916 -0.000 0.402
vn 0.000 -1.000 -0.000
vn 0.836 -0.000 0.548
vn 0.836 -0.000 0.548
vn 0.000 -1.000 -0.000
vn -0.000 -1.000 -0.000
vn -0.838 -0.000 0.546
vn 0.836 -0.000 0.548
vn 0.836 -0.000 0.548
vn 0.000 -1.000 -0.000
vn -0.838 -0.000 0.546
vn 0.000 -1.000 -0.000
vn 0.838 -0.000 0.546
vn 0.838 -0.000 0.546
vn 0.000 -1.000 -0.000
vn -0.836 -0.000 0.548
vn 0.000 1.000 0.000
vn 0.000 1.000 0.000
vn -0.838 -0.000 0.546
vn 0.000 1.000 0.000
vn -0.838 -0.000 0.546
vn 0.000 1.000 0.000
vn 0.000 1.000 0.000
vn -0.836 -0.000 0.548
vn -0.000 -1.000 -0.000
vn 0.736 -0.000 0.677
vn 0.736 -0.000 0.677
vn 0.000 -1.000 -0.000
vn -0.735 -0.000 0.678
vn 0.736 -0.000 0.677
vn 0.736 -0.000 0.677
vn 0.000 -1.000 -0.000
vn -0.735 -0.000 0.678
vn -0.000 -1.000 -0.000
vn 0.000 -1.000 -0.000
vn 0.735 -0.000 0.678
vn 0.735 -0.000 0.678
vn 0.000 -1.000 -0.000
vn 0.000 -1.000 -0.000
vn 0.000 -1.000 -0.000
vn -0.000 -1.000 -0.000
vn -0.000 -1.000 -0.000
vn -0.000 -1.000 -0.000
vn -0.000 -1.000 -0.000
vn 0.000 -1.000 -0.000
vn 0.000 -1.000 -0.000
vn -0.000 -1.000 -0.000
vn -0.000 -1.000 -0.000
vn -0.736 -0.000 0.677
vn 0.000 1.000 0.000
vn 0.000 1.000 0.000
vn 0.000 1.000 0.000
vn -0.735 -0.000 0.678
vn 0.000 1.000 0.000
vn 0.000 1.000 0.000
vn -0.735 -0.000 0.678
vn 0.000 1.000 -0.000
vn 0.000 1.000 0.000
vn 0.000 1.000 0.000
vn 0.000 1.000 0.000
vn 0.000 1.000 0.000
vn 0.000 1.000 0.000
vn 0.000 1.000 0.000
vn 0.000 1.000 0.000
vn 0.000 1.000 0.000
vn 0.000 1.000 0.000
vn 0.000 1.000 0.000
vn 0.000 1.000 0.000
vn -0.736 -0.000 0.677
vn 0.000 -1.000 -0.000
vn 0.614 -0.000 0.790
vn 0.614 -0.000 0.790
vn -0.000 -1.000 -0.000
vn 0.000 -1.000 -0.000
vn -0.000 -1.000 -0.000
vn 0.000 -1.000 -0.000
vn -0.000 -1.000 -0.000
vn -0.615 -0.000 0.788
vn -0.000 -1.000 -0.000
vn 0.614 -0.000 0.790
vn 0.614 -0.000 0.790
vn -0.000 -1.000 -0.000
vn -0.615 -0.000 0.788
vn 0.000 -1.000 -0.000
vn 0.615 -0.000 0.788
vn 0.615 -0.000 0.788
vn 0.000 -1.000 -0.000
vn 0.000 -1.000 -0.000
vn -0.000 -1.000 -0.000
vn 0.000 -1.000 -0.000
vn -0.000 -1.000 -0.000
vn -0.614 -0.000 0.790
vn 0.000 1.000 -0.000
vn 0.000 1.000 0.000
vn 0.000 1.000 0.000
vn 0.000 1.000 0.000
vn 0.000 1.000 0.000
vn 0.000 1.000 0.000
vn -0.615 -0.000 0.788
vn 0.000 1.000 0.000
vn 0.000 1.000 0.000
vn 0.000 1.000 0.000
vn -0.615 -0.000 0.788
vn 0.000 1.000 0.000
vn 0.000 1.000 0.000
vn 0.000 1.000 0.000
vn 0.000 1.000 0.000
vn 0.000 1.000 0.000
vn 0.000 1.000 0.000
vn -0.614 -0.000 0.790
vn -0.000 -1.000 -0.000
vn -0.000 -1.000 -0.000
vn -0.000 -1.000 -0.000
vn 0.000 -1.000 -0.000
vn 0.000 -1.000 -0.000
vn -0.000 -1.000 -0.000
vn 0.000 -1.000 -0.000
vn -0.000 -1.000 -0.000
vn 0.000 -1.000 -0.000
vn 0.000 -1.000 -0.000
vn -0.000 -1.000 -0.000
vn 0.477 -0.000 0.879
vn 0.477 -0.000 0.879
vn 0.000 -1.000 -0.000
vn -0.000 -1.000 -0.000
vn 0.000 -1.000 -0.000
vn -0.000 -1.000 -0.000
vn -0.000 -1.000 -0.000
vn -0.000 -1.000 -0.000
vn 0.000 -1.000 -0.000
vn -0.476 -0.000 0.880
vn 0.000 -1.000 -0.000
vn -0.000 -1.000 -0.000
vn 0.477 -0.000 0.879
vn 0.477 -0.000 0.879
vn 0.000 -1.000 -0.000
vn -0.476 -0.000 0.880
vn -0.000 -1.000 -0.000
vn 0.476 -0.000 0.880
vn 0.476 -0.000 0.880
vn -0.000 -1.000 -0.000
vn 0.000 -1.000 -0.000
vn -0.000 -1.000 -0.000
vn 0.000 -1.000 -0.000
vn -0.000 -1.000 -0.000
vn 0.000 -1.000 -0.000
vn -0.000 -1.000 -0.000
vn 0.000 -1.000 -0.000
vn -0.000 -1.000 -0.000
vn -0.000 -1.000 -0.000
vn 0.000 -1.000 -0.000
vn 0.000 -1.000 -0.000
vn -0.000 -1.000 -0.000
vn -0.000 -1.000 -0.000
vn 0.000 -1.000 -0.000
vn -0.477 -0.000 0.879
vn 0.000 1.000 -0.000
vn 0.000 1.000 -0.000
vn 0.000 1.000 -0.000
vn 0.000 1.000 -0.000
vn 0.000 1.000 -0.000
vn 0.000 1.000 -0.000
vn 0.000 1.000 0.000
vn 0.000 1.000 -0.000
vn 0.000 1.000 -0.000
vn 0.000 1.000 -0.000
vn 0.000 1.000 -0.000
vn 0.000 1.000 0.000
vn 0.000 1.000 0.000
vn 0.000 1.000 0.000
vn 0.000 1.000 0.000
vn 0.000 1.000 0.000
vn 0.000 1.000 0.000
vn 0.000 1.000 0.000
vn -0.476 -0.000 0.880
vn 0.000 1.000 0.000
vn 0.000 1.000 0.000
vn -0.476 -0.000 0.880
vn 0.000 1.000 0.000
vn 0.000 1.000 0.000
vn 0.000 1.000 0.000
vn 0.000 1.000 0.000
vn 0.000 1.000 0.000
vn 0.000 1.000 0.000
vn 0.000 1.000 0.000
vn -0.477 -0.000 0.879
vn 0.000 -1.000 -0.000
vn 0.000 -1.000 -0.000
vn 0.324 -0.000 0.946
vn 0.324 -0.000 0.946
vn -0.000 -1.000 -0.000
vn -0.325 -0.000 0.946
vn 0.000 -1.000 -0.000
vn 0.324 -0.000 0.946
vn 0.324 -0.000 0.946
vn -0.000 -1.000 -0.000
vn -0.324 -0.000 0.946
vn 0.000 -1.000 -0.000
vn 0.325 -0.000 0.946
vn 0.325 -0.000 0.946
vn -0.000 -1.000 -0.000
vn -0.324 -0.000 0.946
vn 0.000 1.000 0.000
vn 0.000 1.000 -0.000
vn 0.000 1.000 0.000
vn 0.000 1.000 0.000
vn 0.000 1.000 0.000
vn 0.000 1.000 0.000
vn -0.325 -0.000 0.946
vn 0.000 1.000 0.000
vn 0.000 1.000 0.000
vn -0.324 -0.000 0.946
vn 0.000 1.000 0.000
vn 0.000 1.000 0.000
vn -0.324 -0.000 0.946
vn 0.000 -1.000 -0.000
vn -0.000 -1.000 -0.000
vn 0.164 -0.000 0.986
vn 0.164 -0.000 0.986
vn -0.000 -1.000 -0.000
vn -0.000 -1.000 -0.000
vn 0.000 -1.000 -0.000
vn 0.000 -1.000 -0.000
vn 0.000 -1.000 -0.000
vn -0.164 -0.000 0.986
vn -0.000 -1.000 -0.000
vn 0.165 -0.000 0.986
vn 0.165 -0.000 0.986
vn 0.000 -1.000 -0.000
vn -0.000 -1.000 -0.000
vn -0.165 -0.000 0.986
vn -0.000 -1.000 -0.000
vn 0.164 -0.000 0.986
vn 0.164 -0.000 0.986
vn -0.000 -1.000 -0.000
vn -0.164 -0.000 0.986
vn 0.000 1.000 0.000
vn 0.000 1.000 -0.000
vn 0.000 1.000 0.000
vn 0.000 1.000 0.000
vn 0.000 1.000 0.000
vn -0.164 -0.000 0.986
vn 0.000 1.000 0.000
vn 0.000 1.000 0.000
vn -0.165 -0.000 0.986
vn 0.000 1.000 0.000
vn 0.000 1.000 0.000
vn -0.164 -0.000 0.986
vn -0.000 -1.000 -0.000
vn 0.000 -1.000 -0.000
vn 0.000 -0.000 1.000
vn 0.000 -0.000 1.000
vn 0.000 -1.000 -0.000
vn 0.000 -1.000 -0.000
vn 0.000 -1.000 -0.000
vn 0.000 -0.000 1.000
vn 0.000 -0.000 1.000
vn 0.000 -1.000 -0.000
vn 0.000 -0.000 1.000
vn 0.000 -0.000 1.000
vn 0.000 1.000 0.000
vn 0.000 1.000 0.000
vn 0.000 1.000 0.000
vn 0.000 1.000 0.000
vn 0.000 1.000 0.000
vn 0.000 1.000 0.000
vn 0.000 1.000 0.000
vn 0.997 0.000 -0.081
vn 0.997 0.000 -0.081
vn 0.975 0.000 -0.223
vn 0.975 0.000 -0.223
vn 0.924 0.000 -0.382
vn 0.924 0.000 -0.382
vn 0.850 0.000 -0.526
vn 0.850 0.000 -0.526
vn 0.761 0.000 -0.649
vn 0.761 0.000 -0.649
vn 0.644 0.000 -0.765
vn 0.644 0.000 -0.765
vn 0.526 0.000 -0.850
vn 0.526 0.000 -0.850
vn 0.380 0.000 -0.925
vn 0.380 0.000 -0.925
vn 0.233 0.000 -0.972
vn 0.233 0.000 -0.972
vn 0.080 0.000 -0.997
vn 0.080 0.000 -0.997
vn 0.000 0.000 -1.000
vn 0.000 0.000 -1.000
vn 0.078 0.000 -0.997
vn 0.078 0.000 -0.997
vn 0.247 0.000 -0.969
vn 0.247 0.000 -0.969
vn 0.390 0.000 -0.921
vn 0.390 0.000 -0.921
vn 0.532 0.000 -0.847
vn 0.532 0.000 -0.847
vn 0.661 0.000 -0.750
vn 0.661 0.000 -0.750
vn 0.777 0.000 -0.629
vn 0.777 0.000 -0.629
vn 0.867 0.000 -0.498
vn 0.867 0.000 -0.498
vn 0.000 1.000 -0.000
vn 0.935 0.000 -0.354
vn 0.935 0.000 -0.354
vn 0.000 1.000 -0.000
vn 0.000 -1.000 -0.000
vn 0.980 0.000 -0.198
vn 0.980 0.000 -0.198
vn 0.000 1.000 -0.000
vn 0.000 1.000 -0.000
vn 0.981 0.000 -0.194
vn -0.000 -1.000 -0.000
vn -0.000 -1.000 -0.000
vn 0.981 0.000 -0.194
vn 0.000 1.000 -0.000
vn 0.000 1.000 -0.000
vn 0.941 0.000 -0.338
vn 0.000 -1.000 -0.000
vn 0.941 0.000 -0.338
vn 0.881 0.000 -0.473
vn 0.000 -1.000 -0.000
vn 0.881 0.000 -0.473
vn 0.000 1.000 -0.000
vn -0.009 0.000 -1.000
vn 0.167 0.000 -0.986
vn 0.167 0.000 -0.986
vn -0.009 0.000 -1.000
vn -0.182 0.000 -0.983
vn -0.182 0.000 -0.983
vn 0.327 0.000 -0.945
vn 0.327 0.000 -0.945
vn -0.349 0.000 -0.937
vn -0.349 0.000 -0.937
vn 0.498 0.000 -0.867
vn 0.498 0.000 -0.867
vn -0.505 0.000 -0.863
vn -0.505 0.000 -0.863
vn -0.000 -1.000 -0.000
vn -0.000 -1.000 -0.000
vn 0.626 0.000 -0.780
vn 0.626 0.000 -0.780
vn 0.000 1.000 -0.000
vn -0.646 0.000 -0.764
vn -0.646 0.000 -0.764
vn 0.699 0.000 -0.715
vn -0.000 -1.000 -0.000
vn -0.000 -1.000 -0.000
vn 0.699 0.000 -0.715
vn 0.000 1.000 -0.000
vn 0.000 1.000 -0.000
vn 0.000 1.000 -0.000
vn 0.000 1.000 -0.000
vn 0.000 1.000 -0.000
vn 0.000 1.000 -0.000
vn 0.000 1.000 -0.000
vn 0.000 1.000 -0.000
vn -0.768 0.000 -0.640
vn -0.768 0.000 -0.640
vn -0.867 0.000 -0.498
vn -0.867 0.000 -0.498
vn -0.870 0.000 -0.494
vn -0.870 0.000 -0.494
vn 0.000 -1.000 -0.000
vn 0.000 -1.000 -0.000
vn 0.000 -1.000 -0.000
vn 0.000 -1.000 -0.000
vn 0.000 -1.000 -0.000
vn 0.000 1.000 0.000
vn 0.000 1.000 0.000
vn 0.000 1.000 0.000
vn 0.801 0.000 -0.598
vn 0.801 0.000 -0.598
vn -0.102 0.000 -0.995
vn 0.067 0.000 -0.998
vn 0.067 0.000 -0.998
vn -0.102 0.000 -0.995
vn 0.234 0.000 -0.972
vn 0.234 0.000 -0.972
vn -0.268 0.000 -0.963
vn -0.268 0.000 -0.963
vn -0.997 0.000 -0.081
vn -0.997 0.000 -0.081
vn -0.975 0.000 -0.223
vn -0.975 0.000 -0.223
vn -0.923 0.000 -0.385
vn -0.923 0.000 -0.385
vn -0.853 0.000 -0.522
vn -0.853 0.000 -0.522
vn -0.761 0.000 -0.649
vn -0.761 0.000 -0.649
vn -0.775 0.000 -0.632
vn -0.775 0.000 -0.632
vn 0.000 1.000 0.000
vn 0.000 1.000 0.000
vn -0.644 0.000 -0.765
vn -0.644 0.000 -0.765
vn -0.519 0.000 -0.855
vn -0.519 0.000 -0.855
vn -0.389 0.000 -0.921
vn -0.389 0.000 -0.921
vn -0.233 0.000 -0.972
vn -0.233 0.000 -0.972
vn -0.080 0.000 -0.997
vn -0.080 0.000 -0.997
vn 0.000 0.000 -1.000
vn 0.000 0.000 -1.000
vn -0.076 0.000 -0.997
vn -0.076 0.000 -0.997
vn -0.228 0.000 -0.974
vn -0.228 0.000 -0.974
vn 0.394 0.000 -0.919
vn 0.394 0.000 -0.919
vn -0.427 0.000 -0.904
vn -0.427 0.000 -0.904
vn -0.374 0.000 -0.928
vn -0.374 0.000 -0.928
vn 0.704 0.000 -0.711
vn 0.704 0.000 -0.711
vn -0.659 0.000 -0.752
vn -0.659 0.000 -0.752
vn -0.000 -1.000 -0.000
vn 0.000 1.000 0.000
vn -0.511 0.000 -0.860
vn -0.511 0.000 -0.860
vn 0.543 0.000 -0.840
vn 0.543 0.000 -0.840
vn -0.573 0.000 -0.820
vn -0.573 0.000 -0.820
vn 0.583 0.000 -0.813
vn 0.583 0.000 -0.813
vn -0.636 0.000 -0.772
vn -0.636 0.000 -0.772
vn -0.524 0.000 -0.852
vn -0.524 0.000 -0.852
vn -0.000 -1.000 -0.000
vn 0.000 -1.000 -0.000
vn 0.000 -1.000 -0.000
vn -0.000 -1.000 -0.000
vn 0.000 -1.000 -0.000
vn -0.000 -1.000 -0.000
vn 0.000 1.000 0.000
vn 0.000 1.000 0.000
vn 0.000 1.000 0.000
vn 0.000 1.000 0.000
vn 0.000 1.000 0.000
vn 0.000 1.000 0.000
vn 0.677 0.000 -0.736
vn 0.677 0.000 -0.736
vn 0.000 1.000 0.000
vn 0.000 1.000 -0.000
vn 0.000 1.000 0.000
vn 0.000 1.000 0.000
vn 0.439 0.000 -0.898
vn 0.439 0.000 -0.898
vn -0.000 -1.000 -0.000
vn -0.000 -1.000 -0.000
vn -0.000 -1.000 -0.000
vn -0.000 -1.000 -0.000
vn 0.000 -1.000 -0.000
vn 0.640 0.000 -0.768
vn 0.000 1.000 -0.000
vn 0.640 0.000 -0.768
vn -0.575 0.000 -0.818
vn -0.575 0.000 -0.818
vn -0.374 0.000 -0.927
vn -0.374 0.000 -0.927
vn 0.000 -1.000 -0.000
vn 0.500 0.000 -0.866
vn 0.000 1.000 -0.000
vn 0.500 0.000 -0.866
vn -0.439 0.000 -0.898
vn -0.439 0.000 -0.898
vn 0.000 -1.000 -0.000
vn 0.366 0.000 -0.931
vn 0.366 0.000 -0.931
vn -0.284 0.000 -0.959
vn -0.284 0.000 -0.959
vn -0.000 -1.000 -0.000
vn 0.192 0.000 -0.981
vn 0.192 0.000 -0.981
vn -0.117 0.000 -0.993
vn -0.117 0.000 -0.993
vn 0.039 0.000 -0.999
vn 0.039 0.000 -0.999
vn -0.746 0.000 -0.666
vn -0.746 0.000 -0.666
vn 0.283 0.000 -0.959
vn 0.283 0.000 -0.959
vn -0.215 0.000 -0.977
vn -0.215 0.000 -0.977
vn 0.119 0.000 -0.993
vn 0.119 0.000 -0.993
vn -0.048 0.000 -0.999
vn -0.048 0.000 -0.999
vn 0.791 0.000 -0.612
vn 0.791 0.000 -0.612
vn -0.000 -1.000 -0.000
vn 0.000 1.000 -0.000
vn 0.000 1.000 0.000
vn -0.839 0.000 -0.544
vn -0.839 0.000 -0.544
vn -0.914 0.000 -0.405
vn -0.000 -1.000 -0.000
vn -0.914 0.000 -0.405
vn 0.000 1.000 0.000
vn 0.798 0.000 -0.602
vn -0.000 -1.000 -0.000
vn 0.798 0.000 -0.602
vn 0.000 1.000 -0.000
vn 0.730 -0.000 0.683
vn 0.730 -0.000 0.683
vn 0.000 1.000 0.000
vn 0.000 -1.000 -0.000
vn -0.698 -0.000 0.716
vn -0.698 -0.000 0.716
vn 0.000 -1.000 -0.000
vn 0.612 -0.000 0.791
vn 0.612 -0.000 0.791
vn 0.000 1.000 0.000
vn -0.000 -1.000 -0.000
vn 0.000 -1.000 -0.000
vn -0.000 -1.000 -0.000
vn -0.576 -0.000 0.818
vn -0.576 -0.000 0.818
vn -0.000 -1.000 -0.000
vn 0.480 -0.000 0.877
vn 0.480 -0.000 0.877
vn 0.000 1.000 0.000
vn 0.000 -1.000 -0.000
vn -0.000 -1.000 -0.000
vn -0.439 -0.000 0.898
vn -0.439 -0.000 0.898
vn 0.000 -1.000 -0.000
vn 0.335 -0.000 0.942
vn 0.335 -0.000 0.942
vn 0.000 1.000 0.000
vn -0.000 -1.000 -0.000
vn 0.000 -1.000 -0.000
vn -0.291 -0.000 0.957
vn -0.291 -0.000 0.957
vn 0.000 -1.000 -0.000
vn 0.180 -0.000 0.984
vn 0.180 -0.000 0.984
vn 0.000 1.000 0.000
vn 0.000 -1.000 -0.000
vn -0.136 -0.000 0.991
vn 0.000 1.000 0.000
vn 0.000 1.000 0.000
vn 0.000 1.000 0.000
vn 0.000 1.000 0.000
vn 0.000 1.000 0.000
vn -0.136 -0.000 0.991
vn -0.000 -1.000 -0.000
vn 0.023 -0.000 1.000
vn 0.023 -0.000 1.000
vn 0.000 1.000 0.000
vn 0.000 -1.000 -0.000
vn 0.000 -1.000 -0.000
vn -0.920 0.000 -0.393
vn -0.920 0.000 -0.393
vn 0.000 1.000 0.000
vn 0.000 1.000 0.000
vn -0.000 -1.000 -0.000
vn -0.845 0.000 -0.536
vn -0.845 0.000 -0.536
vn 0.000 1.000 0.000
vn -0.000 -1.000 -0.000
vn -0.752 0.000 -0.659
vn -0.752 0.000 -0.659
vn 0.000 1.000 0.000
vn 0.000 -1.000 -0.000
vn -0.638 0.000 -0.770
vn -0.638 0.000 -0.770
vn 0.000 1.000 0.000
vn 0.000 -1.000 -0.000
vn -0.000 -1.000 -0.000
vn 0.000 -1.000 -0.000
vn -0.521 0.000 -0.854
vn -0.521 0.000 -0.854
vn 0.000 1.000 0.000
vn 0.000 1.000 0.000
vn 0.000 1.000 0.000
vn -0.371 0.000 -0.928
vn -0.371 0.000 -0.928
vn -0.233 0.000 -0.972
vn -0.233 0.000 -0.972
vn -0.073 0.000 -0.997
vn -0.073 0.000 -0.997
vn 0.000 0.000 -1.000
vn 0.000 0.000 -1.000
vn -0.071 0.000 -0.997
vn -0.071 0.000 -0.997
vn -0.238 0.000 -0.971
vn -0.238 0.000 -0.971
vn -0.371 0.000 -0.928
vn -0.371 0.000 -0.928
vn -0.521 0.000 -0.854
vn -0.521 0.000 -0.854
vn -0.636 0.000 -0.772
vn -0.636 0.000 -0.772
vn -0.000 -1.000 -0.000
vn -0.752 0.000 -0.659
vn -0.752 0.000 -0.659
vn -0.000 -1.000 -0.000
vn 0.000 -1.000 -0.000
vn -0.000 -1.000 -0.000
vn -0.842 0.000 -0.540
vn 0.000 1.000 0.000
vn -0.842 0.000 -0.540
vn -0.842 0.000 -0.539
vn -0.842 0.000 -0.539
vn 0.000 -1.000 -0.000
vn 0.000 1.000 0.000
vn 0.703 0.000 -0.711
vn 0.703 0.000 -0.711
vn -0.751 0.000 -0.660
vn -0.751 0.000 -0.660
vn 0.000 1.000 0.000
vn -0.644 0.000 -0.765
vn -0.644 0.000 -0.765
vn 0.000 1.000 0.000
vn 0.563 0.000 -0.826
vn 0.563 0.000 -0.826
vn -0.521 0.000 -0.854
vn -0.521 0.000 -0.854
vn 0.424 0.000 -0.906
vn 0.424 0.000 -0.906
vn -0.386 0.000 -0.922
vn -0.386 0.000 -0.922
vn 0.274 0.000 -0.962
vn 0.274 0.000 -0.962
vn -0.243 0.000 -0.970
vn -0.243 0.000 -0.970
vn 0.117 0.000 -0.993
vn 0.117 0.000 -0.993
vn -0.094 0.000 -0.996
vn -0.094 0.000 -0.996

# Facets
f 1//1 2//1 3//1
f 4//2 5//2 3//2
f 2//3 4//3 3//3
f 6//4 1//4 3//4
f 5//5 7//5 3//5
f 7//6 8//6 3//6
f 8//7 6//7 3//7
f 9//8 2//8 1//8
f 6//9 10//9 1//9
f 10//10 9//10 1//10
f 11//11 12//11 13//11
f 14//12 11//12 13//12
f 12//13 14//13 13//13
f 15//14 12//14 11//14
f 14//15 16//15 11//15
f 16//16 15//16 11//16
f 17//17 18//17 19//17
f 20//18 21//18 19//18
f 21//19 22//19 19//19
f 22//20 23//20 19//20
f 23//21 24//21 19//21
f 25//22 26//22 19//22
f 26//23 27//23 19//23
f 27//24 17//24 19//24
f 24//25 28//25 19//25
f 28//26 29//26 19//26
f 29//27 25//27 19//27
f 30//28 20//28 19//28
f 18//29 30//29 19//29
f 31//30 18//30 17//30
f 27//31 32//31 17//31
f 32//32 31//32 17//32
f 33//33 34//33 35//33
f 36//34 33//34 35//34
f 37//35 38//35 35//35
f 39//36 40//36 35//36
f 40//37 41//37 35//37
f 41//38 36//38 35//38
f 38//39 42//39 35//39
f 42//40 43//40 35//40
f 43//41 39//41 35//41
f 34//42 37//42 35//42
f 44//43 34//43 33//43
f 36//44 45//44 33//44
f 45//45 44//45 33//45
f 46//46 47//46 48//46
f 49//47 46//47 48//47
f 47//48 49//48 48//48
f 50//49 47//49 46//49
f 51//50 50//50 46//50
f 49//51 52//51 46//51
f 52//52 51//52 46//52
f 9//53 10//53 2//53
f 10//54 53//54 2//54
f 53//55 4//55 2//55
f 15//56 54//56 12//56
f 54//57 14//57 12//57
f 55//58 56//58 15//58
f 56//59 54//59 15//59
f 16//60 55//60 15//60
f 57//61 58//61 18//61
f 58//62 59//62 18//62
f 59//63 30//63 18//63
f 32//64 60//64 18//64
f 31//65 32//65 18//65
f 60//66 61//66 18//66
f 61//67 62//67 18//67
f 62//68 57//68 18//68
f 63//69 64//69 34//69
f 65//70 66//70 34//70
f 44//71 67//71 34//71
f 67//72 68//72 34//72
f 68//73 65//73 34//73
f 64//74 69//74 34//74
f 69//75 70//75 34//75
f 70//76 71//76 34//76
f 66//77 72//77 34//77
f 72//78 73//78 34//78
f 73//79 63//79 34//79
f 71//80 37//80 34//80
f 45//81 74//81 44//81
f 74//82 75//82 44//82
f 75//83 67//83 44//83
f 50//84 76//84 47//84
f 76//85 49//85 47//85
f 51//86 77//86 50//86
f 78//87 76//87 50//87
f 79//88 78//88 50//88
f 77//89 79//89 50//89
f 8//90 53//90 6//90
f 53//91 10//91 6//91
f 80//92 16//92 14//92
f 54//93 80//93 14//93
f 26//94 60//94 27//94
f 60//95 32//95 27//95
f 81//96 38//96 37//96
f 71//97 81//97 37//97
f 41//98 82//98 36//98
f 82//99 45//99 36//99
f 76//100 52//100 49//100
f 56//101 80//101 54//101
f 70//102 83//102 71//102
f 83//103 81//103 71//103
f 82//104 84//104 45//104
f 84//105 74//105 45//105
f 78//106 52//106 76//106
f 7//107 85//107 8//107
f 85//108 53//108 8//108
f 86//109 87//109 80//109
f 87//110 16//110 80//110
f 56//111 86//111 80//111
f 25//112 61//112 26//112
f 61//113 60//113 26//113
f 88//114 38//114 81//114
f 83//115 88//115 81//115
f 40//116 89//116 41//116
f 89//117 82//117 41//117
f 90//118 51//118 52//118
f 78//119 90//119 52//119
f 85//120 4//120 53//120
f 55//121 91//121 56//121
f 91//122 86//122 56//122
f 70//123 92//123 83//123
f 92//124 88//124 83//124
f 89//125 84//125 82//125
f 79//126 90//126 78//126
f 5//127 93//127 7//127
f 93//128 94//128 7//128
f 94//129 85//129 7//129
f 95//130 96//130 86//130
f 96//131 87//131 86//131
f 91//132 95//132 86//132
f 29//133 62//133 25//133
f 62//134 61//134 25//134
f 97//135 38//135 88//135
f 92//136 97//136 88//136
f 39//137 98//137 40//137
f 98//138 99//138 40//138
f 99//139 89//139 40//139
f 100//140 51//140 90//140
f 79//141 100//141 90//141
f 94//142 4//142 85//142
f 55//143 101//143 91//143
f 101//144 95//144 91//144
f 70//145 102//145 92//145
f 102//146 97//146 92//146
f 99//147 84//147 89//147
f 77//148 103//148 79//148
f 103//149 100//149 79//149
f 5//150 104//150 93//150
f 104//151 105//151 93//151
f 105//152 94//152 93//152
f 106//153 96//153 95//153
f 101//154 106//154 95//154
f 28//155 107//155 29//155
f 107//156 62//156 29//156
f 108//157 38//157 97//157
f 102//158 108//158 97//158
f 109//159 110//159 98//159
f 39//160 109//160 98//160
f 110//161 111//161 98//161
f 111//162 99//162 98//162
f 112//163 113//163 100//163
f 113//164 114//164 100//164
f 114//165 115//165 100//165
f 115//166 116//166 100//166
f 116//167 117//167 100//167
f 117//168 118//168 100//168
f 118//169 119//169 100//169
f 119//170 120//170 100//170
f 120//171 121//171 100//171
f 122//172 51//172 100//172
f 121//173 122//173 100//173
f 103//174 112//174 100//174
f 105//175 4//175 94//175
f 55//176 123//176 101//176
f 123//177 124//177 101//177
f 124//178 106//178 101//178
f 107//179 57//179 62//179
f 70//180 125//180 102//180
f 125//181 108//181 102//181
f 126//182 84//182 99//182
f 111//183 126//183 99//183
f 127//184 128//184 103//184
f 128//185 129//185 103//185
f 129//186 130//186 103//186
f 130//187 131//187 103//187
f 132//188 133//188 103//188
f 131//189 134//189 103//189
f 134//190 135//190 103//190
f 135//191 132//191 103//191
f 77//192 136//192 103//192
f 136//193 127//193 103//193
f 133//194 112//194 103//194
f 5//195 137//195 104//195
f 137//196 138//196 104//196
f 138//197 105//197 104//197
f 139//198 140//198 106//198
f 140//199 96//199 106//199
f 141//200 142//200 106//200
f 142//201 143//201 106//201
f 143//202 139//202 106//202
f 124//203 141//203 106//203
f 24//204 144//204 28//204
f 144//205 145//205 28//205
f 145//206 107//206 28//206
f 146//207 38//207 108//207
f 125//208 146//208 108//208
f 109//209 147//209 110//209
f 147//210 148//210 110//210
f 148//211 111//211 110//211
f 149//212 150//212 112//212
f 150//213 113//213 112//213
f 151//214 152//214 112//214
f 152//215 153//215 112//215
f 153//216 149//216 112//216
f 133//217 151//217 112//217
f 154//218 4//218 105//218
f 138//219 154//219 105//219
f 155//220 156//220 124//220
f 156//221 157//221 124//221
f 123//222 158//222 124//222
f 158//223 155//223 124//223
f 157//224 141//224 124//224
f 159//225 57//225 107//225
f 145//226 159//226 107//226
f 70//227 160//227 125//227
f 160//228 146//228 125//228
f 148//229 126//229 111//229
f 161//230 162//230 133//230
f 162//231 163//231 133//231
f 163//232 164//232 133//232
f 132//233 165//233 133//233
f 165//234 161//234 133//234
f 164//235 151//235 133//235
f 166//236 167//236 137//236
f 167//237 168//237 137//237
f 168//238 169//238 137//238
f 169//239 170//239 137//239
f 171//240 172//240 137//240
f 173//241 171//241 137//241
f 172//242 174//242 137//242
f 174//243 175//243 137//243
f 175//244 166//244 137//244
f 5//245 176//245 137//245
f 176//246 173//246 137//246
f 170//247 177//247 137//247
f 177//248 138//248 137//248
f 178//249 179//249 141//249
f 179//250 180//250 141//250
f 180//251 181//251 141//251
f 181//252 182//252 141//252
f 182//253 183//253 141//253
f 183//254 184//254 141//254
f 184//255 142//255 141//255
f 157//256 178//256 141//256
f 185//257 186//257 144//257
f 24//258 185//258 144//258
f 186//259 187//259 144//259
f 187//260 145//260 144//260
f 188//261 38//261 146//261
f 160//262 188//262 146//262
f 109//263 189//263 147//263
f 189//264 190//264 147//264
f 190//265 148//265 147//265
f 191//266 192//266 151//266
f 192//267 193//267 151//267
f 193//268 194//268 151//268
f 195//269 109//269 151//269
f 109//270 196//270 151//270
f 196//271 197//271 151//271
f 197//272 198//272 151//272
f 198//273 199//273 151//273
f 199//274 191//274 151//274
f 194//275 200//275 151//275
f 200//276 201//276 151//276
f 201//277 202//277 151//277
f 202//278 203//278 151//278
f 203//279 204//279 151//279
f 204//280 152//280 151//280
f 164//281 195//281 151//281
f 205//282 206//282 138//282
f 206//283 207//283 138//283
f 207//284 208//284 138//284
f 208//285 209//285 138//285
f 209//286 210//286 138//286
f 210//287 211//287 138//287
f 177//288 212//288 138//288
f 212//289 213//289 138//289
f 213//290 205//290 138//290
f 214//291 154//291 138//291
f 211//292 214//292 138//292
f 215//293 216//293 157//293
f 217//294 218//294 157//294
f 156//295 219//295 157//295
f 219//296 217//296 157//296
f 218//297 220//297 157//297
f 220//298 221//298 157//298
f 221//299 215//299 157//299
f 216//300 178//300 157//300
f 187//301 159//301 145//301
f 70//302 222//302 160//302
f 222//303 188//303 160//303
f 190//304 126//304 148//304
f 126//305 223//305 164//305
f 224//306 225//306 164//306
f 225//307 226//307 164//307
f 226//308 126//308 164//308
f 163//309 227//309 164//309
f 227//310 224//310 164//310
f 223//311 195//311 164//311
f 169//312 228//312 170//312
f 228//313 229//313 170//313
f 229//314 230//314 170//314
f 230//315 177//315 170//315
f 231//316 179//316 178//316
f 216//317 231//317 178//317
f 185//318 232//318 186//318
f 232//319 233//319 186//319
f 233//320 187//320 186//320
f 234//321 38//321 188//321
f 222//322 234//322 188//322
f 109//323 235//323 189//323
f 235//324 236//324 189//324
f 236//325 190//325 189//325
f 237//326 109//326 195//326
f 223//327 237//327 195//327
f 230//328 238//328 177//328
f 238//329 212//329 177//329
f 239//330 240//330 216//330
f 241//331 239//331 216//331
f 242//332 241//332 216//332
f 215//333 242//333 216//333
f 240//334 231//334 216//334
f 233//335 159//335 187//335
f 70//336 243//336 222//336
f 243//337 234//337 222//337
f 236//338 126//338 190//338
f 126//339 244//339 223//339
f 244//340 237//340 223//340
f 228//341 245//341 229//341
f 245//342 246//342 229//342
f 246//343 247//343 229//343
f 247//344 230//344 229//344
f 248//345 249//345 231//345
f 249//346 250//346 231//346
f 251//347 179//347 231//347
f 252//348 251//348 231//348
f 250//349 252//349 231//349
f 240//350 248//350 231//350
f 185//351 253//351 232//351
f 253//352 254//352 232//352
f 254//353 233//353 232//353
f 185//354 38//354 234//354
f 255//355 185//355 234//355
f 243//356 255//356 234//356
f 109//357 256//357 235//357
f 256//358 257//358 235//358
f 257//359 236//359 235//359
f 258//360 109//360 237//360
f 244//361 258//361 237//361
f 247//362 259//362 230//362
f 259//363 238//363 230//363
f 239//364 260//364 240//364
f 260//365 261//365 240//365
f 261//366 262//366 240//366
f 262//367 248//367 240//367
f 254//368 159//368 233//368
f 70//369 263//369 243//369
f 263//370 255//370 243//370
f 257//371 126//371 236//371
f 126//372 264//372 244//372
f 264//373 258//373 244//373
f 245//374 265//374 246//374
f 265//375 248//375 246//375
f 248//376 262//376 246//376
f 262//377 247//377 246//377
f 265//378 266//378 248//378
f 266//379 249//379 248//379
f 185//380 255//380 253//380
f 255//381 263//381 253//381
f 263//382 254//382 253//382
f 109//383 258//383 256//383
f 258//384 264//384 256//384
f 264//385 257//385 256//385
f 262//386 267//386 247//386
f 267//387 259//387 247//387
f 261//388 268//388 262//388
f 268//389 267//389 262//389
f 263//390 159//390 254//390
f 70//391 159//391 263//391
f 264//392 126//392 257//392
f 122//393 77//393 51//393
f 122//394 136//394 77//394
f 121//395 136//395 122//395
f 121//396 127//396 136//396
f 120//397 127//397 121//397
f 120//398 128//398 127//398
f 119//399 128//399 120//399
f 119//400 129//400 128//400
f 118//401 129//401 119//401
f 118//402 130//402 129//402
f 117//403 130//403 118//403
f 117//404 131//404 130//404
f 116//405 131//405 117//405
f 116//406 134//406 131//406
f 115//407 134//407 116//407
f 115//408 135//408 134//408
f 114//409 135//409 115//409
f 114//410 132//410 135//410
f 113//411 132//411 114//411
f 113//412 165//412 132//412
f 161//413 165//413 150//413
f 165//414 113//414 150//414
f 162//415 161//415 150//415
f 149//416 162//416 150//416
f 163//417 162//417 149//417
f 153//418 163//418 149//418
f 227//419 163//419 153//419
f 152//420 227//420 153//420
f 224//421 227//421 152//421
f 204//422 224//422 152//422
f 225//423 224//423 204//423
f 203//424 225//424 204//424
f 226//425 225//425 203//425
f 202//426 226//426 203//426
f 269//427 226//427 202//427
f 201//428 269//428 202//428
f 269//429 126//429 226//429
f 270//430 269//430 201//430
f 200//431 270//431 201//431
f 270//432 126//432 269//432
f 194//433 271//433 200//433
f 272//434 270//434 200//434
f 271//435 272//435 200//435
f 272//436 273//436 270//436
f 273//437 126//437 270//437
f 274//438 272//438 271//438
f 194//439 275//439 271//439
f 275//440 274//440 271//440
f 274//441 276//441 272//441
f 276//442 277//442 272//442
f 277//443 273//443 272//443
f 278//444 276//444 274//444
f 275//445 278//445 274//445
f 278//446 277//446 276//446
f 279//447 277//447 278//447
f 275//448 279//448 278//448
f 279//449 280//449 277//449
f 280//450 273//450 277//450
f 65//451 198//451 197//451
f 66//452 65//452 197//452
f 196//453 66//453 197//453
f 68//454 198//454 65//454
f 68//455 199//455 198//455
f 67//456 199//456 68//456
f 72//457 66//457 196//457
f 109//458 72//458 196//458
f 67//459 191//459 199//459
f 75//460 191//460 67//460
f 73//461 72//461 109//461
f 39//462 73//462 109//462
f 75//463 192//463 191//463
f 74//464 192//464 75//464
f 43//465 281//465 39//465
f 281//466 282//466 39//466
f 283//467 73//467 39//467
f 282//468 283//468 39//468
f 283//469 63//469 73//469
f 74//470 193//470 192//470
f 84//471 193//471 74//471
f 284//472 283//472 282//472
f 281//473 285//473 282//473
f 285//474 284//474 282//474
f 284//475 286//475 283//475
f 287//476 288//476 283//476
f 289//477 287//477 283//477
f 286//478 289//478 283//478
f 288//479 290//479 283//479
f 290//480 291//480 283//480
f 291//481 292//481 283//481
f 293//482 63//482 283//482
f 292//483 293//483 283//483
f 84//484 194//484 193//484
f 126//485 194//485 84//485
f 126//486 275//486 194//486
f 273//487 275//487 126//487
f 294//488 295//488 275//488
f 273//489 294//489 275//489
f 295//490 296//490 275//490
f 297//491 279//491 275//491
f 298//492 297//492 275//492
f 299//493 298//493 275//493
f 296//494 299//494 275//494
f 280//495 300//495 273//495
f 300//496 301//496 273//496
f 301//497 294//497 273//497
f 297//498 280//498 279//498
f 297//499 300//499 280//499
f 70//500 42//500 38//500
f 159//501 70//501 38//501
f 185//502 159//502 38//502
f 69//503 42//503 70//503
f 57//504 159//504 185//504
f 24//505 57//505 185//505
f 69//506 43//506 42//506
f 64//507 43//507 69//507
f 154//508 176//508 5//508
f 4//509 154//509 5//509
f 214//510 173//510 176//510
f 154//511 214//511 176//511
f 211//512 171//512 173//512
f 214//513 211//513 173//513
f 210//514 172//514 171//514
f 211//515 210//515 171//515
f 209//516 174//516 172//516
f 210//517 209//517 172//517
f 302//518 296//518 295//518
f 294//519 302//519 295//519
f 301//520 303//520 294//520
f 303//521 302//521 294//521
f 208//522 175//522 174//522
f 209//523 208//523 174//523
f 207//524 166//524 175//524
f 208//525 207//525 175//525
f 206//526 167//526 166//526
f 207//527 206//527 166//527
f 205//528 168//528 167//528
f 206//529 205//529 167//529
f 213//530 169//530 168//530
f 205//531 213//531 168//531
f 213//532 212//532 169//532
f 212//533 228//533 169//533
f 212//534 245//534 228//534
f 238//535 245//535 212//535
f 238//536 265//536 245//536
f 259//537 265//537 238//537
f 58//538 57//538 24//538
f 23//539 58//539 24//539
f 64//540 281//540 43//540
f 63//541 281//541 64//541
f 259//542 266//542 265//542
f 267//543 266//543 259//543
f 298//544 300//544 297//544
f 298//545 301//545 300//545
f 304//546 305//546 296//546
f 302//547 304//547 296//547
f 305//548 299//548 296//548
f 303//549 304//549 302//549
f 267//550 249//550 266//550
f 268//551 249//551 267//551
f 59//552 58//552 23//552
f 22//553 59//553 23//553
f 63//554 285//554 281//554
f 293//555 285//555 63//555
f 299//556 301//556 298//556
f 299//557 303//557 301//557
f 268//558 250//558 249//558
f 261//559 250//559 268//559
f 306//560 307//560 305//560
f 304//561 306//561 305//561
f 307//562 308//562 305//562
f 308//563 309//563 305//563
f 309//564 310//564 305//564
f 310//565 311//565 305//565
f 311//566 312//566 305//566
f 312//567 299//567 305//567
f 313//568 314//568 304//568
f 303//569 315//569 304//569
f 315//570 313//570 304//570
f 314//571 316//571 304//571
f 316//572 317//572 304//572
f 317//573 306//573 304//573
f 318//574 59//574 22//574
f 21//575 318//575 22//575
f 319//576 30//576 59//576
f 318//577 320//577 59//577
f 320//578 321//578 59//578
f 321//579 319//579 59//579
f 312//580 303//580 299//580
f 312//581 315//581 303//581
f 285//582 322//582 284//582
f 322//583 323//583 284//583
f 323//584 324//584 284//584
f 324//585 325//585 284//585
f 325//586 326//586 284//586
f 326//587 286//587 284//587
f 327//588 289//588 286//588
f 326//589 327//589 286//589
f 292//590 322//590 285//590
f 293//591 292//591 285//591
f 317//592 308//592 307//592
f 306//593 317//593 307//593
f 325//594 328//594 326//594
f 328//595 327//595 326//595
f 329//596 289//596 327//596
f 328//597 329//597 327//597
f 291//598 323//598 322//598
f 292//599 291//599 322//599
f 325//600 330//600 328//600
f 330//601 329//601 328//601
f 330//602 289//602 329//602
f 290//603 324//603 323//603
f 291//604 290//604 323//604
f 325//605 331//605 330//605
f 331//606 289//606 330//606
f 331//607 287//607 289//607
f 288//608 325//608 324//608
f 290//609 288//609 324//609
f 325//610 287//610 331//610
f 325//611 288//611 287//611
f 261//612 252//612 250//612
f 260//613 252//613 261//613
f 311//614 315//614 312//614
f 311//615 313//615 315//615
f 316//616 309//616 308//616
f 317//617 316//617 308//617
f 310//618 313//618 311//618
f 310//619 314//619 313//619
f 314//620 310//620 309//620
f 316//621 314//621 309//621
f 332//622 318//622 21//622
f 333//623 332//623 21//623
f 20//624 333//624 21//624
f 332//625 334//625 318//625
f 334//626 320//626 318//626
f 260//627 251//627 252//627
f 239//628 251//628 260//628
f 239//629 335//629 251//629
f 335//630 179//630 251//630
f 336//631 335//631 239//631
f 241//632 336//632 239//632
f 337//633 332//633 333//633
f 20//634 337//634 333//634
f 337//635 338//635 332//635
f 338//636 334//636 332//636
f 87//637 339//637 16//637
f 339//638 55//638 16//638
f 339//639 123//639 55//639
f 340//640 337//640 20//640
f 30//641 340//641 20//641
f 319//642 340//642 30//642
f 96//643 341//643 87//643
f 341//644 342//644 87//644
f 342//645 339//645 87//645
f 342//646 123//646 339//646
f 343//647 344//647 340//647
f 344//648 345//648 340//648
f 345//649 337//649 340//649
f 319//650 343//650 340//650
f 321//651 343//651 319//651
f 96//652 346//652 341//652
f 346//653 347//653 341//653
f 347//654 342//654 341//654
f 347//655 123//655 342//655
f 348//656 349//656 343//656
f 349//657 344//657 343//657
f 321//658 348//658 343//658
f 320//659 348//659 321//659
f 96//660 350//660 346//660
f 350//661 351//661 346//661
f 351//662 347//662 346//662
f 351//663 123//663 347//663
f 352//664 96//664 348//664
f 96//665 349//665 348//665
f 320//666 352//666 348//666
f 334//667 352//667 320//667
f 96//668 353//668 350//668
f 353//669 354//669 350//669
f 354//670 351//670 350//670
f 354//671 123//671 351//671
f 355//672 96//672 352//672
f 334//673 355//673 352//673
f 338//674 356//674 334//674
f 356//675 357//675 334//675
f 123//676 358//676 334//676
f 359//677 123//677 334//677
f 357//678 359//678 334//678
f 358//679 355//679 334//679
f 96//680 355//680 353//680
f 355//681 358//681 353//681
f 358//682 354//682 353//682
f 358//683 123//683 354//683
f 360//684 361//684 335//684
f 361//685 179//685 335//685
f 362//686 360//686 335//686
f 336//687 362//687 335//687
f 241//688 363//688 336//688
f 363//689 362//689 336//689
f 364//690 361//690 360//690
f 365//691 364//691 360//691
f 362//692 365//692 360//692
f 363//693 365//693 362//693
f 366//694 361//694 364//694
f 367//695 366//695 364//695
f 365//696 367//696 364//696
f 363//697 367//697 365//697
f 368//698 361//698 366//698
f 369//699 368//699 366//699
f 367//700 369//700 366//700
f 363//701 369//701 367//701
f 370//702 371//702 368//702
f 371//703 372//703 368//703
f 372//704 361//704 368//704
f 373//705 370//705 368//705
f 369//706 373//706 368//706
f 374//707 373//707 369//707
f 363//708 375//708 369//708
f 375//709 374//709 369//709
f 374//710 371//710 370//710
f 373//711 374//711 370//711
f 375//712 372//712 371//712
f 374//713 375//713 371//713
f 363//714 361//714 372//714
f 375//715 363//715 372//715
f 241//716 179//716 361//716
f 363//717 241//717 361//717
f 241//718 180//718 179//718
f 242//719 180//719 241//719
f 242//720 181//720 180//720
f 215//721 181//721 242//721
f 215//722 182//722 181//722
f 221//723 182//723 215//723
f 221//724 183//724 182//724
f 220//725 183//725 221//725
f 220//726 184//726 183//726
f 218//727 184//727 220//727
f 376//728 142//728 184//728
f 218//729 376//729 184//729
f 217//730 376//730 218//730
f 377//731 378//731 376//731
f 379//732 142//732 376//732
f 378//733 379//733 376//733
f 217//734 377//734 376//734
f 219//735 380//735 217//735
f 380//736 377//736 217//736
f 381//737 382//737 377//737
f 380//738 381//738 377//738
f 382//739 378//739 377//739
f 219//740 381//740 380//740
f 345//741 338//741 337//741
f 345//742 356//742 338//742
f 383//743 378//743 382//743
f 381//744 383//744 382//744
f 219//745 383//745 381//745
f 384//746 379//746 378//746
f 383//747 384//747 378//747
f 219//748 384//748 383//748
f 344//749 356//749 345//749
f 344//750 357//750 356//750
f 219//751 142//751 379//751
f 384//752 219//752 379//752
f 349//753 357//753 344//753
f 349//754 359//754 357//754
f 156//755 143//755 142//755
f 219//756 156//756 142//756
f 96//757 359//757 349//757
f 96//758 123//758 359//758
f 155//759 139//759 143//759
f 156//760 155//760 143//760
f 140//761 123//761 96//761
f 140//762 158//762 123//762
f 158//763 140//763 139//763
f 155//764 158//764 139//764

# Thank you for using Spin3D

