# File exported by Pixologic 3D Print Exporter for ZBrush
# http://www.pixologic.com
mtllib W_368.mtl

#Object: obj0
#Vertex Count: 244
#UV Count: 1184
#Face Count: 354
#Vertex Count: 244
v 0.000000 249.970032 7.999997
v 2000.000122 249.970032 7.999997
v 2000.000122 249.970032 -0.000004
v 0.000000 249.970032 -0.000004
v 2000.000122 242.318024 0.519992
v 0.000000 242.318024 0.519992
v 0.000000 239.777023 0.519992
v 2000.000122 239.777023 0.519992
v 2000.000122 232.121017 -0.000004
v 0.000000 232.121017 -0.000004
v 2000.000122 232.121017 7.999997
v 0.000000 232.121017 7.999997
v 0.000000 218.249023 -0.000004
v 2000.000122 218.249023 -0.000004
v 2000.000122 210.283020 -0.000004
v 0.000000 210.283020 -0.000004
v 0.000000 182.539017 -0.000004
v 2000.000122 182.539017 -0.000004
v 2000.000122 174.573013 -0.000004
v 0.000000 174.573013 -0.000004
v 0.000000 146.829010 -0.000004
v 2000.000122 146.829010 -0.000004
v 2000.000122 138.863022 -0.000004
v 0.000000 138.863022 -0.000004
v 0.000000 111.119003 -0.000004
v 2000.000122 111.119003 -0.000004
v 2000.000122 103.153015 -0.000004
v 0.000000 103.153015 -0.000004
v 0.000000 75.409004 -0.000004
v 2000.000122 75.409004 -0.000004
v 2000.000122 67.443016 -0.000004
v 0.000000 67.443016 -0.000004
v 0.000000 39.699024 -0.000004
v 2000.000122 39.699024 -0.000004
v 2000.000122 31.721012 -0.000004
v 0.000000 31.721012 -0.000004
v 0.000000 17.849001 7.999997
v 2000.000122 17.849001 7.999997
v 2000.000122 17.849001 -0.000004
v 0.000000 17.849001 -0.000004
v 2000.000122 10.193026 0.519992
v 0.000000 10.193026 0.519992
v 0.000000 7.652009 0.519992
v 2000.000122 7.652009 0.519992
v 2000.000122 0.000001 -0.000004
v 0.000000 0.000001 -0.000004
v 2000.000122 0.000001 7.999997
v 0.000000 0.000001 7.999997
v 0.000000 210.536026 11.380994
v 0.000000 214.260025 7.999997
v 0.000000 217.984024 11.380994
v 0.000000 222.332016 13.909001
v 0.000000 227.113022 15.470998
v 0.000000 232.115021 15.999998
v 0.000000 237.117020 15.470998
v 0.000000 241.898026 13.909001
v 0.000000 246.246017 11.380994
v 0.000000 241.047028 1.469989
v 0.000000 227.977020 7.454991
v 0.000000 224.114014 5.856991
v 0.000000 220.796021 3.313999
v 0.000000 207.736023 3.313999
v 0.000000 204.418015 5.856991
v 0.000000 200.555023 7.454991
v 0.000000 196.411011 7.999997
v 0.000000 192.267014 7.454991
v 0.000000 188.404022 5.856991
v 0.000000 185.086014 3.313999
v 0.000000 172.025009 3.313999
v 0.000000 168.708023 5.856991
v 0.000000 164.845016 7.454991
v 0.000000 160.701019 7.999997
v 0.000000 156.557022 7.454991
v 0.000000 152.694016 5.856991
v 0.000000 149.376007 3.313999
v 0.000000 136.316025 3.313999
v 0.000000 132.998016 5.856991
v 0.000000 129.135025 7.454991
v 0.000000 124.991013 7.999997
v 0.000000 120.847015 7.454991
v 0.000000 116.984009 5.856991
v 0.000000 113.666016 3.313999
v 0.000000 100.606018 3.313999
v 0.000000 97.288025 5.856991
v 0.000000 93.425018 7.454991
v 0.000000 89.281013 7.999997
v 0.000000 85.137016 7.454991
v 0.000000 81.274010 5.856991
v 0.000000 77.956001 3.313999
v 0.000000 64.896019 3.313999
v 0.000000 61.578011 5.856991
v 0.000000 57.715004 7.454991
v 0.000000 53.571022 7.999997
v 0.000000 49.427010 7.454991
v 0.000000 45.564018 5.856991
v 0.000000 42.246010 3.313999
v 0.000000 29.174000 3.313999
v 0.000000 25.856022 5.856991
v 0.000000 21.993015 7.454991
v 0.000000 8.923006 1.469989
v 0.000000 3.724000 11.380994
v 0.000000 8.072023 13.909001
v 0.000000 12.853014 15.470998
v 0.000000 17.855013 15.999998
v 0.000000 22.857014 15.470998
v 0.000000 27.638020 13.909001
v 0.000000 31.986012 11.380994
v 0.000000 35.710011 7.999997
v 0.000000 39.434010 11.380994
v 0.000000 43.782021 13.909001
v 0.000000 48.563011 15.470998
v 0.000000 53.565010 15.999998
v 0.000000 58.567024 15.470998
v 0.000000 63.348015 13.909001
v 0.000000 67.696007 11.380994
v 0.000000 71.420021 7.999997
v 0.000000 75.144005 11.380994
v 0.000000 79.491997 13.909001
v 0.000000 84.273018 15.470998
v 0.000000 89.275002 15.999998
v 0.000000 94.277023 15.470998
v 0.000000 99.058014 13.909001
v 0.000000 103.406021 11.380994
v 0.000000 107.130005 7.999997
v 0.000000 110.854019 11.380994
v 0.000000 115.202011 13.909001
v 0.000000 119.983002 15.470998
v 0.000000 124.985016 15.999998
v 0.000000 129.987015 15.470998
v 0.000000 134.768021 13.909001
v 0.000000 139.116013 11.380994
v 0.000000 142.840027 7.999997
v 0.000000 146.564011 11.380994
v 0.000000 150.912018 13.909001
v 0.000000 155.693024 15.470998
v 0.000000 160.695023 15.999998
v 0.000000 165.697021 15.470998
v 0.000000 170.478012 13.909001
v 0.000000 174.826019 11.380994
v 0.000000 178.550018 7.999997
v 0.000000 182.274017 11.380994
v 0.000000 186.622025 13.909001
v 0.000000 191.403015 15.470998
v 0.000000 196.405014 15.999998
v 0.000000 201.407013 15.470998
v 0.000000 206.188019 13.909001
v 2000.000122 217.984024 11.380994
v 2000.000122 214.260025 7.999997
v 2000.000122 210.536026 11.380994
v 2000.000122 206.188019 13.909001
v 2000.000122 201.407013 15.470998
v 2000.000122 196.405014 15.999998
v 2000.000122 191.403015 15.470998
v 2000.000122 186.622025 13.909001
v 2000.000122 182.274017 11.380994
v 2000.000122 178.550018 7.999997
v 2000.000122 174.826019 11.380994
v 2000.000122 170.478012 13.909001
v 2000.000122 165.697021 15.470998
v 2000.000122 160.695023 15.999998
v 2000.000122 155.693024 15.470998
v 2000.000122 150.912018 13.909001
v 2000.000122 146.564011 11.380994
v 2000.000122 142.840027 7.999997
v 2000.000122 139.116013 11.380994
v 2000.000122 134.768021 13.909001
v 2000.000122 129.987015 15.470998
v 2000.000122 124.985016 15.999998
v 2000.000122 119.983002 15.470998
v 2000.000122 115.202011 13.909001
v 2000.000122 110.854019 11.380994
v 2000.000122 107.130005 7.999997
v 2000.000122 103.406021 11.380994
v 2000.000122 99.058014 13.909001
v 2000.000122 94.277023 15.470998
v 2000.000122 89.275002 15.999998
v 2000.000122 84.273018 15.470998
v 2000.000122 79.491997 13.909001
v 2000.000122 75.144005 11.380994
v 2000.000122 71.420021 7.999997
v 2000.000122 67.696007 11.380994
v 2000.000122 63.348015 13.909001
v 2000.000122 58.567024 15.470998
v 2000.000122 53.565010 15.999998
v 2000.000122 48.563011 15.470998
v 2000.000122 43.782021 13.909001
v 2000.000122 39.434010 11.380994
v 2000.000122 35.710011 7.999997
v 2000.000122 31.986012 11.380994
v 2000.000122 27.638020 13.909001
v 2000.000122 22.857014 15.470998
v 2000.000122 17.855013 15.999998
v 2000.000122 12.853014 15.470998
v 2000.000122 8.072023 13.909001
v 2000.000122 3.724000 11.380994
v 2000.000122 8.923006 1.469989
v 2000.000122 21.993015 7.454991
v 2000.000122 25.856022 5.856991
v 2000.000122 29.174000 3.313999
v 2000.000122 42.246010 3.313999
v 2000.000122 45.564018 5.856991
v 2000.000122 49.427010 7.454991
v 2000.000122 53.571022 7.999997
v 2000.000122 57.715004 7.454991
v 2000.000122 61.578011 5.856991
v 2000.000122 64.896019 3.313999
v 2000.000122 77.956001 3.313999
v 2000.000122 81.274010 5.856991
v 2000.000122 85.137016 7.454991
v 2000.000122 89.281013 7.999997
v 2000.000122 93.425018 7.454991
v 2000.000122 97.288025 5.856991
v 2000.000122 100.606018 3.313999
v 2000.000122 113.666016 3.313999
v 2000.000122 116.984009 5.856991
v 2000.000122 120.847015 7.454991
v 2000.000122 124.991013 7.999997
v 2000.000122 129.135025 7.454991
v 2000.000122 132.998016 5.856991
v 2000.000122 136.316025 3.313999
v 2000.000122 149.376007 3.313999
v 2000.000122 152.694016 5.856991
v 2000.000122 156.557022 7.454991
v 2000.000122 160.701019 7.999997
v 2000.000122 164.845016 7.454991
v 2000.000122 168.708023 5.856991
v 2000.000122 172.025009 3.313999
v 2000.000122 185.086014 3.313999
v 2000.000122 188.404022 5.856991
v 2000.000122 192.267014 7.454991
v 2000.000122 196.411011 7.999997
v 2000.000122 200.555023 7.454991
v 2000.000122 204.418015 5.856991
v 2000.000122 207.736023 3.313999
v 2000.000122 220.796021 3.313999
v 2000.000122 224.114014 5.856991
v 2000.000122 227.977020 7.454991
v 2000.000122 241.047028 1.469989
v 2000.000122 246.246017 11.380994
v 2000.000122 241.898026 13.909001
v 2000.000122 237.117020 15.470998
v 2000.000122 232.115021 15.999998
v 2000.000122 227.113022 15.470998
v 2000.000122 222.332016 13.909001
#UV count: 1184
vt 0.000000 -0.153333
vt 2.844440 -0.153333
vt 2.844440 -0.166667
vt 0.000000 -0.166667
vt 0.000000 -0.000000
vt 2.844440 -0.000000
vt 2.844440 0.012382
vt -0.000000 0.012382
vt -0.000000 0.017361
vt 2.844440 0.017361
vt 2.844440 0.029748
vt -0.000000 0.029748
vt -0.000000 -0.166667
vt 2.844440 -0.166667
vt 2.844440 -0.153333
vt -0.000000 -0.153333
vt -0.000000 0.052869
vt 2.844440 0.052869
vt 2.844440 0.066145
vt -0.000000 0.066145
vt -0.000000 0.112385
vt 2.844440 0.112385
vt 2.844440 0.125662
vt -0.000000 0.125662
vt -0.000000 0.171902
vt 2.844440 0.171902
vt 2.844440 0.185178
vt -0.000000 0.185178
vt -0.000000 0.231419
vt 2.844440 0.231419
vt 2.844440 0.244695
vt -0.000000 0.244695
vt -0.000000 0.290935
vt 2.844440 0.290935
vt 2.844440 0.304212
vt -0.000000 0.304212
vt -0.000000 0.350452
vt 2.844440 0.350452
vt 2.844440 0.363748
vt -0.000000 0.363748
vt -0.000000 -0.153333
vt 2.844440 -0.153333
vt 2.844440 -0.166667
vt -0.000000 -0.166667
vt -0.000000 0.386868
vt 2.844440 0.386868
vt 2.844440 0.399256
vt -0.000000 0.399256
vt -0.000000 0.404234
vt 2.844440 0.404234
vt 2.844440 0.416617
vt -0.000000 0.416617
vt -0.000000 -0.166667
vt 2.844440 -0.166667
vt 2.844440 -0.153333
vt -0.000000 -0.153333
vt 0.337233 -0.140881
vt 0.330119 -0.140000
vt 0.323005 -0.140881
vt 0.286445 -0.140881
vt 0.279332 -0.140000
vt 0.272218 -0.140881
vt 0.235658 -0.140881
vt 0.228544 -0.140000
vt 0.221430 -0.140881
vt 0.184870 -0.140881
vt 0.177756 -0.140000
vt 0.170643 -0.140881
vt 0.134083 -0.140881
vt 0.126969 -0.140000
vt 0.119855 -0.140881
vt 0.083295 -0.140881
vt 0.076181 -0.140000
vt 0.069068 -0.140881
vt 0.032508 -0.140881
vt 0.025394 -0.140000
vt 0.018280 -0.140881
vt 0.344032 -0.143486
vt 0.337233 -0.140881
vt 0.323005 -0.140881
vt 0.344032 -0.143486
vt 0.323005 -0.140881
vt 0.316206 -0.143486
vt 0.293245 -0.143486
vt 0.286445 -0.140881
vt 0.272218 -0.140881
vt 0.293245 -0.143486
vt 0.272218 -0.140881
vt 0.265418 -0.143486
vt 0.242457 -0.143486
vt 0.235658 -0.140881
vt 0.221430 -0.140881
vt 0.242457 -0.143486
vt 0.221430 -0.140881
vt 0.214631 -0.143486
vt 0.191670 -0.143486
vt 0.184870 -0.140881
vt 0.170643 -0.140881
vt 0.191670 -0.143486
vt 0.170643 -0.140881
vt 0.163843 -0.143486
vt 0.140882 -0.143486
vt 0.134083 -0.140881
vt 0.119855 -0.140881
vt 0.140882 -0.143486
vt 0.119855 -0.140881
vt 0.113056 -0.143486
vt 0.090094 -0.143486
vt 0.083295 -0.140881
vt 0.069068 -0.140881
vt 0.090094 -0.143486
vt 0.069068 -0.140881
vt 0.062268 -0.143486
vt 0.039307 -0.143486
vt 0.032508 -0.140881
vt 0.018280 -0.140881
vt 0.039307 -0.143486
vt 0.018280 -0.140881
vt 0.011481 -0.143486
vt 0.350217 -0.147698
vt 0.344032 -0.143486
vt 0.316206 -0.143486
vt 0.350217 -0.147698
vt 0.316206 -0.143486
vt 0.310022 -0.147698
vt 0.299429 -0.147698
vt 0.293245 -0.143486
vt 0.265418 -0.143486
vt 0.299429 -0.147698
vt 0.265418 -0.143486
vt 0.259234 -0.147698
vt 0.248642 -0.147698
vt 0.242457 -0.143486
vt 0.214631 -0.143486
vt 0.248642 -0.147698
vt 0.214631 -0.143486
vt 0.208446 -0.147698
vt 0.197854 -0.147698
vt 0.191670 -0.143486
vt 0.163843 -0.143486
vt 0.197854 -0.147698
vt 0.163843 -0.143486
vt 0.157659 -0.147698
vt 0.147066 -0.147698
vt 0.140882 -0.143486
vt 0.113056 -0.143486
vt 0.147066 -0.147698
vt 0.113056 -0.143486
vt 0.106871 -0.147698
vt 0.096279 -0.147698
vt 0.090094 -0.143486
vt 0.062268 -0.143486
vt 0.096279 -0.147698
vt 0.062268 -0.143486
vt 0.056084 -0.147698
vt 0.045491 -0.147698
vt 0.039307 -0.143486
vt 0.011481 -0.143486
vt 0.045491 -0.147698
vt 0.011481 -0.143486
vt 0.005296 -0.147698
vt 0.350217 -0.147698
vt 0.310022 -0.147698
vt 0.304725 -0.153333
vt 0.304725 -0.153333
vt 0.299429 -0.147698
vt 0.259234 -0.147698
vt 0.304725 -0.153333
vt 0.259234 -0.147698
vt 0.253938 -0.153333
vt 0.253938 -0.153333
vt 0.248642 -0.147698
vt 0.208446 -0.147698
vt 0.253938 -0.153333
vt 0.208446 -0.147698
vt 0.203150 -0.153333
vt 0.203150 -0.153333
vt 0.197854 -0.147698
vt 0.157659 -0.147698
vt 0.203150 -0.153333
vt 0.157659 -0.147698
vt 0.152363 -0.153333
vt 0.152363 -0.153333
vt 0.147066 -0.147698
vt 0.106871 -0.147698
vt 0.152363 -0.153333
vt 0.106871 -0.147698
vt 0.101575 -0.153333
vt 0.101575 -0.153333
vt 0.096279 -0.147698
vt 0.056084 -0.147698
vt 0.101575 -0.153333
vt 0.056084 -0.147698
vt 0.050788 -0.153333
vt 0.050788 -0.153333
vt 0.045491 -0.147698
vt 0.005296 -0.147698
vt 0.355513 -0.153333
vt 0.350217 -0.147698
vt 0.304725 -0.153333
vt 0.355513 -0.153333
vt 0.304725 -0.153333
vt 0.050788 -0.153333
vt 0.330127 -0.153333
vt 0.355513 -0.153333
vt 0.050788 -0.153333
vt 0.279323 -0.153333
vt 0.330127 -0.153333
vt 0.050788 -0.153333
vt 0.228536 -0.153333
vt 0.279323 -0.153333
vt 0.050788 -0.153333
vt 0.177748 -0.153333
vt 0.228536 -0.153333
vt 0.050788 -0.153333
vt 0.126961 -0.153333
vt 0.177748 -0.153333
vt 0.050788 -0.153333
vt 0.076173 -0.153333
vt 0.126961 -0.153333
vt 0.050788 -0.153333
vt 0.025385 -0.153333
vt 0.076173 -0.153333
vt 0.050788 -0.153333
vt 0.025385 -0.153333
vt 0.050788 -0.153333
vt 0.005296 -0.147698
vt 0.025385 -0.153333
vt 0.005296 -0.147698
vt -0.000000 -0.153333
vt 0.324233 -0.154242
vt 0.330127 -0.153333
vt 0.279323 -0.153333
vt 0.324233 -0.154242
vt 0.279323 -0.153333
vt 0.285217 -0.154242
vt 0.273429 -0.154242
vt 0.279323 -0.153333
vt 0.228536 -0.153333
vt 0.273429 -0.154242
vt 0.228536 -0.153333
vt 0.234430 -0.154242
vt 0.222641 -0.154242
vt 0.228536 -0.153333
vt 0.177748 -0.153333
vt 0.222641 -0.154242
vt 0.177748 -0.153333
vt 0.183642 -0.154242
vt 0.171854 -0.154242
vt 0.177748 -0.153333
vt 0.126961 -0.153333
vt 0.171854 -0.154242
vt 0.126961 -0.153333
vt 0.132855 -0.154242
vt 0.121066 -0.154242
vt 0.126961 -0.153333
vt 0.076173 -0.153333
vt 0.121066 -0.154242
vt 0.076173 -0.153333
vt 0.082067 -0.154242
vt 0.070279 -0.154242
vt 0.076173 -0.153333
vt 0.025385 -0.153333
vt 0.070279 -0.154242
vt 0.025385 -0.153333
vt 0.031280 -0.154242
vt 0.318740 -0.156906
vt 0.324233 -0.154242
vt 0.285217 -0.154242
vt 0.318740 -0.156906
vt 0.285217 -0.154242
vt 0.290711 -0.156906
vt 0.267936 -0.156906
vt 0.273429 -0.154242
vt 0.234430 -0.154242
vt 0.267936 -0.156906
vt 0.234430 -0.154242
vt 0.239923 -0.156906
vt 0.217148 -0.156906
vt 0.222641 -0.154242
vt 0.183642 -0.154242
vt 0.217148 -0.156906
vt 0.183642 -0.154242
vt 0.189136 -0.156906
vt 0.166361 -0.156906
vt 0.171854 -0.154242
vt 0.132855 -0.154242
vt 0.166361 -0.156906
vt 0.132855 -0.154242
vt 0.138348 -0.156906
vt 0.115573 -0.156906
vt 0.121066 -0.154242
vt 0.082067 -0.154242
vt 0.115573 -0.156906
vt 0.082067 -0.154242
vt 0.087560 -0.156906
vt 0.064786 -0.156906
vt 0.070279 -0.154242
vt 0.031280 -0.154242
vt 0.064786 -0.156906
vt 0.031280 -0.154242
vt 0.036773 -0.156906
vt 0.314021 -0.161143
vt 0.318740 -0.156906
vt 0.290711 -0.156906
vt 0.314021 -0.161143
vt 0.290711 -0.156906
vt 0.295429 -0.161143
vt 0.263217 -0.161143
vt 0.267936 -0.156906
vt 0.239923 -0.156906
vt 0.263217 -0.161143
vt 0.239923 -0.156906
vt 0.244642 -0.161143
vt 0.212430 -0.161143
vt 0.217148 -0.156906
vt 0.189136 -0.156906
vt 0.212430 -0.161143
vt 0.189136 -0.156906
vt 0.193854 -0.161143
vt 0.161642 -0.161143
vt 0.166361 -0.156906
vt 0.138348 -0.156906
vt 0.161642 -0.161143
vt 0.138348 -0.156906
vt 0.143067 -0.161143
vt 0.110854 -0.161143
vt 0.115573 -0.156906
vt 0.087560 -0.156906
vt 0.110854 -0.161143
vt 0.087560 -0.156906
vt 0.092279 -0.161143
vt 0.060067 -0.161143
vt 0.064786 -0.156906
vt 0.036773 -0.156906
vt 0.060067 -0.161143
vt 0.036773 -0.156906
vt 0.041492 -0.161143
vt 0.355513 -0.153333
vt 0.330127 -0.153333
vt 0.342823 -0.164216
vt 0.025385 -0.153333
vt -0.000000 -0.153333
vt 0.012690 -0.164216
vt 0.355513 -0.153333
vt 0.342823 -0.164216
vt 0.344313 -0.164931
vt 0.341332 -0.164931
vt 0.342823 -0.164216
vt 0.330127 -0.153333
vt 0.025385 -0.153333
vt 0.012690 -0.164216
vt 0.014181 -0.164931
vt 0.011200 -0.164931
vt 0.012690 -0.164216
vt -0.000000 -0.153333
vt 0.355513 -0.166667
vt 0.355513 -0.153333
vt 0.344313 -0.164931
vt 0.330127 -0.166667
vt 0.341332 -0.164931
vt 0.330127 -0.153333
vt 0.310398 -0.166667
vt 0.314021 -0.161143
vt 0.295429 -0.161143
vt 0.310398 -0.166667
vt 0.295429 -0.161143
vt 0.299052 -0.166667
vt 0.259594 -0.166667
vt 0.263217 -0.161143
vt 0.244642 -0.161143
vt 0.259594 -0.166667
vt 0.244642 -0.161143
vt 0.248265 -0.166667
vt 0.208806 -0.166667
vt 0.212430 -0.161143
vt 0.193854 -0.161143
vt 0.208806 -0.166667
vt 0.193854 -0.161143
vt 0.197477 -0.166667
vt 0.158019 -0.166667
vt 0.161642 -0.161143
vt 0.143067 -0.161143
vt 0.158019 -0.166667
vt 0.143067 -0.161143
vt 0.146690 -0.166667
vt 0.107231 -0.166667
vt 0.110854 -0.161143
vt 0.092279 -0.161143
vt 0.107231 -0.166667
vt 0.092279 -0.161143
vt 0.095902 -0.166667
vt 0.056444 -0.166667
vt 0.060067 -0.161143
vt 0.041492 -0.161143
vt 0.056444 -0.166667
vt 0.041492 -0.161143
vt 0.045115 -0.166667
vt 0.025385 -0.166667
vt 0.025385 -0.153333
vt 0.014181 -0.164931
vt -0.000000 -0.166667
vt 0.011200 -0.164931
vt -0.000000 -0.153333
vt 0.018280 -0.140881
vt 0.025394 -0.140000
vt 0.032508 -0.140881
vt 0.069068 -0.140881
vt 0.076181 -0.140000
vt 0.083295 -0.140881
vt 0.119855 -0.140881
vt 0.126969 -0.140000
vt 0.134083 -0.140881
vt 0.170643 -0.140881
vt 0.177756 -0.140000
vt 0.184870 -0.140881
vt 0.221430 -0.140881
vt 0.228544 -0.140000
vt 0.235658 -0.140881
vt 0.272218 -0.140881
vt 0.279332 -0.140000
vt 0.286445 -0.140881
vt 0.323005 -0.140881
vt 0.330119 -0.140000
vt 0.337233 -0.140881
vt 0.011481 -0.143486
vt 0.018280 -0.140881
vt 0.032508 -0.140881
vt 0.011481 -0.143486
vt 0.032508 -0.140881
vt 0.039307 -0.143486
vt 0.062268 -0.143486
vt 0.069068 -0.140881
vt 0.083295 -0.140881
vt 0.062268 -0.143486
vt 0.083295 -0.140881
vt 0.090094 -0.143486
vt 0.113056 -0.143486
vt 0.119855 -0.140881
vt 0.134083 -0.140881
vt 0.113056 -0.143486
vt 0.134083 -0.140881
vt 0.140882 -0.143486
vt 0.163843 -0.143486
vt 0.170643 -0.140881
vt 0.184870 -0.140881
vt 0.163843 -0.143486
vt 0.184870 -0.140881
vt 0.191670 -0.143486
vt 0.214631 -0.143486
vt 0.221430 -0.140881
vt 0.235658 -0.140881
vt 0.214631 -0.143486
vt 0.235658 -0.140881
vt 0.242457 -0.143486
vt 0.265418 -0.143486
vt 0.272218 -0.140881
vt 0.286445 -0.140881
vt 0.265418 -0.143486
vt 0.286445 -0.140881
vt 0.293245 -0.143486
vt 0.316206 -0.143486
vt 0.323005 -0.140881
vt 0.337233 -0.140881
vt 0.316206 -0.143486
vt 0.337233 -0.140881
vt 0.344032 -0.143486
vt 0.005296 -0.147698
vt 0.011481 -0.143486
vt 0.039307 -0.143486
vt 0.005296 -0.147698
vt 0.039307 -0.143486
vt 0.045491 -0.147698
vt 0.056084 -0.147698
vt 0.062268 -0.143486
vt 0.090094 -0.143486
vt 0.056084 -0.147698
vt 0.090094 -0.143486
vt 0.096279 -0.147698
vt 0.106871 -0.147698
vt 0.113056 -0.143486
vt 0.140882 -0.143486
vt 0.106871 -0.147698
vt 0.140882 -0.143486
vt 0.147066 -0.147698
vt 0.157659 -0.147698
vt 0.163843 -0.143486
vt 0.191670 -0.143486
vt 0.157659 -0.147698
vt 0.191670 -0.143486
vt 0.197854 -0.147698
vt 0.208446 -0.147698
vt 0.214631 -0.143486
vt 0.242457 -0.143486
vt 0.208446 -0.147698
vt 0.242457 -0.143486
vt 0.248642 -0.147698
vt 0.259234 -0.147698
vt 0.265418 -0.143486
vt 0.293245 -0.143486
vt 0.259234 -0.147698
vt 0.293245 -0.143486
vt 0.299429 -0.147698
vt 0.310022 -0.147698
vt 0.316206 -0.143486
vt 0.344032 -0.143486
vt 0.310022 -0.147698
vt 0.344032 -0.143486
vt 0.350217 -0.147698
vt 0.005296 -0.147698
vt 0.045491 -0.147698
vt 0.050788 -0.153333
vt 0.050788 -0.153333
vt 0.056084 -0.147698
vt 0.096279 -0.147698
vt 0.050788 -0.153333
vt 0.096279 -0.147698
vt 0.101575 -0.153333
vt 0.101575 -0.153333
vt 0.106871 -0.147698
vt 0.147066 -0.147698
vt 0.101575 -0.153333
vt 0.147066 -0.147698
vt 0.152363 -0.153333
vt 0.152363 -0.153333
vt 0.157659 -0.147698
vt 0.197854 -0.147698
vt 0.152363 -0.153333
vt 0.197854 -0.147698
vt 0.203150 -0.153333
vt 0.203150 -0.153333
vt 0.208446 -0.147698
vt 0.248642 -0.147698
vt 0.203150 -0.153333
vt 0.248642 -0.147698
vt 0.253938 -0.153333
vt 0.253938 -0.153333
vt 0.259234 -0.147698
vt 0.299429 -0.147698
vt 0.253938 -0.153333
vt 0.299429 -0.147698
vt 0.304725 -0.153333
vt 0.304725 -0.153333
vt 0.310022 -0.147698
vt 0.350217 -0.147698
vt -0.000000 -0.153333
vt 0.005296 -0.147698
vt 0.050788 -0.153333
vt -0.000000 -0.153333
vt 0.050788 -0.153333
vt 0.304725 -0.153333
vt 0.025385 -0.153333
vt -0.000000 -0.153333
vt 0.304725 -0.153333
vt 0.076173 -0.153333
vt 0.025385 -0.153333
vt 0.304725 -0.153333
vt 0.126961 -0.153333
vt 0.076173 -0.153333
vt 0.304725 -0.153333
vt 0.177748 -0.153333
vt 0.126961 -0.153333
vt 0.304725 -0.153333
vt 0.228536 -0.153333
vt 0.177748 -0.153333
vt 0.304725 -0.153333
vt 0.279323 -0.153333
vt 0.228536 -0.153333
vt 0.304725 -0.153333
vt 0.330127 -0.153333
vt 0.279323 -0.153333
vt 0.304725 -0.153333
vt 0.330127 -0.153333
vt 0.304725 -0.153333
vt 0.350217 -0.147698
vt 0.330127 -0.153333
vt 0.350217 -0.147698
vt 0.355513 -0.153333
vt 0.031280 -0.154242
vt 0.025385 -0.153333
vt 0.076173 -0.153333
vt 0.031280 -0.154242
vt 0.076173 -0.153333
vt 0.070279 -0.154242
vt 0.082067 -0.154242
vt 0.076173 -0.153333
vt 0.126961 -0.153333
vt 0.082067 -0.154242
vt 0.126961 -0.153333
vt 0.121066 -0.154242
vt 0.132855 -0.154242
vt 0.126961 -0.153333
vt 0.177748 -0.153333
vt 0.132855 -0.154242
vt 0.177748 -0.153333
vt 0.171854 -0.154242
vt 0.183642 -0.154242
vt 0.177748 -0.153333
vt 0.228536 -0.153333
vt 0.183642 -0.154242
vt 0.228536 -0.153333
vt 0.222641 -0.154242
vt 0.234430 -0.154242
vt 0.228536 -0.153333
vt 0.279323 -0.153333
vt 0.234430 -0.154242
vt 0.279323 -0.153333
vt 0.273429 -0.154242
vt 0.285217 -0.154242
vt 0.279323 -0.153333
vt 0.330127 -0.153333
vt 0.285217 -0.154242
vt 0.330127 -0.153333
vt 0.324233 -0.154242
vt 0.036773 -0.156906
vt 0.031280 -0.154242
vt 0.070279 -0.154242
vt 0.036773 -0.156906
vt 0.070279 -0.154242
vt 0.064786 -0.156906
vt 0.087560 -0.156906
vt 0.082067 -0.154242
vt 0.121066 -0.154242
vt 0.087560 -0.156906
vt 0.121066 -0.154242
vt 0.115573 -0.156906
vt 0.138348 -0.156906
vt 0.132855 -0.154242
vt 0.171854 -0.154242
vt 0.138348 -0.156906
vt 0.171854 -0.154242
vt 0.166361 -0.156906
vt 0.189136 -0.156906
vt 0.183642 -0.154242
vt 0.222641 -0.154242
vt 0.189136 -0.156906
vt 0.222641 -0.154242
vt 0.217148 -0.156906
vt 0.239923 -0.156906
vt 0.234430 -0.154242
vt 0.273429 -0.154242
vt 0.239923 -0.156906
vt 0.273429 -0.154242
vt 0.267936 -0.156906
vt 0.290711 -0.156906
vt 0.285217 -0.154242
vt 0.324233 -0.154242
vt 0.290711 -0.156906
vt 0.324233 -0.154242
vt 0.318740 -0.156906
vt 0.041492 -0.161143
vt 0.036773 -0.156906
vt 0.064786 -0.156906
vt 0.041492 -0.161143
vt 0.064786 -0.156906
vt 0.060067 -0.161143
vt 0.092279 -0.161143
vt 0.087560 -0.156906
vt 0.115573 -0.156906
vt 0.092279 -0.161143
vt 0.115573 -0.156906
vt 0.110854 -0.161143
vt 0.143067 -0.161143
vt 0.138348 -0.156906
vt 0.166361 -0.156906
vt 0.143067 -0.161143
vt 0.166361 -0.156906
vt 0.161642 -0.161143
vt 0.193854 -0.161143
vt 0.189136 -0.156906
vt 0.217148 -0.156906
vt 0.193854 -0.161143
vt 0.217148 -0.156906
vt 0.212430 -0.161143
vt 0.244642 -0.161143
vt 0.239923 -0.156906
vt 0.267936 -0.156906
vt 0.244642 -0.161143
vt 0.267936 -0.156906
vt 0.263217 -0.161143
vt 0.295429 -0.161143
vt 0.290711 -0.156906
vt 0.318740 -0.156906
vt 0.295429 -0.161143
vt 0.318740 -0.156906
vt 0.314021 -0.161143
vt -0.000000 -0.153333
vt 0.025385 -0.153333
vt 0.012690 -0.164216
vt 0.330127 -0.153333
vt 0.355513 -0.153333
vt 0.342823 -0.164216
vt -0.000000 -0.153333
vt 0.012690 -0.164216
vt 0.011200 -0.164931
vt 0.014181 -0.164931
vt 0.012690 -0.164216
vt 0.025385 -0.153333
vt 0.330127 -0.153333
vt 0.342823 -0.164216
vt 0.341332 -0.164931
vt 0.344313 -0.164931
vt 0.342823 -0.164216
vt 0.355513 -0.153333
vt -0.000000 -0.166667
vt -0.000000 -0.153333
vt 0.011200 -0.164931
vt 0.025385 -0.166667
vt 0.014181 -0.164931
vt 0.025385 -0.153333
vt 0.045115 -0.166667
vt 0.041492 -0.161143
vt 0.060067 -0.161143
vt 0.045115 -0.166667
vt 0.060067 -0.161143
vt 0.056444 -0.166667
vt 0.095902 -0.166667
vt 0.092279 -0.161143
vt 0.110854 -0.161143
vt 0.095902 -0.166667
vt 0.110854 -0.161143
vt 0.107231 -0.166667
vt 0.146690 -0.166667
vt 0.143067 -0.161143
vt 0.161642 -0.161143
vt 0.146690 -0.166667
vt 0.161642 -0.161143
vt 0.158019 -0.166667
vt 0.197477 -0.166667
vt 0.193854 -0.161143
vt 0.212430 -0.161143
vt 0.197477 -0.166667
vt 0.212430 -0.161143
vt 0.208806 -0.166667
vt 0.248265 -0.166667
vt 0.244642 -0.161143
vt 0.263217 -0.161143
vt 0.248265 -0.166667
vt 0.263217 -0.161143
vt 0.259594 -0.166667
vt 0.299052 -0.166667
vt 0.295429 -0.161143
vt 0.314021 -0.161143
vt 0.299052 -0.166667
vt 0.314021 -0.161143
vt 0.310398 -0.166667
vt 0.330127 -0.166667
vt 0.330127 -0.153333
vt 0.341332 -0.164931
vt 0.355513 -0.166667
vt 0.344313 -0.164931
vt 0.355513 -0.153333
vt -0.000000 0.046063
vt 2.844440 0.046063
vt 2.844440 0.038095
vt -0.000000 0.038095
vt -0.000000 0.038095
vt 2.844440 0.038095
vt 2.844440 0.029758
vt -0.000000 0.029758
vt -0.000000 0.029758
vt 2.844440 0.029758
vt 2.844440 0.021422
vt -0.000000 0.021422
vt -0.000000 0.021422
vt 2.844440 0.021422
vt 2.844440 0.013454
vt -0.000000 0.013454
vt -0.000000 0.013454
vt 2.844440 0.013454
vt 2.844440 0.006206
vt -0.000000 0.006206
vt -0.000000 0.006206
vt 2.844440 0.006206
vt 2.844440 -0.000000
vt 0.000000 -0.000000
vt -0.000000 0.013125
vt 2.844440 0.013125
vt 2.844440 0.014872
vt -0.000000 0.014872
vt -0.000000 0.014872
vt 2.844440 0.014872
vt 2.844440 0.016618
vt -0.000000 0.016618
vt -0.000000 0.029748
vt 2.844440 0.029748
vt 2.844440 0.036656
vt -0.000000 0.036656
vt -0.000000 0.036656
vt 2.844440 0.036656
vt 2.844440 0.043093
vt -0.000000 0.043093
vt -0.000000 0.043093
vt 2.844440 0.043093
vt 2.844440 0.048623
vt -0.000000 0.048623
vt -0.000000 -0.161143
vt 2.844440 -0.161143
vt 2.844440 -0.166667
vt -0.000000 -0.166667
vt -0.000000 -0.166667
vt 2.844440 -0.166667
vt 2.844440 -0.161143
vt -0.000000 -0.161143
vt -0.000000 0.070391
vt 2.844440 0.070391
vt 2.844440 0.075920
vt -0.000000 0.075920
vt -0.000000 0.075920
vt 2.844440 0.075920
vt 2.844440 0.082358
vt -0.000000 0.082358
vt -0.000000 0.082358
vt 2.844440 0.082358
vt 2.844440 0.089265
vt -0.000000 0.089265
vt -0.000000 0.089265
vt 2.844440 0.089265
vt 2.844440 0.096172
vt -0.000000 0.096172
vt -0.000000 0.096172
vt 2.844440 0.096172
vt 2.844440 0.102610
vt -0.000000 0.102610
vt -0.000000 0.102610
vt 2.844440 0.102610
vt 2.844440 0.108140
vt -0.000000 0.108140
vt -0.000000 -0.161143
vt 2.844440 -0.161143
vt 2.844440 -0.166667
vt -0.000000 -0.166667
vt -0.000000 -0.166667
vt 2.844440 -0.166667
vt 2.844440 -0.161143
vt -0.000000 -0.161143
vt -0.000000 0.129907
vt 2.844440 0.129907
vt 2.844440 0.135437
vt -0.000000 0.135437
vt -0.000000 0.135437
vt 2.844440 0.135437
vt 2.844440 0.141875
vt -0.000000 0.141875
vt -0.000000 0.141875
vt 2.844440 0.141875
vt 2.844440 0.148782
vt -0.000000 0.148782
vt -0.000000 0.148782
vt 2.844440 0.148782
vt 2.844440 0.155689
vt -0.000000 0.155689
vt -0.000000 0.155689
vt 2.844440 0.155689
vt 2.844440 0.162127
vt -0.000000 0.162127
vt -0.000000 0.162127
vt 2.844440 0.162127
vt 2.844440 0.167656
vt -0.000000 0.167656
vt -0.000000 -0.161143
vt 2.844440 -0.161143
vt 2.844440 -0.166667
vt -0.000000 -0.166667
vt -0.000000 -0.166667
vt 2.844440 -0.166667
vt 2.844440 -0.161143
vt -0.000000 -0.161143
vt -0.000000 0.189424
vt 2.844440 0.189424
vt 2.844440 0.194954
vt -0.000000 0.194954
vt -0.000000 0.194954
vt 2.844440 0.194954
vt 2.844440 0.201391
vt -0.000000 0.201391
vt -0.000000 0.201391
vt 2.844440 0.201391
vt 2.844440 0.208299
vt -0.000000 0.208299
vt -0.000000 0.208299
vt 2.844440 0.208299
vt 2.844440 0.215206
vt -0.000000 0.215206
vt -0.000000 0.215206
vt 2.844440 0.215206
vt 2.844440 0.221643
vt -0.000000 0.221643
vt -0.000000 0.221643
vt 2.844440 0.221643
vt 2.844440 0.227173
vt -0.000000 0.227173
vt -0.000000 -0.161143
vt 2.844440 -0.161143
vt 2.844440 -0.166667
vt -0.000000 -0.166667
vt -0.000000 -0.166667
vt 2.844440 -0.166667
vt 2.844440 -0.161143
vt -0.000000 -0.161143
vt -0.000000 0.248941
vt 2.844440 0.248941
vt 2.844440 0.254471
vt -0.000000 0.254471
vt -0.000000 0.254471
vt 2.844440 0.254471
vt 2.844440 0.260908
vt -0.000000 0.260908
vt -0.000000 0.260908
vt 2.844440 0.260908
vt 2.844440 0.267815
vt -0.000000 0.267815
vt -0.000000 0.267815
vt 2.844440 0.267815
vt 2.844440 0.274722
vt -0.000000 0.274722
vt -0.000000 0.274722
vt 2.844440 0.274722
vt 2.844440 0.281160
vt -0.000000 0.281160
vt -0.000000 0.281160
vt 2.844440 0.281160
vt 2.844440 0.286690
vt -0.000000 0.286690
vt -0.000000 -0.161143
vt 2.844440 -0.161143
vt 2.844440 -0.166667
vt -0.000000 -0.166667
vt -0.000000 -0.166667
vt 2.844440 -0.166667
vt 2.844440 -0.161143
vt -0.000000 -0.161143
vt -0.000000 0.308457
vt 2.844440 0.308457
vt 2.844440 0.313987
vt -0.000000 0.313987
vt -0.000000 0.313987
vt 2.844440 0.313987
vt 2.844440 0.320425
vt -0.000000 0.320425
vt -0.000000 0.320425
vt 2.844440 0.320425
vt 2.844440 0.327332
vt -0.000000 0.327332
vt -0.000000 0.327332
vt 2.844440 0.327332
vt 2.844440 0.334239
vt -0.000000 0.334239
vt -0.000000 0.334239
vt 2.844440 0.334239
vt 2.844440 0.340677
vt -0.000000 0.340677
vt -0.000000 0.340677
vt 2.844440 0.340677
vt 2.844440 0.346206
vt -0.000000 0.346206
vt -0.000000 -0.161143
vt 2.844440 -0.161143
vt 2.844440 -0.166667
vt -0.000000 -0.166667
vt -0.000000 -0.166667
vt 2.844440 -0.166667
vt 2.844440 -0.161143
vt -0.000000 -0.161143
vt -0.000000 0.367994
vt 2.844440 0.367994
vt 2.844440 0.373523
vt -0.000000 0.373523
vt -0.000000 0.373523
vt 2.844440 0.373523
vt 2.844440 0.379961
vt -0.000000 0.379961
vt -0.000000 0.379961
vt 2.844440 0.379961
vt 2.844440 0.386868
vt -0.000000 0.386868
vt -0.000000 0.399999
vt 2.844440 0.399999
vt 2.844440 0.401745
vt -0.000000 0.401745
vt -0.000000 0.401745
vt 2.844440 0.401745
vt 2.844440 0.403492
vt -0.000000 0.403492
vt -0.000000 0.416617
vt 2.844440 0.416617
vt 2.844440 0.410410
vt -0.000000 0.410410
vt -0.000000 0.410410
vt 2.844440 0.410410
vt 2.844440 0.403163
vt -0.000000 0.403163
vt -0.000000 0.403163
vt 2.844440 0.403163
vt 2.844440 0.395195
vt -0.000000 0.395195
vt -0.000000 0.395195
vt 2.844440 0.395195
vt 2.844440 0.386858
vt -0.000000 0.386858
vt -0.000000 0.386858
vt 2.844440 0.386858
vt 2.844440 0.378522
vt -0.000000 0.378522
vt -0.000000 0.378522
vt 2.844440 0.378522
vt 2.844440 0.370554
vt -0.000000 0.370554
vt -0.000000 0.370554
vt 2.844440 0.370554
vt 2.844440 0.363306
vt -0.000000 0.363306
vt -0.000000 0.363306
vt 2.844440 0.363306
vt 2.844440 0.357100
vt -0.000000 0.357100
vt -0.000000 0.357100
vt 2.844440 0.357100
vt 2.844440 0.350893
vt -0.000000 0.350893
vt -0.000000 0.350893
vt 2.844440 0.350893
vt 2.844440 0.343646
vt -0.000000 0.343646
vt -0.000000 0.343646
vt 2.844440 0.343646
vt 2.844440 0.335678
vt -0.000000 0.335678
vt -0.000000 0.335678
vt 2.844440 0.335678
vt 2.844440 0.327342
vt -0.000000 0.327342
vt -0.000000 0.327342
vt 2.844440 0.327342
vt 2.844440 0.319005
vt -0.000000 0.319005
vt -0.000000 0.319005
vt 2.844440 0.319005
vt 2.844440 0.311037
vt -0.000000 0.311037
vt -0.000000 0.311037
vt 2.844440 0.311037
vt 2.844440 0.303790
vt -0.000000 0.303790
vt -0.000000 0.303790
vt 2.844440 0.303790
vt 2.844440 0.297583
vt -0.000000 0.297583
vt -0.000000 0.297583
vt 2.844440 0.297583
vt 2.844440 0.291377
vt -0.000000 0.291377
vt -0.000000 0.291377
vt 2.844440 0.291377
vt 2.844440 0.284129
vt -0.000000 0.284129
vt -0.000000 0.284129
vt 2.844440 0.284129
vt 2.844440 0.276161
vt -0.000000 0.276161
vt -0.000000 0.276161
vt 2.844440 0.276161
vt 2.844440 0.267825
vt -0.000000 0.267825
vt -0.000000 0.267825
vt 2.844440 0.267825
vt 2.844440 0.259489
vt -0.000000 0.259489
vt -0.000000 0.259489
vt 2.844440 0.259489
vt 2.844440 0.251521
vt -0.000000 0.251521
vt -0.000000 0.251521
vt 2.844440 0.251521
vt 2.844440 0.244273
vt -0.000000 0.244273
vt -0.000000 0.244273
vt 2.844440 0.244273
vt 2.844440 0.238067
vt -0.000000 0.238067
vt -0.000000 0.238067
vt 2.844440 0.238067
vt 2.844440 0.231860
vt -0.000000 0.231860
vt -0.000000 0.231860
vt 2.844440 0.231860
vt 2.844440 0.224613
vt -0.000000 0.224613
vt -0.000000 0.224613
vt 2.844440 0.224613
vt 2.844440 0.216645
vt -0.000000 0.216645
vt -0.000000 0.216645
vt 2.844440 0.216645
vt 2.844440 0.208308
vt -0.000000 0.208308
vt -0.000000 0.208308
vt 2.844440 0.208308
vt 2.844440 0.199972
vt -0.000000 0.199972
vt -0.000000 0.199972
vt 2.844440 0.199972
vt 2.844440 0.192004
vt -0.000000 0.192004
vt -0.000000 0.192004
vt 2.844440 0.192004
vt 2.844440 0.184756
vt -0.000000 0.184756
vt -0.000000 0.184756
vt 2.844440 0.184756
vt 2.844440 0.178550
vt -0.000000 0.178550
vt -0.000000 0.178550
vt 2.844440 0.178550
vt 2.844440 0.172343
vt -0.000000 0.172343
vt -0.000000 0.172343
vt 2.844440 0.172343
vt 2.844440 0.165096
vt -0.000000 0.165096
vt -0.000000 0.165096
vt 2.844440 0.165096
vt 2.844440 0.157128
vt -0.000000 0.157128
vt -0.000000 0.157128
vt 2.844440 0.157128
vt 2.844440 0.148792
vt -0.000000 0.148792
vt -0.000000 0.148792
vt 2.844440 0.148792
vt 2.844440 0.140455
vt -0.000000 0.140455
vt -0.000000 0.140455
vt 2.844440 0.140455
vt 2.844440 0.132487
vt -0.000000 0.132487
vt -0.000000 0.132487
vt 2.844440 0.132487
vt 2.844440 0.125240
vt -0.000000 0.125240
vt -0.000000 0.125240
vt 2.844440 0.125240
vt 2.844440 0.119033
vt -0.000000 0.119033
vt -0.000000 0.119033
vt 2.844440 0.119033
vt 2.844440 0.112827
vt -0.000000 0.112827
vt -0.000000 0.112827
vt 2.844440 0.112827
vt 2.844440 0.105579
vt -0.000000 0.105579
vt -0.000000 0.105579
vt 2.844440 0.105579
vt 2.844440 0.097611
vt -0.000000 0.097611
vt -0.000000 0.097611
vt 2.844440 0.097611
vt 2.844440 0.089275
vt -0.000000 0.089275
vt -0.000000 0.089275
vt 2.844440 0.089275
vt 2.844440 0.080939
vt -0.000000 0.080939
vt -0.000000 0.080939
vt 2.844440 0.080939
vt 2.844440 0.072971
vt -0.000000 0.072971
vt -0.000000 0.072971
vt 2.844440 0.072971
vt 2.844440 0.065723
vt -0.000000 0.065723
vt -0.000000 0.053310
vt 2.844440 0.053310
vt 2.844440 0.046063
vt -0.000000 0.046063
vt -0.000000 0.065723
vt 2.844440 0.065723
vt 2.844440 0.059517
vt -0.000000 0.059517
vt -0.000000 0.059517
vt 2.844440 0.059517
vt 2.844440 0.053310
vt -0.000000 0.053310
g obj0
#Face Count: 354
f 1/1 2/2 3/3 4/4
f 4/5 3/6 5/7 6/8
f 7/9 8/10 9/11 10/12
f 10/13 9/14 11/15 12/16
f 13/17 14/18 15/19 16/20
f 17/21 18/22 19/23 20/24
f 21/25 22/26 23/27 24/28
f 25/29 26/30 27/31 28/32
f 29/33 30/34 31/35 32/36
f 33/37 34/38 35/39 36/40
f 37/41 38/42 39/43 40/44
f 40/45 39/46 41/47 42/48
f 43/49 44/50 45/51 46/52
f 46/53 45/54 47/55 48/56
f 103/57 104/58 105/59
f 111/60 112/61 113/62
f 119/63 120/64 121/65
f 127/66 128/67 129/68
f 135/69 136/70 137/71
f 143/72 144/73 145/74
f 53/75 54/76 55/77
f 102/78 103/79 105/80
f 102/81 105/82 106/83
f 110/84 111/85 113/86
f 110/87 113/88 114/89
f 118/90 119/91 121/92
f 118/93 121/94 122/95
f 126/96 127/97 129/98
f 126/99 129/100 130/101
f 134/102 135/103 137/104
f 134/105 137/106 138/107
f 142/108 143/109 145/110
f 142/111 145/112 146/113
f 52/114 53/115 55/116
f 52/117 55/118 56/119
f 101/120 102/121 106/122
f 101/123 106/124 107/125
f 109/126 110/127 114/128
f 109/129 114/130 115/131
f 117/132 118/133 122/134
f 117/135 122/136 123/137
f 125/138 126/139 130/140
f 125/141 130/142 131/143
f 133/144 134/145 138/146
f 133/147 138/148 139/149
f 141/150 142/151 146/152
f 141/153 146/154 49/155
f 51/156 52/157 56/158
f 51/159 56/160 57/161
f 101/162 107/163 108/164
f 108/165 109/166 115/167
f 108/168 115/169 116/170
f 116/171 117/172 123/173
f 116/174 123/175 124/176
f 124/177 125/178 131/179
f 124/180 131/181 132/182
f 132/183 133/184 139/185
f 132/186 139/187 140/188
f 140/189 141/190 49/191
f 140/192 49/193 50/194
f 50/195 51/196 57/197
f 48/198 101/199 108/200
f 48/201 108/202 50/203
f 37/204 48/205 50/206
f 93/207 37/208 50/209
f 86/210 93/211 50/212
f 79/213 86/214 50/215
f 72/216 79/217 50/218
f 65/219 72/220 50/221
f 12/222 65/223 50/224
f 12/225 50/226 57/227
f 12/228 57/229 1/230
f 99/231 37/232 93/233
f 99/234 93/235 94/236
f 92/237 93/238 86/239
f 92/240 86/241 87/242
f 85/243 86/244 79/245
f 85/246 79/247 80/248
f 78/249 79/250 72/251
f 78/252 72/253 73/254
f 71/255 72/256 65/257
f 71/258 65/259 66/260
f 64/261 65/262 12/263
f 64/264 12/265 59/266
f 98/267 99/268 94/269
f 98/270 94/271 95/272
f 91/273 92/274 87/275
f 91/276 87/277 88/278
f 84/279 85/280 80/281
f 84/282 80/283 81/284
f 77/285 78/286 73/287
f 77/288 73/289 74/290
f 70/291 71/292 66/293
f 70/294 66/295 67/296
f 63/297 64/298 59/299
f 63/300 59/301 60/302
f 97/303 98/304 95/305
f 97/306 95/307 96/308
f 90/309 91/310 88/311
f 90/312 88/313 89/314
f 83/315 84/316 81/317
f 83/318 81/319 82/320
f 76/321 77/322 74/323
f 76/324 74/325 75/326
f 69/327 70/328 67/329
f 69/330 67/331 68/332
f 62/333 63/334 60/335
f 62/336 60/337 61/338
f 48/339 37/340 100/341
f 12/342 1/343 58/344
f 48/345 100/346 43/347
f 42/348 100/349 37/350
f 12/351 58/352 7/353
f 6/354 58/355 1/356
f 46/357 48/358 43/359
f 40/360 42/361 37/362
f 36/363 97/364 96/365
f 36/366 96/367 33/368
f 32/369 90/370 89/371
f 32/372 89/373 29/374
f 28/375 83/376 82/377
f 28/378 82/379 25/380
f 24/381 76/382 75/383
f 24/384 75/385 21/386
f 20/387 69/388 68/389
f 20/390 68/391 17/392
f 16/393 62/394 61/395
f 16/396 61/397 13/398
f 10/399 12/400 7/401
f 4/402 6/403 1/404
f 241/405 242/406 243/407
f 151/408 152/409 153/410
f 159/411 160/412 161/413
f 167/414 168/415 169/416
f 175/417 176/418 177/419
f 183/420 184/421 185/422
f 191/423 192/424 193/425
f 240/426 241/427 243/428
f 240/429 243/430 244/431
f 150/432 151/433 153/434
f 150/435 153/436 154/437
f 158/438 159/439 161/440
f 158/441 161/442 162/443
f 166/444 167/445 169/446
f 166/447 169/448 170/449
f 174/450 175/451 177/452
f 174/453 177/454 178/455
f 182/456 183/457 185/458
f 182/459 185/460 186/461
f 190/462 191/463 193/464
f 190/465 193/466 194/467
f 239/468 240/469 244/470
f 239/471 244/472 147/473
f 149/474 150/475 154/476
f 149/477 154/478 155/479
f 157/480 158/481 162/482
f 157/483 162/484 163/485
f 165/486 166/487 170/488
f 165/489 170/490 171/491
f 173/492 174/493 178/494
f 173/495 178/496 179/497
f 181/498 182/499 186/500
f 181/501 186/502 187/503
f 189/504 190/505 194/506
f 189/507 194/508 195/509
f 239/510 147/511 148/512
f 148/513 149/514 155/515
f 148/516 155/517 156/518
f 156/519 157/520 163/521
f 156/522 163/523 164/524
f 164/525 165/526 171/527
f 164/528 171/529 172/530
f 172/531 173/532 179/533
f 172/534 179/535 180/536
f 180/537 181/538 187/539
f 180/540 187/541 188/542
f 188/543 189/544 195/545
f 2/546 239/547 148/548
f 2/549 148/550 188/551
f 11/552 2/553 188/554
f 231/555 11/556 188/557
f 224/558 231/559 188/560
f 217/561 224/562 188/563
f 210/564 217/565 188/566
f 203/567 210/568 188/569
f 38/570 203/571 188/572
f 38/573 188/574 195/575
f 38/576 195/577 47/578
f 237/579 11/580 231/581
f 237/582 231/583 232/584
f 230/585 231/586 224/587
f 230/588 224/589 225/590
f 223/591 224/592 217/593
f 223/594 217/595 218/596
f 216/597 217/598 210/599
f 216/600 210/601 211/602
f 209/603 210/604 203/605
f 209/606 203/607 204/608
f 202/609 203/610 38/611
f 202/612 38/613 197/614
f 236/615 237/616 232/617
f 236/618 232/619 233/620
f 229/621 230/622 225/623
f 229/624 225/625 226/626
f 222/627 223/628 218/629
f 222/630 218/631 219/632
f 215/633 216/634 211/635
f 215/636 211/637 212/638
f 208/639 209/640 204/641
f 208/642 204/643 205/644
f 201/645 202/646 197/647
f 201/648 197/649 198/650
f 235/651 236/652 233/653
f 235/654 233/655 234/656
f 228/657 229/658 226/659
f 228/660 226/661 227/662
f 221/663 222/664 219/665
f 221/666 219/667 220/668
f 214/669 215/670 212/671
f 214/672 212/673 213/674
f 207/675 208/676 205/677
f 207/678 205/679 206/680
f 200/681 201/682 198/683
f 200/684 198/685 199/686
f 2/687 11/688 238/689
f 38/690 47/691 196/692
f 2/693 238/694 5/695
f 8/696 238/697 11/698
f 38/699 196/700 41/701
f 44/702 196/703 47/704
f 3/705 2/706 5/707
f 9/708 8/709 11/710
f 14/711 235/712 234/713
f 14/714 234/715 15/716
f 18/717 228/718 227/719
f 18/720 227/721 19/722
f 22/723 221/724 220/725
f 22/726 220/727 23/728
f 26/729 214/730 213/731
f 26/732 213/733 27/734
f 30/735 207/736 206/737
f 30/738 206/739 31/740
f 34/741 200/742 199/743
f 34/744 199/745 35/746
f 39/747 38/748 41/749
f 45/750 44/751 47/752
f 52/753 244/754 243/755 53/756
f 53/757 243/758 242/759 54/760
f 54/761 242/762 241/763 55/764
f 55/765 241/766 240/767 56/768
f 56/769 240/770 239/771 57/772
f 57/773 239/774 2/775 1/776
f 6/777 5/778 238/779 58/780
f 58/781 238/782 8/783 7/784
f 12/785 11/786 237/787 59/788
f 59/789 237/790 236/791 60/792
f 60/793 236/794 235/795 61/796
f 61/797 235/798 14/799 13/800
f 16/801 15/802 234/803 62/804
f 62/805 234/806 233/807 63/808
f 63/809 233/810 232/811 64/812
f 64/813 232/814 231/815 65/816
f 65/817 231/818 230/819 66/820
f 66/821 230/822 229/823 67/824
f 67/825 229/826 228/827 68/828
f 68/829 228/830 18/831 17/832
f 20/833 19/834 227/835 69/836
f 69/837 227/838 226/839 70/840
f 70/841 226/842 225/843 71/844
f 71/845 225/846 224/847 72/848
f 72/849 224/850 223/851 73/852
f 73/853 223/854 222/855 74/856
f 74/857 222/858 221/859 75/860
f 75/861 221/862 22/863 21/864
f 24/865 23/866 220/867 76/868
f 76/869 220/870 219/871 77/872
f 77/873 219/874 218/875 78/876
f 78/877 218/878 217/879 79/880
f 79/881 217/882 216/883 80/884
f 80/885 216/886 215/887 81/888
f 81/889 215/890 214/891 82/892
f 82/893 214/894 26/895 25/896
f 28/897 27/898 213/899 83/900
f 83/901 213/902 212/903 84/904
f 84/905 212/906 211/907 85/908
f 85/909 211/910 210/911 86/912
f 86/913 210/914 209/915 87/916
f 87/917 209/918 208/919 88/920
f 88/921 208/922 207/923 89/924
f 89/925 207/926 30/927 29/928
f 32/929 31/930 206/931 90/932
f 90/933 206/934 205/935 91/936
f 91/937 205/938 204/939 92/940
f 92/941 204/942 203/943 93/944
f 93/945 203/946 202/947 94/948
f 94/949 202/950 201/951 95/952
f 95/953 201/954 200/955 96/956
f 96/957 200/958 34/959 33/960
f 36/961 35/962 199/963 97/964
f 97/965 199/966 198/967 98/968
f 98/969 198/970 197/971 99/972
f 99/973 197/974 38/975 37/976
f 42/977 41/978 196/979 100/980
f 100/981 196/982 44/983 43/984
f 48/985 47/986 195/987 101/988
f 101/989 195/990 194/991 102/992
f 102/993 194/994 193/995 103/996
f 103/997 193/998 192/999 104/1000
f 104/1001 192/1002 191/1003 105/1004
f 105/1005 191/1006 190/1007 106/1008
f 106/1009 190/1010 189/1011 107/1012
f 107/1013 189/1014 188/1015 108/1016
f 108/1017 188/1018 187/1019 109/1020
f 109/1021 187/1022 186/1023 110/1024
f 110/1025 186/1026 185/1027 111/1028
f 111/1029 185/1030 184/1031 112/1032
f 112/1033 184/1034 183/1035 113/1036
f 113/1037 183/1038 182/1039 114/1040
f 114/1041 182/1042 181/1043 115/1044
f 115/1045 181/1046 180/1047 116/1048
f 116/1049 180/1050 179/1051 117/1052
f 117/1053 179/1054 178/1055 118/1056
f 118/1057 178/1058 177/1059 119/1060
f 119/1061 177/1062 176/1063 120/1064
f 120/1065 176/1066 175/1067 121/1068
f 121/1069 175/1070 174/1071 122/1072
f 122/1073 174/1074 173/1075 123/1076
f 123/1077 173/1078 172/1079 124/1080
f 124/1081 172/1082 171/1083 125/1084
f 125/1085 171/1086 170/1087 126/1088
f 126/1089 170/1090 169/1091 127/1092
f 127/1093 169/1094 168/1095 128/1096
f 128/1097 168/1098 167/1099 129/1100
f 129/1101 167/1102 166/1103 130/1104
f 130/1105 166/1106 165/1107 131/1108
f 131/1109 165/1110 164/1111 132/1112
f 132/1113 164/1114 163/1115 133/1116
f 133/1117 163/1118 162/1119 134/1120
f 134/1121 162/1122 161/1123 135/1124
f 135/1125 161/1126 160/1127 136/1128
f 136/1129 160/1130 159/1131 137/1132
f 137/1133 159/1134 158/1135 138/1136
f 138/1137 158/1138 157/1139 139/1140
f 139/1141 157/1142 156/1143 140/1144
f 140/1145 156/1146 155/1147 141/1148
f 141/1149 155/1150 154/1151 142/1152
f 142/1153 154/1154 153/1155 143/1156
f 143/1157 153/1158 152/1159 144/1160
f 144/1161 152/1162 151/1163 145/1164
f 145/1165 151/1166 150/1167 146/1168
f 146/1169 150/1170 149/1171 49/1172
f 51/1173 147/1174 244/1175 52/1176
f 49/1177 149/1178 148/1179 50/1180
f 50/1181 148/1182 147/1183 51/1184
