# File exported by Pixologic 3D Print Exporter for ZBrush
# http://www.pixologic.com
mtllib W 369.mtl

#Object: obj0
#Vertex Count: 606
#UV Count: 968
#Face Count: 289
#Vertex Count: 606
v 0.000000 234.400391 0.000000
v 2000.000000 234.400391 0.000000
v 2000.000000 221.800781 0.000000
v 0.000000 221.800781 0.000000
v 0.000000 221.800781 0.000000
v 2000.000000 221.800781 0.000000
v 2000.000000 214.400391 3.348991
v 0.000000 214.400391 3.348991
v 0.000000 214.400391 3.348991
v 2000.000000 214.400391 3.348991
v 2000.000000 207.197266 0.000000
v 0.000000 207.197266 0.000000
v 0.000000 207.197266 0.000000
v 2000.000000 207.197266 0.000000
v 2000.000000 186.000000 0.000000
v 0.000000 186.000000 0.000000
v 0.000000 186.000000 0.000000
v 2000.000000 186.000000 0.000000
v 2000.000000 178.699219 3.348991
v 0.000000 178.699219 3.348991
v 0.000000 178.699219 3.348991
v 2000.000000 178.699219 3.348991
v 2000.000000 171.500000 0.000000
v 0.000000 171.500000 0.000000
v 0.000000 171.500000 0.000000
v 2000.000000 171.500000 0.000000
v 2000.000000 150.298828 0.000000
v 0.000000 150.298828 0.000000
v 0.000000 150.298828 0.000000
v 2000.000000 150.298828 0.000000
v 2000.000000 142.898438 3.348991
v 0.000000 142.898438 3.348991
v 0.000000 142.898438 3.348991
v 2000.000000 142.898438 3.348991
v 2000.000000 135.699219 0.000000
v 0.000000 135.699219 0.000000
v 0.000000 135.699219 0.000000
v 2000.000000 135.699219 0.000000
v 2000.000000 114.599609 0.000000
v 0.000000 114.599609 0.000000
v 0.000000 114.599609 0.000000
v 2000.000000 114.599609 0.000000
v 2000.000000 107.199219 3.348991
v 0.000000 107.199219 3.348991
v 0.000000 107.199219 3.348991
v 2000.000000 107.199219 3.348991
v 2000.000000 99.998047 0.000000
v 0.000000 99.998047 0.000000
v 0.000000 99.998047 0.000000
v 2000.000000 99.998047 0.000000
v 2000.000000 78.798828 0.000000
v 0.000000 78.798828 0.000000
v 0.000000 78.798828 0.000000
v 2000.000000 78.798828 0.000000
v 2000.000000 71.398438 3.348991
v 0.000000 71.398438 3.348991
v 0.000000 71.398438 3.348991
v 2000.000000 71.398438 3.348991
v 2000.000000 64.197266 0.000000
v 0.000000 64.197266 0.000000
v 0.000000 64.197266 0.000000
v 2000.000000 64.197266 0.000000
v 2000.000000 43.097656 0.000000
v 0.000000 43.097656 0.000000
v 0.000000 43.097656 0.000000
v 2000.000000 43.097656 0.000000
v 2000.000000 35.697266 3.348991
v 0.000000 35.697266 3.348991
v 0.000000 35.697266 3.348991
v 2000.000000 35.697266 3.348991
v 2000.000000 28.300781 0.000000
v 0.000000 28.300781 0.000000
v 0.000000 28.300781 0.000000
v 2000.000000 28.300781 0.000000
v 2000.000000 15.697266 0.000000
v 0.000000 15.697266 0.000000
v 0.000000 12.697266 0.000000
v 2000.000000 12.697266 0.000000
v 2000.000000 0.000000 0.000000
v 0.000000 0.000000 0.000000
v 0.000000 0.000000 0.000000
v 2000.000000 0.000000 0.000000
v 2000.000000 0.000000 11.300003
v 0.000000 0.000000 11.300003
v 0.000000 0.000000 11.300003
v 2000.000000 0.000000 11.300003
v 2000.000000 1.697266 12.499992
v 0.000000 1.697266 12.499992
v 0.000000 33.900391 12.499992
v 2000.000000 33.900391 12.499992
v 2000.000000 35.697266 11.300003
v 0.000000 35.697266 11.300003
v 0.000000 35.697266 11.300003
v 2000.000000 35.697266 11.300003
v 2000.000000 37.498047 12.499992
v 0.000000 37.498047 12.499992
v 0.000000 69.697266 12.499992
v 2000.000000 69.697266 12.499992
v 2000.000000 71.398438 11.300003
v 0.000000 71.398438 11.300003
v 0.000000 71.398438 11.300003
v 2000.000000 71.398438 11.300003
v 2000.000000 73.298828 12.499992
v 0.000000 73.298828 12.499992
v 0.000000 105.398438 12.499992
v 2000.000000 105.398438 12.499992
v 2000.000000 107.199219 11.300003
v 0.000000 107.199219 11.300003
v 0.000000 107.199219 11.300003
v 2000.000000 107.199219 11.300003
v 2000.000000 109.000000 12.499992
v 0.000000 109.000000 12.499992
v 0.000000 141.195313 12.499992
v 2000.000000 141.195313 12.499992
v 2000.000000 142.898438 11.300003
v 0.000000 142.898438 11.300003
v 0.000000 142.898438 11.300003
v 2000.000000 142.898438 11.300003
v 2000.000000 144.800781 12.499992
v 0.000000 144.800781 12.499992
v 0.000000 176.898438 12.499992
v 2000.000000 176.898438 12.499992
v 2000.000000 178.699219 11.300003
v 0.000000 178.699219 11.300003
v 0.000000 178.699219 11.300003
v 2000.000000 178.699219 11.300003
v 2000.000000 180.500000 12.499992
v 0.000000 180.500000 12.499992
v 0.000000 212.699219 12.499992
v 2000.000000 212.699219 12.499992
v 2000.000000 214.400391 11.300003
v 0.000000 214.400391 11.300003
v 0.000000 214.400391 11.300003
v 2000.000000 214.400391 11.300003
v 2000.000000 216.300781 12.499992
v 0.000000 216.300781 12.499992
v 0.000000 248.400391 12.499992
v 2000.000000 248.400391 12.499992
v 2000.000000 250.197266 11.300003
v 0.000000 250.197266 11.300003
v 0.000000 250.197266 11.300003
v 0.000000 250.197266 0.000000
v 0.000000 237.398438 0.000000
v 0.000000 236.998047 1.044991
v 0.000000 235.900391 1.477989
v 0.000000 234.900391 1.044991
v 0.000000 234.400391 0.000000
v 0.000000 221.800781 0.000000
v 0.000000 214.400391 3.348991
v 0.000000 207.197266 0.000000
v 0.000000 186.000000 0.000000
v 0.000000 178.699219 3.348991
v 0.000000 171.500000 0.000000
v 0.000000 150.298828 0.000000
v 0.000000 142.898438 3.348991
v 0.000000 135.699219 0.000000
v 0.000000 114.599609 0.000000
v 0.000000 107.199219 3.348991
v 0.000000 99.998047 0.000000
v 0.000000 78.798828 0.000000
v 0.000000 71.398438 3.348991
v 0.000000 64.197266 0.000000
v 0.000000 43.097656 0.000000
v 0.000000 35.697266 3.348991
v 0.000000 28.300781 0.000000
v 0.000000 15.697266 0.000000
v 0.000000 15.197266 1.044991
v 0.000000 14.197266 1.477989
v 0.000000 13.197266 1.044991
v 0.000000 12.697266 0.000000
v 0.000000 0.000000 0.000000
v 0.000000 0.000000 11.300003
v 0.000000 1.697266 12.499992
v 0.000000 5.199219 9.863991
v 0.000000 9.197266 7.915199
v 0.000000 13.400391 6.718994
v 0.000000 17.798828 6.315804
v 0.000000 22.197266 6.718994
v 0.000000 26.400391 7.915199
v 0.000000 30.298828 9.863991
v 0.000000 33.900391 12.499992
v 0.000000 35.697266 11.300003
v 0.000000 37.498047 12.499992
v 0.000000 41.097656 9.863991
v 0.000000 44.998047 7.915199
v 0.000000 49.197266 6.718994
v 0.000000 53.599609 6.315804
v 0.000000 57.998047 6.718994
v 0.000000 62.197266 7.915199
v 0.000000 66.199219 9.863991
v 0.000000 69.697266 12.499992
v 0.000000 71.398438 11.300003
v 0.000000 73.298828 12.499992
v 0.000000 76.800781 9.863991
v 0.000000 80.699219 7.915199
v 0.000000 84.998047 6.718994
v 0.000000 89.400391 6.315804
v 0.000000 93.699219 6.718994
v 0.000000 97.998047 7.915199
v 0.000000 101.900391 9.863991
v 0.000000 105.398438 12.499992
v 0.000000 107.199219 11.300003
v 0.000000 109.000000 12.499992
v 0.000000 112.498047 9.871399
v 0.000000 116.500000 7.925392
v 0.000000 120.699219 6.726791
v 0.000000 125.097656 6.315903
v 0.000000 129.396484 6.711304
v 0.000000 133.697266 7.904991
v 0.000000 137.697266 9.856499
v 0.000000 141.195313 12.499992
v 0.000000 142.898438 11.300003
v 0.000000 144.800781 12.499992
v 0.000000 148.298828 9.863991
v 0.000000 152.197266 7.915199
v 0.000000 156.496094 6.718994
v 0.000000 160.898438 6.315804
v 0.000000 165.199219 6.718994
v 0.000000 169.498047 7.915199
v 0.000000 173.400391 9.863991
v 0.000000 176.898438 12.499992
v 0.000000 178.699219 11.300003
v 0.000000 180.500000 12.499992
v 0.000000 183.998047 9.863991
v 0.000000 187.998047 7.915199
v 0.000000 192.199219 6.718994
v 0.000000 196.597656 6.315804
v 0.000000 201.000000 6.718994
v 0.000000 205.199219 7.915199
v 0.000000 209.197266 9.863991
v 0.000000 212.699219 12.499992
v 0.000000 214.400391 11.300003
v 0.000000 216.300781 12.499992
v 0.000000 219.798828 9.863991
v 0.000000 223.697266 7.915199
v 0.000000 228.000000 6.718994
v 0.000000 232.298828 6.315804
v 0.000000 236.697266 6.718994
v 0.000000 241.000000 7.915199
v 0.000000 244.898438 9.863991
v 0.000000 248.400391 12.499992
v 2000.000000 237.398438 0.000000
v 2000.000000 250.197266 0.000000
v 2000.000000 250.197266 11.300003
v 2000.000000 248.400391 12.499992
v 2000.000000 244.898438 9.863991
v 2000.000000 241.000000 7.915199
v 2000.000000 236.697266 6.718994
v 2000.000000 232.298828 6.315804
v 2000.000000 228.000000 6.718994
v 2000.000000 223.697266 7.915199
v 2000.000000 219.798828 9.863991
v 2000.000000 216.300781 12.499992
v 2000.000000 214.400391 11.300003
v 2000.000000 212.699219 12.499992
v 2000.000000 209.197266 9.863991
v 2000.000000 205.199219 7.915199
v 2000.000000 201.000000 6.718994
v 2000.000000 196.597656 6.315804
v 2000.000000 192.199219 6.718994
v 2000.000000 187.998047 7.915199
v 2000.000000 183.998047 9.863991
v 2000.000000 180.500000 12.499992
v 2000.000000 178.699219 11.300003
v 2000.000000 176.898438 12.499992
v 2000.000000 173.400391 9.863991
v 2000.000000 169.498047 7.915199
v 2000.000000 165.199219 6.718994
v 2000.000000 160.898438 6.315804
v 2000.000000 156.496094 6.718994
v 2000.000000 152.197266 7.915199
v 2000.000000 148.298828 9.863991
v 2000.000000 144.800781 12.499992
v 2000.000000 142.898438 11.300003
v 2000.000000 141.195313 12.499992
v 2000.000000 137.697266 9.856499
v 2000.000000 133.697266 7.904991
v 2000.000000 129.396484 6.711304
v 2000.000000 125.097656 6.315903
v 2000.000000 120.699219 6.726791
v 2000.000000 116.500000 7.925392
v 2000.000000 112.498047 9.871399
v 2000.000000 109.000000 12.499992
v 2000.000000 107.199219 11.300003
v 2000.000000 105.398438 12.499992
v 2000.000000 101.900391 9.863991
v 2000.000000 97.998047 7.915199
v 2000.000000 93.699219 6.718994
v 2000.000000 89.400391 6.315804
v 2000.000000 84.998047 6.718994
v 2000.000000 80.699219 7.915199
v 2000.000000 76.800781 9.863991
v 2000.000000 73.298828 12.499992
v 2000.000000 71.398438 11.300003
v 2000.000000 69.697266 12.499992
v 2000.000000 66.199219 9.863991
v 2000.000000 62.197266 7.915199
v 2000.000000 57.998047 6.718994
v 2000.000000 53.599609 6.315804
v 2000.000000 49.197266 6.718994
v 2000.000000 44.998047 7.915199
v 2000.000000 41.097656 9.863991
v 2000.000000 37.498047 12.499992
v 2000.000000 35.697266 11.300003
v 2000.000000 33.900391 12.499992
v 2000.000000 30.298828 9.863991
v 2000.000000 26.400391 7.915199
v 2000.000000 22.197266 6.718994
v 2000.000000 17.798828 6.315804
v 2000.000000 13.400391 6.718994
v 2000.000000 9.197266 7.915199
v 2000.000000 5.199219 9.863991
v 2000.000000 1.697266 12.499992
v 2000.000000 0.000000 11.300003
v 2000.000000 0.000000 0.000000
v 2000.000000 12.697266 0.000000
v 2000.000000 13.197266 1.044991
v 2000.000000 14.197266 1.477989
v 2000.000000 15.197266 1.044991
v 2000.000000 15.697266 0.000000
v 2000.000000 28.300781 0.000000
v 2000.000000 35.697266 3.348991
v 2000.000000 43.097656 0.000000
v 2000.000000 64.197266 0.000000
v 2000.000000 71.398438 3.348991
v 2000.000000 78.798828 0.000000
v 2000.000000 99.998047 0.000000
v 2000.000000 107.199219 3.348991
v 2000.000000 114.599609 0.000000
v 2000.000000 135.699219 0.000000
v 2000.000000 142.898438 3.348991
v 2000.000000 150.298828 0.000000
v 2000.000000 171.500000 0.000000
v 2000.000000 178.699219 3.348991
v 2000.000000 186.000000 0.000000
v 2000.000000 207.197266 0.000000
v 2000.000000 214.400391 3.348991
v 2000.000000 221.800781 0.000000
v 2000.000000 234.400391 0.000000
v 2000.000000 234.900391 1.044991
v 2000.000000 235.900391 1.477989
v 2000.000000 236.998047 1.044991
v 0.000000 250.197266 11.300003
v 2000.000000 250.197266 11.300003
v 2000.000000 250.197266 0.000000
v 0.000000 250.197266 0.000000
v 0.000000 250.197266 0.000000
v 2000.000000 250.197266 0.000000
v 2000.000000 237.398438 0.000000
v 0.000000 237.398438 0.000000
v 0.000000 236.998047 1.044991
v 2000.000000 236.998047 1.044991
v 2000.000000 235.900391 1.477989
v 0.000000 235.900391 1.477989
v 0.000000 235.900391 1.477989
v 2000.000000 235.900391 1.477989
v 2000.000000 234.900391 1.044991
v 0.000000 234.900391 1.044991
v 0.000000 234.900391 1.044991
v 2000.000000 234.900391 1.044991
v 2000.000000 234.400391 0.000000
v 0.000000 234.400391 0.000000
v 0.000000 15.697266 0.000000
v 2000.000000 15.697266 0.000000
v 2000.000000 15.197266 1.044991
v 0.000000 15.197266 1.044991
v 0.000000 15.197266 1.044991
v 2000.000000 15.197266 1.044991
v 2000.000000 14.197266 1.477989
v 0.000000 14.197266 1.477989
v 0.000000 14.197266 1.477989
v 2000.000000 14.197266 1.477989
v 2000.000000 13.197266 1.044991
v 0.000000 13.197266 1.044991
v 0.000000 13.197266 1.044991
v 2000.000000 13.197266 1.044991
v 2000.000000 12.697266 0.000000
v 0.000000 12.697266 0.000000
v 0.000000 1.697266 12.499992
v 2000.000000 1.697266 12.499992
v 2000.000000 5.199219 9.863991
v 0.000000 5.199219 9.863991
v 0.000000 5.199219 9.863991
v 2000.000000 5.199219 9.863991
v 2000.000000 9.197266 7.915199
v 0.000000 9.197266 7.915199
v 0.000000 9.197266 7.915199
v 2000.000000 9.197266 7.915199
v 2000.000000 13.400391 6.718994
v 0.000000 13.400391 6.718994
v 0.000000 13.400391 6.718994
v 2000.000000 13.400391 6.718994
v 2000.000000 17.798828 6.315804
v 0.000000 17.798828 6.315804
v 0.000000 17.798828 6.315804
v 2000.000000 17.798828 6.315804
v 2000.000000 22.197266 6.718994
v 0.000000 22.197266 6.718994
v 0.000000 22.197266 6.718994
v 2000.000000 22.197266 6.718994
v 2000.000000 26.400391 7.915199
v 0.000000 26.400391 7.915199
v 0.000000 26.400391 7.915199
v 2000.000000 26.400391 7.915199
v 2000.000000 30.298828 9.863991
v 0.000000 30.298828 9.863991
v 0.000000 30.298828 9.863991
v 2000.000000 30.298828 9.863991
v 2000.000000 33.900391 12.499992
v 0.000000 33.900391 12.499992
v 0.000000 37.498047 12.499992
v 2000.000000 37.498047 12.499992
v 2000.000000 41.097656 9.863991
v 0.000000 41.097656 9.863991
v 0.000000 41.097656 9.863991
v 2000.000000 41.097656 9.863991
v 2000.000000 44.998047 7.915199
v 0.000000 44.998047 7.915199
v 0.000000 44.998047 7.915199
v 2000.000000 44.998047 7.915199
v 2000.000000 49.197266 6.718994
v 0.000000 49.197266 6.718994
v 0.000000 49.197266 6.718994
v 2000.000000 49.197266 6.718994
v 2000.000000 53.599609 6.315804
v 0.000000 53.599609 6.315804
v 0.000000 53.599609 6.315804
v 2000.000000 53.599609 6.315804
v 2000.000000 57.998047 6.718994
v 0.000000 57.998047 6.718994
v 0.000000 57.998047 6.718994
v 2000.000000 57.998047 6.718994
v 2000.000000 62.197266 7.915199
v 0.000000 62.197266 7.915199
v 0.000000 62.197266 7.915199
v 2000.000000 62.197266 7.915199
v 2000.000000 66.199219 9.863991
v 0.000000 66.199219 9.863991
v 0.000000 66.199219 9.863991
v 2000.000000 66.199219 9.863991
v 2000.000000 69.697266 12.499992
v 0.000000 69.697266 12.499992
v 0.000000 73.298828 12.499992
v 2000.000000 73.298828 12.499992
v 2000.000000 76.800781 9.863991
v 0.000000 76.800781 9.863991
v 0.000000 76.800781 9.863991
v 2000.000000 76.800781 9.863991
v 2000.000000 80.699219 7.915199
v 0.000000 80.699219 7.915199
v 0.000000 80.699219 7.915199
v 2000.000000 80.699219 7.915199
v 2000.000000 84.998047 6.718994
v 0.000000 84.998047 6.718994
v 0.000000 84.998047 6.718994
v 2000.000000 84.998047 6.718994
v 2000.000000 89.400391 6.315804
v 0.000000 89.400391 6.315804
v 0.000000 89.400391 6.315804
v 2000.000000 89.400391 6.315804
v 2000.000000 93.699219 6.718994
v 0.000000 93.699219 6.718994
v 0.000000 93.699219 6.718994
v 2000.000000 93.699219 6.718994
v 2000.000000 97.998047 7.915199
v 0.000000 97.998047 7.915199
v 0.000000 97.998047 7.915199
v 2000.000000 97.998047 7.915199
v 2000.000000 101.900391 9.863991
v 0.000000 101.900391 9.863991
v 0.000000 101.900391 9.863991
v 2000.000000 101.900391 9.863991
v 2000.000000 105.398438 12.499992
v 0.000000 105.398438 12.499992
v 0.000000 109.000000 12.499992
v 2000.000000 109.000000 12.499992
v 2000.000000 112.498047 9.871399
v 0.000000 112.498047 9.871399
v 0.000000 112.498047 9.871399
v 2000.000000 112.498047 9.871399
v 2000.000000 116.500000 7.925392
v 0.000000 116.500000 7.925392
v 0.000000 116.500000 7.925392
v 2000.000000 116.500000 7.925392
v 2000.000000 120.699219 6.726791
v 0.000000 120.699219 6.726791
v 0.000000 120.699219 6.726791
v 2000.000000 120.699219 6.726791
v 2000.000000 125.097656 6.315903
v 0.000000 125.097656 6.315903
v 0.000000 125.097656 6.315903
v 2000.000000 125.097656 6.315903
v 2000.000000 129.396484 6.711304
v 0.000000 129.396484 6.711304
v 0.000000 129.396484 6.711304
v 2000.000000 129.396484 6.711304
v 2000.000000 133.697266 7.904991
v 0.000000 133.697266 7.904991
v 0.000000 133.697266 7.904991
v 2000.000000 133.697266 7.904991
v 2000.000000 137.697266 9.856499
v 0.000000 137.697266 9.856499
v 0.000000 137.697266 9.856499
v 2000.000000 137.697266 9.856499
v 2000.000000 141.195313 12.499992
v 0.000000 141.195313 12.499992
v 0.000000 144.800781 12.499992
v 2000.000000 144.800781 12.499992
v 2000.000000 148.298828 9.863991
v 0.000000 148.298828 9.863991
v 0.000000 148.298828 9.863991
v 2000.000000 148.298828 9.863991
v 2000.000000 152.197266 7.915199
v 0.000000 152.197266 7.915199
v 0.000000 152.197266 7.915199
v 2000.000000 152.197266 7.915199
v 2000.000000 156.496094 6.718994
v 0.000000 156.496094 6.718994
v 0.000000 156.496094 6.718994
v 2000.000000 156.496094 6.718994
v 2000.000000 160.898438 6.315804
v 0.000000 160.898438 6.315804
v 0.000000 160.898438 6.315804
v 2000.000000 160.898438 6.315804
v 2000.000000 165.199219 6.718994
v 0.000000 165.199219 6.718994
v 0.000000 165.199219 6.718994
v 2000.000000 165.199219 6.718994
v 2000.000000 169.498047 7.915199
v 0.000000 169.498047 7.915199
v 0.000000 169.498047 7.915199
v 2000.000000 169.498047 7.915199
v 2000.000000 173.400391 9.863991
v 0.000000 173.400391 9.863991
v 0.000000 173.400391 9.863991
v 2000.000000 173.400391 9.863991
v 2000.000000 176.898438 12.499992
v 0.000000 176.898438 12.499992
v 0.000000 180.500000 12.499992
v 2000.000000 180.500000 12.499992
v 2000.000000 183.998047 9.863991
v 0.000000 183.998047 9.863991
v 0.000000 183.998047 9.863991
v 2000.000000 183.998047 9.863991
v 2000.000000 187.998047 7.915199
v 0.000000 187.998047 7.915199
v 0.000000 187.998047 7.915199
v 2000.000000 187.998047 7.915199
v 2000.000000 192.199219 6.718994
v 0.000000 192.199219 6.718994
v 0.000000 192.199219 6.718994
v 2000.000000 192.199219 6.718994
v 2000.000000 196.597656 6.315804
v 0.000000 196.597656 6.315804
v 0.000000 196.597656 6.315804
v 2000.000000 196.597656 6.315804
v 2000.000000 201.000000 6.718994
v 0.000000 201.000000 6.718994
v 0.000000 201.000000 6.718994
v 2000.000000 201.000000 6.718994
v 2000.000000 205.199219 7.915199
v 0.000000 205.199219 7.915199
v 0.000000 205.199219 7.915199
v 2000.000000 205.199219 7.915199
v 2000.000000 209.197266 9.863991
v 0.000000 209.197266 9.863991
v 0.000000 209.197266 9.863991
v 2000.000000 209.197266 9.863991
v 2000.000000 212.699219 12.499992
v 0.000000 212.699219 12.499992
v 0.000000 216.300781 12.499992
v 2000.000000 216.300781 12.499992
v 2000.000000 219.798828 9.863991
v 0.000000 219.798828 9.863991
v 0.000000 219.798828 9.863991
v 2000.000000 219.798828 9.863991
v 2000.000000 223.697266 7.915199
v 0.000000 223.697266 7.915199
v 0.000000 223.697266 7.915199
v 2000.000000 223.697266 7.915199
v 2000.000000 228.000000 6.718994
v 0.000000 228.000000 6.718994
v 0.000000 228.000000 6.718994
v 2000.000000 228.000000 6.718994
v 2000.000000 232.298828 6.315804
v 0.000000 232.298828 6.315804
v 0.000000 232.298828 6.315804
v 2000.000000 232.298828 6.315804
v 2000.000000 236.697266 6.718994
v 0.000000 236.697266 6.718994
v 0.000000 236.697266 6.718994
v 2000.000000 236.697266 6.718994
v 2000.000000 241.000000 7.915199
v 0.000000 241.000000 7.915199
v 0.000000 241.000000 7.915199
v 2000.000000 241.000000 7.915199
v 2000.000000 244.898438 9.863991
v 0.000000 244.898438 9.863991
v 0.000000 244.898438 9.863991
v 2000.000000 244.898438 9.863991
v 2000.000000 248.400391 12.499992
v 0.000000 248.400391 12.499992
v 0.000000 237.398438 0.000000
v 2000.000000 237.398438 0.000000
v 2000.000000 236.998047 1.044991
v 0.000000 236.998047 1.044991
#UV count: 968
vt 10.273500 -10.610000
vt 11.273500 -10.610000
vt 11.273500 -10.603600
vt 10.273500 -10.603600
vt 10.273500 -10.603600
vt 11.273500 -10.603600
vt 11.273500 -10.600000
vt 10.273500 -10.600000
vt 10.273500 -10.600000
vt 11.273500 -10.600000
vt 11.273500 -10.596300
vt 10.273500 -10.596300
vt 10.273500 -10.596300
vt 11.273500 -10.596300
vt 11.273500 -10.585800
vt 10.273500 -10.585800
vt 10.273500 -10.585800
vt 11.273500 -10.585800
vt 11.273500 -10.582100
vt 10.273500 -10.582100
vt 10.273500 -10.582100
vt 11.273500 -10.582100
vt 11.273500 -10.578500
vt 10.273500 -10.578500
vt 10.273500 -10.578500
vt 11.273500 -10.578500
vt 11.273500 -10.567900
vt 10.273500 -10.567900
vt 10.273500 -10.567900
vt 11.273500 -10.567900
vt 11.273500 -10.564200
vt 10.273500 -10.564200
vt 10.273500 -10.564200
vt 11.273500 -10.564200
vt 11.273500 -10.560600
vt 10.273500 -10.560600
vt 10.273500 -10.560600
vt 11.273500 -10.560600
vt 11.273500 -10.550000
vt 10.273500 -10.550000
vt 10.273500 -10.550000
vt 11.273500 -10.550000
vt 11.273500 -10.546300
vt 10.273500 -10.546300
vt 10.273500 -10.546300
vt 11.273500 -10.546300
vt 11.273500 -10.542700
vt 10.273500 -10.542700
vt 10.273500 -10.542700
vt 11.273500 -10.542700
vt 11.273500 -10.532200
vt 10.273500 -10.532200
vt 10.273500 -10.532200
vt 11.273500 -10.532200
vt 11.273500 -10.528500
vt 10.273500 -10.528500
vt 10.273500 -10.528500
vt 11.273500 -10.528500
vt 11.273500 -10.524900
vt 10.273500 -10.524900
vt 10.273500 -10.524900
vt 11.273500 -10.524900
vt 11.273500 -10.514300
vt 10.273500 -10.514300
vt 10.273500 -10.514300
vt 11.273500 -10.514300
vt 11.273500 -10.510600
vt 10.273500 -10.510600
vt 10.273500 -10.510600
vt 11.273500 -10.510600
vt 11.273500 -10.506900
vt 10.273500 -10.506900
vt 10.273500 -10.506900
vt 11.273500 -10.506900
vt 11.273500 -10.500600
vt 10.273500 -10.500600
vt 10.273500 -10.499100
vt 11.273500 -10.499100
vt 11.273500 -10.492700
vt 10.273500 -10.492700
vt 10.273500 -0.053125
vt 11.273500 -0.053125
vt 11.273500 -0.047475
vt 10.273500 -0.047475
vt 10.273500 -10.492700
vt 11.273500 -10.492700
vt 11.273500 -10.493600
vt 10.273500 -10.493600
vt 10.273500 -10.509700
vt 11.273500 -10.509700
vt 11.273500 -10.510600
vt 10.273500 -10.510600
vt 10.273500 -10.510600
vt 11.273500 -10.510600
vt 11.273500 -10.511500
vt 10.273500 -10.511500
vt 10.273500 -10.527600
vt 11.273500 -10.527600
vt 11.273500 -10.528500
vt 10.273500 -10.528500
vt 10.273500 -10.528500
vt 11.273500 -10.528500
vt 11.273500 -10.529400
vt 10.273500 -10.529400
vt 10.273500 -10.545500
vt 11.273500 -10.545500
vt 11.273500 -10.546300
vt 10.273500 -10.546300
vt 10.273500 -10.546300
vt 11.273500 -10.546300
vt 11.273500 -10.547300
vt 10.273500 -10.547300
vt 10.273500 -10.563300
vt 11.273500 -10.563300
vt 11.273500 -10.564200
vt 10.273500 -10.564200
vt 10.273500 -10.564200
vt 11.273500 -10.564200
vt 11.273500 -10.565100
vt 10.273500 -10.565100
vt 10.273500 -10.581200
vt 11.273500 -10.581200
vt 11.273500 -10.582100
vt 10.273500 -10.582100
vt 10.273500 -10.582100
vt 11.273500 -10.582100
vt 11.273500 -10.583000
vt 10.273500 -10.583000
vt 10.273500 -10.599100
vt 11.273500 -10.599100
vt 11.273500 -10.600000
vt 10.273500 -10.600000
vt 10.273500 -10.600000
vt 11.273500 -10.600000
vt 11.273500 -10.600900
vt 10.273500 -10.600900
vt 10.273500 -10.617000
vt 11.273500 -10.617000
vt 11.273500 -10.617800
vt 10.273500 -10.617800
vt -10.546300 -0.047475
vt -10.547300 -0.046875
vt -10.549000 -0.048189
vt -10.492700 -0.047475
vt -10.493600 -0.046875
vt -10.495400 -0.048193
vt -10.507900 -0.048193
vt -10.509700 -0.046875
vt -10.510600 -0.047475
vt -10.510600 -0.047475
vt -10.511500 -0.046875
vt -10.513300 -0.048193
vt -10.507900 -0.048193
vt -10.510600 -0.047475
vt -10.513300 -0.048193
vt -10.525800 -0.048193
vt -10.527600 -0.046875
vt -10.528500 -0.047475
vt -10.528500 -0.047475
vt -10.529400 -0.046875
vt -10.531200 -0.048193
vt -10.525800 -0.048193
vt -10.528500 -0.047475
vt -10.531200 -0.048193
vt -10.543700 -0.048193
vt -10.545500 -0.046875
vt -10.546300 -0.047475
vt -10.543700 -0.048193
vt -10.546300 -0.047475
vt -10.549000 -0.048189
vt -10.564200 -0.047475
vt -10.565100 -0.046875
vt -10.566900 -0.048193
vt -10.579500 -0.048193
vt -10.581200 -0.046875
vt -10.582100 -0.047475
vt -10.582100 -0.047475
vt -10.583000 -0.046875
vt -10.584800 -0.048193
vt -10.579500 -0.048193
vt -10.582100 -0.047475
vt -10.584800 -0.048193
vt -10.597300 -0.048193
vt -10.599100 -0.046875
vt -10.600000 -0.047475
vt -10.600000 -0.047475
vt -10.600900 -0.046875
vt -10.602600 -0.048193
vt -10.597300 -0.048193
vt -10.600000 -0.047475
vt -10.602600 -0.048193
vt -10.615200 -0.048193
vt -10.617000 -0.046875
vt -10.617800 -0.047475
vt -10.561600 -0.048197
vt -10.563300 -0.046875
vt -10.564200 -0.047475
vt -10.561600 -0.048197
vt -10.564200 -0.047475
vt -10.566900 -0.048193
vt -10.543700 -0.048193
vt -10.549000 -0.048189
vt -10.551000 -0.049162
vt -10.492700 -0.047475
vt -10.495400 -0.048193
vt -10.497300 -0.049167
vt -10.505900 -0.049167
vt -10.507900 -0.048193
vt -10.513300 -0.048193
vt -10.505900 -0.049167
vt -10.513300 -0.048193
vt -10.515300 -0.049167
vt -10.523900 -0.049167
vt -10.525800 -0.048193
vt -10.531200 -0.048193
vt -10.523900 -0.049167
vt -10.531200 -0.048193
vt -10.533100 -0.049167
vt -10.541700 -0.049167
vt -10.543700 -0.048193
vt -10.551000 -0.049162
vt -10.561600 -0.048197
vt -10.566900 -0.048193
vt -10.568900 -0.049167
vt -10.577500 -0.049167
vt -10.579500 -0.048193
vt -10.584800 -0.048193
vt -10.577500 -0.049167
vt -10.584800 -0.048193
vt -10.586700 -0.049167
vt -10.595400 -0.049167
vt -10.597300 -0.048193
vt -10.602600 -0.048193
vt -10.595400 -0.049167
vt -10.602600 -0.048193
vt -10.604600 -0.049167
vt -10.613200 -0.049167
vt -10.615200 -0.048193
vt -10.617800 -0.047475
vt -10.559600 -0.049172
vt -10.561600 -0.048197
vt -10.568900 -0.049167
vt -10.541700 -0.049167
vt -10.551000 -0.049162
vt -10.553100 -0.049762
vt -10.503800 -0.049766
vt -10.505900 -0.049167
vt -10.515300 -0.049167
vt -10.503800 -0.049766
vt -10.515300 -0.049167
vt -10.517400 -0.049766
vt -10.521800 -0.049766
vt -10.523900 -0.049167
vt -10.533100 -0.049167
vt -10.521800 -0.049766
vt -10.533100 -0.049167
vt -10.535200 -0.049766
vt -10.539600 -0.049766
vt -10.541700 -0.049167
vt -10.553100 -0.049762
vt -10.559600 -0.049172
vt -10.568900 -0.049167
vt -10.571000 -0.049766
vt -10.575400 -0.049766
vt -10.577500 -0.049167
vt -10.586700 -0.049167
vt -10.575400 -0.049766
vt -10.586700 -0.049167
vt -10.588900 -0.049766
vt -10.593200 -0.049766
vt -10.595400 -0.049167
vt -10.604600 -0.049167
vt -10.593200 -0.049766
vt -10.604600 -0.049167
vt -10.606700 -0.049766
vt -10.557500 -0.049769
vt -10.559600 -0.049172
vt -10.571000 -0.049766
vt -10.501600 -0.049967
vt -10.503800 -0.049766
vt -10.517400 -0.049766
vt -10.501600 -0.049967
vt -10.517400 -0.049766
vt -10.519600 -0.049967
vt -10.519600 -0.049967
vt -10.521800 -0.049766
vt -10.535200 -0.049766
vt -10.519600 -0.049967
vt -10.535200 -0.049766
vt -10.537400 -0.049967
vt -10.537400 -0.049967
vt -10.539600 -0.049766
vt -10.553100 -0.049762
vt -10.537400 -0.049967
vt -10.553100 -0.049762
vt -10.555300 -0.049967
vt -10.555300 -0.049967
vt -10.557500 -0.049769
vt -10.571000 -0.049766
vt -10.555300 -0.049967
vt -10.571000 -0.049766
vt -10.573200 -0.049967
vt -10.573200 -0.049967
vt -10.575400 -0.049766
vt -10.588900 -0.049766
vt -10.573200 -0.049967
vt -10.588900 -0.049766
vt -10.591000 -0.049967
vt -10.591000 -0.049967
vt -10.593200 -0.049766
vt -10.606700 -0.049766
vt -10.591000 -0.049967
vt -10.606700 -0.049766
vt -10.608900 -0.049967
vt -10.501600 -0.049967
vt -10.608900 -0.049967
vt -10.510600 -0.051450
vt -10.499400 -0.049766
vt -10.501600 -0.049967
vt -10.510600 -0.051450
vt -10.528500 -0.051450
vt -10.510600 -0.051450
vt -10.608900 -0.049967
vt -10.546300 -0.051450
vt -10.528500 -0.051450
vt -10.608900 -0.049967
vt -10.564200 -0.051450
vt -10.546300 -0.051450
vt -10.608900 -0.049967
vt -10.582100 -0.051450
vt -10.564200 -0.051450
vt -10.608900 -0.049967
vt -10.600000 -0.051450
vt -10.582100 -0.051450
vt -10.608900 -0.049967
vt -10.600000 -0.051450
vt -10.608900 -0.049967
vt -10.611100 -0.049766
vt -10.499400 -0.049766
vt -10.510600 -0.051450
vt -10.499800 -0.052386
vt -10.497300 -0.049167
vt -10.499400 -0.049766
vt -10.499800 -0.052386
vt -10.492700 -0.047475
vt -10.497300 -0.049167
vt -10.499800 -0.052386
vt -10.610700 -0.052386
vt -10.600000 -0.051450
vt -10.611100 -0.049766
vt -10.610700 -0.052386
vt -10.611100 -0.049766
vt -10.613200 -0.049167
vt -10.610700 -0.052386
vt -10.613200 -0.049167
vt -10.617800 -0.047475
vt -10.492700 -0.047475
vt -10.499800 -0.052386
vt -10.499300 -0.052603
vt -10.500400 -0.052603
vt -10.499800 -0.052386
vt -10.510600 -0.051450
vt -10.600000 -0.051450
vt -10.610700 -0.052386
vt -10.610200 -0.052603
vt -10.611200 -0.052603
vt -10.610700 -0.052386
vt -10.617800 -0.047475
vt -10.492700 -0.053125
vt -10.492700 -0.047475
vt -10.499300 -0.052603
vt -10.492700 -0.053125
vt -10.499300 -0.052603
vt -10.499100 -0.053125
vt -10.500600 -0.053125
vt -10.500400 -0.052603
vt -10.506900 -0.053125
vt -10.506900 -0.053125
vt -10.500400 -0.052603
vt -10.510600 -0.051450
vt -10.514300 -0.053125
vt -10.510600 -0.051450
vt -10.528500 -0.051450
vt -10.514300 -0.053125
vt -10.528500 -0.051450
vt -10.524900 -0.053125
vt -10.532200 -0.053125
vt -10.528500 -0.051450
vt -10.546300 -0.051450
vt -10.532200 -0.053125
vt -10.546300 -0.051450
vt -10.542700 -0.053125
vt -10.550000 -0.053125
vt -10.546300 -0.051450
vt -10.564200 -0.051450
vt -10.550000 -0.053125
vt -10.564200 -0.051450
vt -10.560600 -0.053125
vt -10.567900 -0.053125
vt -10.564200 -0.051450
vt -10.582100 -0.051450
vt -10.567900 -0.053125
vt -10.582100 -0.051450
vt -10.578500 -0.053125
vt -10.585800 -0.053125
vt -10.582100 -0.051450
vt -10.600000 -0.051450
vt -10.585800 -0.053125
vt -10.600000 -0.051450
vt -10.596300 -0.053125
vt -10.603600 -0.053125
vt -10.600000 -0.051450
vt -10.610200 -0.052603
vt -10.603600 -0.053125
vt -10.610200 -0.052603
vt -10.610000 -0.053125
vt -10.611400 -0.053125
vt -10.611200 -0.052603
vt -10.617800 -0.053125
vt -10.617800 -0.053125
vt -10.611200 -0.052603
vt -10.617800 -0.047475
vt -10.549000 -0.048189
vt -10.547300 -0.046875
vt -10.546300 -0.047475
vt -10.617800 -0.047475
vt -10.617000 -0.046875
vt -10.615200 -0.048193
vt -10.602600 -0.048193
vt -10.600900 -0.046875
vt -10.600000 -0.047475
vt -10.600000 -0.047475
vt -10.599100 -0.046875
vt -10.597300 -0.048193
vt -10.602600 -0.048193
vt -10.600000 -0.047475
vt -10.597300 -0.048193
vt -10.584800 -0.048193
vt -10.583000 -0.046875
vt -10.582100 -0.047475
vt -10.582100 -0.047475
vt -10.581200 -0.046875
vt -10.579500 -0.048193
vt -10.584800 -0.048193
vt -10.582100 -0.047475
vt -10.579500 -0.048193
vt -10.566900 -0.048193
vt -10.565100 -0.046875
vt -10.564200 -0.047475
vt -10.546300 -0.047475
vt -10.545500 -0.046875
vt -10.543700 -0.048193
vt -10.549000 -0.048189
vt -10.546300 -0.047475
vt -10.543700 -0.048193
vt -10.531200 -0.048193
vt -10.529400 -0.046875
vt -10.528500 -0.047475
vt -10.528500 -0.047475
vt -10.527600 -0.046875
vt -10.525800 -0.048193
vt -10.531200 -0.048193
vt -10.528500 -0.047475
vt -10.525800 -0.048193
vt -10.513300 -0.048193
vt -10.511500 -0.046875
vt -10.510600 -0.047475
vt -10.510600 -0.047475
vt -10.509700 -0.046875
vt -10.507900 -0.048193
vt -10.513300 -0.048193
vt -10.510600 -0.047475
vt -10.507900 -0.048193
vt -10.495400 -0.048193
vt -10.493600 -0.046875
vt -10.492700 -0.047475
vt -10.564200 -0.047475
vt -10.563300 -0.046875
vt -10.561600 -0.048197
vt -10.566900 -0.048193
vt -10.564200 -0.047475
vt -10.561600 -0.048197
vt -10.551000 -0.049162
vt -10.549000 -0.048189
vt -10.543700 -0.048193
vt -10.617800 -0.047475
vt -10.615200 -0.048193
vt -10.613200 -0.049167
vt -10.604600 -0.049167
vt -10.602600 -0.048193
vt -10.597300 -0.048193
vt -10.604600 -0.049167
vt -10.597300 -0.048193
vt -10.595400 -0.049167
vt -10.586700 -0.049167
vt -10.584800 -0.048193
vt -10.579500 -0.048193
vt -10.586700 -0.049167
vt -10.579500 -0.048193
vt -10.577500 -0.049167
vt -10.568900 -0.049167
vt -10.566900 -0.048193
vt -10.561600 -0.048197
vt -10.551000 -0.049162
vt -10.543700 -0.048193
vt -10.541700 -0.049167
vt -10.533100 -0.049167
vt -10.531200 -0.048193
vt -10.525800 -0.048193
vt -10.533100 -0.049167
vt -10.525800 -0.048193
vt -10.523900 -0.049167
vt -10.515300 -0.049167
vt -10.513300 -0.048193
vt -10.507900 -0.048193
vt -10.515300 -0.049167
vt -10.507900 -0.048193
vt -10.505900 -0.049167
vt -10.497300 -0.049167
vt -10.495400 -0.048193
vt -10.492700 -0.047475
vt -10.568900 -0.049167
vt -10.561600 -0.048197
vt -10.559600 -0.049172
vt -10.553100 -0.049762
vt -10.551000 -0.049162
vt -10.541700 -0.049167
vt -10.606700 -0.049766
vt -10.604600 -0.049167
vt -10.595400 -0.049167
vt -10.606700 -0.049766
vt -10.595400 -0.049167
vt -10.593200 -0.049766
vt -10.588900 -0.049766
vt -10.586700 -0.049167
vt -10.577500 -0.049167
vt -10.588900 -0.049766
vt -10.577500 -0.049167
vt -10.575400 -0.049766
vt -10.571000 -0.049766
vt -10.568900 -0.049167
vt -10.559600 -0.049172
vt -10.553100 -0.049762
vt -10.541700 -0.049167
vt -10.539600 -0.049766
vt -10.535200 -0.049766
vt -10.533100 -0.049167
vt -10.523900 -0.049167
vt -10.535200 -0.049766
vt -10.523900 -0.049167
vt -10.521800 -0.049766
vt -10.517400 -0.049766
vt -10.515300 -0.049167
vt -10.505900 -0.049167
vt -10.517400 -0.049766
vt -10.505900 -0.049167
vt -10.503800 -0.049766
vt -10.571000 -0.049766
vt -10.559600 -0.049172
vt -10.557500 -0.049769
vt -10.608900 -0.049967
vt -10.606700 -0.049766
vt -10.593200 -0.049766
vt -10.608900 -0.049967
vt -10.593200 -0.049766
vt -10.591000 -0.049967
vt -10.591000 -0.049967
vt -10.588900 -0.049766
vt -10.575400 -0.049766
vt -10.591000 -0.049967
vt -10.575400 -0.049766
vt -10.573200 -0.049967
vt -10.573200 -0.049967
vt -10.571000 -0.049766
vt -10.557500 -0.049769
vt -10.573200 -0.049967
vt -10.557500 -0.049769
vt -10.555300 -0.049967
vt -10.555300 -0.049967
vt -10.553100 -0.049762
vt -10.539600 -0.049766
vt -10.555300 -0.049967
vt -10.539600 -0.049766
vt -10.537400 -0.049967
vt -10.537400 -0.049967
vt -10.535200 -0.049766
vt -10.521800 -0.049766
vt -10.537400 -0.049967
vt -10.521800 -0.049766
vt -10.519600 -0.049967
vt -10.519600 -0.049967
vt -10.517400 -0.049766
vt -10.503800 -0.049766
vt -10.519600 -0.049967
vt -10.503800 -0.049766
vt -10.501600 -0.049967
vt -10.608900 -0.049967
vt -10.501600 -0.049967
vt -10.600000 -0.051450
vt -10.611100 -0.049766
vt -10.608900 -0.049967
vt -10.600000 -0.051450
vt -10.582100 -0.051450
vt -10.600000 -0.051450
vt -10.501600 -0.049967
vt -10.564200 -0.051450
vt -10.582100 -0.051450
vt -10.501600 -0.049967
vt -10.546300 -0.051450
vt -10.564200 -0.051450
vt -10.501600 -0.049967
vt -10.528500 -0.051450
vt -10.546300 -0.051450
vt -10.501600 -0.049967
vt -10.510600 -0.051450
vt -10.528500 -0.051450
vt -10.501600 -0.049967
vt -10.510600 -0.051450
vt -10.501600 -0.049967
vt -10.499400 -0.049766
vt -10.611100 -0.049766
vt -10.600000 -0.051450
vt -10.610700 -0.052386
vt -10.613200 -0.049167
vt -10.611100 -0.049766
vt -10.610700 -0.052386
vt -10.617800 -0.047475
vt -10.613200 -0.049167
vt -10.610700 -0.052386
vt -10.499800 -0.052386
vt -10.510600 -0.051450
vt -10.499400 -0.049766
vt -10.499800 -0.052386
vt -10.499400 -0.049766
vt -10.497300 -0.049167
vt -10.499800 -0.052386
vt -10.497300 -0.049167
vt -10.492700 -0.047475
vt -10.617800 -0.047475
vt -10.610700 -0.052386
vt -10.611200 -0.052603
vt -10.610200 -0.052603
vt -10.610700 -0.052386
vt -10.600000 -0.051450
vt -10.510600 -0.051450
vt -10.499800 -0.052386
vt -10.500400 -0.052603
vt -10.499300 -0.052603
vt -10.499800 -0.052386
vt -10.492700 -0.047475
vt -10.617800 -0.053125
vt -10.617800 -0.047475
vt -10.611200 -0.052603
vt -10.617800 -0.053125
vt -10.611200 -0.052603
vt -10.611400 -0.053125
vt -10.610000 -0.053125
vt -10.610200 -0.052603
vt -10.603600 -0.053125
vt -10.603600 -0.053125
vt -10.610200 -0.052603
vt -10.600000 -0.051450
vt -10.596300 -0.053125
vt -10.600000 -0.051450
vt -10.582100 -0.051450
vt -10.596300 -0.053125
vt -10.582100 -0.051450
vt -10.585800 -0.053125
vt -10.578500 -0.053125
vt -10.582100 -0.051450
vt -10.564200 -0.051450
vt -10.578500 -0.053125
vt -10.564200 -0.051450
vt -10.567900 -0.053125
vt -10.560600 -0.053125
vt -10.564200 -0.051450
vt -10.546300 -0.051450
vt -10.560600 -0.053125
vt -10.546300 -0.051450
vt -10.550000 -0.053125
vt -10.542700 -0.053125
vt -10.546300 -0.051450
vt -10.528500 -0.051450
vt -10.542700 -0.053125
vt -10.528500 -0.051450
vt -10.532200 -0.053125
vt -10.524900 -0.053125
vt -10.528500 -0.051450
vt -10.510600 -0.051450
vt -10.524900 -0.053125
vt -10.510600 -0.051450
vt -10.514300 -0.053125
vt -10.506900 -0.053125
vt -10.510600 -0.051450
vt -10.500400 -0.052603
vt -10.506900 -0.053125
vt -10.500400 -0.052603
vt -10.500600 -0.053125
vt -10.499100 -0.053125
vt -10.499300 -0.052603
vt -10.492700 -0.053125
vt -10.492700 -0.053125
vt -10.499300 -0.052603
vt -10.492700 -0.047475
vt 10.273500 -0.047475
vt 11.273500 -0.047475
vt 11.273500 -0.053125
vt 10.273500 -0.053125
vt 10.273500 -10.617800
vt 11.273500 -10.617800
vt 11.273500 -10.611400
vt 10.273500 -10.611400
vt 10.273500 -10.611200
vt 11.273500 -10.611200
vt 11.273500 -10.610700
vt 10.273500 -10.610700
vt 10.273500 -10.610700
vt 11.273500 -10.610700
vt 11.273500 -10.610200
vt 10.273500 -10.610200
vt 10.273500 -0.052603
vt 11.273500 -0.052603
vt 11.273500 -0.053125
vt 10.273500 -0.053125
vt 10.273500 -0.053125
vt 11.273500 -0.053125
vt 11.273500 -0.052603
vt 10.273500 -0.052603
vt 10.273500 -10.500400
vt 11.273500 -10.500400
vt 11.273500 -10.499800
vt 10.273500 -10.499800
vt 10.273500 -10.499800
vt 11.273500 -10.499800
vt 11.273500 -10.499300
vt 10.273500 -10.499300
vt 10.273500 -0.052603
vt 11.273500 -0.052603
vt 11.273500 -0.053125
vt 10.273500 -0.053125
vt 10.273500 -10.493600
vt 11.273500 -10.493600
vt 11.273500 -10.495400
vt 10.273500 -10.495400
vt 10.273500 -10.495400
vt 11.273500 -10.495400
vt 11.273500 -10.497300
vt 10.273500 -10.497300
vt 10.273500 -10.497300
vt 11.273500 -10.497300
vt 11.273500 -10.499400
vt 10.273500 -10.499400
vt 10.273500 -10.499400
vt 11.273500 -10.499400
vt 11.273500 -10.501600
vt 10.273500 -10.501600
vt 10.273500 -10.501600
vt 11.273500 -10.501600
vt 11.273500 -10.503800
vt 10.273500 -10.503800
vt 10.273500 -10.503800
vt 11.273500 -10.503800
vt 11.273500 -10.505900
vt 10.273500 -10.505900
vt 10.273500 -10.505900
vt 11.273500 -10.505900
vt 11.273500 -10.507900
vt 10.273500 -10.507900
vt 10.273500 -10.507900
vt 11.273500 -10.507900
vt 11.273500 -10.509700
vt 10.273500 -10.509700
vt 10.273500 -10.511500
vt 11.273500 -10.511500
vt 11.273500 -10.513300
vt 10.273500 -10.513300
vt 10.273500 -10.513300
vt 11.273500 -10.513300
vt 11.273500 -10.515300
vt 10.273500 -10.515300
vt 10.273500 -10.515300
vt 11.273500 -10.515300
vt 11.273500 -10.517400
vt 10.273500 -10.517400
vt 10.273500 -10.517400
vt 11.273500 -10.517400
vt 11.273500 -10.519600
vt 10.273500 -10.519600
vt 10.273500 -10.519600
vt 11.273500 -10.519600
vt 11.273500 -10.521800
vt 10.273500 -10.521800
vt 10.273500 -10.521800
vt 11.273500 -10.521800
vt 11.273500 -10.523900
vt 10.273500 -10.523900
vt 10.273500 -10.523900
vt 11.273500 -10.523900
vt 11.273500 -10.525800
vt 10.273500 -10.525800
vt 10.273500 -10.525800
vt 11.273500 -10.525800
vt 11.273500 -10.527600
vt 10.273500 -10.527600
vt 10.273500 -10.529400
vt 11.273500 -10.529400
vt 11.273500 -10.531200
vt 10.273500 -10.531200
vt 10.273500 -10.531200
vt 11.273500 -10.531200
vt 11.273500 -10.533100
vt 10.273500 -10.533100
vt 10.273500 -10.533100
vt 11.273500 -10.533100
vt 11.273500 -10.535200
vt 10.273500 -10.535200
vt 10.273500 -10.535200
vt 11.273500 -10.535200
vt 11.273500 -10.537400
vt 10.273500 -10.537400
vt 10.273500 -10.537400
vt 11.273500 -10.537400
vt 11.273500 -10.539600
vt 10.273500 -10.539600
vt 10.273500 -10.539600
vt 11.273500 -10.539600
vt 11.273500 -10.541700
vt 10.273500 -10.541700
vt 10.273500 -10.541700
vt 11.273500 -10.541700
vt 11.273500 -10.543700
vt 10.273500 -10.543700
vt 10.273500 -10.543700
vt 11.273500 -10.543700
vt 11.273500 -10.545500
vt 10.273500 -10.545500
vt 10.273500 -10.547300
vt 11.273500 -10.547300
vt 11.273500 -10.549000
vt 10.273500 -10.549000
vt 10.273500 -10.549000
vt 11.273500 -10.549000
vt 11.273500 -10.551000
vt 10.273500 -10.551000
vt 10.273500 -10.551000
vt 11.273500 -10.551000
vt 11.273500 -10.553100
vt 10.273500 -10.553100
vt 10.273500 -10.553100
vt 11.273500 -10.553100
vt 11.273500 -10.555300
vt 10.273500 -10.555300
vt 10.273500 -10.555300
vt 11.273500 -10.555300
vt 11.273500 -10.557500
vt 10.273500 -10.557500
vt 10.273500 -10.557500
vt 11.273500 -10.557500
vt 11.273500 -10.559600
vt 10.273500 -10.559600
vt 10.273500 -10.559600
vt 11.273500 -10.559600
vt 11.273500 -10.561600
vt 10.273500 -10.561600
vt 10.273500 -10.561600
vt 11.273500 -10.561600
vt 11.273500 -10.563300
vt 10.273500 -10.563300
vt 10.273500 -10.565100
vt 11.273500 -10.565100
vt 11.273500 -10.566900
vt 10.273500 -10.566900
vt 10.273500 -10.566900
vt 11.273500 -10.566900
vt 11.273500 -10.568900
vt 10.273500 -10.568900
vt 10.273500 -10.568900
vt 11.273500 -10.568900
vt 11.273500 -10.571000
vt 10.273500 -10.571000
vt 10.273500 -10.571000
vt 11.273500 -10.571000
vt 11.273500 -10.573200
vt 10.273500 -10.573200
vt 10.273500 -10.573200
vt 11.273500 -10.573200
vt 11.273500 -10.575400
vt 10.273500 -10.575400
vt 10.273500 -10.575400
vt 11.273500 -10.575400
vt 11.273500 -10.577500
vt 10.273500 -10.577500
vt 10.273500 -10.577500
vt 11.273500 -10.577500
vt 11.273500 -10.579500
vt 10.273500 -10.579500
vt 10.273500 -10.579500
vt 11.273500 -10.579500
vt 11.273500 -10.581200
vt 10.273500 -10.581200
vt 10.273500 -10.583000
vt 11.273500 -10.583000
vt 11.273500 -10.584800
vt 10.273500 -10.584800
vt 10.273500 -10.584800
vt 11.273500 -10.584800
vt 11.273500 -10.586700
vt 10.273500 -10.586700
vt 10.273500 -10.586700
vt 11.273500 -10.586700
vt 11.273500 -10.588900
vt 10.273500 -10.588900
vt 10.273500 -10.588900
vt 11.273500 -10.588900
vt 11.273500 -10.591000
vt 10.273500 -10.591000
vt 10.273500 -10.591000
vt 11.273500 -10.591000
vt 11.273500 -10.593200
vt 10.273500 -10.593200
vt 10.273500 -10.593200
vt 11.273500 -10.593200
vt 11.273500 -10.595400
vt 10.273500 -10.595400
vt 10.273500 -10.595400
vt 11.273500 -10.595400
vt 11.273500 -10.597300
vt 10.273500 -10.597300
vt 10.273500 -10.597300
vt 11.273500 -10.597300
vt 11.273500 -10.599100
vt 10.273500 -10.599100
vt 10.273500 -10.600900
vt 11.273500 -10.600900
vt 11.273500 -10.602600
vt 10.273500 -10.602600
vt 10.273500 -10.602600
vt 11.273500 -10.602600
vt 11.273500 -10.604600
vt 10.273500 -10.604600
vt 10.273500 -10.604600
vt 11.273500 -10.604600
vt 11.273500 -10.606700
vt 10.273500 -10.606700
vt 10.273500 -10.606700
vt 11.273500 -10.606700
vt 11.273500 -10.608900
vt 10.273500 -10.608900
vt 10.273500 -10.608900
vt 11.273500 -10.608900
vt 11.273500 -10.611100
vt 10.273500 -10.611100
vt 10.273500 -10.611100
vt 11.273500 -10.611100
vt 11.273500 -10.613200
vt 10.273500 -10.613200
vt 10.273500 -10.613200
vt 11.273500 -10.613200
vt 11.273500 -10.615200
vt 10.273500 -10.615200
vt 10.273500 -10.615200
vt 11.273500 -10.615200
vt 11.273500 -10.617000
vt 10.273500 -10.617000
vt 10.273500 -0.053125
vt 11.273500 -0.053125
vt 11.273500 -0.052603
vt 10.273500 -0.052603
g obj0
#Face Count: 289
f 1/1 2/2 3/3 4/4
f 4/5 3/6 7/7 8/8
f 8/9 7/10 11/11 12/12
f 12/13 11/14 15/15 16/16
f 16/17 15/18 19/19 20/20
f 20/21 19/22 23/23 24/24
f 24/25 23/26 27/27 28/28
f 28/29 27/30 31/31 32/32
f 32/33 31/34 35/35 36/36
f 36/37 35/38 39/39 40/40
f 40/41 39/42 43/43 44/44
f 44/45 43/46 47/47 48/48
f 48/49 47/50 51/51 52/52
f 52/53 51/54 55/55 56/56
f 56/57 55/58 59/59 60/60
f 60/61 59/62 63/63 64/64
f 64/65 63/66 67/67 68/68
f 68/69 67/70 71/71 72/72
f 72/73 71/74 75/75 76/76
f 77/77 78/78 79/79 80/80
f 80/81 79/82 83/83 84/84
f 84/85 83/86 87/87 88/88
f 89/89 90/90 91/91 92/92
f 92/93 91/94 95/95 96/96
f 97/97 98/98 99/99 100/100
f 100/101 99/102 103/103 104/104
f 105/105 106/106 107/107 108/108
f 108/109 107/110 111/111 112/112
f 113/113 114/114 115/115 116/116
f 116/117 115/118 119/119 120/120
f 121/121 122/122 123/123 124/124
f 124/125 123/126 127/127 128/128
f 129/129 130/130 131/131 132/132
f 132/133 131/134 135/135 136/136
f 137/137 138/138 139/139 140/140
f 108/141 112/142 204/143
f 84/144 88/145 174/146
f 180/147 89/148 92/149
f 92/150 96/151 184/152
f 180/153 92/154 184/155
f 190/156 97/157 100/158
f 100/159 104/160 194/161
f 190/162 100/163 194/164
f 200/165 105/166 108/167
f 200/168 108/169 204/170
f 116/171 120/172 214/173
f 220/174 121/175 124/176
f 124/177 128/178 224/179
f 220/180 124/181 224/182
f 230/183 129/184 132/185
f 132/186 136/187 234/188
f 230/189 132/190 234/191
f 240/192 137/193 140/194
f 210/195 113/196 116/197
f 210/198 116/199 214/200
f 200/201 204/202 205/203
f 84/204 174/205 175/206
f 179/207 180/208 184/209
f 179/210 184/211 185/212
f 189/213 190/214 194/215
f 189/216 194/217 195/218
f 199/219 200/220 205/221
f 210/222 214/223 215/224
f 219/225 220/226 224/227
f 219/228 224/229 225/230
f 229/231 230/232 234/233
f 229/234 234/235 235/236
f 239/237 240/238 140/239
f 209/240 210/241 215/242
f 199/243 205/244 206/245
f 178/246 179/247 185/248
f 178/249 185/250 186/251
f 188/252 189/253 195/254
f 188/255 195/256 196/257
f 198/258 199/259 206/260
f 209/261 215/262 216/263
f 218/264 219/265 225/266
f 218/267 225/268 226/269
f 228/270 229/271 235/272
f 228/273 235/274 236/275
f 208/276 209/277 216/278
f 177/279 178/280 186/281
f 177/282 186/283 187/284
f 187/285 188/286 196/287
f 187/288 196/289 197/290
f 197/291 198/292 206/293
f 197/294 206/295 207/296
f 207/297 208/298 216/299
f 207/300 216/301 217/302
f 217/303 218/304 226/305
f 217/306 226/307 227/308
f 227/309 228/310 236/311
f 227/312 236/313 237/314
f 177/315 237/316 68/317
f 176/318 177/319 68/320
f 56/321 68/322 237/323
f 44/324 56/325 237/326
f 32/327 44/328 237/329
f 20/330 32/331 237/332
f 8/333 20/334 237/335
f 8/336 237/337 238/338
f 176/339 68/340 168/341
f 175/342 176/343 168/344
f 84/345 175/346 168/347
f 145/348 8/349 238/350
f 145/351 238/352 239/353
f 145/354 239/355 140/356
f 84/357 168/358 169/359
f 167/360 168/361 68/362
f 8/363 145/364 146/365
f 144/366 145/367 140/368
f 80/369 84/370 169/371
f 80/372 169/373 77/374
f 76/375 167/376 72/377
f 72/378 167/379 68/380
f 64/381 68/382 56/383
f 64/384 56/385 60/386
f 52/387 56/388 44/389
f 52/390 44/391 48/392
f 40/393 44/394 32/395
f 40/396 32/397 36/398
f 28/399 32/400 20/401
f 28/402 20/403 24/404
f 16/405 20/406 8/407
f 16/408 8/409 12/410
f 4/411 8/412 146/413
f 4/414 146/415 1/416
f 143/417 144/418 142/419
f 142/420 144/421 140/422
f 282/423 111/424 107/425
f 139/426 138/427 246/428
f 252/429 135/430 131/431
f 131/432 130/433 256/434
f 252/435 131/436 256/437
f 262/438 127/439 123/440
f 123/441 122/442 266/443
f 262/444 123/445 266/446
f 272/447 119/448 115/449
f 107/450 106/451 286/452
f 282/453 107/454 286/455
f 292/456 103/457 99/458
f 99/459 98/460 296/461
f 292/462 99/463 296/464
f 302/465 95/466 91/467
f 91/468 90/469 306/470
f 302/471 91/472 306/473
f 312/474 87/475 83/476
f 115/477 114/478 276/479
f 272/480 115/481 276/482
f 281/483 282/484 286/485
f 139/486 246/487 247/488
f 251/489 252/490 256/491
f 251/492 256/493 257/494
f 261/495 262/496 266/497
f 261/498 266/499 267/500
f 271/501 272/502 276/503
f 281/504 286/505 287/506
f 291/507 292/508 296/509
f 291/510 296/511 297/512
f 301/513 302/514 306/515
f 301/516 306/517 307/518
f 311/519 312/520 83/521
f 271/522 276/523 277/524
f 280/525 281/526 287/527
f 250/528 251/529 257/530
f 250/531 257/532 258/533
f 260/534 261/535 267/536
f 260/537 267/538 268/539
f 270/540 271/541 277/542
f 280/543 287/544 288/545
f 290/546 291/547 297/548
f 290/549 297/550 298/551
f 300/552 301/553 307/554
f 300/555 307/556 308/557
f 270/558 277/559 278/560
f 249/561 250/562 258/563
f 249/564 258/565 259/566
f 259/567 260/568 268/569
f 259/570 268/571 269/572
f 269/573 270/574 278/575
f 269/576 278/577 279/578
f 279/579 280/580 288/581
f 279/582 288/583 289/584
f 289/585 290/586 298/587
f 289/588 298/589 299/590
f 299/591 300/592 308/593
f 299/594 308/595 309/596
f 249/597 309/598 7/599
f 248/600 249/601 7/602
f 19/603 7/604 309/605
f 31/606 19/607 309/608
f 43/609 31/610 309/611
f 55/612 43/613 309/614
f 67/615 55/616 309/617
f 67/618 309/619 310/620
f 248/621 7/622 341/623
f 247/624 248/625 341/626
f 139/627 247/628 341/629
f 318/630 67/631 310/632
f 318/633 310/634 311/635
f 318/636 311/637 83/638
f 139/639 341/640 342/641
f 340/642 341/643 7/644
f 67/645 318/646 319/647
f 317/648 318/649 83/650
f 243/651 139/652 342/653
f 243/654 342/655 242/656
f 2/657 340/658 3/659
f 3/660 340/661 7/662
f 11/663 7/664 19/665
f 11/666 19/667 15/668
f 23/669 19/670 31/671
f 23/672 31/673 27/674
f 35/675 31/676 43/677
f 35/678 43/679 39/680
f 47/681 43/682 55/683
f 47/684 55/685 51/686
f 59/687 55/688 67/689
f 59/690 67/691 63/692
f 71/693 67/694 319/695
f 71/696 319/697 75/698
f 78/699 317/700 79/701
f 79/702 317/703 83/704
f 140/705 139/706 243/707 142/708
f 142/709 243/710 242/711 143/712
f 351/713 352/714 353/715 354/716
f 354/717 353/718 357/719 358/720
f 358/721 357/722 361/723 362/724
f 363/725 364/726 365/727 366/728
f 366/729 365/730 369/731 370/732
f 370/733 369/734 373/735 374/736
f 374/737 373/738 377/739 378/740
f 379/741 380/742 381/743 382/744
f 382/745 381/746 385/747 386/748
f 386/749 385/750 389/751 390/752
f 390/753 389/754 393/755 394/756
f 394/757 393/758 397/759 398/760
f 398/761 397/762 401/763 402/764
f 402/765 401/766 405/767 406/768
f 406/769 405/770 409/771 410/772
f 411/773 412/774 413/775 414/776
f 414/777 413/778 417/779 418/780
f 418/781 417/782 421/783 422/784
f 422/785 421/786 425/787 426/788
f 426/789 425/790 429/791 430/792
f 430/793 429/794 433/795 434/796
f 434/797 433/798 437/799 438/800
f 438/801 437/802 441/803 442/804
f 443/805 444/806 445/807 446/808
f 446/809 445/810 449/811 450/812
f 450/813 449/814 453/815 454/816
f 454/817 453/818 457/819 458/820
f 458/821 457/822 461/823 462/824
f 462/825 461/826 465/827 466/828
f 466/829 465/830 469/831 470/832
f 470/833 469/834 473/835 474/836
f 475/837 476/838 477/839 478/840
f 478/841 477/842 481/843 482/844
f 482/845 481/846 485/847 486/848
f 486/849 485/850 489/851 490/852
f 490/853 489/854 493/855 494/856
f 494/857 493/858 497/859 498/860
f 498/861 497/862 501/863 502/864
f 502/865 501/866 505/867 506/868
f 507/869 508/870 509/871 510/872
f 510/873 509/874 513/875 514/876
f 514/877 513/878 517/879 518/880
f 518/881 517/882 521/883 522/884
f 522/885 521/886 525/887 526/888
f 526/889 525/890 529/891 530/892
f 530/893 529/894 533/895 534/896
f 534/897 533/898 537/899 538/900
f 539/901 540/902 541/903 542/904
f 542/905 541/906 545/907 546/908
f 546/909 545/910 549/911 550/912
f 550/913 549/914 553/915 554/916
f 554/917 553/918 557/919 558/920
f 558/921 557/922 561/923 562/924
f 562/925 561/926 565/927 566/928
f 566/929 565/930 569/931 570/932
f 571/933 572/934 573/935 574/936
f 574/937 573/938 577/939 578/940
f 578/941 577/942 581/943 582/944
f 582/945 581/946 585/947 586/948
f 586/949 585/950 589/951 590/952
f 590/953 589/954 593/955 594/956
f 594/957 593/958 597/959 598/960
f 598/961 597/962 601/963 602/964
f 603/965 604/966 352/967 351/968
