# 3ds Max Wavefront OBJ Exporter v0.99 - (c)2007 guruware
# File Created: 05.02.2026 15:33:39

mtllib KH921.mtl

#
# object ??_921___5_5_??_
#

v  20.1818 0.0000 -0.0000
v  13.8150 2000.0000 -0.0000
v  13.8150 0.0000 -0.0000
v  13.8150 2000.0000 -4.2500
v  13.8150 0.0000 -4.2500
v  20.6609 0.0000 -0.5769
v  13.9384 0.0000 -4.2602
v  14.0585 0.0000 -4.2906
v  20.2659 0.0000 -0.0097
v  20.1818 2000.0000 -0.0000
v  13.9384 2000.0000 -4.2602
v  20.6609 2000.0000 -0.5769
v  14.1719 2000.0000 -4.3404
v  14.0585 2000.0000 -4.2906
v  20.2659 2000.0000 -0.0097
v  20.3472 0.0000 -0.0334
v  20.3472 2000.0000 -0.0334
v  20.4233 0.0000 -0.0706
v  20.6668 0.0000 -0.4924
v  20.6584 0.0000 -0.4081
v  20.6359 0.0000 -0.3265
v  20.5999 0.0000 -0.2498
v  20.4233 2000.0000 -0.0706
v  20.6668 2000.0000 -0.4924
v  20.6584 2000.0000 -0.4081
v  20.5999 2000.0001 -0.2498
v  20.6359 2000.0000 -0.3265
v  20.4921 0.0000 -0.1200
v  20.4921 2000.0000 -0.1200
v  20.5515 0.0000 -0.1803
v  20.5515 2000.0000 -0.1803
v  22.7137 0.0000 -13.8842
v  22.7137 2000.0001 -13.8842
v  15.9665 0.0000 -10.0075
v  16.0505 0.0000 -10.0300
v  16.1293 0.0000 -10.0666
v  16.2005 0.0000 -10.1163
v  16.2621 0.0000 -10.1776
v  14.3668 0.0000 -4.4920
v  14.4428 0.0000 -4.5898
v  14.2756 0.0000 -4.4081
v  14.1719 0.0000 -4.3404
v  14.5018 0.0000 -4.6987
v  14.5420 0.0000 -4.8159
v  14.5624 0.0000 -4.9381
v  14.5624 0.0000 -5.0619
v  14.5420 0.0000 -5.1841
v  16.3122 0.0000 -10.2486
v  16.3492 0.0000 -10.3272
v  16.2621 2000.0000 -10.1776
v  16.2005 2000.0000 -10.1163
v  16.3122 2000.0000 -10.2486
v  16.1293 2000.0000 -10.0666
v  16.0505 2000.0000 -10.0300
v  15.9665 2000.0000 -10.0075
v  14.5018 2000.0000 -5.3013
v  14.5420 2000.0000 -5.1841
v  14.5624 2000.0000 -5.0619
v  14.5018 2000.0000 -4.6987
v  14.4428 2000.0000 -4.5898
v  14.3668 2000.0000 -4.4920
v  14.5624 2000.0000 -4.9381
v  14.5420 2000.0000 -4.8159
v  14.2756 2000.0000 -4.4081
v  16.3720 2000.0000 -10.4110
v  16.3492 2000.0000 -10.3272
v  14.5018 0.0000 -5.3013
v  14.4428 0.0000 -5.4102
v  14.4428 2000.0000 -5.4102
v  14.3668 0.0000 -5.5080
v  14.3668 2000.0000 -5.5080
v  14.2756 0.0000 -5.5919
v  14.2756 2000.0000 -5.5919
v  14.1719 0.0000 -5.6596
v  14.1719 2000.0000 -5.6596
v  14.0585 0.0000 -5.7094
v  15.8800 0.0000 -10.0000
v  14.0585 2000.0000 -5.7094
v  13.9384 0.0000 -5.7398
v  13.8150 0.0000 -10.0000
v  13.9384 2000.0000 -5.7398
v  15.8800 2000.0001 -10.0000
v  13.8150 0.0000 -5.7500
v  13.8150 2000.0000 -5.7500
v  13.8150 2000.0000 -10.0000
v  16.3720 0.0000 -10.4110
v  19.1671 2000.0000 -21.6684
v  19.1671 0.0000 -21.6684
v  26.8519 0.0000 -26.6972
v  26.8519 2000.0000 -26.6972
v  23.3853 2000.0000 -32.4734
v  23.3853 0.0000 -32.4734
v  32.9706 0.0000 -38.6914
v  32.9706 2000.0000 -38.6914
v  28.9568 2000.0001 -42.6469
v  28.9568 0.0000 -42.6469
v  15.5263 0.0000 -37.4148
v  13.8150 2000.0000 -37.4148
v  13.8150 0.0000 -37.4148
v  13.8150 2000.0000 -41.6648
v  13.8150 0.0000 -41.6648
v  15.6008 0.0000 -37.4204
v  15.5263 2000.0001 -37.4148
v  13.9384 0.0000 -41.6750
v  13.9384 2000.0000 -41.6750
v  15.6008 2000.0000 -37.4204
v  14.0585 2000.0000 -41.7054
v  14.1719 2000.0000 -41.7552
v  15.6737 0.0000 -37.4370
v  15.6737 2000.0000 -37.4370
v  15.7432 0.0000 -37.4643
v  15.7432 2000.0000 -37.4643
v  15.8079 0.0000 -37.5017
v  15.8079 2000.0000 -37.5017
v  15.8664 0.0000 -37.5483
v  15.8664 2000.0000 -37.5483
v  15.9172 0.0000 -37.6031
v  15.9172 2000.0000 -37.6031
v  15.9593 0.0000 -37.6648
v  15.9593 2000.0000 -37.6648
v  19.1347 0.0000 -43.1648
v  14.0585 0.0000 -41.7054
v  14.1719 0.0000 -41.7552
v  14.2756 2000.0000 -41.8229
v  19.1347 2000.0000 -43.1648
v  40.9148 0.0000 -49.5629
v  40.9148 2000.0001 -49.5629
v  29.0207 0.0000 -42.7975
v  28.9950 0.0000 -42.7196
v  29.0333 2000.0000 -42.8786
v  29.0207 2000.0000 -42.7975
v  28.9950 2000.0000 -42.7196
v  14.2756 0.0000 -41.8229
v  19.2276 0.0000 -43.2813
v  19.1768 0.0000 -43.2265
v  19.3508 0.0000 -43.3653
v  19.2861 0.0000 -43.3279
v  14.3668 0.0000 -41.9068
v  19.4204 0.0000 -43.3926
v  14.3668 2000.0000 -41.9068
v  14.4428 0.0000 -42.0046
v  14.4428 2000.0000 -42.0046
v  14.5018 0.0000 -42.1135
v  14.5018 2000.0000 -42.1135
v  14.5420 0.0000 -42.2307
v  14.5420 2000.0000 -42.2307
v  14.5624 0.0000 -42.3529
v  14.5624 2000.0000 -42.3529
v  14.5624 0.0000 -42.4767
v  19.4932 0.0000 -43.4092
v  14.5624 2000.0000 -42.4767
v  14.5420 0.0000 -42.5989
v  14.5420 2000.0001 -42.5989
v  14.5018 0.0000 -42.7161
v  31.9470 0.0000 -47.4148
v  32.0249 0.0000 -47.4209
v  32.1009 0.0000 -47.4391
v  14.5018 2000.0000 -42.7161
v  32.1009 2000.0000 -47.4391
v  19.1768 2000.0000 -43.2265
v  19.2276 2000.0000 -43.2813
v  19.2861 2000.0000 -43.3279
v  19.3508 2000.0000 -43.3653
v  19.4204 2000.0000 -43.3926
v  19.4932 2000.0000 -43.4092
v  14.4428 0.0000 -42.8250
v  14.4428 2000.0000 -42.8250
v  29.0333 0.0000 -42.8786
v  14.3668 0.0000 -42.9228
v  14.3668 2000.0000 -42.9228
v  29.0325 0.0000 -42.9607
v  29.0325 2000.0000 -42.9607
v  14.2756 0.0000 -43.0066
v  14.2756 2000.0000 -43.0066
v  29.0183 0.0000 -43.0415
v  29.0183 2000.0000 -43.0415
v  14.1719 0.0000 -43.0744
v  13.8150 0.0000 -47.4148
v  14.1719 2000.0001 -43.0744
v  32.0249 2000.0000 -47.4209
v  28.9911 0.0000 -43.1189
v  28.9911 2000.0000 -43.1189
v  14.0585 0.0000 -43.1242
v  14.0585 2000.0000 -43.1242
v  13.8150 2000.0001 -47.4148
v  31.9470 2000.0000 -47.4148
v  28.9516 0.0000 -43.1908
v  28.9516 2000.0000 -43.1908
v  13.9384 0.0000 -43.1546
v  13.9384 2000.0000 -43.1546
v  13.8150 0.0000 -43.1648
v  13.8150 2000.0000 -43.1648
v  28.9008 0.0000 -43.2553
v  28.9008 2000.0000 -43.2553
v  28.8401 0.0000 -43.3106
v  28.8401 2000.0000 -43.3106
v  28.7713 0.0000 -43.3553
v  28.7713 2000.0000 -43.3553
v  28.6960 0.0000 -43.3880
v  28.6960 2000.0000 -43.3880
v  28.6164 0.0000 -43.4081
v  28.6164 2000.0000 -43.4081
v  28.5347 0.0000 -43.4148
v  28.5347 2000.0000 -43.4148
v  19.5677 0.0000 -43.4148
v  19.5677 2000.0000 -43.4148
v  32.1731 0.0000 -47.4688
v  32.1731 2000.0000 -47.4688
v  32.2398 0.0000 -47.5095
v  32.2398 2000.0000 -47.5095
v  32.2994 0.0000 -47.5601
v  32.2994 2000.0000 -47.5601
v  32.3504 0.0000 -47.6193
v  32.3504 2000.0000 -47.6193
v  41.8630 2000.0000 -58.6181
v  41.8630 0.0000 -58.6181
v  50.4832 0.0000 -59.0362
v  65.6028 2000.0001 -75.3923
v  50.4832 2000.0000 -59.0362
v  69.6309 2000.0000 -79.2729
v  65.6641 2000.0000 -75.4433
v  53.0211 2000.0000 -67.9432
v  53.0211 0.0000 -67.9432
v  65.5341 2000.0000 -75.3518
v  61.4335 0.0000 -66.8714
v  61.4335 2000.0000 -66.8714
v  69.6309 0.0000 -79.2729
v  65.6641 0.0000 -75.4433
v  69.4048 0.0000 -79.3721
v  69.5137 0.0000 -79.3132
v  65.5341 0.0000 -75.3518
v  65.6028 0.0000 -75.3923
v  69.7530 2000.0000 -79.2526
v  73.4882 0.0000 -72.8700
v  73.4882 2000.0000 -72.8700
v  69.7530 0.0000 -79.2526
v  69.8769 2000.0000 -79.2526
v  73.5604 0.0000 -72.8977
v  69.8769 0.0000 -79.2526
v  69.9991 0.0000 -79.2729
v  70.1162 0.0000 -79.3132
v  73.5604 2000.0000 -72.8977
v  70.1162 2000.0000 -79.3132
v  69.9991 2000.0000 -79.2729
v  73.6275 0.0000 -72.9362
v  73.6275 2000.0000 -72.9362
v  73.6878 0.0000 -72.9847
v  73.6878 2000.0000 -72.9847
v  73.7400 0.0000 -73.0418
v  73.7400 2000.0000 -73.0418
v  73.7827 0.0000 -73.1063
v  73.7827 2000.0000 -73.1063
v  73.8149 0.0000 -73.1766
v  73.8149 2000.0000 -73.1766
v  70.2252 2000.0000 -79.3721
v  73.8150 0.0000 -80.0000
v  70.3229 0.0000 -79.4482
v  70.4068 0.0000 -79.5393
v  70.4746 0.0000 -79.6430
v  70.2252 0.0000 -79.3721
v  73.8150 2000.0000 -80.0000
v  70.5243 2000.0000 -79.7565
v  70.4746 2000.0000 -79.6430
v  70.4068 2000.0000 -79.5393
v  70.3229 2000.0000 -79.4482
v  65.7165 0.0000 -75.5033
v  69.3070 0.0000 -79.4482
v  65.7165 2000.0001 -75.5033
v  65.7588 0.0000 -75.5709
v  69.1056 0.0000 -79.7565
v  69.1553 0.0000 -79.6430
v  69.2231 0.0000 -79.5393
v  65.7588 2000.0000 -75.5709
v  69.4048 2000.0001 -79.3721
v  69.5137 2000.0000 -79.3132
v  65.7897 0.0000 -75.6443
v  65.7897 2000.0000 -75.6443
v  65.8086 0.0000 -75.7217
v  65.8086 2000.0000 -75.7217
v  69.3070 2000.0001 -79.4482
v  65.8150 0.0000 -75.8012
v  65.8150 2000.0001 -75.8012
v  65.8150 2000.0000 -80.0000
v  65.8150 0.0000 -80.0000
v  69.0752 0.0000 -79.8766
v  69.1056 2000.0000 -79.7565
v  69.2231 2000.0000 -79.5393
v  69.1553 2000.0000 -79.6430
v  70.5243 0.0000 -79.7565
v  69.0752 2000.0000 -79.8766
v  70.5547 0.0000 -79.8766
v  70.5547 2000.0000 -79.8766
v  69.0650 0.0000 -80.0000
v  69.0650 2000.0000 -80.0000
v  70.5650 0.0000 -80.0000
v  70.5650 2000.0000 -80.0000
# 296 vertices

vn 0.0412 -0.6944 0.7184
vn -0.5774 0.5774 0.5774
vn -0.5773 -0.5774 0.5774
vn -0.5984 0.5818 -0.5509
vn -0.5984 -0.5818 -0.5508
vn 0.6796 -0.7330 0.0282
vn -0.1132 -0.7262 -0.6781
vn -0.2233 -0.7261 -0.6503
vn 0.1437 -0.6885 0.7108
vn 0.0412 0.6944 0.7184
vn -0.1132 0.7262 -0.6781
vn 0.6796 0.7330 0.0283
vn -0.3272 0.7262 -0.6047
vn -0.2233 0.7261 -0.6503
vn 0.1437 0.6885 0.7108
vn 0.2616 -0.6885 0.6764
vn 0.2615 0.6885 0.6764
vn 0.3720 -0.6885 0.6226
vn 0.7251 -0.6886 0.0107
vn 0.7128 -0.6886 0.1329
vn 0.6802 -0.6886 0.2514
vn 0.6280 -0.6886 0.3625
vn 0.3722 0.6880 0.6230
vn 0.7251 0.6886 0.0107
vn 0.7128 0.6886 0.1329
vn 0.6271 0.6901 0.3613
vn 0.6803 0.6886 0.2513
vn 0.4717 -0.6885 0.5509
vn 0.4722 0.6875 0.5517
vn 0.5579 -0.6886 0.4633
vn 0.5598 0.6854 0.4656
vn 0.6697 -0.7255 0.1587
vn 0.6697 0.7255 0.1587
vn -0.1188 -0.7272 -0.6761
vn -0.2341 -0.7272 -0.6453
vn -0.3422 -0.7272 -0.5950
vn -0.4401 -0.7272 -0.5268
vn -0.5246 -0.7272 -0.4427
vn -0.5058 -0.7262 -0.4656
vn -0.5755 -0.7262 -0.3760
vn -0.4223 -0.7262 -0.5426
vn -0.3272 -0.7262 -0.6046
vn -0.6296 -0.7262 -0.2762
vn -0.6665 -0.7262 -0.1688
vn -0.6852 -0.7262 -0.0568
vn -0.6852 -0.7262 0.0568
vn -0.6665 -0.7262 0.1688
vn -0.5933 -0.7272 -0.3452
vn -0.6441 -0.7272 -0.2373
vn -0.5246 0.7272 -0.4427
vn -0.4401 0.7272 -0.5268
vn -0.5933 0.7272 -0.3452
vn -0.3422 0.7272 -0.5950
vn -0.2341 0.7272 -0.6453
vn -0.1185 0.7271 -0.6762
vn -0.6296 0.7262 0.2762
vn -0.6665 0.7262 0.1688
vn -0.6852 0.7262 0.0568
vn -0.6296 0.7262 -0.2762
vn -0.5755 0.7262 -0.3760
vn -0.5058 0.7262 -0.4656
vn -0.6852 0.7262 -0.0568
vn -0.6665 0.7262 -0.1688
vn -0.4223 0.7262 -0.5426
vn -0.6818 0.7097 -0.1775
vn -0.6441 0.7272 -0.2372
vn -0.6296 -0.7262 0.2762
vn -0.5755 -0.7262 0.3760
vn -0.5755 0.7262 0.3760
vn -0.5058 -0.7262 0.4656
vn -0.5058 0.7262 0.4656
vn -0.4223 -0.7262 0.5425
vn -0.4223 0.7262 0.5426
vn -0.3272 -0.7262 0.6046
vn -0.3272 0.7262 0.6046
vn -0.2232 -0.7262 0.6502
vn -0.0303 -0.7170 -0.6964
vn -0.2232 0.7262 0.6502
vn -0.1132 -0.7262 0.6781
vn -0.5774 -0.5774 -0.5773
vn -0.1132 0.7262 0.6781
vn -0.0296 0.7173 -0.6961
vn -0.5984 -0.5818 0.5509
vn -0.5984 0.5818 0.5508
vn -0.5774 0.5773 -0.5773
vn -0.6818 -0.7097 -0.1775
vn -0.6871 0.6929 -0.2184
vn -0.6871 -0.6929 -0.2184
vn 0.6360 -0.7255 0.2630
vn 0.6360 0.7255 0.2630
vn -0.6534 0.6929 -0.3049
vn -0.6534 -0.6929 -0.3049
vn 0.5863 -0.7255 0.3606
vn 0.5863 0.7255 0.3606
vn -0.6209 0.7094 -0.3336
vn -0.6214 -0.7091 -0.3332
vn 0.0267 -0.6988 0.7148
vn -0.5774 0.5773 0.5774
vn -0.5984 0.5819 -0.5508
vn 0.1078 -0.6907 0.7151
vn 0.0274 0.6991 0.7145
vn 0.1083 0.6905 0.7152
vn -0.2232 0.7262 -0.6502
vn 0.2132 -0.6907 0.6911
vn 0.2132 0.6907 0.6911
vn 0.3138 -0.6907 0.6516
vn 0.3138 0.6907 0.6516
vn 0.4074 -0.6907 0.5975
vn 0.4074 0.6907 0.5975
vn 0.4919 -0.6907 0.5301
vn 0.4919 0.6907 0.5301
vn 0.5654 -0.6907 0.4509
vn 0.5654 0.6907 0.4509
vn 0.6057 -0.6988 0.3806
vn 0.6057 0.6988 0.3806
vn 0.5914 -0.7156 0.3716
vn -0.2232 -0.7262 -0.6503
vn -0.4223 0.7262 -0.5425
vn 0.5914 0.7157 0.3716
vn 0.5216 -0.7255 0.4490
vn 0.5216 0.7255 0.4490
vn -0.6684 -0.7261 -0.1613
vn -0.6331 -0.7261 -0.2685
vn -0.6858 0.7261 -0.0498
vn -0.6684 0.7261 -0.1613
vn -0.6330 0.7260 -0.2689
vn -0.4223 -0.7262 -0.5425
vn 0.4690 -0.7243 0.5054
vn 0.5391 -0.7243 0.4299
vn 0.2992 -0.7243 0.6212
vn 0.3884 -0.7243 0.5697
vn 0.2032 -0.7243 0.6588
vn 0.1028 -0.7243 0.6818
vn -0.6852 0.7261 0.0571
vn -0.6663 0.7264 0.1687
vn -0.6296 -0.7262 0.2761
vn -0.0273 -0.7160 -0.6976
vn -0.1073 -0.7251 -0.6802
vn -0.2119 -0.7251 -0.6552
vn -0.6298 0.7261 0.2759
vn -0.2120 0.7249 -0.6554
vn 0.5391 0.7243 0.4299
vn 0.4690 0.7243 0.5054
vn 0.3884 0.7243 0.5697
vn 0.2992 0.7243 0.6212
vn 0.2032 0.7242 0.6590
vn 0.1028 0.7242 0.6819
vn -0.6858 -0.7261 -0.0498
vn -0.6847 -0.7261 0.0631
vn -0.6847 0.7260 0.0631
vn -0.4221 0.7259 0.5431
vn -0.6652 -0.7261 0.1742
vn -0.6652 0.7260 0.1742
vn -0.5774 -0.5773 -0.5774
vn -0.1073 0.7251 -0.6802
vn -0.6277 -0.7260 0.2807
vn -0.6277 0.7260 0.2807
vn -0.2237 0.7260 0.6503
vn -0.5773 0.5774 -0.5774
vn -0.0273 0.7160 -0.6976
vn -0.5734 -0.7260 0.3796
vn -0.5734 0.7260 0.3796
vn -0.5984 0.5818 0.5509
vn -0.5035 -0.7261 0.4683
vn -0.5035 0.7260 0.4683
vn -0.4201 -0.7261 0.5444
vn -0.4201 0.7260 0.5444
vn -0.3254 -0.7260 0.6058
vn -0.3254 0.7260 0.6058
vn -0.2219 -0.7261 0.6508
vn -0.2219 0.7261 0.6508
vn -0.1125 -0.7261 0.6783
vn -0.1125 0.7261 0.6784
vn -0.0287 -0.7165 0.6970
vn -0.0287 0.7165 0.6970
vn 0.0261 -0.7156 0.6980
vn 0.0261 0.7156 0.6980
vn -0.3114 -0.7251 -0.6142
vn -0.3114 0.7251 -0.6142
vn -0.4033 -0.7252 -0.5581
vn -0.4033 0.7251 -0.5582
vn -0.4853 -0.7251 -0.4885
vn -0.4853 0.7252 -0.4885
vn -0.5356 -0.7068 -0.4621
vn -0.5357 0.7068 -0.4621
vn -0.5079 0.6894 -0.5165
vn -0.5079 -0.6894 -0.5165
vn 0.4438 -0.7255 0.5261
vn -0.3920 0.7300 -0.5599
vn 0.4439 0.7253 0.5262
vn 0.1688 0.7262 -0.6665
vn -0.4805 0.7255 -0.4927
vn -0.4182 0.6894 -0.5915
vn -0.4182 -0.6894 -0.5915
vn -0.3643 0.7004 -0.6139
vn 0.3547 -0.7255 0.5898
vn 0.3547 0.7255 0.5898
vn 0.1688 -0.7262 -0.6665
vn -0.4806 -0.7254 -0.4927
vn 0.3761 -0.7262 -0.5756
vn 0.2762 -0.7262 -0.6296
vn -0.3600 -0.7070 -0.6088
vn -0.3962 -0.7255 -0.5628
vn 0.0568 0.7262 -0.6852
vn 0.2801 -0.7180 0.6372
vn 0.2801 0.7180 0.6372
vn 0.0568 -0.7262 -0.6852
vn -0.0568 0.7262 -0.6852
vn 0.3108 -0.6901 0.6536
vn -0.0568 -0.7262 -0.6852
vn -0.1688 -0.7262 -0.6665
vn -0.2762 -0.7262 -0.6296
vn 0.3108 0.6901 0.6536
vn -0.2762 0.7262 -0.6296
vn -0.1688 0.7262 -0.6665
vn 0.4079 -0.6901 0.5978
vn 0.4079 0.6901 0.5978
vn 0.4952 -0.6901 0.5277
vn 0.4952 0.6901 0.5277
vn 0.5706 -0.6901 0.4451
vn 0.5707 0.6901 0.4451
vn 0.6325 -0.6901 0.3516
vn 0.6326 0.6901 0.3516
vn 0.7322 -0.6621 0.1598
vn 0.7322 0.6621 0.1598
vn -0.3760 0.7262 -0.5755
vn 0.5773 -0.5774 -0.5774
vn -0.4656 -0.7262 -0.5058
vn -0.5426 -0.7262 -0.4223
vn -0.6046 -0.7262 -0.3272
vn -0.3760 -0.7262 -0.5756
vn 0.5773 0.5773 -0.5774
vn -0.6502 0.7262 -0.2232
vn -0.6046 0.7262 -0.3272
vn -0.5426 0.7262 -0.4223
vn -0.4656 0.7262 -0.5058
vn -0.5527 -0.7255 -0.4101
vn 0.4656 -0.7262 -0.5058
vn -0.5487 0.7316 -0.4046
vn -0.6109 -0.7255 -0.3170
vn 0.6502 -0.7262 -0.2232
vn 0.6046 -0.7263 -0.3272
vn 0.5425 -0.7262 -0.4223
vn -0.6126 0.7230 -0.3194
vn 0.3763 0.7263 -0.5752
vn 0.2765 0.7261 -0.6296
vn -0.6535 -0.7255 -0.2160
vn -0.6535 0.7254 -0.2160
vn -0.6795 -0.7255 -0.1094
vn -0.6795 0.7255 -0.1092
vn 0.4653 0.7263 -0.5060
vn -0.6974 -0.7162 -0.0278
vn -0.6967 0.7169 -0.0269
vn -0.5774 0.5773 -0.5774
vn -0.5773 -0.5773 -0.5774
vn 0.6782 -0.7262 -0.1132
vn 0.6502 0.7262 -0.2232
vn 0.5423 0.7261 -0.4226
vn 0.6046 0.7262 -0.3272
vn -0.6502 -0.7262 -0.2232
vn 0.6781 0.7262 -0.1132
vn -0.6781 -0.7262 -0.1132
vn -0.6781 0.7262 -0.1132
vn 0.5508 -0.5818 -0.5984
vn 0.5509 0.5818 -0.5984
vn -0.5509 -0.5818 -0.5984
vn -0.5508 0.5818 -0.5984
# 267 vertex normals

o ??_921___5_5_??_
g ??_921___5_5_??_
usemtl wire_061135006
s 1
f 1//1 2//2 3//3 
s 2
f 4//4 5//5 3//3 
f 2//2 4//4 3//3 
s 4
f 6//6 1//1 3//3 
f 5//5 7//7 3//3 
f 7//7 8//8 3//3 
f 8//8 6//6 3//3 
s 1
f 9//9 10//10 1//1 
f 10//10 2//2 1//1 
s 4
f 6//6 9//9 1//1 
f 11//11 4//4 2//2 
f 10//10 12//12 2//2 
f 12//12 13//13 2//2 
f 13//13 14//14 2//2 
f 14//14 11//11 2//2 
s 1
f 9//9 15//15 10//10 
s 4
f 15//15 12//12 10//10 
s 1
f 16//16 15//15 9//9 
s 4
f 6//6 16//16 9//9 
s 1
f 16//16 17//17 15//15 
s 4
f 17//17 12//12 15//15 
s 1
f 18//18 17//17 16//16 
s 4
f 6//6 19//19 16//16 
f 19//19 20//20 16//16 
f 20//20 21//21 16//16 
f 21//21 22//22 16//16 
f 22//22 18//18 16//16 
s 1
f 18//18 23//23 17//17 
s 4
f 24//24 12//12 17//17 
f 25//25 24//24 17//17 
f 23//23 26//26 17//17 
f 26//26 27//27 17//17 
f 27//27 25//25 17//17 
s 1
f 28//28 23//23 18//18 
s 4
f 22//22 28//28 18//18 
s 1
f 28//28 29//29 23//23 
s 4
f 29//29 26//26 23//23 
s 1
f 30//30 29//29 28//28 
s 4
f 22//22 30//30 28//28 
s 1
f 30//30 31//31 29//29 
s 4
f 31//31 26//26 29//29 
s 1
f 22//22 31//31 30//30 
f 22//22 26//26 31//31 
f 21//21 26//26 22//22 
f 21//21 27//27 26//26 
f 20//20 27//27 21//21 
f 20//20 25//25 27//27 
f 19//19 25//25 20//20 
f 19//19 24//24 25//25 
f 6//6 24//24 19//19 
f 6//6 12//12 24//24 
f 32//32 33//33 6//6 
f 33//33 12//12 6//6 
s 4
f 34//34 35//35 6//6 
f 35//35 36//36 6//6 
f 36//36 37//37 6//6 
f 37//37 38//38 6//6 
f 39//39 40//40 6//6 
f 41//41 39//39 6//6 
f 8//8 42//42 6//6 
f 42//42 41//41 6//6 
f 40//40 43//43 6//6 
f 43//43 44//44 6//6 
f 44//44 45//45 6//6 
f 45//45 46//46 6//6 
f 46//46 47//47 6//6 
f 47//47 34//34 6//6 
f 38//38 48//48 6//6 
f 48//48 49//49 6//6 
f 49//49 32//32 6//6 
f 50//50 51//51 12//12 
f 52//52 50//50 12//12 
f 51//51 53//53 12//12 
f 53//53 54//54 12//12 
f 54//54 55//55 12//12 
f 55//55 56//56 12//12 
f 56//56 57//57 12//12 
f 57//57 58//58 12//12 
f 59//59 60//60 12//12 
f 60//60 61//61 12//12 
f 58//58 62//62 12//12 
f 62//62 63//63 12//12 
f 63//63 59//59 12//12 
f 61//61 64//64 12//12 
f 64//64 13//13 12//12 
f 33//33 65//65 12//12 
f 65//65 66//66 12//12 
f 66//66 52//52 12//12 
s 1
f 4//4 7//7 5//5 
f 11//11 7//7 4//4 
f 11//11 8//8 7//7 
f 14//14 8//8 11//11 
f 14//14 42//42 8//8 
f 13//13 42//42 14//14 
f 13//13 41//41 42//42 
f 64//64 41//41 13//13 
f 64//64 39//39 41//41 
f 61//61 39//39 64//64 
f 61//61 40//40 39//39 
f 60//60 40//40 61//61 
f 60//60 43//43 40//40 
f 59//59 43//43 60//60 
f 59//59 44//44 43//43 
f 63//63 44//44 59//59 
f 63//63 45//45 44//44 
f 62//62 45//45 63//63 
f 62//62 46//46 45//45 
f 58//58 46//46 62//62 
f 58//58 47//47 46//46 
f 57//57 47//47 58//58 
f 57//57 67//67 47//47 
s 4
f 67//67 34//34 47//47 
s 1
f 56//56 67//67 57//57 
f 56//56 68//68 67//67 
s 4
f 68//68 34//34 67//67 
s 1
f 69//69 68//68 56//56 
s 4
f 55//55 69//69 56//56 
s 1
f 69//69 70//70 68//68 
s 4
f 70//70 34//34 68//68 
s 1
f 71//71 70//70 69//69 
s 4
f 55//55 71//71 69//69 
s 1
f 71//71 72//72 70//70 
s 4
f 72//72 34//34 70//70 
s 1
f 73//73 72//72 71//71 
s 4
f 55//55 73//73 71//71 
s 1
f 73//73 74//74 72//72 
s 4
f 74//74 34//34 72//72 
s 1
f 75//75 74//74 73//73 
s 4
f 55//55 75//75 73//73 
s 1
f 75//75 76//76 74//74 
s 4
f 77//77 34//34 74//74 
f 76//76 77//77 74//74 
s 1
f 78//78 76//76 75//75 
s 4
f 55//55 78//78 75//75 
s 1
f 78//78 79//79 76//76 
s 4
f 80//80 77//77 76//76 
f 79//79 80//80 76//76 
s 1
f 81//81 79//79 78//78 
s 4
f 82//82 81//81 78//78 
f 55//55 82//82 78//78 
s 1
f 81//81 83//83 79//79 
s 4
f 83//83 80//80 79//79 
s 1
f 84//84 83//83 81//81 
s 4
f 85//85 84//84 81//81 
f 82//82 85//85 81//81 
s 2
f 85//85 80//80 83//83 
f 84//84 85//85 83//83 
s 1
f 82//82 77//77 80//80 
f 85//85 82//82 80//80 
f 82//82 34//34 77//77 
f 55//55 34//34 82//82 
f 55//55 35//35 34//34 
f 54//54 35//35 55//55 
f 54//54 36//36 35//35 
f 53//53 36//36 54//54 
f 53//53 37//37 36//36 
f 51//51 37//37 53//53 
f 51//51 38//38 37//37 
f 50//50 38//38 51//51 
f 50//50 48//48 38//38 
f 52//52 48//48 50//50 
f 52//52 49//49 48//48 
f 66//66 49//49 52//52 
f 66//66 86//86 49//49 
s 4
f 86//86 32//32 49//49 
s 1
f 65//65 86//86 66//66 
f 65//65 87//87 86//86 
f 87//87 88//88 86//86 
s 4
f 88//88 32//32 86//86 
f 33//33 87//87 65//65 
s 1
f 89//89 90//90 32//32 
f 90//90 33//33 32//32 
s 4
f 88//88 89//89 32//32 
f 90//90 91//91 33//33 
f 91//91 87//87 33//33 
s 1
f 87//87 91//91 88//88 
f 91//91 92//92 88//88 
s 4
f 92//92 89//89 88//88 
s 1
f 93//93 94//94 89//89 
f 94//94 90//90 89//89 
s 4
f 92//92 93//93 89//89 
f 94//94 95//95 90//90 
f 95//95 91//91 90//90 
s 1
f 91//91 95//95 92//92 
f 95//95 96//96 92//92 
s 4
f 96//96 93//93 92//92 
s 1
f 97//97 98//98 99//3 
s 2
f 100//99 101//5 99//3 
f 98//98 100//99 99//3 
s 4
f 101//5 97//97 99//3 
s 1
f 102//100 103//101 97//97 
f 103//101 98//98 97//97 
s 4
f 101//5 104//7 97//97 
f 104//7 102//100 97//97 
f 105//11 100//99 98//98 
f 103//101 105//11 98//98 
s 1
f 102//100 106//102 103//101 
s 4
f 107//103 105//11 103//101 
f 108//13 107//103 103//101 
f 106//102 108//13 103//101 
s 1
f 109//104 106//102 102//100 
s 4
f 104//7 109//104 102//100 
s 1
f 109//104 110//105 106//102 
s 4
f 110//105 108//13 106//102 
s 1
f 111//106 110//105 109//104 
s 4
f 104//7 111//106 109//104 
s 1
f 111//106 112//107 110//105 
s 4
f 112//107 108//13 110//105 
s 1
f 113//108 112//107 111//106 
s 4
f 104//7 113//108 111//106 
s 1
f 113//108 114//109 112//107 
s 4
f 114//109 108//13 112//107 
s 1
f 115//110 114//109 113//108 
s 4
f 104//7 115//110 113//108 
s 1
f 115//110 116//111 114//109 
s 4
f 116//111 108//13 114//109 
s 1
f 117//112 116//111 115//110 
s 4
f 104//7 117//112 115//110 
s 1
f 117//112 118//113 116//111 
s 4
f 118//113 108//13 116//111 
s 1
f 119//114 118//113 117//112 
s 4
f 104//7 119//114 117//112 
s 1
f 119//114 120//115 118//113 
s 4
f 120//115 108//13 118//113 
s 1
f 121//116 120//115 119//114 
s 4
f 104//7 122//117 119//114 
f 122//117 123//42 119//114 
f 123//42 121//116 119//114 
f 124//118 108//13 120//115 
f 125//119 124//118 120//115 
s 1
f 121//116 125//119 120//115 
f 126//120 127//121 93//93 
f 127//121 94//94 93//93 
s 4
f 128//122 126//120 93//93 
f 129//123 128//122 93//93 
f 96//96 129//123 93//93 
f 127//121 130//124 94//94 
f 130//124 131//125 94//94 
f 131//125 132//126 94//94 
f 132//126 95//95 94//94 
s 1
f 100//99 104//7 101//5 
f 105//11 104//7 100//99 
f 105//11 122//117 104//7 
f 107//103 122//117 105//11 
f 107//103 123//42 122//117 
f 108//13 123//42 107//103 
f 108//13 133//127 123//42 
s 4
f 134//128 135//129 123//42 
f 133//127 136//130 123//42 
f 136//130 137//131 123//42 
f 137//131 134//128 123//42 
f 135//129 121//116 123//42 
s 1
f 124//118 133//127 108//13 
f 124//118 138//39 133//127 
s 4
f 139//132 136//130 133//127 
f 138//39 139//132 133//127 
s 1
f 140//61 138//39 124//118 
s 4
f 125//119 140//61 124//118 
s 1
f 140//61 141//40 138//39 
s 4
f 141//40 139//132 138//39 
s 1
f 142//60 141//40 140//61 
s 4
f 125//119 142//60 140//61 
s 1
f 142//60 143//43 141//40 
s 4
f 143//43 139//132 141//40 
s 1
f 144//59 143//43 142//60 
s 4
f 125//119 144//59 142//60 
s 1
f 144//59 145//44 143//43 
s 4
f 145//44 139//132 143//43 
s 1
f 146//63 145//44 144//59 
s 4
f 125//119 146//63 144//59 
s 1
f 146//63 147//45 145//44 
s 4
f 147//45 139//132 145//44 
s 1
f 148//62 147//45 146//63 
s 4
f 125//119 148//62 146//63 
s 1
f 148//62 149//46 147//45 
s 4
f 150//133 139//132 147//45 
f 149//46 150//133 147//45 
s 1
f 151//134 149//46 148//62 
s 4
f 125//119 151//134 148//62 
s 1
f 151//134 152//47 149//46 
s 4
f 152//47 150//133 149//46 
s 1
f 153//135 152//47 151//134 
s 4
f 125//119 153//135 151//134 
s 1
f 153//135 154//136 152//47 
s 4
f 154//136 155//137 152//47 
f 126//120 150//133 152//47 
f 155//137 156//138 152//47 
f 156//138 157//139 152//47 
f 157//139 126//120 152//47 
s 1
f 158//140 154//136 153//135 
s 4
f 127//121 159//141 153//135 
f 159//141 158//140 153//135 
f 125//119 160//142 153//135 
f 160//142 161//143 153//135 
f 161//143 162//144 153//135 
f 162//144 163//145 153//135 
f 163//145 164//146 153//135 
f 164//146 165//147 153//135 
f 165//147 127//121 153//135 
s 1
f 95//95 129//123 96//96 
f 132//126 129//123 95//95 
f 158//140 166//68 154//136 
s 4
f 166//68 155//137 154//136 
s 1
f 167//69 166//68 158//140 
s 4
f 159//141 167//69 158//140 
s 1
f 132//126 128//122 129//123 
f 131//125 128//122 132//126 
f 131//125 168//148 128//122 
s 4
f 168//148 126//120 128//122 
s 1
f 130//124 168//148 131//125 
f 167//69 169//70 166//68 
s 4
f 169//70 155//137 166//68 
s 1
f 170//71 169//70 167//69 
s 4
f 159//141 170//71 167//69 
s 1
f 130//124 171//149 168//148 
s 4
f 171//149 126//120 168//148 
s 1
f 172//150 171//149 130//124 
s 4
f 127//121 172//150 130//124 
s 1
f 170//71 173//72 169//70 
s 4
f 173//72 155//137 169//70 
s 1
f 174//151 173//72 170//71 
s 4
f 159//141 174//151 170//71 
s 1
f 172//150 175//152 171//149 
s 4
f 175//152 126//120 171//149 
s 1
f 176//153 175//152 172//150 
s 4
f 127//121 176//153 172//150 
s 1
f 174//151 177//74 173//72 
s 4
f 178//154 155//137 173//72 
f 177//74 178//154 173//72 
s 1
f 179//75 177//74 174//151 
s 4
f 180//155 179//75 174//151 
f 159//141 180//155 174//151 
s 1
f 176//153 181//156 175//152 
s 4
f 181//156 126//120 175//152 
s 1
f 182//157 181//156 176//153 
s 4
f 127//121 182//157 176//153 
s 1
f 179//75 183//76 177//74 
s 4
f 183//76 178//154 177//74 
s 1
f 184//158 183//76 179//75 
s 4
f 185//159 184//158 179//75 
f 186//160 185//159 179//75 
f 180//155 186//160 179//75 
s 1
f 182//157 187//161 181//156 
s 4
f 187//161 126//120 181//156 
s 1
f 188//162 187//161 182//157 
s 4
f 127//121 188//162 182//157 
s 1
f 184//158 189//79 183//76 
s 4
f 189//79 178//154 183//76 
s 1
f 190//81 189//79 184//158 
s 4
f 185//159 190//81 184//158 
s 1
f 190//81 191//83 189//79 
s 4
f 191//83 178//154 189//79 
s 1
f 192//163 191//83 190//81 
s 4
f 185//159 192//163 190//81 
s 2
f 185//159 178//154 191//83 
f 192//163 185//159 191//83 
s 1
f 135//129 160//142 121//116 
f 160//142 125//119 121//116 
f 188//162 193//164 187//161 
s 4
f 193//164 126//120 187//161 
s 1
f 194//165 193//164 188//162 
s 4
f 127//121 194//165 188//162 
s 1
f 134//128 161//143 135//129 
f 161//143 160//142 135//129 
f 194//165 195//166 193//164 
s 4
f 195//166 126//120 193//164 
s 1
f 196//167 195//166 194//165 
s 4
f 127//121 196//167 194//165 
s 1
f 137//131 162//144 134//128 
f 162//144 161//143 134//128 
f 196//167 197//168 195//166 
s 4
f 197//168 126//120 195//166 
s 1
f 198//169 197//168 196//167 
s 4
f 127//121 198//169 196//167 
s 1
f 136//130 163//145 137//131 
f 163//145 162//144 137//131 
f 198//169 199//170 197//168 
s 4
f 199//170 126//120 197//168 
s 1
f 200//171 199//170 198//169 
s 4
f 127//121 200//171 198//169 
s 1
f 139//132 164//146 136//130 
f 164//146 163//145 136//130 
f 200//171 201//172 199//170 
s 4
f 201//172 126//120 199//170 
s 1
f 202//173 201//172 200//171 
s 4
f 127//121 202//173 200//171 
s 1
f 150//133 165//147 139//132 
f 165//147 164//146 139//132 
f 202//173 203//174 201//172 
s 4
f 203//174 126//120 201//172 
s 1
f 204//175 203//174 202//173 
s 4
f 127//121 204//175 202//173 
s 1
f 205//176 206//177 150//133 
f 206//177 165//147 150//133 
s 4
f 126//120 205//176 150//133 
f 206//177 127//121 165//147 
s 1
f 203//174 206//177 205//176 
s 4
f 126//120 203//174 205//176 
s 1
f 204//175 206//177 203//174 
s 4
f 204//175 127//121 206//177 
s 1
f 186//160 155//137 178//154 
f 185//159 186//160 178//154 
f 186//160 156//138 155//137 
f 180//155 156//138 186//160 
f 180//155 157//139 156//138 
f 159//141 157//139 180//155 
f 159//141 207//178 157//139 
s 4
f 207//178 126//120 157//139 
s 1
f 208//179 207//178 159//141 
s 4
f 127//121 208//179 159//141 
s 1
f 208//179 209//180 207//178 
s 4
f 209//180 126//120 207//178 
s 1
f 210//181 209//180 208//179 
s 4
f 127//121 210//181 208//179 
s 1
f 210//181 211//182 209//180 
s 4
f 211//182 126//120 209//180 
s 1
f 212//183 211//182 210//181 
s 4
f 127//121 212//183 210//181 
s 1
f 212//183 213//184 211//182 
s 4
f 213//184 126//120 211//182 
s 1
f 214//185 213//184 212//183 
s 4
f 127//121 214//185 212//183 
s 1
f 214//185 215//186 213//184 
f 215//186 216//187 213//184 
s 4
f 217//188 126//120 213//184 
f 216//187 217//188 213//184 
f 218//189 215//186 214//185 
f 127//121 218//189 214//185 
s 1
f 217//188 219//190 126//120 
f 219//190 127//121 126//120 
s 4
f 219//190 220//191 127//121 
f 221//192 218//189 127//121 
f 220//191 221//192 127//121 
s 1
f 215//186 222//193 216//187 
f 222//193 223//194 216//187 
s 4
f 223//194 217//188 216//187 
f 224//195 222//193 215//186 
f 218//189 224//195 215//186 
s 1
f 225//196 226//197 217//188 
f 226//197 219//190 217//188 
s 4
f 227//198 225//196 217//188 
f 228//199 229//200 217//188 
f 229//200 230//201 217//188 
f 230//201 227//198 217//188 
f 223//194 231//202 217//188 
f 231//202 232//203 217//188 
f 232//203 228//199 217//188 
f 226//197 233//204 219//190 
f 233//204 220//191 219//190 
s 1
f 234//205 235//206 225//196 
f 235//206 226//197 225//196 
s 4
f 227//198 236//207 225//196 
f 236//207 234//205 225//196 
f 235//206 237//208 226//197 
f 237//208 233//204 226//197 
s 1
f 222//193 224//195 223//194 
f 224//195 231//202 223//194 
f 238//209 235//206 234//205 
s 4
f 236//207 239//210 234//205 
f 239//210 240//211 234//205 
f 240//211 241//212 234//205 
f 241//212 238//209 234//205 
s 1
f 238//209 242//213 235//206 
s 4
f 242//213 243//214 235//206 
f 243//214 244//215 235//206 
f 244//215 237//208 235//206 
s 1
f 245//216 242//213 238//209 
s 4
f 241//212 245//216 238//209 
s 1
f 245//216 246//217 242//213 
s 4
f 246//217 243//214 242//213 
s 1
f 247//218 246//217 245//216 
s 4
f 241//212 247//218 245//216 
s 1
f 247//218 248//219 246//217 
s 4
f 248//219 243//214 246//217 
s 1
f 249//220 248//219 247//218 
s 4
f 241//212 249//220 247//218 
s 1
f 249//220 250//221 248//219 
s 4
f 250//221 243//214 248//219 
s 1
f 251//222 250//221 249//220 
s 4
f 241//212 251//222 249//220 
s 1
f 251//222 252//223 250//221 
s 4
f 252//223 243//214 250//221 
s 1
f 253//224 252//223 251//222 
s 4
f 241//212 253//224 251//222 
s 1
f 253//224 254//225 252//223 
s 4
f 254//225 255//226 252//223 
f 255//226 243//214 252//223 
s 1
f 256//227 254//225 253//224 
s 4
f 257//228 258//229 253//224 
f 258//229 259//230 253//224 
f 259//230 256//227 253//224 
f 241//212 260//231 253//224 
f 260//231 257//228 253//224 
s 1
f 256//227 261//232 254//225 
s 4
f 261//232 262//233 254//225 
f 262//233 263//234 254//225 
f 263//234 264//235 254//225 
f 264//235 265//236 254//225 
f 265//236 255//226 254//225 
s 1
f 224//195 232//203 231//202 
f 218//189 232//203 224//195 
f 218//189 228//199 232//203 
f 221//192 228//199 218//189 
f 221//192 266//237 228//199 
s 4
f 266//237 267//238 228//199 
f 267//238 229//200 228//199 
s 1
f 268//239 266//237 221//192 
s 4
f 220//191 268//239 221//192 
s 1
f 268//239 269//240 266//237 
s 4
f 270//241 271//242 266//237 
f 269//240 270//241 266//237 
f 271//242 272//243 266//237 
f 272//243 267//238 266//237 
s 1
f 273//244 269//240 268//239 
s 4
f 274//245 273//244 268//239 
f 220//191 275//246 268//239 
f 275//246 274//245 268//239 
s 1
f 273//244 276//247 269//240 
s 4
f 276//247 270//241 269//240 
s 1
f 277//248 276//247 273//244 
s 4
f 274//245 277//248 273//244 
s 1
f 277//248 278//249 276//247 
s 4
f 278//249 270//241 276//247 
s 1
f 279//250 278//249 277//248 
s 4
f 280//251 279//250 277//248 
f 274//245 280//251 277//248 
s 1
f 279//250 281//252 278//249 
s 4
f 281//252 270//241 278//249 
s 1
f 282//253 281//252 279//250 
s 4
f 280//251 282//253 279//250 
s 1
f 283//254 284//255 281//252 
f 282//253 283//254 281//252 
s 4
f 285//256 270//241 281//252 
f 284//255 285//256 281//252 
f 286//257 283//254 282//253 
f 280//251 287//258 282//253 
f 287//258 288//259 282//253 
f 288//259 286//257 282//253 
s 1
f 227//198 220//191 236//207 
f 220//191 233//204 236//207 
f 233//204 239//210 236//207 
f 233//204 237//208 239//210 
f 237//208 240//211 239//210 
f 244//215 240//211 237//208 
f 230//201 275//246 227//198 
f 275//246 220//191 227//198 
f 244//215 241//212 240//211 
f 243//214 241//212 244//215 
f 229//200 274//245 230//201 
f 274//245 275//246 230//201 
f 243//214 260//231 241//212 
f 255//226 260//231 243//214 
f 267//238 280//251 229//200 
f 280//251 274//245 229//200 
f 255//226 257//228 260//231 
f 265//236 257//228 255//226 
f 272//243 287//258 267//238 
f 287//258 280//251 267//238 
f 265//236 258//229 257//228 
f 264//235 258//229 265//236 
f 271//242 288//259 272//243 
f 288//259 287//258 272//243 
f 264//235 259//230 258//229 
f 263//234 259//230 264//235 
f 270//241 286//257 271//242 
f 286//257 288//259 271//242 
f 263//234 289//260 259//230 
s 4
f 289//260 256//227 259//230 
s 1
f 262//233 289//260 263//234 
f 285//256 290//261 270//241 
f 290//261 286//257 270//241 
f 262//233 291//262 289//260 
s 4
f 291//262 256//227 289//260 
f 290//261 283//254 286//257 
s 1
f 292//263 291//262 262//233 
s 4
f 261//232 292//263 262//233 
s 1
f 293//264 294//265 285//256 
f 294//265 290//261 285//256 
s 4
f 284//255 293//264 285//256 
s 1
f 292//263 295//266 291//262 
s 4
f 295//266 256//227 291//262 
f 294//265 283//254 290//261 
s 1
f 296//267 295//266 292//263 
s 4
f 261//232 296//267 292//263 
s 2
f 294//265 293//264 284//255 
f 283//254 294//265 284//255 
f 261//232 256//227 295//266 
f 296//267 261//232 295//266 
# 0 polygons - 588 triangles

