# File exported by Pixologic 3D Print Exporter for ZBrush
# http://www.pixologic.com
mtllib KH_920.mtl

#Object: obj0
#Vertex Count: 294
#UV Count: 1360
#Face Count: 388
#Vertex Count: 294
v 75.000000 115.000053 110.453468
v 0.000000 115.000053 110.453468
v 0.000000 115.000053 106.947968
v 75.000000 115.000053 106.947968
v 0.000000 111.954376 106.950294
v 75.000000 111.954376 106.950294
v 75.000000 108.455177 101.216019
v 0.000000 108.455177 101.216019
v 0.000000 107.741554 100.516716
v 75.000000 107.741554 100.516716
v 75.000000 38.332726 22.488960
v 0.000000 38.332726 22.488960
v 0.000000 38.278954 21.774300
v 75.000000 38.278954 21.774300
v 75.000000 34.171722 17.753395
v 0.000000 34.171722 17.753395
v 0.000000 23.076523 17.770561
v 75.000000 23.076523 17.770561
v 75.000000 19.873947 15.205116
v 0.000000 19.873947 15.205116
v 0.000000 19.873947 14.249161
v 75.000000 19.873947 14.249161
v 75.000000 17.849258 12.273216
v 0.000000 17.849258 12.273216
v 0.000000 13.507050 12.268120
v 75.000000 13.507050 12.268120
v 75.000000 11.822998 11.228172
v 0.000000 11.822998 11.228172
v 0.000000 10.400032 9.101326
v 75.000000 10.400032 9.101326
v 75.000000 10.007034 7.712013
v 0.000000 10.007034 7.712013
v 0.000000 9.977028 0.000000
v 75.000000 9.977028 0.000000
v 0.000000 5.675034 0.000000
v 75.000000 5.675034 0.000000
v 75.000000 4.201050 0.000000
v 0.000000 4.201050 0.000000
v 0.000000 0.000000 0.000000
v 75.000000 0.000000 0.000000
v 0.000000 0.000000 6.977997
v 75.000000 0.000000 6.977997
v 75.000000 9.365028 16.271011
v 0.000000 9.365028 16.271011
v 0.000000 15.789902 16.266968
v 75.000000 15.789902 16.266968
v 0.000000 15.786224 21.774818
v 75.000000 15.786224 21.774818
v 0.000000 34.352028 21.774368
v 75.000000 34.352028 21.774368
v 0.000000 34.352104 26.730217
v 75.000000 34.352104 26.730217
v 75.000000 97.992004 94.918121
v 0.000000 97.992004 94.918121
v 0.000000 100.643929 94.915192
v 75.000000 100.643929 94.915192
v 75.000000 104.124001 103.969788
v 0.000000 104.124001 103.969788
v 0.000000 105.132225 105.026016
v 75.000000 105.132225 105.026016
v 75.000000 107.989655 112.830963
v 75.000000 107.987854 114.945892
v 75.000000 115.000053 114.951889
v 75.000000 115.000053 111.437317
v 75.000000 114.446327 111.692093
v 75.000000 113.887131 111.449463
v 75.000000 113.691376 110.945389
v 75.000000 113.924248 110.403595
v 75.000000 114.477600 110.199669
v 75.000000 111.334656 105.374237
v 75.000000 110.537323 103.880165
v 75.000000 109.573280 102.487946
v 75.000000 106.703255 99.179619
v 75.000000 105.988579 97.644966
v 75.000000 105.633301 95.989792
v 75.000000 105.655197 94.297043
v 75.000000 105.270905 92.801170
v 75.000000 104.417328 91.514091
v 75.000000 103.188828 90.578094
v 75.000000 101.721306 90.096664
v 75.000000 99.652428 77.964592
v 75.000000 95.598228 66.344170
v 75.000000 89.671127 55.558193
v 75.000000 82.035599 45.905914
v 75.000000 72.903595 37.655094
v 75.000000 62.528629 31.034767
v 75.000000 51.198524 26.228691
v 75.000000 39.227852 23.370293
v 75.000000 38.636253 23.075989
v 75.000000 37.929527 20.236496
v 75.000000 37.032455 18.939522
v 75.000000 35.716652 18.069969
v 75.000000 21.993828 17.575867
v 75.000000 21.033524 17.039169
v 75.000000 20.300331 16.219193
v 75.000000 19.704758 13.490097
v 75.000000 19.262550 12.850266
v 75.000000 18.612221 12.423813
v 75.000000 12.855003 12.141663
v 75.000000 12.284035 11.803795
v 75.000000 10.102051 8.435616
v 75.000000 5.438995 0.483887
v 75.000000 4.937996 0.679794
v 75.000000 4.436996 0.483887
v 75.000000 0.098022 7.323662
v 75.000000 0.306000 7.617058
v 75.000000 0.599022 7.824593
v 75.000000 0.945000 7.922760
v 75.000000 2.476051 8.303917
v 75.000000 3.931053 8.914574
v 75.000000 5.276024 9.740616
v 75.000000 6.478050 10.762413
v 75.000000 7.510056 11.955963
v 75.000000 8.348030 13.293365
v 75.000000 8.971054 14.743118
v 75.000000 46.875298 29.052963
v 75.000000 58.771954 33.602394
v 75.000000 69.649651 40.228271
v 75.000000 79.149597 48.712193
v 75.000000 86.958603 58.774265
v 75.000000 92.819107 70.082687
v 75.000000 96.537750 82.264565
v 75.000000 100.809006 97.396713
v 75.000000 101.464729 99.795815
v 75.000000 102.584625 102.016418
v 75.000000 106.364471 106.751541
v 75.000000 107.268906 108.669296
v 75.000000 107.816475 110.717690
v 0.000000 115.000053 114.951889
v 0.000000 115.000053 111.437317
v 0.000000 107.987854 114.945892
v 0.000000 107.989655 112.830963
v 0.000000 107.816475 110.717690
v 0.000000 107.268906 108.669296
v 0.000000 106.364471 106.751541
v 0.000000 102.584625 102.016418
v 0.000000 101.464729 99.795815
v 0.000000 100.809006 97.396713
v 0.000000 96.537750 82.264565
v 0.000000 92.819107 70.082687
v 0.000000 86.958603 58.774265
v 0.000000 79.149597 48.712193
v 0.000000 69.649651 40.228271
v 0.000000 58.771954 33.602394
v 0.000000 46.875298 29.052963
v 0.000000 8.971054 14.743118
v 0.000000 8.348030 13.293365
v 0.000000 7.510056 11.955963
v 0.000000 6.478050 10.762413
v 0.000000 5.276024 9.740616
v 0.000000 3.931053 8.914574
v 0.000000 2.476051 8.303917
v 0.000000 0.945000 7.922760
v 0.000000 0.599022 7.824593
v 0.000000 0.306000 7.617058
v 0.000000 0.098022 7.323662
v 0.000000 4.436996 0.483887
v 0.000000 4.937996 0.679794
v 0.000000 5.438995 0.483887
v 0.000000 10.102051 8.435616
v 0.000000 12.284035 11.803795
v 0.000000 12.855003 12.141663
v 0.000000 18.612221 12.423813
v 0.000000 19.262550 12.850266
v 0.000000 19.704758 13.490097
v 0.000000 20.300331 16.219193
v 0.000000 21.033524 17.039169
v 0.000000 21.993828 17.575867
v 0.000000 35.716652 18.069969
v 0.000000 37.032455 18.939522
v 0.000000 37.929527 20.236496
v 0.000000 38.636253 23.075989
v 0.000000 39.227852 23.370293
v 0.000000 51.198524 26.228691
v 0.000000 62.528629 31.034767
v 0.000000 72.903595 37.655094
v 0.000000 82.035599 45.905914
v 0.000000 89.671127 55.558193
v 0.000000 95.598228 66.344170
v 0.000000 99.652428 77.964592
v 0.000000 101.721306 90.096664
v 0.000000 103.188828 90.578094
v 0.000000 104.417328 91.514091
v 0.000000 105.270905 92.801170
v 0.000000 105.655197 94.297043
v 0.000000 105.633301 95.989792
v 0.000000 105.988579 97.644966
v 0.000000 106.703255 99.179619
v 0.000000 109.573280 102.487946
v 0.000000 110.537323 103.880165
v 0.000000 111.334656 105.374237
v 0.000000 114.477600 110.199669
v 0.000000 113.924248 110.403595
v 0.000000 113.691376 110.945389
v 0.000000 113.887131 111.449463
v 0.000000 114.446327 111.692093
v 150.000000 115.000053 110.453468
v 150.000000 115.000053 106.947968
v 150.000000 111.954376 106.950294
v 150.000000 108.455177 101.216019
v 150.000000 107.741554 100.516716
v 150.000000 38.332726 22.488960
v 150.000000 38.278954 21.774300
v 150.000000 34.171722 17.753395
v 150.000000 23.076523 17.770561
v 150.000000 19.873947 15.205116
v 150.000000 19.873947 14.249161
v 150.000000 17.849258 12.273216
v 150.000000 13.507050 12.268120
v 150.000000 11.822998 11.228172
v 150.000000 10.400032 9.101326
v 150.000000 10.007034 7.712013
v 150.000000 9.977028 0.000000
v 150.000000 5.675034 0.000000
v 150.000000 4.201050 0.000000
v 150.000000 0.000000 0.000000
v 150.000000 0.000000 6.977997
v 150.000000 9.365028 16.271011
v 150.000000 15.789902 16.266968
v 150.000000 15.786224 21.774818
v 150.000000 34.352028 21.774368
v 150.000000 34.352104 26.730217
v 150.000000 97.992004 94.918121
v 150.000000 100.643929 94.915192
v 150.000000 104.124001 103.969788
v 150.000000 105.132225 105.026016
v 150.000000 115.000053 114.951889
v 150.000000 115.000053 111.437317
v 150.000000 107.987854 114.945892
v 150.000000 107.989655 112.830963
v 150.000000 107.816475 110.717690
v 150.000000 107.268906 108.669296
v 150.000000 106.364471 106.751541
v 150.000000 102.584625 102.016418
v 150.000000 101.464729 99.795815
v 150.000000 100.809006 97.396713
v 150.000000 96.537750 82.264565
v 150.000000 92.819107 70.082687
v 150.000000 86.958603 58.774265
v 150.000000 79.149597 48.712193
v 150.000000 69.649651 40.228271
v 150.000000 58.771954 33.602394
v 150.000000 46.875298 29.052963
v 150.000000 8.971054 14.743118
v 150.000000 8.348030 13.293365
v 150.000000 7.510056 11.955963
v 150.000000 6.478050 10.762413
v 150.000000 5.276024 9.740616
v 150.000000 3.931053 8.914574
v 150.000000 2.476051 8.303917
v 150.000000 0.945000 7.922760
v 150.000000 0.599022 7.824593
v 150.000000 0.306000 7.617058
v 150.000000 0.098022 7.323662
v 150.000000 4.436996 0.483887
v 150.000000 4.937996 0.679794
v 150.000000 5.438995 0.483887
v 150.000000 10.102051 8.435616
v 150.000000 12.284035 11.803795
v 150.000000 12.855003 12.141663
v 150.000000 18.612221 12.423813
v 150.000000 19.262550 12.850266
v 150.000000 19.704758 13.490097
v 150.000000 20.300331 16.219193
v 150.000000 21.033524 17.039169
v 150.000000 21.993828 17.575867
v 150.000000 35.716652 18.069969
v 150.000000 37.032455 18.939522
v 150.000000 37.929527 20.236496
v 150.000000 38.636253 23.075989
v 150.000000 39.227852 23.370293
v 150.000000 51.198524 26.228691
v 150.000000 62.528629 31.034767
v 150.000000 72.903595 37.655094
v 150.000000 82.035599 45.905914
v 150.000000 89.671127 55.558193
v 150.000000 95.598228 66.344170
v 150.000000 99.652428 77.964592
v 150.000000 101.721306 90.096664
v 150.000000 103.188828 90.578094
v 150.000000 104.417328 91.514091
v 150.000000 105.270905 92.801170
v 150.000000 105.655197 94.297043
v 150.000000 105.633301 95.989792
v 150.000000 105.988579 97.644966
v 150.000000 106.703255 99.179619
v 150.000000 109.573280 102.487946
v 150.000000 110.537323 103.880165
v 150.000000 111.334656 105.374237
v 150.000000 114.477600 110.199669
v 150.000000 113.924248 110.403595
v 150.000000 113.691376 110.945389
v 150.000000 113.887131 111.449463
v 150.000000 114.446327 111.692093
#UV count: 1360
vt -0.000000 0.017423
vt -0.000000 0.011580
vt 0.213333 0.011580
vt 0.213333 0.017423
vt -0.000000 0.000000
vt -0.000000 0.005076
vt 0.213333 0.005076
vt 0.213333 0.000000
vt -0.000000 0.010908
vt -0.000000 0.012098
vt 0.213333 0.012098
vt 0.213333 0.010908
vt -0.000000 -0.129185
vt -0.000000 -0.130376
vt 0.213333 -0.130376
vt 0.213333 -0.129185
vt -0.000000 0.134714
vt -0.000000 0.153206
vt 0.213333 0.153206
vt 0.213333 0.134714
vt -0.000000 -0.141325
vt -0.000000 -0.142918
vt 0.213333 -0.142918
vt 0.213333 -0.141325
vt -0.000000 0.161918
vt -0.000000 0.169156
vt 0.213333 0.169156
vt 0.213333 0.161918
vt -0.000000 -0.147953
vt -0.000000 -0.151498
vt 0.213333 -0.151498
vt 0.213333 -0.147953
vt -0.000000 -0.153813
vt -0.000000 -0.166667
vt 0.213333 -0.166667
vt 0.213333 -0.153813
vt -0.000000 0.175039
vt -0.000000 0.182209
vt 0.213333 0.182209
vt 0.213333 0.175039
vt -0.000000 0.184665
vt 0.000000 0.191667
vt 0.213333 0.191667
vt 0.213333 0.184665
vt 0.000000 -0.166667
vt 0.000000 -0.155037
vt 0.213333 -0.155037
vt 0.213333 -0.166667
vt -0.000000 0.176058
vt -0.000000 0.165350
vt 0.213333 0.165350
vt 0.213333 0.176058
vt -0.000000 -0.139555
vt -0.000000 -0.130375
vt 0.213333 -0.130375
vt 0.213333 -0.139555
vt -0.000000 0.165356
vt -0.000000 0.134413
vt 0.213333 0.134413
vt 0.213333 0.165356
vt -0.000000 -0.130376
vt -0.000000 -0.122116
vt 0.213333 -0.122116
vt 0.213333 -0.130376
vt -0.000000 0.028347
vt -0.000000 0.023927
vt 0.213333 0.023927
vt 0.213333 0.028347
vt -0.000000 0.006616
vt -0.000000 0.008377
vt 0.213333 0.008377
vt 0.213333 0.006616
vt -0.000000 0.024920
vt -0.000000 0.019062
vt 0.213333 0.019062
vt 0.213333 0.024920
vt 0.009970 0.021385
vt 0.009973 0.024910
vt 0.000000 0.024920
vt 0.000787 0.019487
vt 0.009970 0.021385
vt 0.000000 0.024920
vt 0.009970 0.021385
vt 0.000787 0.019487
vt 0.001583 0.019082
vt 0.000787 0.019487
vt 0.000000 0.024920
vt 0.000000 0.019062
vt 0.009970 0.021385
vt 0.001583 0.019082
vt 0.001861 0.018242
vt 0.010217 0.017863
vt 0.009970 0.021385
vt 0.001861 0.018242
vt 0.010217 0.017863
vt 0.001861 0.018242
vt 0.001530 0.017339
vt 0.010217 0.017863
vt 0.001530 0.017339
vt 0.000743 0.016999
vt 0.010995 0.014449
vt 0.010217 0.017863
vt 0.000743 0.016999
vt 0.004332 0.011584
vt 0.010995 0.014449
vt 0.000743 0.016999
vt 0.004332 0.011584
vt 0.000743 0.016999
vt 0.000000 0.017423
vt 0.004332 0.011584
vt 0.000000 0.017423
vt 0.000000 0.011580
vt 0.012282 0.011253
vt 0.010995 0.014449
vt 0.004332 0.011584
vt 0.012282 0.011253
vt 0.004332 0.011584
vt 0.005213 0.008957
vt 0.014034 0.008377
vt 0.012282 0.011253
vt 0.005213 0.008957
vt 0.015468 0.006616
vt 0.014034 0.008377
vt 0.005213 0.008957
vt 0.015468 0.006616
vt 0.005213 0.008957
vt 0.006347 0.006467
vt 0.015468 0.006616
vt 0.006347 0.006467
vt 0.007718 0.004147
vt 0.017657 0.003361
vt 0.015468 0.006616
vt 0.007718 0.004147
vt 0.017657 0.003361
vt 0.007718 0.004147
vt 0.009308 0.002027
vt 0.017657 0.003361
vt 0.009308 0.002027
vt 0.010323 0.000861
vt 0.019250 -0.000340
vt 0.017657 0.003361
vt 0.010323 0.000861
vt 0.019250 -0.000340
vt 0.010323 0.000861
vt 0.011800 -0.001367
vt 0.019250 -0.000340
vt 0.011800 -0.001367
vt 0.012816 -0.003925
vt 0.020183 -0.004339
vt 0.019250 -0.000340
vt 0.012816 -0.003925
vt 0.020183 -0.004339
vt 0.012816 -0.003925
vt 0.013322 -0.006684
vt 0.020418 -0.008475
vt 0.020183 -0.004339
vt 0.013322 -0.006684
vt 0.020418 -0.008475
vt 0.013322 -0.006684
vt 0.013290 -0.009505
vt 0.024189 -0.008470
vt 0.020418 -0.008475
vt 0.013290 -0.009505
vt 0.024189 -0.008470
vt 0.013290 -0.009505
vt 0.013837 -0.011998
vt 0.024189 -0.008470
vt 0.013837 -0.011998
vt 0.015051 -0.014143
vt 0.024189 -0.008470
vt 0.015051 -0.014143
vt 0.016798 -0.015703
vt 0.024189 -0.008470
vt 0.016798 -0.015703
vt 0.018885 -0.016506
vt 0.026257 -0.029559
vt 0.024189 -0.008470
vt 0.018885 -0.016506
vt 0.026257 -0.029559
vt 0.018885 -0.016506
vt 0.021828 -0.036726
vt 0.031546 -0.049862
vt 0.026257 -0.029559
vt 0.021828 -0.036726
vt 0.031546 -0.049862
vt 0.021828 -0.036726
vt 0.027594 -0.056093
vt 0.039881 -0.068710
vt 0.031546 -0.049862
vt 0.027594 -0.056093
vt 0.039881 -0.068710
vt 0.027594 -0.056093
vt 0.036023 -0.074070
vt 0.050987 -0.085480
vt 0.039881 -0.068710
vt 0.036023 -0.074070
vt 0.050987 -0.085480
vt 0.036023 -0.074070
vt 0.046883 -0.090157
vt 0.064498 -0.099620
vt 0.050987 -0.085480
vt 0.046883 -0.090157
vt 0.064498 -0.099620
vt 0.046883 -0.090157
vt 0.059870 -0.103908
vt 0.079969 -0.110663
vt 0.064498 -0.099620
vt 0.059870 -0.103908
vt 0.079969 -0.110663
vt 0.059870 -0.103908
vt 0.074626 -0.114942
vt 0.096888 -0.118245
vt 0.079969 -0.110663
vt 0.074626 -0.114942
vt 0.114699 -0.122116
vt 0.096888 -0.118245
vt 0.074626 -0.114942
vt 0.114699 -0.122116
vt 0.074626 -0.114942
vt 0.090740 -0.122952
vt 0.114699 -0.122116
vt 0.090740 -0.122952
vt 0.107765 -0.127716
vt 0.114699 -0.122116
vt 0.107765 -0.127716
vt 0.108606 -0.128207
vt 0.114699 -0.122116
vt 0.108606 -0.128207
vt 0.109038 -0.129185
vt 0.114699 -0.122116
vt 0.109038 -0.129185
vt 0.109115 -0.130376
vt 0.114699 -0.130376
vt 0.114699 -0.122116
vt 0.109115 -0.130376
vt 0.114699 -0.130376
vt 0.109115 -0.130376
vt 0.109611 -0.132939
vt 0.141104 -0.130375
vt 0.114699 -0.130376
vt 0.109611 -0.132939
vt 0.141104 -0.130375
vt 0.109611 -0.132939
vt 0.110887 -0.135101
vt 0.141104 -0.130375
vt 0.110887 -0.135101
vt 0.112759 -0.136550
vt 0.141104 -0.130375
vt 0.112759 -0.136550
vt 0.130736 -0.137049
vt 0.130736 -0.137049
vt 0.112759 -0.136550
vt 0.114956 -0.137078
vt 0.141104 -0.130375
vt 0.130736 -0.137049
vt 0.132275 -0.137374
vt 0.141104 -0.130375
vt 0.132275 -0.137374
vt 0.133641 -0.138268
vt 0.141099 -0.139555
vt 0.141104 -0.130375
vt 0.133641 -0.138268
vt 0.141099 -0.139555
vt 0.133641 -0.138268
vt 0.134684 -0.139635
vt 0.150236 -0.139548
vt 0.141099 -0.139555
vt 0.134684 -0.139635
vt 0.150236 -0.139548
vt 0.134684 -0.139635
vt 0.135290 -0.141325
vt 0.150797 -0.142095
vt 0.150236 -0.139548
vt 0.135290 -0.141325
vt 0.150797 -0.142095
vt 0.135290 -0.141325
vt 0.135290 -0.142918
vt 0.150797 -0.142095
vt 0.135290 -0.142918
vt 0.135531 -0.144183
vt 0.151683 -0.144511
vt 0.150797 -0.142095
vt 0.135531 -0.144183
vt 0.151683 -0.144511
vt 0.135531 -0.144183
vt 0.136160 -0.145249
vt 0.151683 -0.144511
vt 0.136160 -0.145249
vt 0.137085 -0.145960
vt 0.151683 -0.144511
vt 0.137085 -0.145960
vt 0.138170 -0.146211
vt 0.151683 -0.144511
vt 0.138170 -0.146211
vt 0.144346 -0.146220
vt 0.151683 -0.144511
vt 0.144346 -0.146220
vt 0.145273 -0.146430
vt 0.152875 -0.146740
vt 0.151683 -0.144511
vt 0.145273 -0.146430
vt 0.152875 -0.146740
vt 0.145273 -0.146430
vt 0.146085 -0.146994
vt 0.152875 -0.146740
vt 0.146085 -0.146994
vt 0.146741 -0.147953
vt 0.154342 -0.148729
vt 0.152875 -0.146740
vt 0.146741 -0.147953
vt 0.156053 -0.150432
vt 0.154342 -0.148729
vt 0.146741 -0.147953
vt 0.156053 -0.150432
vt 0.146741 -0.147953
vt 0.148764 -0.151498
vt 0.157965 -0.151809
vt 0.156053 -0.150432
vt 0.148764 -0.151498
vt 0.157965 -0.151809
vt 0.148764 -0.151498
vt 0.149189 -0.152607
vt 0.160034 -0.152827
vt 0.157965 -0.151809
vt 0.149189 -0.152607
vt 0.162212 -0.153462
vt 0.160034 -0.152827
vt 0.149189 -0.152607
vt 0.162704 -0.153626
vt 0.162212 -0.153462
vt 0.149189 -0.152607
vt 0.162704 -0.153626
vt 0.149189 -0.152607
vt 0.149323 -0.153813
vt 0.163121 -0.153972
vt 0.162704 -0.153626
vt 0.149323 -0.153813
vt 0.163416 -0.154460
vt 0.163121 -0.153972
vt 0.149323 -0.153813
vt 0.163556 -0.155037
vt 0.163416 -0.154460
vt 0.149323 -0.153813
vt 0.156533 -0.165534
vt 0.163556 -0.155037
vt 0.149323 -0.153813
vt 0.155820 -0.165860
vt 0.156533 -0.165534
vt 0.149323 -0.153813
vt 0.163556 -0.155037
vt 0.156533 -0.165534
vt 0.157246 -0.165860
vt 0.155820 -0.165860
vt 0.149323 -0.153813
vt 0.149367 -0.166667
vt 0.155485 -0.166667
vt 0.155820 -0.165860
vt 0.149367 -0.166667
vt 0.163556 -0.166667
vt 0.157246 -0.165860
vt 0.157581 -0.166667
vt 0.163556 -0.155037
vt 0.157246 -0.165860
vt 0.163556 -0.166667
vt -0.000000 0.021385
vt -0.000000 0.024910
vt 0.213333 0.024910
vt 0.213333 0.021385
vt -0.000000 0.011687
vt -0.000000 0.000000
vt 0.213333 0.000000
vt 0.213333 0.011687
vt -0.000000 0.000000
vt -0.000000 0.000923
vt 0.213333 0.000923
vt 0.213333 0.000000
vt -0.000000 0.000923
vt -0.000000 0.001855
vt 0.213333 0.001855
vt 0.213333 0.000923
vt -0.000000 0.019082
vt -0.000000 0.018242
vt 0.213333 0.018242
vt 0.213333 0.019082
vt -0.000000 0.018242
vt -0.000000 0.017339
vt 0.213333 0.017339
vt 0.213333 0.018242
vt -0.000000 0.001793
vt -0.000000 0.000871
vt 0.213333 0.000871
vt 0.213333 0.001793
vt -0.000000 0.000871
vt -0.000000 0.000000
vt 0.213333 0.000000
vt 0.213333 0.000871
vt -0.000000 0.011584
vt -0.000000 0.008957
vt 0.213333 0.008957
vt 0.213333 0.011584
vt -0.000000 0.008957
vt -0.000000 0.006467
vt 0.213333 0.006467
vt 0.213333 0.008957
vt -0.000000 0.006467
vt -0.000000 0.004147
vt 0.213333 0.004147
vt 0.213333 0.006467
vt -0.000000 0.004147
vt -0.000000 0.002027
vt 0.213333 0.002027
vt 0.213333 0.004147
vt -0.000000 0.000861
vt -0.000000 -0.001367
vt 0.213333 -0.001367
vt 0.213333 0.000861
vt -0.000000 -0.001367
vt -0.000000 -0.003925
vt 0.213333 -0.003925
vt 0.213333 -0.001367
vt -0.000000 -0.003925
vt -0.000000 -0.006684
vt 0.213333 -0.006684
vt 0.213333 -0.003925
vt -0.000000 -0.006684
vt -0.000000 -0.009505
vt 0.213333 -0.009505
vt 0.213333 -0.006684
vt -0.000000 -0.009505
vt -0.000000 -0.011998
vt 0.213333 -0.011998
vt 0.213333 -0.009505
vt -0.000000 -0.011998
vt -0.000000 -0.014143
vt 0.213333 -0.014143
vt 0.213333 -0.011998
vt -0.000000 0.017638
vt -0.000000 0.019685
vt 0.213333 0.019685
vt 0.213333 0.017638
vt -0.000000 0.019685
vt -0.000000 0.022131
vt 0.213333 0.022131
vt 0.213333 0.019685
vt -0.000000 -0.016506
vt -0.000000 -0.036726
vt 0.213333 -0.036726
vt 0.213333 -0.016506
vt -0.000000 -0.036726
vt -0.000000 -0.056093
vt 0.213333 -0.056093
vt 0.213333 -0.036726
vt -0.000000 -0.056093
vt -0.000000 -0.074070
vt 0.213333 -0.074070
vt 0.213333 -0.056093
vt -0.000000 -0.074070
vt -0.000000 -0.090157
vt 0.213333 -0.090157
vt 0.213333 -0.074070
vt -0.000000 0.054941
vt -0.000000 0.070161
vt 0.213333 0.070161
vt 0.213333 0.054941
vt -0.000000 0.070161
vt -0.000000 0.087452
vt 0.213333 0.087452
vt 0.213333 0.070161
vt -0.000000 0.087452
vt -0.000000 0.106336
vt 0.213333 0.106336
vt 0.213333 0.087452
vt -0.000000 0.106336
vt -0.000000 0.126287
vt 0.213333 0.126287
vt 0.213333 0.106336
vt -0.000000 0.126287
vt -0.000000 0.127273
vt 0.213333 0.127273
vt 0.213333 0.126287
vt -0.000000 -0.128207
vt -0.000000 -0.129185
vt 0.213333 -0.129185
vt 0.213333 -0.128207
vt -0.000000 -0.130376
vt -0.000000 -0.132939
vt 0.213333 -0.132939
vt 0.213333 -0.130376
vt -0.000000 -0.132939
vt -0.000000 -0.135101
vt 0.213333 -0.135101
vt 0.213333 -0.132939
vt -0.000000 0.129946
vt -0.000000 0.132139
vt 0.213333 0.132139
vt 0.213333 0.129946
vt -0.000000 0.132139
vt -0.000000 0.134714
vt 0.213333 0.134714
vt 0.213333 0.132139
vt -0.000000 0.153206
vt -0.000000 0.155010
vt 0.213333 0.155010
vt 0.213333 0.153206
vt -0.000000 0.155010
vt -0.000000 0.156611
vt 0.213333 0.156611
vt 0.213333 0.155010
vt -0.000000 -0.138268
vt -0.000000 -0.139635
vt 0.213333 -0.139635
vt 0.213333 -0.138268
vt -0.000000 -0.139635
vt -0.000000 -0.141325
vt 0.213333 -0.141325
vt 0.213333 -0.139635
vt -0.000000 -0.142918
vt -0.000000 -0.144183
vt 0.213333 -0.144183
vt 0.213333 -0.142918
vt -0.000000 -0.144183
vt -0.000000 -0.145249
vt 0.213333 -0.145249
vt 0.213333 -0.144183
vt -0.000000 0.159562
vt -0.000000 0.160646
vt 0.213333 0.160646
vt 0.213333 0.159562
vt -0.000000 0.160646
vt -0.000000 0.161918
vt 0.213333 0.161918
vt 0.213333 0.160646
vt -0.000000 0.169156
vt -0.000000 0.170242
vt 0.213333 0.170242
vt 0.213333 0.169156
vt -0.000000 0.170242
vt -0.000000 0.171194
vt 0.213333 0.171194
vt 0.213333 0.170242
vt -0.000000 -0.146994
vt -0.000000 -0.147953
vt 0.213333 -0.147953
vt 0.213333 -0.146994
vt -0.000000 -0.151498
vt -0.000000 -0.152607
vt 0.213333 -0.152607
vt 0.213333 -0.151498
vt -0.000000 -0.152607
vt -0.000000 -0.153813
vt 0.213333 -0.153813
vt 0.213333 -0.152607
vt -0.000000 -0.166667
vt -0.000000 -0.165860
vt 0.213333 -0.165860
vt 0.213333 -0.166667
vt -0.000000 0.182602
vt -0.000000 0.183437
vt 0.213333 0.183437
vt 0.213333 0.182602
vt -0.000000 0.183437
vt -0.000000 0.184272
vt 0.213333 0.184272
vt 0.213333 0.183437
vt -0.000000 -0.165860
vt -0.000000 -0.166667
vt 0.213333 -0.166667
vt 0.213333 -0.165860
vt 0.000000 -0.155037
vt 0.000000 -0.154460
vt 0.213333 -0.154460
vt 0.213333 -0.155037
vt 0.000000 -0.154460
vt 0.000000 -0.153972
vt 0.213333 -0.153972
vt 0.213333 -0.154460
vt 0.000000 0.191157
vt 0.000000 0.190668
vt 0.213333 0.190668
vt 0.213333 0.191157
vt 0.000000 0.190668
vt 0.000000 0.190092
vt 0.213333 0.190092
vt 0.213333 0.190668
vt 0.000000 0.190092
vt -0.000000 0.187540
vt 0.213333 0.187540
vt 0.213333 0.190092
vt -0.000000 0.187540
vt -0.000000 0.185115
vt 0.213333 0.185115
vt 0.213333 0.187540
vt -0.000000 0.185115
vt -0.000000 0.182874
vt 0.213333 0.182874
vt 0.213333 0.185115
vt -0.000000 0.182874
vt -0.000000 0.180870
vt 0.213333 0.180870
vt 0.213333 0.182874
vt -0.000000 -0.148729
vt -0.000000 -0.146740
vt 0.213333 -0.146740
vt 0.213333 -0.148729
vt -0.000000 -0.146740
vt -0.000000 -0.144511
vt 0.213333 -0.144511
vt 0.213333 -0.146740
vt -0.000000 -0.144511
vt -0.000000 -0.142095
vt 0.213333 -0.142095
vt 0.213333 -0.144511
vt -0.000000 -0.142095
vt -0.000000 -0.139548
vt 0.213333 -0.139548
vt 0.213333 -0.142095
vt -0.000000 0.134413
vt -0.000000 0.113541
vt 0.213333 0.113541
vt 0.213333 0.134413
vt -0.000000 0.113541
vt -0.000000 0.093713
vt 0.213333 0.093713
vt 0.213333 0.113541
vt -0.000000 0.093713
vt -0.000000 0.075584
vt 0.213333 0.075584
vt 0.213333 0.093713
vt -0.000000 0.075584
vt -0.000000 0.059751
vt 0.213333 0.059751
vt 0.213333 0.075584
vt -0.000000 -0.085480
vt -0.000000 -0.068710
vt 0.213333 -0.068710
vt 0.213333 -0.085480
vt -0.000000 -0.068710
vt -0.000000 -0.049862
vt 0.213333 -0.049862
vt 0.213333 -0.068710
vt -0.000000 -0.049862
vt -0.000000 -0.029559
vt 0.213333 -0.029559
vt 0.213333 -0.049862
vt -0.000000 -0.029559
vt -0.000000 -0.008470
vt 0.213333 -0.008470
vt 0.213333 -0.029559
vt -0.000000 -0.008475
vt -0.000000 -0.004339
vt 0.213333 -0.004339
vt 0.213333 -0.008475
vt -0.000000 -0.004339
vt -0.000000 -0.000340
vt 0.213333 -0.000340
vt 0.213333 -0.004339
vt -0.000000 -0.000340
vt -0.000000 0.003361
vt 0.213333 0.003361
vt 0.213333 -0.000340
vt -0.000000 0.003361
vt -0.000000 0.006616
vt 0.213333 0.006616
vt 0.213333 0.003361
vt -0.000000 0.008377
vt -0.000000 0.011253
vt 0.213333 0.011253
vt 0.213333 0.008377
vt -0.000000 0.011253
vt -0.000000 0.014449
vt 0.213333 0.014449
vt 0.213333 0.011253
vt -0.000000 0.014449
vt -0.000000 0.017863
vt 0.213333 0.017863
vt 0.213333 0.014449
vt -0.000000 0.017863
vt -0.000000 0.021385
vt 0.213333 0.021385
vt 0.213333 0.017863
vt -0.000000 0.017423
vt 0.213333 0.017423
vt 0.213333 0.011580
vt -0.000000 0.011580
vt -0.000000 0.000000
vt 0.213333 0.000000
vt 0.213333 0.005076
vt -0.000000 0.005076
vt -0.000000 0.010908
vt 0.213333 0.010908
vt 0.213333 0.012098
vt -0.000000 0.012098
vt -0.000000 -0.129185
vt 0.213333 -0.129185
vt 0.213333 -0.130376
vt -0.000000 -0.130376
vt -0.000000 0.134714
vt 0.213333 0.134714
vt 0.213333 0.153206
vt -0.000000 0.153206
vt -0.000000 -0.141325
vt 0.213333 -0.141325
vt 0.213333 -0.142918
vt -0.000000 -0.142918
vt -0.000000 0.161918
vt 0.213333 0.161918
vt 0.213333 0.169156
vt -0.000000 0.169156
vt -0.000000 -0.147953
vt 0.213333 -0.147953
vt 0.213333 -0.151498
vt -0.000000 -0.151498
vt -0.000000 -0.153813
vt 0.213333 -0.153813
vt 0.213333 -0.166667
vt -0.000000 -0.166667
vt -0.000000 0.175039
vt 0.213333 0.175039
vt 0.213333 0.182209
vt -0.000000 0.182209
vt -0.000000 0.184665
vt 0.213333 0.184665
vt 0.213333 0.191667
vt 0.000000 0.191667
vt 0.000000 -0.166667
vt 0.213333 -0.166667
vt 0.213333 -0.155037
vt 0.000000 -0.155037
vt -0.000000 0.176058
vt 0.213333 0.176058
vt 0.213333 0.165350
vt -0.000000 0.165350
vt -0.000000 -0.139555
vt 0.213333 -0.139555
vt 0.213333 -0.130375
vt -0.000000 -0.130375
vt -0.000000 0.165356
vt 0.213333 0.165356
vt 0.213333 0.134413
vt -0.000000 0.134413
vt -0.000000 -0.130376
vt 0.213333 -0.130376
vt 0.213333 -0.122116
vt -0.000000 -0.122116
vt -0.000000 0.028347
vt 0.213333 0.028347
vt 0.213333 0.023927
vt -0.000000 0.023927
vt -0.000000 0.006616
vt 0.213333 0.006616
vt 0.213333 0.008377
vt -0.000000 0.008377
vt -0.000000 0.024920
vt 0.213333 0.024920
vt 0.213333 0.019062
vt -0.000000 0.019062
vt 0.000000 0.024920
vt 0.009973 0.024910
vt 0.009970 0.021385
vt 0.000000 0.024920
vt 0.009970 0.021385
vt 0.000787 0.019487
vt 0.001583 0.019082
vt 0.000787 0.019487
vt 0.009970 0.021385
vt 0.000000 0.019062
vt 0.000000 0.024920
vt 0.000787 0.019487
vt 0.001861 0.018242
vt 0.001583 0.019082
vt 0.009970 0.021385
vt 0.001861 0.018242
vt 0.009970 0.021385
vt 0.010217 0.017863
vt 0.001530 0.017339
vt 0.001861 0.018242
vt 0.010217 0.017863
vt 0.000743 0.016999
vt 0.001530 0.017339
vt 0.010217 0.017863
vt 0.000743 0.016999
vt 0.010217 0.017863
vt 0.010995 0.014449
vt 0.000743 0.016999
vt 0.010995 0.014449
vt 0.004332 0.011584
vt 0.000000 0.017423
vt 0.000743 0.016999
vt 0.004332 0.011584
vt 0.000000 0.011580
vt 0.000000 0.017423
vt 0.004332 0.011584
vt 0.004332 0.011584
vt 0.010995 0.014449
vt 0.012282 0.011253
vt 0.005213 0.008957
vt 0.004332 0.011584
vt 0.012282 0.011253
vt 0.005213 0.008957
vt 0.012282 0.011253
vt 0.014034 0.008377
vt 0.005213 0.008957
vt 0.014034 0.008377
vt 0.015468 0.006616
vt 0.006347 0.006467
vt 0.005213 0.008957
vt 0.015468 0.006616
vt 0.007718 0.004147
vt 0.006347 0.006467
vt 0.015468 0.006616
vt 0.007718 0.004147
vt 0.015468 0.006616
vt 0.017657 0.003361
vt 0.009308 0.002027
vt 0.007718 0.004147
vt 0.017657 0.003361
vt 0.010323 0.000861
vt 0.009308 0.002027
vt 0.017657 0.003361
vt 0.010323 0.000861
vt 0.017657 0.003361
vt 0.019250 -0.000340
vt 0.011800 -0.001367
vt 0.010323 0.000861
vt 0.019250 -0.000340
vt 0.012816 -0.003925
vt 0.011800 -0.001367
vt 0.019250 -0.000340
vt 0.012816 -0.003925
vt 0.019250 -0.000340
vt 0.020183 -0.004339
vt 0.013322 -0.006684
vt 0.012816 -0.003925
vt 0.020183 -0.004339
vt 0.013322 -0.006684
vt 0.020183 -0.004339
vt 0.020418 -0.008475
vt 0.013290 -0.009505
vt 0.013322 -0.006684
vt 0.020418 -0.008475
vt 0.013290 -0.009505
vt 0.020418 -0.008475
vt 0.024189 -0.008470
vt 0.013837 -0.011998
vt 0.013290 -0.009505
vt 0.024189 -0.008470
vt 0.015051 -0.014143
vt 0.013837 -0.011998
vt 0.024189 -0.008470
vt 0.016798 -0.015703
vt 0.015051 -0.014143
vt 0.024189 -0.008470
vt 0.018885 -0.016506
vt 0.016798 -0.015703
vt 0.024189 -0.008470
vt 0.018885 -0.016506
vt 0.024189 -0.008470
vt 0.026257 -0.029559
vt 0.021828 -0.036726
vt 0.018885 -0.016506
vt 0.026257 -0.029559
vt 0.021828 -0.036726
vt 0.026257 -0.029559
vt 0.031546 -0.049862
vt 0.027594 -0.056093
vt 0.021828 -0.036726
vt 0.031546 -0.049862
vt 0.027594 -0.056093
vt 0.031546 -0.049862
vt 0.039881 -0.068710
vt 0.036023 -0.074070
vt 0.027594 -0.056093
vt 0.039881 -0.068710
vt 0.036023 -0.074070
vt 0.039881 -0.068710
vt 0.050987 -0.085480
vt 0.046883 -0.090157
vt 0.036023 -0.074070
vt 0.050987 -0.085480
vt 0.046883 -0.090157
vt 0.050987 -0.085480
vt 0.064498 -0.099620
vt 0.059870 -0.103908
vt 0.046883 -0.090157
vt 0.064498 -0.099620
vt 0.059870 -0.103908
vt 0.064498 -0.099620
vt 0.079969 -0.110663
vt 0.074626 -0.114942
vt 0.059870 -0.103908
vt 0.079969 -0.110663
vt 0.074626 -0.114942
vt 0.079969 -0.110663
vt 0.096888 -0.118245
vt 0.074626 -0.114942
vt 0.096888 -0.118245
vt 0.114699 -0.122116
vt 0.090740 -0.122952
vt 0.074626 -0.114942
vt 0.114699 -0.122116
vt 0.107765 -0.127716
vt 0.090740 -0.122952
vt 0.114699 -0.122116
vt 0.108606 -0.128207
vt 0.107765 -0.127716
vt 0.114699 -0.122116
vt 0.109038 -0.129185
vt 0.108606 -0.128207
vt 0.114699 -0.122116
vt 0.109115 -0.130376
vt 0.109038 -0.129185
vt 0.114699 -0.122116
vt 0.109115 -0.130376
vt 0.114699 -0.122116
vt 0.114699 -0.130376
vt 0.109611 -0.132939
vt 0.109115 -0.130376
vt 0.114699 -0.130376
vt 0.109611 -0.132939
vt 0.114699 -0.130376
vt 0.141104 -0.130375
vt 0.110887 -0.135101
vt 0.109611 -0.132939
vt 0.141104 -0.130375
vt 0.112759 -0.136550
vt 0.110887 -0.135101
vt 0.141104 -0.130375
vt 0.130736 -0.137049
vt 0.112759 -0.136550
vt 0.141104 -0.130375
vt 0.114956 -0.137078
vt 0.112759 -0.136550
vt 0.130736 -0.137049
vt 0.132275 -0.137374
vt 0.130736 -0.137049
vt 0.141104 -0.130375
vt 0.133641 -0.138268
vt 0.132275 -0.137374
vt 0.141104 -0.130375
vt 0.133641 -0.138268
vt 0.141104 -0.130375
vt 0.141099 -0.139555
vt 0.134684 -0.139635
vt 0.133641 -0.138268
vt 0.141099 -0.139555
vt 0.134684 -0.139635
vt 0.141099 -0.139555
vt 0.150236 -0.139548
vt 0.135290 -0.141325
vt 0.134684 -0.139635
vt 0.150236 -0.139548
vt 0.135290 -0.141325
vt 0.150236 -0.139548
vt 0.150797 -0.142095
vt 0.135290 -0.142918
vt 0.135290 -0.141325
vt 0.150797 -0.142095
vt 0.135531 -0.144183
vt 0.135290 -0.142918
vt 0.150797 -0.142095
vt 0.135531 -0.144183
vt 0.150797 -0.142095
vt 0.151683 -0.144511
vt 0.136160 -0.145249
vt 0.135531 -0.144183
vt 0.151683 -0.144511
vt 0.137085 -0.145960
vt 0.136160 -0.145249
vt 0.151683 -0.144511
vt 0.138170 -0.146211
vt 0.137085 -0.145960
vt 0.151683 -0.144511
vt 0.144346 -0.146220
vt 0.138170 -0.146211
vt 0.151683 -0.144511
vt 0.145273 -0.146430
vt 0.144346 -0.146220
vt 0.151683 -0.144511
vt 0.145273 -0.146430
vt 0.151683 -0.144511
vt 0.152875 -0.146740
vt 0.146085 -0.146994
vt 0.145273 -0.146430
vt 0.152875 -0.146740
vt 0.146741 -0.147953
vt 0.146085 -0.146994
vt 0.152875 -0.146740
vt 0.146741 -0.147953
vt 0.152875 -0.146740
vt 0.154342 -0.148729
vt 0.146741 -0.147953
vt 0.154342 -0.148729
vt 0.156053 -0.150432
vt 0.148764 -0.151498
vt 0.146741 -0.147953
vt 0.156053 -0.150432
vt 0.148764 -0.151498
vt 0.156053 -0.150432
vt 0.157965 -0.151809
vt 0.149189 -0.152607
vt 0.148764 -0.151498
vt 0.157965 -0.151809
vt 0.149189 -0.152607
vt 0.157965 -0.151809
vt 0.160034 -0.152827
vt 0.149189 -0.152607
vt 0.160034 -0.152827
vt 0.162212 -0.153462
vt 0.149189 -0.152607
vt 0.162212 -0.153462
vt 0.162704 -0.153626
vt 0.149323 -0.153813
vt 0.149189 -0.152607
vt 0.162704 -0.153626
vt 0.149323 -0.153813
vt 0.162704 -0.153626
vt 0.163121 -0.153972
vt 0.149323 -0.153813
vt 0.163121 -0.153972
vt 0.163416 -0.154460
vt 0.149323 -0.153813
vt 0.163416 -0.154460
vt 0.163556 -0.155037
vt 0.149323 -0.153813
vt 0.163556 -0.155037
vt 0.156533 -0.165534
vt 0.149323 -0.153813
vt 0.156533 -0.165534
vt 0.155820 -0.165860
vt 0.157246 -0.165860
vt 0.156533 -0.165534
vt 0.163556 -0.155037
vt 0.149367 -0.166667
vt 0.149323 -0.153813
vt 0.155820 -0.165860
vt 0.149367 -0.166667
vt 0.155820 -0.165860
vt 0.155485 -0.166667
vt 0.157581 -0.166667
vt 0.157246 -0.165860
vt 0.163556 -0.166667
vt 0.163556 -0.166667
vt 0.157246 -0.165860
vt 0.163556 -0.155037
vt -0.000000 0.021385
vt 0.213333 0.021385
vt 0.213333 0.024910
vt -0.000000 0.024910
vt -0.000000 0.011687
vt 0.213333 0.011687
vt 0.213333 0.000000
vt -0.000000 0.000000
vt -0.000000 0.000000
vt 0.213333 0.000000
vt 0.213333 0.000923
vt -0.000000 0.000923
vt -0.000000 0.000923
vt 0.213333 0.000923
vt 0.213333 0.001855
vt -0.000000 0.001855
vt -0.000000 0.019082
vt 0.213333 0.019082
vt 0.213333 0.018242
vt -0.000000 0.018242
vt -0.000000 0.018242
vt 0.213333 0.018242
vt 0.213333 0.017339
vt -0.000000 0.017339
vt -0.000000 0.001793
vt 0.213333 0.001793
vt 0.213333 0.000871
vt -0.000000 0.000871
vt -0.000000 0.000871
vt 0.213333 0.000871
vt 0.213333 0.000000
vt -0.000000 0.000000
vt -0.000000 0.011584
vt 0.213333 0.011584
vt 0.213333 0.008957
vt -0.000000 0.008957
vt -0.000000 0.008957
vt 0.213333 0.008957
vt 0.213333 0.006467
vt -0.000000 0.006467
vt -0.000000 0.006467
vt 0.213333 0.006467
vt 0.213333 0.004147
vt -0.000000 0.004147
vt -0.000000 0.004147
vt 0.213333 0.004147
vt 0.213333 0.002027
vt -0.000000 0.002027
vt -0.000000 0.000861
vt 0.213333 0.000861
vt 0.213333 -0.001367
vt -0.000000 -0.001367
vt -0.000000 -0.001367
vt 0.213333 -0.001367
vt 0.213333 -0.003925
vt -0.000000 -0.003925
vt -0.000000 -0.003925
vt 0.213333 -0.003925
vt 0.213333 -0.006684
vt -0.000000 -0.006684
vt -0.000000 -0.006684
vt 0.213333 -0.006684
vt 0.213333 -0.009505
vt -0.000000 -0.009505
vt -0.000000 -0.009505
vt 0.213333 -0.009505
vt 0.213333 -0.011998
vt -0.000000 -0.011998
vt -0.000000 -0.011998
vt 0.213333 -0.011998
vt 0.213333 -0.014143
vt -0.000000 -0.014143
vt -0.000000 0.017638
vt 0.213333 0.017638
vt 0.213333 0.019685
vt -0.000000 0.019685
vt -0.000000 0.019685
vt 0.213333 0.019685
vt 0.213333 0.022131
vt -0.000000 0.022131
vt -0.000000 -0.016506
vt 0.213333 -0.016506
vt 0.213333 -0.036726
vt -0.000000 -0.036726
vt -0.000000 -0.036726
vt 0.213333 -0.036726
vt 0.213333 -0.056093
vt -0.000000 -0.056093
vt -0.000000 -0.056093
vt 0.213333 -0.056093
vt 0.213333 -0.074070
vt -0.000000 -0.074070
vt -0.000000 -0.074070
vt 0.213333 -0.074070
vt 0.213333 -0.090157
vt -0.000000 -0.090157
vt -0.000000 0.054941
vt 0.213333 0.054941
vt 0.213333 0.070161
vt -0.000000 0.070161
vt -0.000000 0.070161
vt 0.213333 0.070161
vt 0.213333 0.087452
vt -0.000000 0.087452
vt -0.000000 0.087452
vt 0.213333 0.087452
vt 0.213333 0.106336
vt -0.000000 0.106336
vt -0.000000 0.106336
vt 0.213333 0.106336
vt 0.213333 0.126287
vt -0.000000 0.126287
vt -0.000000 0.126287
vt 0.213333 0.126287
vt 0.213333 0.127273
vt -0.000000 0.127273
vt -0.000000 -0.128207
vt 0.213333 -0.128207
vt 0.213333 -0.129185
vt -0.000000 -0.129185
vt -0.000000 -0.130376
vt 0.213333 -0.130376
vt 0.213333 -0.132939
vt -0.000000 -0.132939
vt -0.000000 -0.132939
vt 0.213333 -0.132939
vt 0.213333 -0.135101
vt -0.000000 -0.135101
vt -0.000000 0.129946
vt 0.213333 0.129946
vt 0.213333 0.132139
vt -0.000000 0.132139
vt -0.000000 0.132139
vt 0.213333 0.132139
vt 0.213333 0.134714
vt -0.000000 0.134714
vt -0.000000 0.153206
vt 0.213333 0.153206
vt 0.213333 0.155010
vt -0.000000 0.155010
vt -0.000000 0.155010
vt 0.213333 0.155010
vt 0.213333 0.156611
vt -0.000000 0.156611
vt -0.000000 -0.138268
vt 0.213333 -0.138268
vt 0.213333 -0.139635
vt -0.000000 -0.139635
vt -0.000000 -0.139635
vt 0.213333 -0.139635
vt 0.213333 -0.141325
vt -0.000000 -0.141325
vt -0.000000 -0.142918
vt 0.213333 -0.142918
vt 0.213333 -0.144183
vt -0.000000 -0.144183
vt -0.000000 -0.144183
vt 0.213333 -0.144183
vt 0.213333 -0.145249
vt -0.000000 -0.145249
vt -0.000000 0.159562
vt 0.213333 0.159562
vt 0.213333 0.160646
vt -0.000000 0.160646
vt -0.000000 0.160646
vt 0.213333 0.160646
vt 0.213333 0.161918
vt -0.000000 0.161918
vt -0.000000 0.169156
vt 0.213333 0.169156
vt 0.213333 0.170242
vt -0.000000 0.170242
vt -0.000000 0.170242
vt 0.213333 0.170242
vt 0.213333 0.171194
vt -0.000000 0.171194
vt -0.000000 -0.146994
vt 0.213333 -0.146994
vt 0.213333 -0.147953
vt -0.000000 -0.147953
vt -0.000000 -0.151498
vt 0.213333 -0.151498
vt 0.213333 -0.152607
vt -0.000000 -0.152607
vt -0.000000 -0.152607
vt 0.213333 -0.152607
vt 0.213333 -0.153813
vt -0.000000 -0.153813
vt -0.000000 -0.166667
vt 0.213333 -0.166667
vt 0.213333 -0.165860
vt -0.000000 -0.165860
vt -0.000000 0.182602
vt 0.213333 0.182602
vt 0.213333 0.183437
vt -0.000000 0.183437
vt -0.000000 0.183437
vt 0.213333 0.183437
vt 0.213333 0.184272
vt -0.000000 0.184272
vt -0.000000 -0.165860
vt 0.213333 -0.165860
vt 0.213333 -0.166667
vt -0.000000 -0.166667
vt 0.000000 -0.155037
vt 0.213333 -0.155037
vt 0.213333 -0.154460
vt 0.000000 -0.154460
vt 0.000000 -0.154460
vt 0.213333 -0.154460
vt 0.213333 -0.153972
vt 0.000000 -0.153972
vt 0.000000 0.191157
vt 0.213333 0.191157
vt 0.213333 0.190668
vt 0.000000 0.190668
vt 0.000000 0.190668
vt 0.213333 0.190668
vt 0.213333 0.190092
vt 0.000000 0.190092
vt 0.000000 0.190092
vt 0.213333 0.190092
vt 0.213333 0.187540
vt -0.000000 0.187540
vt -0.000000 0.187540
vt 0.213333 0.187540
vt 0.213333 0.185115
vt -0.000000 0.185115
vt -0.000000 0.185115
vt 0.213333 0.185115
vt 0.213333 0.182874
vt -0.000000 0.182874
vt -0.000000 0.182874
vt 0.213333 0.182874
vt 0.213333 0.180870
vt -0.000000 0.180870
vt -0.000000 -0.148729
vt 0.213333 -0.148729
vt 0.213333 -0.146740
vt -0.000000 -0.146740
vt -0.000000 -0.146740
vt 0.213333 -0.146740
vt 0.213333 -0.144511
vt -0.000000 -0.144511
vt -0.000000 -0.144511
vt 0.213333 -0.144511
vt 0.213333 -0.142095
vt -0.000000 -0.142095
vt -0.000000 -0.142095
vt 0.213333 -0.142095
vt 0.213333 -0.139548
vt -0.000000 -0.139548
vt -0.000000 0.134413
vt 0.213333 0.134413
vt 0.213333 0.113541
vt -0.000000 0.113541
vt -0.000000 0.113541
vt 0.213333 0.113541
vt 0.213333 0.093713
vt -0.000000 0.093713
vt -0.000000 0.093713
vt 0.213333 0.093713
vt 0.213333 0.075584
vt -0.000000 0.075584
vt -0.000000 0.075584
vt 0.213333 0.075584
vt 0.213333 0.059751
vt -0.000000 0.059751
vt -0.000000 -0.085480
vt 0.213333 -0.085480
vt 0.213333 -0.068710
vt -0.000000 -0.068710
vt -0.000000 -0.068710
vt 0.213333 -0.068710
vt 0.213333 -0.049862
vt -0.000000 -0.049862
vt -0.000000 -0.049862
vt 0.213333 -0.049862
vt 0.213333 -0.029559
vt -0.000000 -0.029559
vt -0.000000 -0.029559
vt 0.213333 -0.029559
vt 0.213333 -0.008470
vt -0.000000 -0.008470
vt -0.000000 -0.008475
vt 0.213333 -0.008475
vt 0.213333 -0.004339
vt -0.000000 -0.004339
vt -0.000000 -0.004339
vt 0.213333 -0.004339
vt 0.213333 -0.000340
vt -0.000000 -0.000340
vt -0.000000 -0.000340
vt 0.213333 -0.000340
vt 0.213333 0.003361
vt -0.000000 0.003361
vt -0.000000 0.003361
vt 0.213333 0.003361
vt 0.213333 0.006616
vt -0.000000 0.006616
vt -0.000000 0.008377
vt 0.213333 0.008377
vt 0.213333 0.011253
vt -0.000000 0.011253
vt -0.000000 0.011253
vt 0.213333 0.011253
vt 0.213333 0.014449
vt -0.000000 0.014449
vt -0.000000 0.014449
vt 0.213333 0.014449
vt 0.213333 0.017863
vt -0.000000 0.017863
vt -0.000000 0.017863
vt 0.213333 0.017863
vt 0.213333 0.021385
vt -0.000000 0.021385
g obj0
#Face Count: 388
f 1/1 4/2 3/3 2/4
f 4/5 6/6 5/7 3/8
f 7/9 10/10 9/11 8/12
f 11/13 14/14 13/15 12/16
f 15/17 18/18 17/19 16/20
f 19/21 22/22 21/23 20/24
f 23/25 26/26 25/27 24/28
f 27/29 30/30 29/31 28/32
f 31/33 34/34 33/35 32/36
f 34/37 36/38 35/39 33/40
f 37/41 40/42 39/43 38/44
f 40/45 42/46 41/47 39/48
f 43/49 46/50 45/51 44/52
f 46/53 48/54 47/55 45/56
f 48/57 50/58 49/59 47/60
f 50/61 52/62 51/63 49/64
f 53/65 56/66 55/67 54/68
f 57/69 60/70 59/71 58/72
f 63/73 64/74 130/75 129/76
f 132/77 131/78 129/79
f 196/80 132/81 129/82
f 132/83 196/84 195/85
f 196/86 129/87 130/88
f 132/89 195/90 194/91
f 133/92 132/93 194/94
f 133/95 194/96 193/97
f 133/98 193/99 192/100
f 134/101 133/102 192/103
f 5/104 134/105 192/106
f 5/107 192/108 2/109
f 5/110 2/111 3/112
f 135/113 134/114 5/115
f 135/116 5/117 191/118
f 59/119 135/120 191/121
f 58/122 59/123 191/124
f 58/125 191/126 190/127
f 58/128 190/129 189/130
f 136/131 58/132 189/133
f 136/134 189/135 8/136
f 136/137 8/138 9/139
f 137/140 136/141 9/142
f 137/143 9/144 188/145
f 137/146 188/147 187/148
f 138/149 137/150 187/151
f 138/152 187/153 186/154
f 55/155 138/156 186/157
f 55/158 186/159 185/160
f 54/161 55/162 185/163
f 54/164 185/165 184/166
f 54/167 184/168 183/169
f 54/170 183/171 182/172
f 54/173 182/174 181/175
f 139/176 54/177 181/178
f 139/179 181/180 180/181
f 140/182 139/183 180/184
f 140/185 180/186 179/187
f 141/188 140/189 179/190
f 141/191 179/192 178/193
f 142/194 141/195 178/196
f 142/197 178/198 177/199
f 143/200 142/201 177/202
f 143/203 177/204 176/205
f 144/206 143/207 176/208
f 144/209 176/210 175/211
f 145/212 144/213 175/214
f 51/215 145/216 175/217
f 51/218 175/219 174/220
f 51/221 174/222 173/223
f 51/224 173/225 172/226
f 51/227 172/228 12/229
f 51/230 12/231 13/232
f 49/233 51/234 13/235
f 49/236 13/237 171/238
f 47/239 49/240 171/241
f 47/242 171/243 170/244
f 47/245 170/246 169/247
f 47/248 169/249 17/250
f 17/251 169/252 16/253
f 47/254 17/255 168/256
f 47/257 168/258 167/259
f 45/260 47/261 167/262
f 45/263 167/264 166/265
f 44/266 45/267 166/268
f 44/269 166/270 20/271
f 146/272 44/273 20/274
f 146/275 20/276 21/277
f 146/278 21/279 165/280
f 147/281 146/282 165/283
f 147/284 165/285 164/286
f 147/287 164/288 163/289
f 147/290 163/291 24/292
f 147/293 24/294 25/295
f 147/296 25/297 162/298
f 148/299 147/300 162/301
f 148/302 162/303 161/304
f 148/305 161/306 28/307
f 149/308 148/309 28/310
f 150/311 149/312 28/313
f 150/314 28/315 29/316
f 151/317 150/318 29/319
f 151/320 29/321 160/322
f 152/323 151/324 160/325
f 153/326 152/327 160/328
f 154/329 153/330 160/331
f 154/332 160/333 32/334
f 155/335 154/336 32/337
f 156/338 155/339 32/340
f 41/341 156/342 32/343
f 158/344 41/345 32/346
f 159/347 158/348 32/349
f 41/350 158/351 157/352
f 159/353 32/354 33/355
f 35/356 159/357 33/358
f 39/359 157/360 38/361
f 41/362 157/363 39/364
f 61/365 62/366 131/367 132/368
f 62/369 63/370 129/371 131/372
f 64/373 65/374 196/375 130/376
f 65/377 66/378 195/379 196/380
f 66/381 67/382 194/383 195/384
f 67/385 68/386 193/387 194/388
f 68/389 69/390 192/391 193/392
f 69/393 1/394 2/395 192/396
f 6/397 70/398 191/399 5/400
f 70/401 71/402 190/403 191/404
f 71/405 72/406 189/407 190/408
f 72/409 7/410 8/411 189/412
f 10/413 73/414 188/415 9/416
f 73/417 74/418 187/419 188/420
f 74/421 75/422 186/423 187/424
f 75/425 76/426 185/427 186/428
f 76/429 77/430 184/431 185/432
f 77/433 78/434 183/435 184/436
f 78/437 79/438 182/439 183/440
f 79/441 80/442 181/443 182/444
f 80/445 81/446 180/447 181/448
f 81/449 82/450 179/451 180/452
f 82/453 83/454 178/455 179/456
f 83/457 84/458 177/459 178/460
f 84/461 85/462 176/463 177/464
f 85/465 86/466 175/467 176/468
f 86/469 87/470 174/471 175/472
f 87/473 88/474 173/475 174/476
f 88/477 89/478 172/479 173/480
f 89/481 11/482 12/483 172/484
f 14/485 90/486 171/487 13/488
f 90/489 91/490 170/491 171/492
f 91/493 92/494 169/495 170/496
f 92/497 15/498 16/499 169/500
f 18/501 93/502 168/503 17/504
f 93/505 94/506 167/507 168/508
f 94/509 95/510 166/511 167/512
f 95/513 19/514 20/515 166/516
f 22/517 96/518 165/519 21/520
f 96/521 97/522 164/523 165/524
f 97/525 98/526 163/527 164/528
f 98/529 23/530 24/531 163/532
f 26/533 99/534 162/535 25/536
f 99/537 100/538 161/539 162/540
f 100/541 27/542 28/543 161/544
f 30/545 101/546 160/547 29/548
f 101/549 31/550 32/551 160/552
f 36/553 102/554 159/555 35/556
f 102/557 103/558 158/559 159/560
f 103/561 104/562 157/563 158/564
f 104/565 37/566 38/567 157/568
f 42/569 105/570 156/571 41/572
f 105/573 106/574 155/575 156/576
f 106/577 107/578 154/579 155/580
f 107/581 108/582 153/583 154/584
f 108/585 109/586 152/587 153/588
f 109/589 110/590 151/591 152/592
f 110/593 111/594 150/595 151/596
f 111/597 112/598 149/599 150/600
f 112/601 113/602 148/603 149/604
f 113/605 114/606 147/607 148/608
f 114/609 115/610 146/611 147/612
f 115/613 43/614 44/615 146/616
f 52/617 116/618 145/619 51/620
f 116/621 117/622 144/623 145/624
f 117/625 118/626 143/627 144/628
f 118/629 119/630 142/631 143/632
f 119/633 120/634 141/635 142/636
f 120/637 121/638 140/639 141/640
f 121/641 122/642 139/643 140/644
f 122/645 53/646 54/647 139/648
f 56/649 123/650 138/651 55/652
f 123/653 124/654 137/655 138/656
f 124/657 125/658 136/659 137/660
f 125/661 57/662 58/663 136/664
f 60/665 126/666 135/667 59/668
f 126/669 127/670 134/671 135/672
f 127/673 128/674 133/675 134/676
f 128/677 61/678 132/679 133/680
f 1/681 197/682 198/683 4/684
f 4/685 198/686 199/687 6/688
f 7/689 200/690 201/691 10/692
f 11/693 202/694 203/695 14/696
f 15/697 204/698 205/699 18/700
f 19/701 206/702 207/703 22/704
f 23/705 208/706 209/707 26/708
f 27/709 210/710 211/711 30/712
f 31/713 212/714 213/715 34/716
f 34/717 213/718 214/719 36/720
f 37/721 215/722 216/723 40/724
f 40/725 216/726 217/727 42/728
f 43/729 218/730 219/731 46/732
f 46/733 219/734 220/735 48/736
f 48/737 220/738 221/739 50/740
f 50/741 221/742 222/743 52/744
f 53/745 223/746 224/747 56/748
f 57/749 225/750 226/751 60/752
f 63/753 227/754 228/755 64/756
f 227/757 229/758 230/759
f 227/760 230/761 294/762
f 293/763 294/764 230/765
f 228/766 227/767 294/768
f 292/769 293/770 230/771
f 292/772 230/773 231/774
f 291/775 292/776 231/777
f 290/778 291/779 231/780
f 290/781 231/782 232/783
f 290/784 232/785 199/786
f 197/787 290/788 199/789
f 198/790 197/791 199/792
f 199/793 232/794 233/795
f 289/796 199/797 233/798
f 289/799 233/800 226/801
f 289/802 226/803 225/804
f 288/805 289/806 225/807
f 287/808 288/809 225/810
f 287/811 225/812 234/813
f 200/814 287/815 234/816
f 201/817 200/818 234/819
f 201/820 234/821 235/822
f 286/823 201/824 235/825
f 285/826 286/827 235/828
f 285/829 235/830 236/831
f 284/832 285/833 236/834
f 284/835 236/836 224/837
f 283/838 284/839 224/840
f 283/841 224/842 223/843
f 282/844 283/845 223/846
f 281/847 282/848 223/849
f 280/850 281/851 223/852
f 279/853 280/854 223/855
f 279/856 223/857 237/858
f 278/859 279/860 237/861
f 278/862 237/863 238/864
f 277/865 278/866 238/867
f 277/868 238/869 239/870
f 276/871 277/872 239/873
f 276/874 239/875 240/876
f 275/877 276/878 240/879
f 275/880 240/881 241/882
f 274/883 275/884 241/885
f 274/886 241/887 242/888
f 273/889 274/890 242/891
f 273/892 242/893 243/894
f 273/895 243/896 222/897
f 272/898 273/899 222/900
f 271/901 272/902 222/903
f 270/904 271/905 222/906
f 202/907 270/908 222/909
f 203/910 202/911 222/912
f 203/913 222/914 221/915
f 269/916 203/917 221/918
f 269/919 221/920 220/921
f 268/922 269/923 220/924
f 267/925 268/926 220/927
f 205/928 267/929 220/930
f 204/931 267/932 205/933
f 266/934 205/935 220/936
f 265/937 266/938 220/939
f 265/940 220/941 219/942
f 264/943 265/944 219/945
f 264/946 219/947 218/948
f 206/949 264/950 218/951
f 206/952 218/953 244/954
f 207/955 206/956 244/957
f 263/958 207/959 244/960
f 263/961 244/962 245/963
f 262/964 263/965 245/966
f 261/967 262/968 245/969
f 208/970 261/971 245/972
f 209/973 208/974 245/975
f 260/976 209/977 245/978
f 260/979 245/980 246/981
f 259/982 260/983 246/984
f 210/985 259/986 246/987
f 210/988 246/989 247/990
f 210/991 247/992 248/993
f 211/994 210/995 248/996
f 211/997 248/998 249/999
f 258/1000 211/1001 249/1002
f 258/1003 249/1004 250/1005
f 258/1006 250/1007 251/1008
f 258/1009 251/1010 252/1011
f 212/1012 258/1013 252/1014
f 212/1015 252/1016 253/1017
f 212/1018 253/1019 254/1020
f 212/1021 254/1022 217/1023
f 212/1024 217/1025 256/1026
f 212/1027 256/1028 257/1029
f 255/1030 256/1031 217/1032
f 213/1033 212/1034 257/1035
f 213/1036 257/1037 214/1038
f 215/1039 255/1040 216/1041
f 216/1042 255/1043 217/1044
f 61/1045 230/1046 229/1047 62/1048
f 62/1049 229/1050 227/1051 63/1052
f 64/1053 228/1054 294/1055 65/1056
f 65/1057 294/1058 293/1059 66/1060
f 66/1061 293/1062 292/1063 67/1064
f 67/1065 292/1066 291/1067 68/1068
f 68/1069 291/1070 290/1071 69/1072
f 69/1073 290/1074 197/1075 1/1076
f 6/1077 199/1078 289/1079 70/1080
f 70/1081 289/1082 288/1083 71/1084
f 71/1085 288/1086 287/1087 72/1088
f 72/1089 287/1090 200/1091 7/1092
f 10/1093 201/1094 286/1095 73/1096
f 73/1097 286/1098 285/1099 74/1100
f 74/1101 285/1102 284/1103 75/1104
f 75/1105 284/1106 283/1107 76/1108
f 76/1109 283/1110 282/1111 77/1112
f 77/1113 282/1114 281/1115 78/1116
f 78/1117 281/1118 280/1119 79/1120
f 79/1121 280/1122 279/1123 80/1124
f 80/1125 279/1126 278/1127 81/1128
f 81/1129 278/1130 277/1131 82/1132
f 82/1133 277/1134 276/1135 83/1136
f 83/1137 276/1138 275/1139 84/1140
f 84/1141 275/1142 274/1143 85/1144
f 85/1145 274/1146 273/1147 86/1148
f 86/1149 273/1150 272/1151 87/1152
f 87/1153 272/1154 271/1155 88/1156
f 88/1157 271/1158 270/1159 89/1160
f 89/1161 270/1162 202/1163 11/1164
f 14/1165 203/1166 269/1167 90/1168
f 90/1169 269/1170 268/1171 91/1172
f 91/1173 268/1174 267/1175 92/1176
f 92/1177 267/1178 204/1179 15/1180
f 18/1181 205/1182 266/1183 93/1184
f 93/1185 266/1186 265/1187 94/1188
f 94/1189 265/1190 264/1191 95/1192
f 95/1193 264/1194 206/1195 19/1196
f 22/1197 207/1198 263/1199 96/1200
f 96/1201 263/1202 262/1203 97/1204
f 97/1205 262/1206 261/1207 98/1208
f 98/1209 261/1210 208/1211 23/1212
f 26/1213 209/1214 260/1215 99/1216
f 99/1217 260/1218 259/1219 100/1220
f 100/1221 259/1222 210/1223 27/1224
f 30/1225 211/1226 258/1227 101/1228
f 101/1229 258/1230 212/1231 31/1232
f 36/1233 214/1234 257/1235 102/1236
f 102/1237 257/1238 256/1239 103/1240
f 103/1241 256/1242 255/1243 104/1244
f 104/1245 255/1246 215/1247 37/1248
f 42/1249 217/1250 254/1251 105/1252
f 105/1253 254/1254 253/1255 106/1256
f 106/1257 253/1258 252/1259 107/1260
f 107/1261 252/1262 251/1263 108/1264
f 108/1265 251/1266 250/1267 109/1268
f 109/1269 250/1270 249/1271 110/1272
f 110/1273 249/1274 248/1275 111/1276
f 111/1277 248/1278 247/1279 112/1280
f 112/1281 247/1282 246/1283 113/1284
f 113/1285 246/1286 245/1287 114/1288
f 114/1289 245/1290 244/1291 115/1292
f 115/1293 244/1294 218/1295 43/1296
f 52/1297 222/1298 243/1299 116/1300
f 116/1301 243/1302 242/1303 117/1304
f 117/1305 242/1306 241/1307 118/1308
f 118/1309 241/1310 240/1311 119/1312
f 119/1313 240/1314 239/1315 120/1316
f 120/1317 239/1318 238/1319 121/1320
f 121/1321 238/1322 237/1323 122/1324
f 122/1325 237/1326 223/1327 53/1328
f 56/1329 224/1330 236/1331 123/1332
f 123/1333 236/1334 235/1335 124/1336
f 124/1337 235/1338 234/1339 125/1340
f 125/1341 234/1342 225/1343 57/1344
f 60/1345 226/1346 233/1347 126/1348
f 126/1349 233/1350 232/1351 127/1352
f 127/1353 232/1354 231/1355 128/1356
f 128/1357 231/1358 230/1359 61/1360
